<svg xmlns="http://www.w3.org/2000/svg" version="1.1" width="724" height="1024">
<rect x="0" y="0" width="724" height="1024" fill="#917b8a" />
<g transform="scale(4.000000) translate(0.5 0.5)">
<g transform="translate(108.253552 12.933183) rotate(377.460868) scale(180.000000 51.630530)"><ellipse fill="#63ebff" fill-opacity="0.501961" cx="0" cy="0" rx="1" ry="1" /></g>
<ellipse fill="#5c0011" fill-opacity="0.501961" cx="27" cy="132" rx="34" ry="84" />
<polygon fill="#f8f8f8" fill-opacity="0.501961" points="119,9 64,108 139,200" />
<g transform="translate(180.000000 167.885512) rotate(185.898322) scale(44.893588 92.616930)"><ellipse fill="#6a0e1e" fill-opacity="0.501961" cx="0" cy="0" rx="1" ry="1" /></g>
<g transform="translate(122.459205 189.355480) rotate(210.375897) scale(17.400266 35.664216)"><ellipse fill="#ffff69" fill-opacity="0.501961" cx="0" cy="0" rx="1" ry="1" /></g>
<g transform="translate(27.262682 231.099896) rotate(394.843596) scale(37.239374 120.659697)"><ellipse fill="#ae473b" fill-opacity="0.501961" cx="0" cy="0" rx="1" ry="1" /></g>
<polygon fill="#861225" fill-opacity="0.501961" points="41,53 93,29 66,113" />
<g transform="translate(158.535956 25.516265) rotate(44.524000) scale(56.568279 86.420155)"><ellipse fill="#7db2fe" fill-opacity="0.501961" cx="0" cy="0" rx="1" ry="1" /></g>
<g transform="translate(10 41) rotate(294) scale(90 16)"><rect fill="#85ecff" fill-opacity="0.501961" x="-0.5" y="-0.5" width="1" height="1" /></g>
<g transform="translate(91.597694 240.771430) rotate(246.541536) scale(65.124019 20.344050)"><ellipse fill="#ebb270" fill-opacity="0.501961" cx="0" cy="0" rx="1" ry="1" /></g>
<polygon fill="#f2f6ef" fill-opacity="0.501961" points="57.203600,123.223332,75.567326,163.038699,83.034855,148.296282,91.998975,81.386852" />
<ellipse fill="#57caff" fill-opacity="0.501961" cx="45" cy="13" rx="62" ry="22" />
<g transform="translate(113.102670 131.300733) rotate(155.402356) scale(13.797643 24.884352)"><ellipse fill="#ffffff" fill-opacity="0.501961" cx="0" cy="0" rx="1" ry="1" /></g>
<polygon fill="#ffd791" fill-opacity="0.501961" points="29.375807,230.026550,-0.544836,203.686927,55.791378,219.019059,50.105540,234.836505" />
<g transform="translate(6.094597 250.513761) rotate(324.073562) scale(24.546149 35.713381)"><ellipse fill="#470a22" fill-opacity="0.501961" cx="0" cy="0" rx="1" ry="1" /></g>
<g transform="translate(93 170) rotate(245) scale(42 31)"><rect fill="#791c2c" fill-opacity="0.501961" x="-0.5" y="-0.5" width="1" height="1" /></g>
<g transform="translate(143.503857 130.496644) rotate(336.632795) scale(15.070100 22.946389)"><ellipse fill="#7d2535" fill-opacity="0.501961" cx="0" cy="0" rx="1" ry="1" /></g>
<g transform="translate(140.707002 213.419397) rotate(318.627674) scale(43.274798 20.163645)"><ellipse fill="#61325d" fill-opacity="0.501961" cx="0" cy="0" rx="1" ry="1" /></g>
<g transform="translate(177.092263 10.327531) rotate(-39.150381) scale(33.444449 108.249933)"><ellipse fill="#39c7ff" fill-opacity="0.501961" cx="0" cy="0" rx="1" ry="1" /></g>
<g transform="translate(125.174257 166.391617) rotate(223.263748) scale(29.597593 10.569415)"><ellipse fill="#fff478" fill-opacity="0.501961" cx="0" cy="0" rx="1" ry="1" /></g>
<g transform="translate(106.143069 37.962511) rotate(384.038467) scale(11.894500 49.107345)"><ellipse fill="#b992b7" fill-opacity="0.501961" cx="0" cy="0" rx="1" ry="1" /></g>
<polygon fill="#881937" fill-opacity="0.501961" points="18,48 43,53 28,22" />
<ellipse fill="#3b0331" fill-opacity="0.501961" cx="59" cy="207" rx="24" ry="6" />
<g transform="translate(14 148) rotate(161) scale(74 96)"><rect fill="#5e2646" fill-opacity="0.501961" x="-0.5" y="-0.5" width="1" height="1" /></g>
<polygon fill="#bf9dbb" fill-opacity="0.501961" points="185,73 147,45 121,120" />
<g transform="translate(113.800672 202.912667) rotate(221.699900) scale(10.186897 27.889909)"><ellipse fill="#ffeb88" fill-opacity="0.501961" cx="0" cy="0" rx="1" ry="1" /></g>
<ellipse fill="#fece6b" fill-opacity="0.501961" cx="106" cy="255" rx="50" ry="10" />
<polygon fill="#680833" fill-opacity="0.501961" points="72,250 80,219 91,246" />
<g transform="translate(87 136) rotate(-158) scale(22 23)"><rect fill="#9d4260" fill-opacity="0.501961" x="-0.5" y="-0.5" width="1" height="1" /></g>
<polygon fill="#ffb397" fill-opacity="0.501961" points="188.320797,234.110061,196.000000,200.884479,159.151515,206.712936,196.000000,230.183982" />
<polygon fill="#eeffff" fill-opacity="0.501961" points="62.470362,126.107923,113.776919,111.469429,143.465546,169.686858,70.285722,92.359373" />
<polygon fill="#7a3445" fill-opacity="0.501961" points="163,217 196,45 131,137" />
<g transform="translate(9.006555 39.857840) rotate(184.222271) scale(12.641897 17.716752)"><ellipse fill="#aad3ff" fill-opacity="0.501961" cx="0" cy="0" rx="1" ry="1" /></g>
<polygon fill="#5ed5ff" fill-opacity="0.501961" points="130,96 114,46 157,-16" />
<rect fill="#ffa597" fill-opacity="0.501961" x="45" y="187" width="38" height="12" />
<g transform="translate(180.000000 184.675281) rotate(-14.585744) scale(26.831620 18.855375)"><ellipse fill="#3a1534" fill-opacity="0.501961" cx="0" cy="0" rx="1" ry="1" /></g>
<g transform="translate(77 151) rotate(30) scale(11 14)"><rect fill="#ffff7b" fill-opacity="0.501961" x="-0.5" y="-0.5" width="1" height="1" /></g>
<g transform="translate(55.791259 13.891869) rotate(194.063883) scale(25.083659 36.549839)"><ellipse fill="#75c3ff" fill-opacity="0.501961" cx="0" cy="0" rx="1" ry="1" /></g>
<polygon fill="#c87e7d" fill-opacity="0.501961" points="169.614576,119.464241,151.266011,108.919553,130.348385,124.430825,152.820264,86.574370" />
<rect fill="#fff695" fill-opacity="0.501961" x="83" y="198" width="10" height="30" />
<polygon fill="#fff999" fill-opacity="0.501961" points="74,245 78,209 68,216" />
<polygon fill="#d9e3f1" fill-opacity="0.501961" points="52.288569,138.971191,88.135705,125.647556,98.235092,86.308546,59.337385,123.515295" />
<polygon fill="#68385f" fill-opacity="0.501961" points="135.568177,260.443430,124.839579,267.563950,131.908929,188.102794,161.925975,199.513066" />
<polygon fill="#ffcd86" fill-opacity="0.501961" points="137,199 85,181 128,212" />
<rect fill="#a5a2cd" fill-opacity="0.501961" x="86" y="55" width="38" height="51" />
<polygon fill="#c388b1" fill-opacity="0.501961" points="66,46 63,12 46,51" />
<polygon fill="#fad38a" fill-opacity="0.501961" points="54.538795,220.227587,50.192485,227.951044,36.801781,233.181505,24.354162,205.486408" />
<polygon fill="#b25a5b" fill-opacity="0.501961" points="29.075117,220.386613,22.339196,159.752457,-1.812865,180.698501,36.918205,214.561819" />
<polygon fill="#601442" fill-opacity="0.501961" points="59,207 73,231 52,219" />
<g transform="translate(107 138) rotate(253) scale(17 15)"><rect fill="#ffffff" fill-opacity="0.501961" x="-0.5" y="-0.5" width="1" height="1" /></g>
<g transform="translate(71.979956 59.272588) rotate(171.563128) scale(15.270156 16.478815)"><ellipse fill="#7e394b" fill-opacity="0.501961" cx="0" cy="0" rx="1" ry="1" /></g>
<rect fill="#777296" fill-opacity="0.501961" x="98" y="224" width="40" height="21" />
<rect fill="#793345" fill-opacity="0.501961" x="6" y="58" width="57" height="64" />
<g transform="translate(67.154995 143.077696) rotate(331.777973) scale(4.434469 16.640444)"><ellipse fill="#f4a978" fill-opacity="0.501961" cx="0" cy="0" rx="1" ry="1" /></g>
<g transform="translate(127.548018 170.522937) rotate(326.335440) scale(14.592333 19.876951)"><ellipse fill="#ffe87f" fill-opacity="0.501961" cx="0" cy="0" rx="1" ry="1" /></g>
<ellipse fill="#9c596d" fill-opacity="0.501961" cx="31" cy="59" rx="6" ry="28" />
<ellipse fill="#863141" fill-opacity="0.501961" cx="37" cy="238" rx="27" ry="6" />
<polygon fill="#68e4ff" fill-opacity="0.501961" points="164,46 184,59 165,84" />
<ellipse fill="#d4b2d3" fill-opacity="0.501961" cx="0" cy="53" rx="7" ry="31" />
<polygon fill="#fff486" fill-opacity="0.501961" points="115,229 85,233 89,241" />
<polygon fill="#110018" fill-opacity="0.501961" points="-12,242 -6,271 18,249" />
<rect fill="#bab8dc" fill-opacity="0.501961" x="72" y="94" width="74" height="16" />
<polygon fill="#16041d" fill-opacity="0.501961" points="-10,94 18,133 -15,124" />
<polygon fill="#a65762" fill-opacity="0.501961" points="100.318205,145.028986,96.536980,103.983386,86.730899,129.242048,83.498362,189.096320" />
<g transform="translate(81 171) rotate(246) scale(26 15)"><rect fill="#692130" fill-opacity="0.501961" x="-0.5" y="-0.5" width="1" height="1" /></g>
<polygon fill="#8d434c" fill-opacity="0.501961" points="143,122 150,91 181,176" />
<ellipse fill="#fffe74" fill-opacity="0.501961" cx="69" cy="241" rx="5" ry="5" />
<polygon fill="#92475d" fill-opacity="0.501961" points="126.675068,119.140608,120.900584,101.076868,137.118936,109.632832,132.994923,142.107490" />
<ellipse fill="#5ac7ff" fill-opacity="0.501961" cx="53" cy="0" rx="58" ry="26" />
<g transform="translate(153 54) rotate(213) scale(15 34)"><rect fill="#a189bc" fill-opacity="0.501961" x="-0.5" y="-0.5" width="1" height="1" /></g>
<g transform="translate(162.873893 242.005592) rotate(310.082489) scale(15.369892 44.570036)"><ellipse fill="#58385e" fill-opacity="0.501961" cx="0" cy="0" rx="1" ry="1" /></g>
<polygon fill="#7f4651" fill-opacity="0.501961" points="68.756017,255.991315,40.640343,234.241635,50.010262,238.138311,82.145685,249.788615" />
<polygon fill="#ffff8d" fill-opacity="0.501961" points="126,248 106,271 113,243" />
<polygon fill="#68e2ff" fill-opacity="0.501961" points="131,90 114,84 135,48" />
<rect fill="#643c50" fill-opacity="0.501961" x="92" y="143" width="7" height="69" />
<g transform="translate(46 73) rotate(33) scale(15 28)"><rect fill="#412146" fill-opacity="0.501961" x="-0.5" y="-0.5" width="1" height="1" /></g>
<g transform="translate(10 212) rotate(111) scale(11 44)"><rect fill="#e3726a" fill-opacity="0.501961" x="-0.5" y="-0.5" width="1" height="1" /></g>
<polygon fill="#f19080" fill-opacity="0.501961" points="80.896294,186.945136,66.067585,158.888333,64.641783,194.770157,42.717812,187.630714" />
<ellipse fill="#6f3857" fill-opacity="0.501961" cx="41" cy="155" rx="25" ry="25" />
<polygon fill="#fffd8b" fill-opacity="0.501961" points="53,257 107,245 96,271" />
<polygon fill="#994549" fill-opacity="0.501961" points="54,133 78,74 40,82" />
<g transform="translate(101.147438 228.144714) rotate(354.942804) scale(16.030444 3.419738)"><ellipse fill="#655886" fill-opacity="0.501961" cx="0" cy="0" rx="1" ry="1" /></g>
<rect fill="#4ccbff" fill-opacity="0.501961" x="6" y="21" width="15" height="19" />
<g transform="translate(84 99) rotate(230) scale(21 29)"><rect fill="#cdddf1" fill-opacity="0.501961" x="-0.5" y="-0.5" width="1" height="1" /></g>
<g transform="translate(74.207314 203.511651) rotate(21.951413) scale(4.393213 8.781757)"><ellipse fill="#842e41" fill-opacity="0.501961" cx="0" cy="0" rx="1" ry="1" /></g>
<g transform="translate(116.777146 130.587670) rotate(157.398688) scale(11.456744 21.089633)"><ellipse fill="#f0ffff" fill-opacity="0.501961" cx="0" cy="0" rx="1" ry="1" /></g>
<polygon fill="#be6f75" fill-opacity="0.501961" points="88.428566,29.031460,29.368230,63.199953,79.804591,38.570072,85.958620,58.869669" />
<polygon fill="#ffffa2" fill-opacity="0.501961" points="144,248 158,257 126,271" />
<polygon fill="#9b4b74" fill-opacity="0.501961" points="115,148 106,150 112,143" />
<rect fill="#ffb498" fill-opacity="0.501961" x="49" y="230" width="19" height="4" />
<polygon fill="#a15c78" fill-opacity="0.501961" points="82,122 69,142 92,146" />
<polygon fill="#c4cce5" fill-opacity="0.501961" points="132.679386,10.569040,125.092744,4.843753,113.997776,32.944185,119.631272,38.959128" />
<polygon fill="#552743" fill-opacity="0.501961" points="-16.000000,200.749967,12.839191,204.034756,-16.000000,125.257084,43.962334,116.731572" />
<polygon fill="#c4c2e2" fill-opacity="0.501961" points="-16.000000,36.472673,10.362310,23.816389,8.195304,12.024326,-16.000000,13.484032" />
<rect fill="#c86261" fill-opacity="0.501961" x="50" y="128" width="9" height="12" />
<g transform="translate(74 119) rotate(145) scale(36 7)"><rect fill="#e0ffff" fill-opacity="0.501961" x="-0.5" y="-0.5" width="1" height="1" /></g>
<polygon fill="#aaa1ca" fill-opacity="0.501961" points="114,95 167,80 114,119" />
<polygon fill="#74364b" fill-opacity="0.501961" points="147.276450,168.579446,196.000000,188.925752,129.605565,111.400402,129.469431,141.075263" />
<polygon fill="#a64655" fill-opacity="0.501961" points="131,191 150,183 138,211" />
<g transform="translate(29.669141 194.857173) rotate(61.242966) scale(23.003566 4.273565)"><ellipse fill="#5e2c49" fill-opacity="0.501961" cx="0" cy="0" rx="1" ry="1" /></g>
<polygon fill="#ffe781" fill-opacity="0.501961" points="143,171 106,221 98,195" />
<rect fill="#f59d8c" fill-opacity="0.501961" x="162" y="204" width="19" height="8" />
<rect fill="#ff9c80" fill-opacity="0.501961" x="156" y="100" width="6" height="11" />
<rect fill="#fee68c" fill-opacity="0.501961" x="35" y="215" width="18" height="15" />
<g transform="translate(26 203) rotate(335) scale(2 25)"><rect fill="#f9a58d" fill-opacity="0.501961" x="-0.5" y="-0.5" width="1" height="1" /></g>
<rect fill="#677a9b" fill-opacity="0.501961" x="153" y="251" width="28" height="5" />
<rect fill="#51bcff" fill-opacity="0.501961" x="164" y="0" width="17" height="66" />
<polygon fill="#713343" fill-opacity="0.501961" points="100,192 79,180 87,197" />
<polygon fill="#622534" fill-opacity="0.501961" points="26.307035,128.200043,53.120821,171.623552,41.565333,75.713447,15.537981,125.129987" />
<polygon fill="#e0847b" fill-opacity="0.501961" points="22,85 26,74 38,70" />
<polygon fill="#fee58a" fill-opacity="0.501961" points="137,151 106,150 143,193" />
<polygon fill="#ffcf8e" fill-opacity="0.501961" points="130,242 154,253 147,261" />
<ellipse fill="#6f3554" fill-opacity="0.501961" cx="25" cy="45" rx="5" ry="17" />
<polygon fill="#bbc8e2" fill-opacity="0.501961" points="160.708194,66.104758,151.412603,93.027654,158.027598,97.422631,176.050265,70.342651" />
<g transform="translate(29.982248 246.731642) rotate(49.924141) scale(38.762601 5.185662)"><ellipse fill="#92464f" fill-opacity="0.501961" cx="0" cy="0" rx="1" ry="1" /></g>
<g transform="translate(106.818085 75.384414) rotate(192.583756) scale(9.317900 17.634569)"><ellipse fill="#a392bb" fill-opacity="0.501961" cx="0" cy="0" rx="1" ry="1" /></g>
<polygon fill="#a24951" fill-opacity="0.501961" points="47,202 87,210 73,196" />
<polygon fill="#b76965" fill-opacity="0.501961" points="176.265222,71.139434,156.521166,97.796780,129.144051,127.458935,196.000000,58.890582" />
<g transform="translate(108 174) rotate(257) scale(24 7)"><rect fill="#8a344a" fill-opacity="0.501961" x="-0.5" y="-0.5" width="1" height="1" /></g>
<polygon fill="#ffffff" fill-opacity="0.501961" points="3,69 -12,91 2,80" />
<polygon fill="#e4d8e5" fill-opacity="0.501961" points="-10.188315,31.779621,-13.689187,39.651128,20.084387,47.016198,10.600081,57.721571" />
<rect fill="#7f1f4a" fill-opacity="0.501961" x="106" y="249" width="4" height="7" />
<polygon fill="#69dbff" fill-opacity="0.501961" points="50,27 42,50 32,20" />
<polygon fill="#fbec7f" fill-opacity="0.501961" points="72.210820,152.903552,91.531317,146.989547,68.491275,144.307062,66.356515,152.494024" />
<polygon fill="#d88179" fill-opacity="0.501961" points="78,246 55,252 40,245" />
<ellipse fill="#fbe18f" fill-opacity="0.501961" cx="89" cy="214" rx="25" ry="3" />
<polygon fill="#56bfff" fill-opacity="0.501961" points="148,-16 113,52 196,16" />
<polygon fill="#ce7276" fill-opacity="0.501961" points="117.370560,222.769816,116.304794,213.427439,118.007236,207.050125,145.935522,194.322513" />
<polygon fill="#63ccff" fill-opacity="0.501961" points="113,-16 95,-16 88,44" />
<ellipse fill="#370e2d" fill-opacity="0.501961" cx="145" cy="218" rx="9" ry="6" />
<g transform="translate(54.588937 37.216688) rotate(126.675137) scale(19.283977 4.581382)"><ellipse fill="#a9a0cb" fill-opacity="0.501961" cx="0" cy="0" rx="1" ry="1" /></g>
<polygon fill="#744060" fill-opacity="0.501961" points="27.821730,91.505957,25.006132,45.204736,6.610242,61.060481,3.013174,78.783454" />
<polygon fill="#e6fbff" fill-opacity="0.501961" points="73.436547,136.704575,66.686450,112.287229,60.944578,121.919241,70.510530,138.241344" />
<polygon fill="#7d3f45" fill-opacity="0.501961" points="81,68 76,89 60,104" />
<polygon fill="#7f3b4f" fill-opacity="0.501961" points="96,246 75,247 78,229" />
<g transform="translate(166 230) rotate(188) scale(26 31)"><rect fill="#863e4d" fill-opacity="0.501961" x="-0.5" y="-0.5" width="1" height="1" /></g>
<polygon fill="#64c8ff" fill-opacity="0.501961" points="81.290250,7.401375,94.110296,11.600019,97.667106,20.663490,59.029046,47.872236" />
<g transform="translate(146 64) rotate(263) scale(27 16)"><rect fill="#958bbf" fill-opacity="0.501961" x="-0.5" y="-0.5" width="1" height="1" /></g>
<polygon fill="#bcb4d4" fill-opacity="0.501961" points="125.615220,61.142486,127.098094,52.410121,123.120399,48.602815,99.998539,86.008405" />
<polygon fill="#331a37" fill-opacity="0.501961" points="53,210 46,204 28,213" />
<polygon fill="#7d4157" fill-opacity="0.501961" points="85.079726,72.485431,79.796495,79.711408,31.630915,62.412897,81.484436,38.470988" />
<polygon fill="#39234a" fill-opacity="0.501961" points="164.611412,188.646398,147.208376,205.824806,146.166711,207.453744,196.000000,199.324543" />
<polygon fill="#edbf74" fill-opacity="0.501961" points="82.447353,183.781013,137.933831,204.402494,117.184059,190.355183,81.158908,181.484190" />
<polygon fill="#91454b" fill-opacity="0.501961" points="25.269074,185.656014,1.631756,203.015086,-16.000000,192.944480,26.462820,152.989127" />
<g transform="translate(170 141) rotate(24) scale(29 27)"><rect fill="#964750" fill-opacity="0.501961" x="-0.5" y="-0.5" width="1" height="1" /></g>
<polygon fill="#bf6974" fill-opacity="0.501961" points="83,135 73,125 74,138" />
<polygon fill="#5f2e44" fill-opacity="0.501961" points="67.367604,247.537092,58.890980,240.240044,70.429396,236.454446,37.839793,239.397645" />
<polygon fill="#8e4f64" fill-opacity="0.501961" points="22.330441,36.573129,37.991699,77.300940,43.635642,53.970064,29.287648,25.504222" />
<ellipse fill="#a9a0c9" fill-opacity="0.501961" cx="99" cy="50" rx="14" ry="18" />
<ellipse fill="#5d283f" fill-opacity="0.501961" cx="0" cy="93" rx="22" ry="10" />
<g transform="translate(113 138) rotate(-19) scale(27 10)"><rect fill="#faffff" fill-opacity="0.501961" x="-0.5" y="-0.5" width="1" height="1" /></g>
<polygon fill="#72638c" fill-opacity="0.501961" points="127.116772,228.193415,150.695907,242.332337,93.695746,244.888193,140.362725,217.037703" />
<polygon fill="#e0bd7b" fill-opacity="0.501961" points="79.739939,247.206271,89.853938,247.112198,91.690068,231.041268,79.159454,271.000000" />
<g transform="translate(58.839450 193.207695) rotate(28.378825) scale(13.081534 3.574115)"><ellipse fill="#f4a68f" fill-opacity="0.501961" cx="0" cy="0" rx="1" ry="1" /></g>
<polygon fill="#843f53" fill-opacity="0.501961" points="135,141 148,184 170,171" />
<rect fill="#706073" fill-opacity="0.501961" x="82" y="220" width="12" height="2" />
<polygon fill="#994d59" fill-opacity="0.501961" points="85.234654,32.239502,69.126773,39.211544,54.977489,91.702253,86.952056,45.619977" />
<polygon fill="#632f44" fill-opacity="0.501961" points="153.112129,150.043468,192.521742,174.882248,145.981645,155.845976,147.172701,94.695031" />
<polygon fill="#e6f2f8" fill-opacity="0.501961" points="129.027738,131.979395,111.050995,137.701033,92.538169,104.531821,125.793101,118.659850" />
<ellipse fill="#5a3256" fill-opacity="0.501961" cx="4" cy="144" rx="45" ry="15" />
<polygon fill="#f8fdf5" fill-opacity="0.501961" points="124.261790,129.485299,135.587889,153.743579,118.241884,152.011681,100.489290,128.952511" />
<polygon fill="#cce4f2" fill-opacity="0.501961" points="67.068446,101.396511,96.515622,107.697187,85.239103,113.439620,67.344510,125.259311" />
<rect fill="#80324d" fill-opacity="0.501961" x="53" y="220" width="17" height="7" />
<polygon fill="#331941" fill-opacity="0.501961" points="-16,177 -13,193 22,150" />
<rect fill="#69224a" fill-opacity="0.501961" x="63" y="249" width="16" height="4" />
<rect fill="#ebfbfe" fill-opacity="0.501961" x="85" y="107" width="5" height="21" />
<ellipse fill="#c96354" fill-opacity="0.501961" cx="135" cy="110" rx="7" ry="3" />
<polygon fill="#803e52" fill-opacity="0.501961" points="139.291022,190.576544,170.977365,196.914161,129.246239,200.328271,132.904486,188.553368" />
<polygon fill="#431c2f" fill-opacity="0.501961" points="72,64 74,70 86,60" />
<polygon fill="#ffed8e" fill-opacity="0.501961" points="87,231 112,231 93,238" />
<polygon fill="#f9df8e" fill-opacity="0.501961" points="135.485992,159.673898,101.525638,145.958170,102.822448,156.520058,105.095730,163.411887" />
<rect fill="#9c4a4e" fill-opacity="0.501961" x="17" y="231" width="21" height="17" />
<polygon fill="#57759e" fill-opacity="0.501961" points="100,202 93,200 94,190" />
<polygon fill="#863d4f" fill-opacity="0.501961" points="46.978961,130.637614,60.397562,168.079491,77.996027,155.260956,42.175794,156.481342" />
<polygon fill="#471b30" fill-opacity="0.501961" points="196.000000,204.996526,171.700783,201.680037,172.427130,171.198409,143.901589,185.300461" />
<ellipse fill="#98414d" fill-opacity="0.501961" cx="79" cy="228" rx="3" ry="13" />
<polygon fill="#9f9fc9" fill-opacity="0.501961" points="136.551943,107.266126,83.798479,54.700566,113.588111,40.221741,77.858333,79.771239" />
<g transform="translate(180 88) rotate(228) scale(20 25)"><rect fill="#854258" fill-opacity="0.501961" x="-0.5" y="-0.5" width="1" height="1" /></g>
<polygon fill="#f8e178" fill-opacity="0.501961" points="102.749187,195.357478,105.512725,188.066503,133.499411,180.814258,96.171272,212.759319" />
<polygon fill="#92414b" fill-opacity="0.501961" points="72,56 65,113 36,106" />
<polygon fill="#732a37" fill-opacity="0.501961" points="95.680878,171.644224,79.485071,186.599260,66.478107,157.369676,100.473922,186.239666" />
<polygon fill="#f3d093" fill-opacity="0.501961" points="134.974961,199.122575,94.464822,206.520188,125.277056,196.218620,125.359091,214.134329" />
<polygon fill="#7b405f" fill-opacity="0.501961" points="22.532084,183.117928,24.595824,143.979526,51.193052,171.143181,52.817361,186.446483" />
<rect fill="#fedf85" fill-opacity="0.501961" x="109" y="245" width="16" height="11" />
<polygon fill="#f7df82" fill-opacity="0.501961" points="88.160120,216.985099,148.008071,181.386496,101.899493,149.005416,126.732429,198.225991" />
<g transform="translate(88 134) rotate(297) scale(26 6)"><rect fill="#995e7e" fill-opacity="0.501961" x="-0.5" y="-0.5" width="1" height="1" /></g>
<rect fill="#a191c2" fill-opacity="0.501961" x="58" y="17" width="6" height="29" />
<polygon fill="#ba7b83" fill-opacity="0.501961" points="47.637869,56.067485,28.019115,53.510961,31.750885,62.131208,48.997800,45.043939" />
<polygon fill="#9587b7" fill-opacity="0.501961" points="-4.955462,23.734861,3.873527,10.535454,-16.000000,58.010259,7.198788,71.781579" />
<g transform="translate(96 223) rotate(250) scale(2 23)"><rect fill="#fff797" fill-opacity="0.501961" x="-0.5" y="-0.5" width="1" height="1" /></g>
<polygon fill="#bddff4" fill-opacity="0.501961" points="178.105407,63.385154,161.326836,77.126986,196.000000,63.905091,196.000000,108.328563" />
<rect fill="#654872" fill-opacity="0.501961" x="104" y="223" width="51" height="8" />
<g transform="translate(33 255) rotate(281) scale(6 39)"><rect fill="#61355c" fill-opacity="0.501961" x="-0.5" y="-0.5" width="1" height="1" /></g>
<polygon fill="#a34052" fill-opacity="0.501961" points="133.834974,248.929656,113.638116,262.564872,131.203498,271.000000,140.123377,252.122469" />
<polygon fill="#9c4751" fill-opacity="0.501961" points="71.930390,175.988580,86.009631,150.867540,88.892244,130.661501,95.415543,164.582010" />
<polygon fill="#48213e" fill-opacity="0.501961" points="35.831322,89.357802,37.727351,63.810184,39.138210,73.165783,62.705923,58.681400" />
<g transform="translate(145.526128 95.726168) rotate(286.591463) scale(14.027209 2.071695)"><ellipse fill="#b8c4e0" fill-opacity="0.501961" cx="0" cy="0" rx="1" ry="1" /></g>
<polygon fill="#c87b84" fill-opacity="0.501961" points="91.817473,136.214149,96.373320,144.125425,101.993567,128.047467,93.042780,118.475182" />
<rect fill="#ffe07f" fill-opacity="0.501961" x="58" y="249" width="5" height="7" />
<polygon fill="#f9f3ad" fill-opacity="0.501961" points="133,168 143,179 144,168" />
<polygon fill="#823342" fill-opacity="0.501961" points="101,192 81,194 97,186" />
<g transform="translate(44 195) rotate(145) scale(8 16)"><rect fill="#a55b6e" fill-opacity="0.501961" x="-0.5" y="-0.5" width="1" height="1" /></g>
<rect fill="#e08b8b" fill-opacity="0.501961" x="60" y="131" width="8" height="11" />
<g transform="translate(58 244) rotate(303) scale(4 12)"><rect fill="#3a2f50" fill-opacity="0.501961" x="-0.5" y="-0.5" width="1" height="1" /></g>
<polygon fill="#ffef89" fill-opacity="0.501961" points="82,146 67,152 80,155" />
<polygon fill="#502646" fill-opacity="0.501961" points="171,251 193,226 158,248" />
<polygon fill="#712f35" fill-opacity="0.501961" points="-5,179 27,210 0,199" />
<ellipse fill="#c5786b" fill-opacity="0.501961" cx="17" cy="215" rx="31" ry="3" />
<polygon fill="#e5887b" fill-opacity="0.501961" points="34.882744,227.461160,23.990317,231.423440,18.553780,223.266775,17.732130,208.826888" />
<rect fill="#1c3747" fill-opacity="0.501961" x="95" y="196" width="2" height="15" />
<g transform="translate(19 174) rotate(118) scale(31 3)"><rect fill="#b55553" fill-opacity="0.501961" x="-0.5" y="-0.5" width="1" height="1" /></g>
<polygon fill="#c3bad3" fill-opacity="0.501961" points="112.578539,113.684987,68.278184,101.760796,74.643729,95.033383,131.386456,106.620557" />
<rect fill="#e89689" fill-opacity="0.501961" x="81" y="119" width="4" height="17" />
<polygon fill="#7e3542" fill-opacity="0.501961" points="151,93 155,120 146,102" />
<g transform="translate(78.041956 209.240760) rotate(78.546037) scale(2.459972 7.737300)"><ellipse fill="#715777" fill-opacity="0.501961" cx="0" cy="0" rx="1" ry="1" /></g>
<polygon fill="#62c5fc" fill-opacity="0.501961" points="-16.000000,1.820523,64.032414,-6.624578,55.175142,38.380058,7.801212,14.579459" />
<polygon fill="#5c262e" fill-opacity="0.501961" points="24,252 -11,244 -1,232" />
<polygon fill="#6d2537" fill-opacity="0.501961" points="65.982860,160.775689,44.577764,160.532110,56.014786,182.335149,61.415360,166.567160" />
<g transform="translate(141.643950 33.224652) rotate(174.769332) scale(6.992024 22.069363)"><ellipse fill="#64c6fc" fill-opacity="0.501961" cx="0" cy="0" rx="1" ry="1" /></g>
<g transform="translate(14 42) rotate(25) scale(15 5)"><rect fill="#8fe1ff" fill-opacity="0.501961" x="-0.5" y="-0.5" width="1" height="1" /></g>
<ellipse fill="#ffd993" fill-opacity="0.501961" cx="85" cy="199" rx="6" ry="3" />
<g transform="translate(138 152) rotate(244) scale(13 3)"><rect fill="#923b42" fill-opacity="0.501961" x="-0.5" y="-0.5" width="1" height="1" /></g>
<polygon fill="#662b48" fill-opacity="0.501961" points="52,207 22,194 28,180" />
<polygon fill="#a794bc" fill-opacity="0.501961" points="141.798401,94.053342,112.864786,93.637466,120.462552,116.992235,125.582947,112.858688" />
<rect fill="#b1a9cf" fill-opacity="0.501961" x="156" y="38" width="7" height="49" />
<polygon fill="#572e4d" fill-opacity="0.501961" points="36,60 14,58 8,73" />
<polygon fill="#ccd0e9" fill-opacity="0.501961" points="90.531099,83.888978,80.274241,81.216997,71.227890,99.082340,106.562403,92.253935" />
<polygon fill="#5e2c4a" fill-opacity="0.501961" points="196.000000,124.598696,159.477160,97.764897,195.432853,148.758487,170.447660,175.038125" />
<polygon fill="#7a1f3f" fill-opacity="0.501961" points="108,251 104,261 100,258" />
<polygon fill="#652c4b" fill-opacity="0.501961" points="133,204 127,218 160,216" />
<polygon fill="#eefbfa" fill-opacity="0.501961" points="124.521140,122.395990,129.929142,133.507541,102.210811,125.249731,97.439844,141.181905" />
<g transform="translate(36 224) rotate(336) scale(7 9)"><rect fill="#fff195" fill-opacity="0.501961" x="-0.5" y="-0.5" width="1" height="1" /></g>
<polygon fill="#78daff" fill-opacity="0.501961" points="126,96 136,72 119,77" />
<g transform="translate(0 27) rotate(81) scale(32 11)"><rect fill="#a39fc6" fill-opacity="0.501961" x="-0.5" y="-0.5" width="1" height="1" /></g>
<polygon fill="#924e63" fill-opacity="0.501961" points="129,124 125,114 155,118" />
<polygon fill="#9f6a6f" fill-opacity="0.501961" points="95,247 84,249 91,238" />
<polygon fill="#b64745" fill-opacity="0.501961" points="67,238 63,234 73,230" />
<polygon fill="#ffdd80" fill-opacity="0.501961" points="68,246 76,233 63,240" />
<polygon fill="#a55158" fill-opacity="0.501961" points="46.023599,160.663420,52.211213,175.043056,46.517630,193.825854,47.557465,189.780809" />
<polygon fill="#82445c" fill-opacity="0.501961" points="45.216368,73.916680,33.139077,32.984731,27.950214,24.644889,20.603686,35.840711" />
<polygon fill="#874757" fill-opacity="0.501961" points="177.571929,119.800875,148.141096,108.182987,145.661497,119.525988,165.067070,139.331315" />
<polygon fill="#592947" fill-opacity="0.501961" points="148.269756,136.840236,153.981077,156.252324,133.008797,131.787214,143.457245,123.202125" />
<rect fill="#ffe08c" fill-opacity="0.501961" x="71" y="216" width="6" height="17" />
<polygon fill="#d37e71" fill-opacity="0.501961" points="27.148387,198.776465,19.175580,196.759385,29.185270,213.558206,29.047270,199.287718" />
<polygon fill="#af6068" fill-opacity="0.501961" points="89.675099,121.176469,87.976470,129.302609,105.116299,156.204405,113.462057,185.488682" />
<g transform="translate(142 96) rotate(344) scale(1 31)"><rect fill="#b5b9dd" fill-opacity="0.501961" x="-0.5" y="-0.5" width="1" height="1" /></g>
<polygon fill="#f4cb8b" fill-opacity="0.501961" points="89.942849,183.323964,108.371539,195.984778,126.518215,196.884129,138.542175,206.747730" />
<g transform="translate(0 123) rotate(108) scale(19 7)"><rect fill="#230a1d" fill-opacity="0.501961" x="-0.5" y="-0.5" width="1" height="1" /></g>
<path stroke="#dccd90" stroke-opacity="0.501961" fill="none" d="M 122.876827 222.198503 Q 90.138141 205.303384, 87.910971 197.815507" stroke-width="0.500000" />
<polygon fill="#a9cae9" fill-opacity="0.501961" points="124.233557,18.604320,127.002390,24.817851,124.277051,4.252208,142.208427,20.577850" />
<rect fill="#4f2038" fill-opacity="0.501961" x="64" y="205" width="9" height="7" />
<rect fill="#873e4d" fill-opacity="0.501961" x="54" y="205" width="11" height="25" />
<g transform="translate(132 149) rotate(185) scale(5 4)"><rect fill="#fbffff" fill-opacity="0.501961" x="-0.5" y="-0.5" width="1" height="1" /></g>
<polygon fill="#e08576" fill-opacity="0.501961" points="78,187 65,156 68,204" />
<rect fill="#2a0736" fill-opacity="0.501961" x="85" y="193" width="5" height="3" />
<g transform="translate(31 164) rotate(116) scale(34 7)"><rect fill="#5a355f" fill-opacity="0.501961" x="-0.5" y="-0.5" width="1" height="1" /></g>
<polygon fill="#6e2a3e" fill-opacity="0.501961" points="97,144 108,170 93,154" />
<polygon fill="#a64d4f" fill-opacity="0.501961" points="61,119 62,96 49,120" />
<rect fill="#8c4350" fill-opacity="0.501961" x="98" y="164" width="12" height="23" />
<polygon fill="#964f57" fill-opacity="0.501961" points="182.835460,216.575293,156.982861,208.261276,168.155148,218.694919,182.058360,235.565166" />
<rect fill="#fcf397" fill-opacity="0.501961" x="106" y="152" width="30" height="7" />
<polygon fill="#dbfcff" fill-opacity="0.501961" points="67,133 71,138 72,122" />
<g transform="translate(16 97) rotate(28) scale(25 35)"><rect fill="#7b3846" fill-opacity="0.501961" x="-0.5" y="-0.5" width="1" height="1" /></g>
<rect fill="#833552" fill-opacity="0.501961" x="127" y="246" width="6" height="10" />
<polygon fill="#672735" fill-opacity="0.501961" points="58.613043,122.731693,3.404862,114.799199,45.811675,151.234085,24.402154,97.078510" />
<polygon fill="#c87568" fill-opacity="0.501961" points="87.962888,173.962799,87.464038,172.693940,85.307982,173.587908,94.462066,154.537615" />
<rect fill="#ef8e82" fill-opacity="0.501961" x="37" y="229" width="28" height="4" />
<rect fill="#faa698" fill-opacity="0.501961" x="93" y="109" width="5" height="12" />
<g transform="translate(87 234) rotate(320) scale(1 10)"><rect fill="#ffef91" fill-opacity="0.501961" x="-0.5" y="-0.5" width="1" height="1" /></g>
<polygon fill="#a0647e" fill-opacity="0.501961" points="76.486895,132.164567,58.974198,148.812550,65.951753,144.177574,79.881773,141.612214" />
<rect fill="#6c76a6" fill-opacity="0.501961" x="93" y="196" width="2" height="25" />
<polygon fill="#c86c61" fill-opacity="0.501961" points="49.205972,235.002940,-6.738371,213.552943,11.588551,206.379509,26.571919,230.045811" />
<polygon fill="#d38166" fill-opacity="0.501961" points="124,185 115,178 113,182" />
<polygon fill="#c26f69" fill-opacity="0.501961" points="150.756137,93.955572,154.470432,107.940527,161.715940,119.291438,151.881130,91.357574" />
<polygon fill="#8a536d" fill-opacity="0.501961" points="11.510385,83.400651,6.569790,82.882467,45.774476,49.157214,35.687893,64.595965" />
<polygon fill="#bd6667" fill-opacity="0.501961" points="125,111 146,112 143,120" />
<g transform="translate(41 45) rotate(33) scale(8 1)"><rect fill="#90feff" fill-opacity="0.501961" x="-0.5" y="-0.5" width="1" height="1" /></g>
<rect fill="#ba545d" fill-opacity="0.501961" x="61" y="169" width="5" height="15" />
<rect fill="#f2967f" fill-opacity="0.501961" x="30" y="73" width="4" height="7" />
<g transform="translate(16 19) rotate(-5) scale(23 11)"><rect fill="#7cd3fb" fill-opacity="0.501961" x="-0.5" y="-0.5" width="1" height="1" /></g>
<polygon fill="#605d87" fill-opacity="0.501961" points="138.212824,244.696409,141.758839,233.812536,148.882782,239.192828,154.704212,251.078617" />
<ellipse fill="#dbd382" fill-opacity="0.501961" cx="120" cy="220" rx="2" ry="2" />
<g transform="translate(52 45) rotate(158) scale(19 4)"><rect fill="#afb8df" fill-opacity="0.501961" x="-0.5" y="-0.5" width="1" height="1" /></g>
<polygon fill="#87dfff" fill-opacity="0.501961" points="164,66 168,82 174,64" />
<polygon fill="#fae286" fill-opacity="0.501961" points="113,185 103,187 101,219" />
<polygon fill="#200d2e" fill-opacity="0.501961" points="-16,82 3,84 -16,123" />
<polygon fill="#9c96c6" fill-opacity="0.501961" points="58.955717,20.512795,53.523469,42.320931,63.820651,40.660962,67.458565,23.965821" />
<polygon fill="#3b2c5d" fill-opacity="0.501961" points="196,200 174,201 191,207" />
<polygon fill="#d1dfef" fill-opacity="0.501961" points="17.579622,46.927199,20.520841,40.066637,12.460719,46.211285,-16.000000,71.446048" />
<g transform="translate(84 241) rotate(272) scale(12 5)"><rect fill="#692940" fill-opacity="0.501961" x="-0.5" y="-0.5" width="1" height="1" /></g>
<polygon fill="#ffffff" fill-opacity="0.501961" points="3,76 1,82 -12,68" />
<rect fill="#843c51" fill-opacity="0.501961" x="54" y="219" width="14" height="11" />
<g transform="translate(126.943549 218.766826) rotate(196.726798) scale(11.170759 3.265240)"><ellipse fill="#6d4b69" fill-opacity="0.501961" cx="0" cy="0" rx="1" ry="1" /></g>
<polygon fill="#ffe884" fill-opacity="0.501961" points="90,210 86,221 79,211" />
<polygon fill="#f3c17a" fill-opacity="0.501961" points="77.873409,149.900752,78.078571,159.974436,67.728989,155.726622,66.112986,143.715685" />
<g transform="translate(50 212) rotate(346) scale(6 5)"><rect fill="#2c2f52" fill-opacity="0.501961" x="-0.5" y="-0.5" width="1" height="1" /></g>
<g transform="translate(45.064623 60.009155) rotate(235.679885) scale(2.174299 30.211484)"><ellipse fill="#713d5b" fill-opacity="0.501961" cx="0" cy="0" rx="1" ry="1" /></g>
<polygon fill="#5dbffc" fill-opacity="0.501961" points="178.593205,65.752023,127.582183,-10.863443,196.000000,42.220450,189.497550,76.569140" />
<polygon fill="#532d4f" fill-opacity="0.501961" points="43,139 28,141 58,122" />
<ellipse fill="#602d5c" fill-opacity="0.501961" cx="112" cy="222" rx="4" ry="4" />
<polygon fill="#d3eef5" fill-opacity="0.501961" points="69.623715,114.284283,85.913424,103.741772,78.634618,128.544113,79.409962,132.962171" />
<polygon fill="#6ecdfd" fill-opacity="0.501961" points="123.045409,73.122145,105.360671,95.780296,136.329199,74.805640,135.221020,22.627953" />
<polygon fill="#a34947" fill-opacity="0.501961" points="31,219 33,211 37,211" />
<polygon fill="#814255" fill-opacity="0.501961" points="142.337859,176.065279,154.894470,143.407434,145.779613,196.294341,146.323585,177.953617" />
<g transform="translate(30 212) rotate(282) scale(9 6)"><rect fill="#e69b89" fill-opacity="0.501961" x="-0.5" y="-0.5" width="1" height="1" /></g>
<g transform="translate(120 172) rotate(159) scale(15 15)"><rect fill="#fadd74" fill-opacity="0.501961" x="-0.5" y="-0.5" width="1" height="1" /></g>
<polygon fill="#e09a87" fill-opacity="0.501961" points="69,146 65,129 62,140" />
<rect fill="#73354b" fill-opacity="0.501961" x="174" y="158" width="7" height="38" />
<polygon fill="#72648a" fill-opacity="0.501961" points="87,228 130,230 109,222" />
<ellipse fill="#e38183" fill-opacity="0.501961" cx="125" cy="207" rx="6" ry="6" />
<polygon fill="#f0dc97" fill-opacity="0.501961" points="93,197 92,213 83,196" />
<g transform="translate(3.415299 148.582822) rotate(388.251080) scale(4.418750 10.100756)"><ellipse fill="#713d62" fill-opacity="0.501961" cx="0" cy="0" rx="1" ry="1" /></g>
<polygon fill="#b09fc3" fill-opacity="0.501961" points="0.411941,67.956331,8.935728,53.757254,17.799561,50.745745,-13.436097,77.469530" />
<rect fill="#97404c" fill-opacity="0.501961" x="78" y="217" width="4" height="12" />
<polygon fill="#9f5c7a" fill-opacity="0.501961" points="65,133 67,141 72,143" />
<ellipse fill="#fffffd" fill-opacity="0.501961" cx="62" cy="123" rx="3" ry="3" />
<ellipse fill="#c66974" fill-opacity="0.501961" cx="46" cy="246" rx="7" ry="4" />
<g transform="translate(174.000441 5.326619) rotate(15.540640) scale(41.935252 14.395968)"><ellipse fill="#4eb5fc" fill-opacity="0.501961" cx="0" cy="0" rx="1" ry="1" /></g>
<polygon fill="#86ccf1" fill-opacity="0.501961" points="138.055413,6.141428,109.585736,-16.000000,137.131653,-16.000000,123.558107,11.252820" />
<rect fill="#fde685" fill-opacity="0.501961" x="80" y="249" width="23" height="7" />
<polygon fill="#ad5555" fill-opacity="0.501961" points="56,197 54,204 71,203" />
<ellipse fill="#978ebf" fill-opacity="0.501961" cx="153" cy="43" rx="4" ry="10" />
<polygon fill="#823a4d" fill-opacity="0.501961" points="62.033546,143.299736,55.405323,166.810753,74.268054,154.332904,62.269438,168.904070" />
<g transform="translate(76 94) rotate(341) scale(5 4)"><rect fill="#eaffff" fill-opacity="0.501961" x="-0.5" y="-0.5" width="1" height="1" /></g>
<polygon fill="#6e3854" fill-opacity="0.501961" points="28.903440,169.900150,30.890742,125.956201,18.622815,128.416997,13.945015,117.997712" />
<ellipse fill="#f8e68d" fill-opacity="0.501961" cx="140" cy="180" rx="6" ry="6" />
<polygon fill="#f8d98d" fill-opacity="0.501961" points="112,219 119,200 98,207" />
<path stroke="#703c51" stroke-opacity="0.501961" fill="none" d="M 12.750183 147.533389 Q -16.000000 212.361533, 42.680846 213.272479" stroke-width="0.500000" />
<polygon fill="#bc7773" fill-opacity="0.501961" points="87.983005,29.168928,88.943256,34.826415,83.236332,67.778686,86.535832,28.823757" />
<rect fill="#5a3d6e" fill-opacity="0.501961" x="140" y="203" width="23" height="4" />
<polygon fill="#eef4f2" fill-opacity="0.501961" points="86,130 89,110 84,120" />
<polygon fill="#7e3540" fill-opacity="0.501961" points="130,141 134,127 139,149" />
<polygon fill="#7d455e" fill-opacity="0.501961" points="68.944934,101.127525,49.281447,78.753491,84.202950,40.135727,53.978431,49.841948" />
<polygon fill="#5c2432" fill-opacity="0.501961" points="83.025844,173.474165,82.594554,186.907017,71.981707,171.482750,103.308243,186.825195" />
<rect fill="#e3887e" fill-opacity="0.501961" x="80" y="193" width="4" height="13" />
<polygon fill="#85465b" fill-opacity="0.501961" points="157.081470,98.163767,156.464074,95.111126,188.127925,106.336451,190.493377,65.200346" />
<g transform="translate(108.945263 22.270116) rotate(311.070180) scale(32.875062 4.597110)"><ellipse fill="#a8a1ca" fill-opacity="0.501961" cx="0" cy="0" rx="1" ry="1" /></g>
<ellipse fill="#44346b" fill-opacity="0.501961" cx="84" cy="222" rx="1" ry="1" />
<g transform="translate(89 221) rotate(253) scale(1 17)"><rect fill="#70566e" fill-opacity="0.501961" x="-0.5" y="-0.5" width="1" height="1" /></g>
<polygon fill="#63c7fa" fill-opacity="0.501961" points="61.760034,47.689736,94.097270,17.169923,34.274251,17.901932,89.915539,-0.038430" />
<g transform="translate(173.998355 77.467486) rotate(218.103072) scale(1.000000 24.544258)"><ellipse fill="#c07972" fill-opacity="0.501961" cx="0" cy="0" rx="1" ry="1" /></g>
<ellipse fill="#d58762" fill-opacity="0.501961" cx="120" cy="161" rx="2" ry="2" />
<g transform="translate(78 255) rotate(-8) scale(24 1)"><rect fill="#f6c74b" fill-opacity="0.501961" x="-0.5" y="-0.5" width="1" height="1" /></g>
<ellipse fill="#b55e64" fill-opacity="0.501961" cx="55" cy="133" rx="5" ry="5" />
<rect fill="#b7b5d3" fill-opacity="0.501961" x="93" y="83" width="11" height="24" />
<polygon fill="#eb9a86" fill-opacity="0.501961" points="66,183 48,190 72,201" />
<polygon fill="#974341" fill-opacity="0.501961" points="2,216 17,223 -16,230" />
<polygon fill="#933f3f" fill-opacity="0.501961" points="75.436574,196.150606,78.417633,200.785447,81.866911,205.180473,63.488541,209.178278" />
<rect fill="#db737a" fill-opacity="0.501961" x="73" y="156" width="4" height="5" />
<g transform="translate(48 53) rotate(331) scale(25 1)"><rect fill="#cc7471" fill-opacity="0.501961" x="-0.5" y="-0.5" width="1" height="1" /></g>
<rect fill="#8f4b5a" fill-opacity="0.501961" x="66" y="75" width="10" height="16" />
<rect fill="#ffffff" fill-opacity="0.501961" x="117" y="132" width="13" height="3" />
<g transform="translate(126 18) rotate(40) scale(6 17)"><rect fill="#c6c0dd" fill-opacity="0.501961" x="-0.5" y="-0.5" width="1" height="1" /></g>
<polygon fill="#7f3240" fill-opacity="0.501961" points="-7.032990,98.246530,14.973937,121.730257,50.974879,91.622800,50.847917,116.404117" />
<ellipse fill="#79b6d4" fill-opacity="0.501961" cx="97" cy="198" rx="2" ry="2" />
<rect fill="#c8706c" fill-opacity="0.501961" x="87" y="182" width="6" height="6" />
<polygon fill="#7d334d" fill-opacity="0.501961" points="61,240 42,235 57,232" />
<polygon fill="#89556e" fill-opacity="0.501961" points="26.302373,38.539477,11.809099,58.743637,14.049852,55.016644,2.610796,78.449849" />
<ellipse fill="#635e75" fill-opacity="0.501961" cx="47" cy="213" rx="3" ry="3" />
<g transform="translate(161 179) rotate(356) scale(13 8)"><rect fill="#6f2b39" fill-opacity="0.501961" x="-0.5" y="-0.5" width="1" height="1" /></g>
<ellipse fill="#81d1ea" fill-opacity="0.501961" cx="80" cy="5" rx="26" ry="2" />
<g transform="translate(166 239) rotate(29) scale(23 8)"><rect fill="#82445b" fill-opacity="0.501961" x="-0.5" y="-0.5" width="1" height="1" /></g>
<g transform="translate(31 252) rotate(317) scale(36 1)"><rect fill="#73364e" fill-opacity="0.501961" x="-0.5" y="-0.5" width="1" height="1" /></g>
<polygon fill="#f6d686" fill-opacity="0.501961" points="81.633930,222.049985,86.506374,214.244816,85.719817,198.689950,95.124975,217.385196" />
<g transform="translate(138.519282 32.191382) rotate(186.444115) scale(12.461108 18.662812)"><ellipse fill="#62c6fc" fill-opacity="0.501961" cx="0" cy="0" rx="1" ry="1" /></g>
<ellipse fill="#fff68c" fill-opacity="0.501961" cx="65" cy="241" rx="5" ry="1" />
<ellipse fill="#753b55" fill-opacity="0.501961" cx="169" cy="106" rx="5" ry="23" />
<polygon fill="#9a464b" fill-opacity="0.501961" points="64,113 50,127 58,76" />
<g transform="translate(42 45) rotate(152) scale(2 11)"><rect fill="#7ee0ff" fill-opacity="0.501961" x="-0.5" y="-0.5" width="1" height="1" /></g>
<rect fill="#9d91bf" fill-opacity="0.501961" x="138" y="54" width="4" height="38" />
<rect fill="#eefeff" fill-opacity="0.501961" x="101" y="114" width="6" height="34" />
<polygon fill="#4c2242" fill-opacity="0.501961" points="12.338159,112.497876,19.900362,154.837499,11.678919,165.987166,14.393643,141.243852" />
<polygon fill="#c2bbd9" fill-opacity="0.501961" points="124.193326,51.851321,125.603229,51.097909,123.094608,65.852017,113.221920,60.541195" />
<polygon fill="#7d373f" fill-opacity="0.501961" points="21.187666,210.224490,19.544670,198.568411,-16.000000,189.979596,31.847370,211.856750" />
<polygon fill="#9d95c3" fill-opacity="0.501961" points="121,71 103,91 103,60" />
<polygon fill="#8e6187" fill-opacity="0.501961" points="81,142 87,143 86,129" />
<polygon fill="#f9e993" fill-opacity="0.501961" points="115,209 123,200 98,205" />
<polygon fill="#904856" fill-opacity="0.501961" points="20,157 9,167 10,195" />
<polygon fill="#672f44" fill-opacity="0.501961" points="12.465758,107.089738,2.987840,108.903402,-0.885368,91.914249,31.442866,82.566137" />
<polygon fill="#fef198" fill-opacity="0.501961" points="87,146 77,146 76,156" />
<polygon fill="#f4da65" fill-opacity="0.501961" points="122.157442,185.301527,107.131951,186.303944,126.077209,193.804959,100.253264,202.083780" />
<ellipse fill="#58bffd" fill-opacity="0.501961" cx="21" cy="0" rx="33" ry="12" />
<rect fill="#783842" fill-opacity="0.501961" x="80" y="57" width="6" height="8" />
<g transform="translate(87 108) rotate(114) scale(7 12)"><rect fill="#cbe9f7" fill-opacity="0.501961" x="-0.5" y="-0.5" width="1" height="1" /></g>
<polygon fill="#9988a2" fill-opacity="0.501961" points="93,209 92,200 91,205" />
<polygon fill="#62c5f9" fill-opacity="0.501961" points="16.344190,42.856100,44.942147,-5.306594,44.335205,6.184406,6.691943,27.794544" />
<polygon fill="#9c4f5a" fill-opacity="0.501961" points="84.281447,160.714951,78.557532,158.340738,91.700589,138.186610,97.951485,141.928066" />
<ellipse fill="#4a3149" fill-opacity="0.501961" cx="65" cy="244" rx="1" ry="2" />
<polygon fill="#af6172" fill-opacity="0.501961" points="94.054260,109.824017,93.612249,107.347384,90.424397,130.252531,92.552586,147.435463" />
<g transform="translate(133 165) rotate(94) scale(5 15)"><rect fill="#f5da66" fill-opacity="0.501961" x="-0.5" y="-0.5" width="1" height="1" /></g>
<polygon fill="#b26466" fill-opacity="0.501961" points="57.830154,196.689864,65.623943,216.240021,54.274973,200.147110,39.003003,201.313870" />
<g transform="translate(39 80) rotate(104) scale(12 5)"><rect fill="#271034" fill-opacity="0.501961" x="-0.5" y="-0.5" width="1" height="1" /></g>
<polygon fill="#a49fc9" fill-opacity="0.501961" points="114,102 161,84 157,70" />
<polygon fill="#da836c" fill-opacity="0.501961" points="3.465459,202.112653,-16.000000,211.828346,13.945823,206.742620,27.598549,216.002639" />
<polygon fill="#a35f68" fill-opacity="0.501961" points="108.280077,223.214022,119.894535,216.406484,121.616038,225.340413,122.948754,203.940360" />
<rect fill="#69cbfc" fill-opacity="0.501961" x="37" y="20" width="8" height="26" />
<polygon fill="#5c3154" fill-opacity="0.501961" points="166,196 153,187 142,202" />
<polygon fill="#846f89" fill-opacity="0.501961" points="121,245 95,242 121,226" />
<g transform="translate(100 184) rotate(271) scale(3 8)"><rect fill="#53233b" fill-opacity="0.501961" x="-0.5" y="-0.5" width="1" height="1" /></g>
<polygon fill="#a39ea2" fill-opacity="0.501961" points="99,217 95,207 98,208" />
<polygon fill="#61c5f9" fill-opacity="0.501961" points="64.491473,36.830313,97.691121,-2.859851,87.372044,41.116887,121.958730,-16.000000" />
<rect fill="#bb665f" fill-opacity="0.501961" x="47" y="138" width="9" height="3" />
<polygon fill="#753f5f" fill-opacity="0.501961" points="148,121 129,121 126,114" />
<polygon fill="#a29ac7" fill-opacity="0.501961" points="93.391697,36.456757,102.224589,62.697440,84.472330,56.402942,85.917102,51.579996" />
<ellipse fill="#702f43" fill-opacity="0.501961" cx="88" cy="192" rx="5" ry="5" />
<g transform="translate(97 202) rotate(255) scale(2 5)"><rect fill="#201a29" fill-opacity="0.501961" x="-0.5" y="-0.5" width="1" height="1" /></g>
<g transform="translate(32 101) rotate(328) scale(16 2)"><rect fill="#471b2b" fill-opacity="0.501961" x="-0.5" y="-0.5" width="1" height="1" /></g>
<polygon fill="#c0c7e1" fill-opacity="0.501961" points="138,104 146,110 144,96" />
<rect fill="#591c37" fill-opacity="0.501961" x="52" y="168" width="5" height="17" />
<g transform="translate(112.091914 157.166972) rotate(336.799375) scale(6.098321 7.821786)"><ellipse fill="#f9eb96" fill-opacity="0.501961" cx="0" cy="0" rx="1" ry="1" /></g>
<rect fill="#19051b" fill-opacity="0.501961" x="179" y="117" width="2" height="4" />
<polygon fill="#f3db8a" fill-opacity="0.501961" points="78,225 67,213 75,232" />
<rect fill="#5a2e54" fill-opacity="0.501961" x="146" y="146" width="7" height="15" />
<polygon fill="#85414e" fill-opacity="0.501961" points="145.264007,171.728162,131.579760,142.575465,143.569243,143.415556,152.992365,220.477316" />
<g transform="translate(133 246) rotate(56) scale(7 3)"><rect fill="#e48383" fill-opacity="0.501961" x="-0.5" y="-0.5" width="1" height="1" /></g>
<polygon fill="#cacbe1" fill-opacity="0.501961" points="102.496778,62.587159,87.602559,64.009379,88.267052,57.298076,92.943210,67.240882" />
<g transform="translate(56 149) rotate(143) scale(18 7)"><rect fill="#773956" fill-opacity="0.501961" x="-0.5" y="-0.5" width="1" height="1" /></g>
<polygon fill="#eda08a" fill-opacity="0.501961" points="83.187055,189.569450,52.755111,197.434539,46.939980,186.294187,78.697107,195.443303" />
<ellipse fill="#1c0a23" fill-opacity="0.501961" cx="3" cy="255" rx="6" ry="6" />
<polygon fill="#d7a075" fill-opacity="0.501961" points="66.162363,244.708896,72.763624,241.397311,77.336484,236.402381,42.421598,271.000000" />
<g transform="translate(2 25) rotate(56) scale(4 6)"><rect fill="#d2dcea" fill-opacity="0.501961" x="-0.5" y="-0.5" width="1" height="1" /></g>
<polygon fill="#512034" fill-opacity="0.501961" points="170.887655,161.610857,172.442183,197.679864,168.098647,167.185113,157.490846,155.562995" />
<polygon fill="#643451" fill-opacity="0.501961" points="59,65 56,79 29,92" />
<g transform="translate(104.948458 123.812581) rotate(65.796518) scale(17.801831 4.180374)"><ellipse fill="#edf7f9" fill-opacity="0.501961" cx="0" cy="0" rx="1" ry="1" /></g>
<g transform="translate(48 209) rotate(186) scale(9 5)"><rect fill="#35112a" fill-opacity="0.501961" x="-0.5" y="-0.5" width="1" height="1" /></g>
<polygon fill="#fbe996" fill-opacity="0.501961" points="96,248 91,255 106,249" />
<polygon fill="#923946" fill-opacity="0.501961" points="139,190 130,194 146,195" />
<rect fill="#302539" fill-opacity="0.501961" x="95" y="198" width="2" height="6" />
<g transform="translate(170 149) rotate(130) scale(21 26)"><rect fill="#8b3f47" fill-opacity="0.501961" x="-0.5" y="-0.5" width="1" height="1" /></g>
<ellipse fill="#f7aa92" fill-opacity="0.501961" cx="62" cy="232" rx="3" ry="3" />
<polygon fill="#66cef9" fill-opacity="0.501961" points="112,56 117,39 138,39" />
<rect fill="#5e2949" fill-opacity="0.501961" x="150" y="222" width="4" height="22" />
<polygon fill="#948ebe" fill-opacity="0.501961" points="79.494856,80.625076,87.549006,63.750586,89.499519,64.658092,85.583956,80.839652" />
<ellipse fill="#f39580" fill-opacity="0.501961" cx="31" cy="56" rx="2" ry="2" />
<polygon fill="#924a56" fill-opacity="0.501961" points="113.599132,174.775184,113.644386,185.576269,101.343648,184.963601,107.512093,162.120115" />
<rect fill="#c87476" fill-opacity="0.501961" x="72" y="245" width="5" height="5" />
<polygon fill="#97484d" fill-opacity="0.501961" points="64.320481,196.970879,61.854912,199.023030,51.946405,207.679134,64.501708,205.953871" />
<g transform="translate(89 243) rotate(193) scale(1 5)"><rect fill="#efbd77" fill-opacity="0.501961" x="-0.5" y="-0.5" width="1" height="1" /></g>
<polygon fill="#833b48" fill-opacity="0.501961" points="12.562614,116.710267,3.810299,111.889323,36.169537,89.835331,22.383769,108.593999" />
<ellipse fill="#c3bcd7" fill-opacity="0.501961" cx="72" cy="101" rx="5" ry="5" />
<polygon fill="#dc8f88" fill-opacity="0.501961" points="85,122 84,127 83,125" />
<rect fill="#f5da72" fill-opacity="0.501961" x="121" y="179" width="18" height="8" />
<polygon fill="#97464a" fill-opacity="0.501961" points="171,105 172,95 190,94" />
<polygon fill="#fcf170" fill-opacity="0.501961" points="67,150 67,145 82,154" />
<g transform="translate(40.582135 217.716087) rotate(29.485796) scale(4.597131 2.747066)"><ellipse fill="#e9b786" fill-opacity="0.501961" cx="0" cy="0" rx="1" ry="1" /></g>
<g transform="translate(50.355939 42.385728) rotate(272.189583) scale(7.293445 3.055660)"><ellipse fill="#aea4cb" fill-opacity="0.501961" cx="0" cy="0" rx="1" ry="1" /></g>
<polygon fill="#b8605c" fill-opacity="0.501961" points="83.149237,223.919065,79.517822,221.083623,82.486550,230.075344,88.328555,244.381594" />
<g transform="translate(21 196) rotate(396) scale(1 5)"><rect fill="#e08671" fill-opacity="0.501961" x="-0.5" y="-0.5" width="1" height="1" /></g>
<g transform="translate(175.159989 234.265178) rotate(17.641753) scale(9.520458 2.874782)"><ellipse fill="#6f2e3a" fill-opacity="0.501961" cx="0" cy="0" rx="1" ry="1" /></g>
<polygon fill="#3a1730" fill-opacity="0.501961" points="167.827410,199.262911,171.704598,173.814111,157.739671,188.184443,196.000000,205.006417" />
<polygon fill="#f3d581" fill-opacity="0.501961" points="98,204 118,218 98,212" />
<rect fill="#dd8477" fill-opacity="0.501961" x="160" y="103" width="3" height="10" />
<polygon fill="#5d304c" fill-opacity="0.501961" points="18.325765,71.456003,29.311328,56.751915,27.287745,52.189136,2.059125,84.541482" />
<polygon fill="#915351" fill-opacity="0.501961" points="102,191 89,186 99,195" />
<g transform="translate(29.953410 76.917913) rotate(220.792388) scale(1.808078 7.543888)"><ellipse fill="#d07972" fill-opacity="0.501961" cx="0" cy="0" rx="1" ry="1" /></g>
<path stroke="#f4ca89" stroke-opacity="0.501961" fill="none" d="M 135.644270 203.397308 Q 122.863921 199.173173, 90.182019 182.905063" stroke-width="0.500000" />
<g transform="translate(135.173291 230.321425) rotate(88.413846) scale(2.991007 11.564033)"><ellipse fill="#673e6c" fill-opacity="0.501961" cx="0" cy="0" rx="1" ry="1" /></g>
<polygon fill="#8a9dcd" fill-opacity="0.501961" points="140.820858,62.443332,159.766015,37.137419,162.572846,37.543938,145.475318,44.624086" />
<path stroke="#e9dc97" stroke-opacity="0.501961" fill="none" d="M 122.421978 187.632660 Q 99.370544 201.445137, 94.754902 193.370557" stroke-width="0.500000" />
<polygon fill="#cabed5" fill-opacity="0.501961" points="99.088525,102.889117,118.062050,97.556661,107.393349,118.503831,99.513349,95.881462" />
<rect fill="#e2e6f3" fill-opacity="0.501961" x="4" y="46" width="10" height="6" />
<polygon fill="#864240" fill-opacity="0.501961" points="84,67 76,80 73,75" />
<polygon fill="#844557" fill-opacity="0.501961" points="155.314496,155.419774,144.238988,178.132397,151.737086,176.614304,168.901602,174.973186" />
<ellipse fill="#db7774" fill-opacity="0.501961" cx="71" cy="232" rx="2" ry="3" />
<ellipse fill="#8f568d" fill-opacity="0.501961" cx="110" cy="147" rx="2" ry="2" />
<rect fill="#683e69" fill-opacity="0.501961" x="27" y="157" width="13" height="14" />
<polygon fill="#894453" fill-opacity="0.501961" points="24.428933,84.019613,2.846885,85.347660,4.330900,75.087181,37.325789,80.870451" />
<polygon fill="#8f3c4a" fill-opacity="0.501961" points="88.659481,136.010052,87.858246,166.981303,71.525807,170.262562,95.114896,147.401498" />
<g transform="translate(163.087409 248.961731) rotate(368.884786) scale(11.682266 1.419549)"><ellipse fill="#41294d" fill-opacity="0.501961" cx="0" cy="0" rx="1" ry="1" /></g>
<rect fill="#77373d" fill-opacity="0.501961" x="0" y="223" width="18" height="17" />
<ellipse fill="#daad78" fill-opacity="0.501961" cx="60" cy="250" rx="3" ry="3" />
<polygon fill="#78425b" fill-opacity="0.501961" points="152.304059,209.275132,163.819212,211.127080,173.142677,219.540487,163.387462,241.873221" />
<polygon fill="#fcf194" fill-opacity="0.501961" points="150.864941,255.110189,103.340040,271.000000,134.607887,265.038730,142.802007,248.936862" />
<polygon fill="#72354a" fill-opacity="0.501961" points="50.860671,130.918961,63.227846,118.669489,1.404270,132.951222,57.926587,124.860524" />
<polygon fill="#712f44" fill-opacity="0.501961" points="18.227636,176.418116,31.596426,170.647838,15.462621,187.254039,20.542990,188.998582" />
<g transform="translate(63 127) rotate(279) scale(12 1)"><rect fill="#fdfdfb" fill-opacity="0.501961" x="-0.5" y="-0.5" width="1" height="1" /></g>
<polygon fill="#ae6876" fill-opacity="0.501961" points="101.382335,129.869479,81.744027,157.883097,92.970023,142.395815,100.369379,124.836329" />
<g transform="translate(82 244) rotate(300) scale(4 10)"><rect fill="#60304b" fill-opacity="0.501961" x="-0.5" y="-0.5" width="1" height="1" /></g>
<polygon fill="#ad5d72" fill-opacity="0.501961" points="77,136 74,136 75,127" />
<g transform="translate(51 218) rotate(120) scale(6 2)"><rect fill="#fbdb78" fill-opacity="0.501961" x="-0.5" y="-0.5" width="1" height="1" /></g>
<ellipse fill="#da837a" fill-opacity="0.501961" cx="66" cy="175" rx="4" ry="4" />
<rect fill="#706a8f" fill-opacity="0.501961" x="72" y="209" width="14" height="2" />
<g transform="translate(104 194) rotate(113) scale(10 3)"><rect fill="#f9ec9e" fill-opacity="0.501961" x="-0.5" y="-0.5" width="1" height="1" /></g>
<polygon fill="#d0f2f9" fill-opacity="0.501961" points="67,109 75,119 69,137" />
<polygon fill="#faac91" fill-opacity="0.501961" points="65,137 61,139 67,146" />
<polygon fill="#af5d66" fill-opacity="0.501961" points="140,200 144,193 136,197" />
<g transform="translate(70.068599 216.355871) rotate(183.777548) scale(5.603759 2.073000)"><ellipse fill="#fadc8c" fill-opacity="0.501961" cx="0" cy="0" rx="1" ry="1" /></g>
<ellipse fill="#25384a" fill-opacity="0.501961" cx="97" cy="203" rx="2" ry="2" />
<g transform="translate(85 88) rotate(194) scale(16 11)"><rect fill="#cacce3" fill-opacity="0.501961" x="-0.5" y="-0.5" width="1" height="1" /></g>
<rect fill="#91373a" fill-opacity="0.501961" x="60" y="235" width="7" height="4" />
<rect fill="#8078c0" fill-opacity="0.501961" x="92" y="196" width="3" height="5" />
<g transform="translate(92 161) rotate(195) scale(1 5)"><rect fill="#e4a189" fill-opacity="0.501961" x="-0.5" y="-0.5" width="1" height="1" /></g>
<rect fill="#722f45" fill-opacity="0.501961" x="93" y="145" width="7" height="20" />
<polygon fill="#b96772" fill-opacity="0.501961" points="44,246 53,244 45,255" />
<polygon fill="#823a50" fill-opacity="0.501961" points="130,196 135,188 135,200" />
<polygon fill="#6a3852" fill-opacity="0.501961" points="3.666197,172.977695,-16.000000,213.233560,4.338092,184.258874,10.159428,189.400737" />
<g transform="translate(80.442652 135.394202) rotate(123.487588) scale(4.688488 2.228143)"><ellipse fill="#cf888c" fill-opacity="0.501961" cx="0" cy="0" rx="1" ry="1" /></g>
<ellipse fill="#773d5c" fill-opacity="0.501961" cx="23" cy="209" rx="4" ry="2" />
<g transform="translate(36.943085 119.155421) rotate(78.210644) scale(3.930387 13.165921)"><ellipse fill="#5d1f2c" fill-opacity="0.501961" cx="0" cy="0" rx="1" ry="1" /></g>
<polygon fill="#f4d389" fill-opacity="0.501961" points="89.980681,238.890630,107.569284,233.670225,87.179511,230.980211,89.870257,243.333274" />
</g>
</svg>