<svg xmlns="http://www.w3.org/2000/svg" version="1.1" width="100%" height="100%">
<rect x="0" y="0" width="100%" height="100%" fill="#8b9786" />
<g transform="scale(4.000000) translate(0.5 0.5)">
<ellipse fill="#000000" fill-opacity="0.501961" cx="100" cy="151" rx="49" ry="98" />
<g transform="translate(15 114) rotate(190) scale(68 255)"><rect fill="#ffffff" fill-opacity="0.501961" x="-0.5" y="-0.5" width="1" height="1" /></g>
<g transform="translate(157.958817 43.499117) rotate(253.053907) scale(105.683475 64.740759)"><ellipse fill="#e5f5df" fill-opacity="0.501961" cx="0" cy="0" rx="1" ry="1" /></g>
<ellipse fill="#000900" fill-opacity="0.501961" cx="116" cy="183" rx="34" ry="77" />
<g transform="translate(89.218328 142.201838) rotate(144.417077) scale(22.755356 46.239481)"><ellipse fill="#000000" fill-opacity="0.501961" cx="0" cy="0" rx="1" ry="1" /></g>
<ellipse fill="#bac6ad" fill-opacity="0.501961" cx="52" cy="255" rx="53" ry="53" />
<ellipse fill="#384433" fill-opacity="0.501961" cx="81" cy="56" rx="31" ry="30" />
<g transform="translate(45.739205 181.329598) rotate(268.296192) scale(50.407400 27.207149)"><ellipse fill="#a0b199" fill-opacity="0.501961" cx="0" cy="0" rx="1" ry="1" /></g>
<g transform="translate(43.989849 4.620403) rotate(125.486860) scale(153.146824 34.417179)"><ellipse fill="#eeffe6" fill-opacity="0.501961" cx="0" cy="0" rx="1" ry="1" /></g>
<g transform="translate(177.625932 185.044644) rotate(366.412901) scale(17.469745 119.189041)"><ellipse fill="#d0dcc9" fill-opacity="0.501961" cx="0" cy="0" rx="1" ry="1" /></g>
<g transform="translate(157.157216 17.527564) rotate(215.661327) scale(118.271433 34.247769)"><ellipse fill="#e6f4e0" fill-opacity="0.501961" cx="0" cy="0" rx="1" ry="1" /></g>
<polygon fill="#899783" fill-opacity="0.501961" points="164.338542,214.315722,163.461861,122.687250,141.266894,79.958366,133.351589,154.872204" />
<g transform="translate(75.733049 77.532624) rotate(30.251829) scale(29.112815 10.817603)"><ellipse fill="#010901" fill-opacity="0.501961" cx="0" cy="0" rx="1" ry="1" /></g>
<g transform="translate(108.582146 57.841491) rotate(54.077726) scale(49.072240 20.132348)"><ellipse fill="#869380" fill-opacity="0.501961" cx="0" cy="0" rx="1" ry="1" /></g>
<g transform="translate(132.611756 207.181336) rotate(252.117529) scale(29.037602 20.955625)"><ellipse fill="#081105" fill-opacity="0.501961" cx="0" cy="0" rx="1" ry="1" /></g>
<polygon fill="#3e4b37" fill-opacity="0.501961" points="69.678021,241.527293,69.320380,213.963951,68.121157,152.644514,112.784586,195.340586" />
<g transform="translate(97.413544 134.206815) rotate(5.465874) scale(41.470183 26.759362)"><ellipse fill="#030e02" fill-opacity="0.501961" cx="0" cy="0" rx="1" ry="1" /></g>
<rect fill="#879681" fill-opacity="0.501961" x="45" y="180" width="48" height="17" />
<polygon fill="#a6b49f" fill-opacity="0.501961" points="132.222298,96.979755,94.295123,55.891313,102.369251,92.094205,83.708355,103.065901" />
<g transform="translate(115.495657 242.299838) rotate(308.805468) scale(14.448287 28.284343)"><ellipse fill="#656e59" fill-opacity="0.501961" cx="0" cy="0" rx="1" ry="1" /></g>
<g transform="translate(36.953453 85.845982) rotate(80.520025) scale(15.360604 27.549478)"><ellipse fill="#cee0c6" fill-opacity="0.501961" cx="0" cy="0" rx="1" ry="1" /></g>
<g transform="translate(122.120612 173.150711) rotate(181.194397) scale(15.387118 29.079656)"><ellipse fill="#000000" fill-opacity="0.501961" cx="0" cy="0" rx="1" ry="1" /></g>
<polygon fill="#10180c" fill-opacity="0.501961" points="99.773320,183.279264,74.928921,206.297321,73.711393,223.646839,94.282310,218.414870" />
<g transform="translate(54 49) rotate(122) scale(59 14)"><rect fill="#9cac95" fill-opacity="0.501961" x="-0.5" y="-0.5" width="1" height="1" /></g>
<g transform="translate(22.054956 237.768081) rotate(156.921906) scale(30.000682 62.175914)"><ellipse fill="#c0cdb5" fill-opacity="0.501961" cx="0" cy="0" rx="1" ry="1" /></g>
<ellipse fill="#0c140b" fill-opacity="0.501961" cx="79" cy="80" rx="17" ry="17" />
<polygon fill="#9fae99" fill-opacity="0.501961" points="53,94 24,137 39,209" />
<ellipse fill="#3c4236" fill-opacity="0.501961" cx="54" cy="67" rx="10" ry="5" />
<g transform="translate(79.171213 135.323599) rotate(266.376552) scale(43.127442 11.080782)"><ellipse fill="#030c02" fill-opacity="0.501961" cx="0" cy="0" rx="1" ry="1" /></g>
<g transform="translate(147.367100 153.029491) rotate(86.138257) scale(46.530983 6.026281)"><ellipse fill="#75826f" fill-opacity="0.501961" cx="0" cy="0" rx="1" ry="1" /></g>
<polygon fill="#798874" fill-opacity="0.501961" points="125.361956,96.393792,123.934153,39.987974,144.083873,123.658341,116.739730,111.292547" />
<rect fill="#a6b4a0" fill-opacity="0.501961" x="76" y="225" width="20" height="31" />
<polygon fill="#677460" fill-opacity="0.501961" points="144.329647,224.407066,133.241295,189.784232,161.636001,227.604236,115.491730,271.000000" />
<g transform="translate(37.463660 0.000000) rotate(-14.367468) scale(41.233684 28.759389)"><ellipse fill="#e8f8e3" fill-opacity="0.501961" cx="0" cy="0" rx="1" ry="1" /></g>
<polygon fill="#192213" fill-opacity="0.501961" points="55.749040,99.622375,76.879601,68.371424,56.846100,107.582818,55.078668,118.305170" />
<polygon fill="#293026" fill-opacity="0.501961" points="61.783790,123.816678,79.802367,77.709325,102.760418,152.958298,109.895666,97.355230" />
<g transform="translate(129.435932 213.426861) rotate(207.653203) scale(17.217751 8.365439)"><ellipse fill="#000600" fill-opacity="0.501961" cx="0" cy="0" rx="1" ry="1" /></g>
<rect fill="#879381" fill-opacity="0.501961" x="47" y="146" width="21" height="65" />
<polygon fill="#879684" fill-opacity="0.501961" points="77.583584,10.212676,77.460496,-13.724693,123.833862,69.153155,73.501997,19.493568" />
<polygon fill="#a2b09d" fill-opacity="0.501961" points="98,81 123,113 130,93" />
<ellipse fill="#c4d1bf" fill-opacity="0.501961" cx="182" cy="120" rx="15" ry="86" />
<g transform="translate(1.960793 131.290710) rotate(0.405759) scale(13.038692 48.513077)"><ellipse fill="#d7ebd0" fill-opacity="0.501961" cx="0" cy="0" rx="1" ry="1" /></g>
<polygon fill="#869683" fill-opacity="0.501961" points="135,153 148,148 132,141" />
<g transform="translate(116 222) rotate(64) scale(48 15)"><rect fill="#323d2c" fill-opacity="0.501961" x="-0.5" y="-0.5" width="1" height="1" /></g>
<g transform="translate(53.840243 79.913432) rotate(161.915850) scale(6.084954 9.356305)"><ellipse fill="#dbe8d3" fill-opacity="0.501961" cx="0" cy="0" rx="1" ry="1" /></g>
<polygon fill="#79836f" fill-opacity="0.501961" points="134,245 128,271 92,252" />
<g transform="translate(61.110037 206.591257) rotate(349.382825) scale(25.708162 1.822899)"><ellipse fill="#8d9786" fill-opacity="0.501961" cx="0" cy="0" rx="1" ry="1" /></g>
<rect fill="#b1baa5" fill-opacity="0.501961" x="89" y="94" width="11" height="5" />
<g transform="translate(168.783426 60.407731) rotate(19.442043) scale(25.391852 30.843055)"><ellipse fill="#c9d7c4" fill-opacity="0.501961" cx="0" cy="0" rx="1" ry="1" /></g>
<g transform="translate(134 122) rotate(58) scale(27 6)"><rect fill="#374130" fill-opacity="0.501961" x="-0.5" y="-0.5" width="1" height="1" /></g>
<g transform="translate(163.714453 128.985037) rotate(85.612072) scale(35.148449 10.426249)"><ellipse fill="#a7b3a2" fill-opacity="0.501961" cx="0" cy="0" rx="1" ry="1" /></g>
<g transform="translate(68.237390 232.144387) rotate(262.009247) scale(19.502994 7.344283)"><ellipse fill="#768270" fill-opacity="0.501961" cx="0" cy="0" rx="1" ry="1" /></g>
<polygon fill="#b9c5b1" fill-opacity="0.501961" points="21,65 49,54 57,63" />
<rect fill="#73806e" fill-opacity="0.501961" x="75" y="49" width="48" height="16" />
<ellipse fill="#000900" fill-opacity="0.501961" cx="118" cy="174" rx="24" ry="15" />
<g transform="translate(90.043894 77.001002) rotate(158.625879) scale(7.542438 14.754728)"><ellipse fill="#0a1409" fill-opacity="0.501961" cx="0" cy="0" rx="1" ry="1" /></g>
<polygon fill="#424c3b" fill-opacity="0.501961" points="54.517847,153.740808,70.685716,140.713679,49.727246,133.600360,56.767829,103.169012" />
<polygon fill="#131c10" fill-opacity="0.501961" points="94.940180,192.606667,111.353614,206.891176,73.053936,208.425678,73.768325,227.216603" />
<polygon fill="#a2ad9b" fill-opacity="0.501961" points="49,223 67,260 64,163" />
<polygon fill="#e2f1dd" fill-opacity="0.501961" points="3.154677,-16.000000,-9.228288,47.196278,58.080717,47.392961,56.722822,30.598631" />
<polygon fill="#7a8672" fill-opacity="0.501961" points="93.183799,177.603306,58.918456,203.133302,90.157591,193.794223,95.658803,185.208780" />
<g transform="translate(66 68) rotate(195) scale(12 1)"><rect fill="#9b9e9a" fill-opacity="0.501961" x="-0.5" y="-0.5" width="1" height="1" /></g>
<polygon fill="#bac4af" fill-opacity="0.501961" points="8.015228,271.000000,32.503937,238.392960,74.240144,206.086076,-8.303822,223.963532" />
<polygon fill="#1c2219" fill-opacity="0.501961" points="80,79 43,65 65,66" />
<polygon fill="#0e180a" fill-opacity="0.501961" points="145.916753,208.873485,152.644537,214.835024,138.158166,158.468202,129.609094,160.483537" />
<polygon fill="#40473c" fill-opacity="0.501961" points="89.363664,88.395024,94.913190,128.651609,106.748003,155.605570,89.978469,89.510191" />
<rect fill="#a6b29f" fill-opacity="0.501961" x="155" y="175" width="13" height="81" />
<rect fill="#727d6b" fill-opacity="0.501961" x="48" y="161" width="7" height="48" />
<polygon fill="#010a01" fill-opacity="0.501961" points="88,88 78,152 64,141" />
<polygon fill="#020901" fill-opacity="0.501961" points="138.710748,203.038453,138.432768,201.613992,141.716109,245.708821,105.487417,180.857408" />
<polygon fill="#c6d4c0" fill-opacity="0.501961" points="36.670573,65.848740,18.467701,67.592329,36.269241,131.544294,56.204835,72.830865" />
<polygon fill="#98a793" fill-opacity="0.501961" points="23.181994,116.509744,37.504493,151.646244,52.357398,93.886463,48.135976,147.223874" />
<polygon fill="#64725a" fill-opacity="0.501961" points="75.609248,87.866307,67.630499,92.452830,63.075138,98.441806,63.773679,108.396873" />
<ellipse fill="#879482" fill-opacity="0.501961" cx="153" cy="160" rx="7" ry="48" />
<polygon fill="#96a291" fill-opacity="0.501961" points="106,36 148,60 103,77" />
<polygon fill="#3b4334" fill-opacity="0.501961" points="108.570871,219.911384,144.454664,238.485092,103.478170,240.544734,81.403056,212.487866" />
<g transform="translate(149.730618 151.331008) rotate(153.206733) scale(2.421827 22.997027)"><ellipse fill="#576552" fill-opacity="0.501961" cx="0" cy="0" rx="1" ry="1" /></g>
<ellipse fill="#4f5e4a" fill-opacity="0.501961" cx="75" cy="182" rx="10" ry="10" />
<rect fill="#020b00" fill-opacity="0.501961" x="58" y="103" width="6" height="20" />
<ellipse fill="#556350" fill-opacity="0.501961" cx="80" cy="49" rx="9" ry="12" />
<polygon fill="#909b89" fill-opacity="0.501961" points="87.493074,41.728969,86.519126,41.650236,105.991139,94.495488,87.050574,28.516897" />
<polygon fill="#bdcab8" fill-opacity="0.501961" points="187.579810,70.212521,118.493979,47.662662,68.289483,-16.000000,131.911100,36.818512" />
<polygon fill="#a6b2a0" fill-opacity="0.501961" points="119,88 94,63 125,118" />
<polygon fill="#737d6a" fill-opacity="0.501961" points="94,242 110,242 106,271" />
<polygon fill="#011001" fill-opacity="0.501961" points="93,91 107,95 101,90" />
<rect fill="#ccddca" fill-opacity="0.501961" x="58" y="2" width="16" height="23" />
<polygon fill="#6a7564" fill-opacity="0.501961" points="139,209 151,219 135,195" />
<polygon fill="#9aa895" fill-opacity="0.501961" points="42.319321,170.959143,48.635565,174.934388,25.477278,192.367566,20.528638,167.063879" />
<g transform="translate(73 209) rotate(145) scale(18 1)"><rect fill="#1a2412" fill-opacity="0.501961" x="-0.5" y="-0.5" width="1" height="1" /></g>
<g transform="translate(141.753116 11.089289) rotate(347.908581) scale(16.867269 26.042323)"><ellipse fill="#dae9d3" fill-opacity="0.501961" cx="0" cy="0" rx="1" ry="1" /></g>
<ellipse fill="#030a00" fill-opacity="0.501961" cx="71" cy="201" rx="3" ry="3" />
<rect fill="#859281" fill-opacity="0.501961" x="60" y="28" width="8" height="28" />
<polygon fill="#050d04" fill-opacity="0.501961" points="122.039890,220.879558,147.922357,223.249086,108.407050,150.520402,134.108867,118.027250" />
<polygon fill="#11170d" fill-opacity="0.501961" points="129,123 114,104 96,103" />
<polygon fill="#4f5845" fill-opacity="0.501961" points="111,193 96,191 116,208" />
<polygon fill="#96a18c" fill-opacity="0.501961" points="196.292495,235.864327,171.113682,271.000000,141.411678,224.137086,144.033259,271.000000" />
<polygon fill="#9daa98" fill-opacity="0.501961" points="171.308813,186.606768,166.196141,166.896475,148.987046,167.954330,156.412270,210.209532" />
<polygon fill="#c0d0b9" fill-opacity="0.501961" points="11,266 -16,201 34,78" />
<g transform="translate(80 203) rotate(66) scale(1 16)"><rect fill="#989f90" fill-opacity="0.501961" x="-0.5" y="-0.5" width="1" height="1" /></g>
<rect fill="#495343" fill-opacity="0.501961" x="131" y="185" width="5" height="8" />
<rect fill="#40453d" fill-opacity="0.501961" x="76" y="77" width="6" height="21" />
<rect fill="#a7b6a1" fill-opacity="0.501961" x="18" y="97" width="13" height="8" />
<polygon fill="#6a7765" fill-opacity="0.501961" points="92,49 104,71 94,21" />
<polygon fill="#a7b4a2" fill-opacity="0.501961" points="166.995658,123.726874,150.392876,85.331146,146.027275,73.402625,144.191133,124.892486" />
<polygon fill="#596a57" fill-opacity="0.501961" points="113.337548,98.778342,116.777820,102.127131,92.082170,75.740632,116.001992,108.433554" />
<g transform="translate(50 86) rotate(12) scale(21 12)"><rect fill="#d7e3d0" fill-opacity="0.501961" x="-0.5" y="-0.5" width="1" height="1" /></g>
<polygon fill="#707f6c" fill-opacity="0.501961" points="138.605150,83.792133,137.459293,77.060402,128.195338,71.265536,130.974746,98.906412" />
<polygon fill="#8d9a87" fill-opacity="0.501961" points="92.144210,105.080040,126.512751,92.941654,147.158505,113.184319,92.183566,93.308881" />
<g transform="translate(84 200) rotate(76) scale(1 27)"><rect fill="#020a00" fill-opacity="0.501961" x="-0.5" y="-0.5" width="1" height="1" /></g>
<polygon fill="#a8baa5" fill-opacity="0.501961" points="80,64 79,58 74,62" />
<polygon fill="#737f6c" fill-opacity="0.501961" points="138.106472,161.815359,148.366444,155.153799,137.832898,135.334656,134.603798,148.016113" />
<polygon fill="#21291f" fill-opacity="0.501961" points="52.699330,102.860543,61.682609,91.621007,68.870191,57.920693,84.301753,79.717741" />
<g transform="translate(88 93) rotate(212) scale(8 3)"><rect fill="#060e00" fill-opacity="0.501961" x="-0.5" y="-0.5" width="1" height="1" /></g>
<polygon fill="#aeb9a5" fill-opacity="0.501961" points="7.264215,228.411243,94.592205,271.000000,88.387962,227.164298,63.658630,271.000000" />
<rect fill="#889281" fill-opacity="0.501961" x="70" y="158" width="2" height="16" />
<g transform="translate(50 101) rotate(7) scale(7 20)"><rect fill="#b6c2af" fill-opacity="0.501961" x="-0.5" y="-0.5" width="1" height="1" /></g>
<rect fill="#abbca7" fill-opacity="0.501961" x="63" y="151" width="4" height="13" />
<polygon fill="#10190f" fill-opacity="0.501961" points="96,72 72,76 102,80" />
<polygon fill="#717e6c" fill-opacity="0.501961" points="83,218 73,233 97,225" />
<polygon fill="#171b14" fill-opacity="0.501961" points="91.291671,109.516292,126.985221,138.795660,143.799762,136.057654,117.409391,114.981720" />
<ellipse fill="#aab8a6" fill-opacity="0.501961" cx="15" cy="179" rx="2" ry="32" />
<g transform="translate(82 7) rotate(382) scale(5 15)"><rect fill="#869683" fill-opacity="0.501961" x="-0.5" y="-0.5" width="1" height="1" /></g>
<rect fill="#b7c4b2" fill-opacity="0.501961" x="22" y="142" width="22" height="20" />
<polygon fill="#727e6c" fill-opacity="0.501961" points="127.224350,56.555142,108.485805,67.714853,96.922039,56.510032,60.351159,56.945806" />
<rect fill="#bfd0bc" fill-opacity="0.501961" x="87" y="0" width="3" height="19" />
<path stroke="#c4d0bf" stroke-opacity="0.501961" fill="none" d="M -16.000000 8.329179 Q 48.939577 69.299230, 73.874408 69.690810" stroke-width="0.500000" />
<g transform="translate(134.719333 118.530001) rotate(53.268777) scale(20.022027 2.719773)"><ellipse fill="#63715e" fill-opacity="0.501961" cx="0" cy="0" rx="1" ry="1" /></g>
<g transform="translate(93 98) rotate(84) scale(1 11)"><rect fill="#bfc7b5" fill-opacity="0.501961" x="-0.5" y="-0.5" width="1" height="1" /></g>
<rect fill="#bbc8b5" fill-opacity="0.501961" x="170" y="99" width="11" height="129" />
<polygon fill="#1e2a1b" fill-opacity="0.501961" points="98.819581,215.797961,105.839999,237.303232,109.962521,198.272946,70.890298,211.643492" />
<rect fill="#8a9886" fill-opacity="0.501961" x="44" y="114" width="8" height="40" />
<polygon fill="#abb7a7" fill-opacity="0.501961" points="30,215 48,191 32,176" />
<ellipse fill="#707664" fill-opacity="0.501961" cx="100" cy="196" rx="3" ry="3" />
<polygon fill="#d5e4d1" fill-opacity="0.501961" points="30.819075,117.395775,-7.559639,87.844251,63.938833,25.761727,-16.000000,130.824677" />
<polygon fill="#343c2e" fill-opacity="0.501961" points="146.788538,174.822592,153.575714,202.637149,143.583067,176.165051,99.340604,192.276539" />
<g transform="translate(73 233) rotate(274) scale(24 3)"><rect fill="#4d5744" fill-opacity="0.501961" x="-0.5" y="-0.5" width="1" height="1" /></g>
<rect fill="#8a9785" fill-opacity="0.501961" x="76" y="182" width="4" height="17" />
<polygon fill="#10160d" fill-opacity="0.501961" points="57,102 59,123 87,125" />
<polygon fill="#2a3727" fill-opacity="0.501961" points="129.416092,186.859793,142.848329,192.270390,150.090557,219.011074,153.678546,205.389456" />
<g transform="translate(58.833380 40.320233) rotate(18.022171) scale(2.492148 19.472779)"><ellipse fill="#a9b6a4" fill-opacity="0.501961" cx="0" cy="0" rx="1" ry="1" /></g>
<polygon fill="#a8b4a3" fill-opacity="0.501961" points="118,108 105,70 120,71" />
<polygon fill="#505848" fill-opacity="0.501961" points="114,250 96,238 140,240" />
<polygon fill="#7a8673" fill-opacity="0.501961" points="148.434126,143.014918,154.338486,201.733796,157.969522,230.342350,147.680587,188.677703" />
<polygon fill="#060e04" fill-opacity="0.501961" points="132.728342,201.301049,121.029542,112.407461,133.896711,137.350682,74.734786,153.954873" />
<polygon fill="#99a492" fill-opacity="0.501961" points="69.595495,197.771345,58.558709,205.248506,48.105117,228.863792,61.402241,183.826702" />
<polygon fill="#0b130a" fill-opacity="0.501961" points="100.557797,189.155031,91.512425,203.993463,87.721396,200.827081,114.601938,153.851301" />
<g transform="translate(70 80) rotate(352) scale(10 10)"><rect fill="#050e05" fill-opacity="0.501961" x="-0.5" y="-0.5" width="1" height="1" /></g>
<polygon fill="#3e4c39" fill-opacity="0.501961" points="69.063111,185.834489,79.439010,169.197954,73.841593,196.459139,72.790934,174.322490" />
<polygon fill="#bac6b4" fill-opacity="0.501961" points="42.178494,73.444245,56.365415,37.723161,47.566933,43.720592,25.410424,77.970867" />
<g transform="translate(70 67) rotate(112) scale(1 30)"><rect fill="#141b12" fill-opacity="0.501961" x="-0.5" y="-0.5" width="1" height="1" /></g>
<g transform="translate(85.453810 27.175303) rotate(188.058408) scale(11.848896 8.332876)"><ellipse fill="#7c8c78" fill-opacity="0.501961" cx="0" cy="0" rx="1" ry="1" /></g>
<g transform="translate(137 140) rotate(337) scale(12 5)"><rect fill="#3b4937" fill-opacity="0.501961" x="-0.5" y="-0.5" width="1" height="1" /></g>
<rect fill="#626f5b" fill-opacity="0.501961" x="55" y="145" width="7" height="14" />
<g transform="translate(65.999721 98.338535) rotate(327.622728) scale(5.279251 4.311284)"><ellipse fill="#636f59" fill-opacity="0.501961" cx="0" cy="0" rx="1" ry="1" /></g>
<polygon fill="#9dab99" fill-opacity="0.501961" points="114.832555,48.066299,104.128882,46.201318,103.310843,24.301278,140.898917,66.352132" />
<g transform="translate(107 102) rotate(158) scale(1 51)"><rect fill="#475245" fill-opacity="0.501961" x="-0.5" y="-0.5" width="1" height="1" /></g>
<polygon fill="#b1beac" fill-opacity="0.501961" points="168,140 157,146 171,180" />
<g transform="translate(149.447235 160.610615) rotate(323.220211) scale(2.827461 24.823272)"><ellipse fill="#7c8977" fill-opacity="0.501961" cx="0" cy="0" rx="1" ry="1" /></g>
<rect fill="#d3ddca" fill-opacity="0.501961" x="56" y="77" width="6" height="14" />
<ellipse fill="#65715f" fill-opacity="0.501961" cx="52" cy="129" rx="2" ry="9" />
<polygon fill="#131a12" fill-opacity="0.501961" points="122,153 104,138 110,106" />
<ellipse fill="#4b5442" fill-opacity="0.501961" cx="67" cy="202" rx="3" ry="3" />
<g transform="translate(147 199) rotate(148) scale(1 16)"><rect fill="#000900" fill-opacity="0.501961" x="-0.5" y="-0.5" width="1" height="1" /></g>
<rect fill="#c8d6c3" fill-opacity="0.501961" x="178" y="63" width="5" height="112" />
<rect fill="#172113" fill-opacity="0.501961" x="66" y="77" width="2" height="21" />
<g transform="translate(94.713079 184.726800) rotate(183.502974) scale(1.000000 4.630476)"><ellipse fill="#767d6d" fill-opacity="0.501961" cx="0" cy="0" rx="1" ry="1" /></g>
<polygon fill="#abb6a2" fill-opacity="0.501961" points="171.969663,222.039522,154.424158,220.733625,165.277008,265.450229,198.000000,241.505732" />
<polygon fill="#707d6b" fill-opacity="0.501961" points="108.015910,52.051863,69.312185,53.540324,109.478482,32.615383,89.876886,33.695461" />
<rect fill="#c3cfbe" fill-opacity="0.501961" x="142" y="48" width="28" height="26" />
<rect fill="#b3c0ae" fill-opacity="0.501961" x="161" y="204" width="22" height="27" />
<polygon fill="#111a0f" fill-opacity="0.501961" points="93.298148,88.393609,66.931442,60.762751,94.429579,75.435676,80.389531,55.944866" />
<polygon fill="#849180" fill-opacity="0.501961" points="150.243191,146.139577,144.535478,97.610199,141.155434,129.683194,160.708557,135.586674" />
<polygon fill="#131a11" fill-opacity="0.501961" points="89,88 84,111 65,109" />
<polygon fill="#151e12" fill-opacity="0.501961" points="55.878862,58.644759,68.970988,64.936975,98.097015,74.030384,56.978743,63.616071" />
<polygon fill="#8a9784" fill-opacity="0.501961" points="69,219 49,236 63,213" />
<polygon fill="#121a11" fill-opacity="0.501961" points="110,158 91,142 110,177" />
<polygon fill="#879581" fill-opacity="0.501961" points="139.070155,271.000000,144.256492,244.157836,157.403194,244.262513,147.007499,224.100646" />
<polygon fill="#9aa593" fill-opacity="0.501961" points="120.894735,102.274235,96.894493,80.534982,115.846759,77.523705,95.404363,69.731911" />
<polygon fill="#c7d6c3" fill-opacity="0.501961" points="63.192897,26.717271,69.242482,12.130590,68.187461,5.288069,36.305605,65.308941" />
<polygon fill="#040b03" fill-opacity="0.501961" points="122.655815,142.251313,140.402507,236.507401,112.558994,180.625331,146.678720,190.030735" />
<polygon fill="#909988" fill-opacity="0.501961" points="57.044581,220.465187,32.669967,204.537391,88.745180,197.280945,58.843386,198.223030" />
<polygon fill="#495340" fill-opacity="0.501961" points="136.114804,143.080342,145.672937,186.989971,145.310421,171.098684,140.529459,154.743524" />
<polygon fill="#3b4136" fill-opacity="0.501961" points="144.513793,239.254869,126.918847,225.684479,141.654519,246.631839,132.722377,224.730454" />
<polygon fill="#a0ae9b" fill-opacity="0.501961" points="28,117 29,146 46,144" />
<g transform="translate(103 115) rotate(304) scale(1 29)"><rect fill="#090e05" fill-opacity="0.501961" x="-0.5" y="-0.5" width="1" height="1" /></g>
<g transform="translate(25.214620 214.872950) rotate(193.811616) scale(10.253270 30.218403)"><ellipse fill="#b7c3b0" fill-opacity="0.501961" cx="0" cy="0" rx="1" ry="1" /></g>
<g transform="translate(133 247) rotate(234) scale(20 6)"><rect fill="#656f5c" fill-opacity="0.501961" x="-0.5" y="-0.5" width="1" height="1" /></g>
<path stroke="#6f7968" stroke-opacity="0.501961" fill="none" d="M 132.251164 189.770585 Q 176.522904 255.375101, 96.179945 265.054401" stroke-width="0.500000" />
<g transform="translate(61.979400 209.077030) rotate(74.225320) scale(1.000000 16.169275)"><ellipse fill="#a5b19e" fill-opacity="0.501961" cx="0" cy="0" rx="1" ry="1" /></g>
<path stroke="#2a3426" stroke-opacity="0.501961" fill="none" d="M 78.686727 90.783573 Q 123.508163 99.964840, 140.920063 161.124988" stroke-width="0.500000" />
<ellipse fill="#9bab9f" fill-opacity="0.501961" cx="73" cy="61" rx="2" ry="2" />
<g transform="translate(44 62) rotate(154) scale(17 9)"><rect fill="#b0bba8" fill-opacity="0.501961" x="-0.5" y="-0.5" width="1" height="1" /></g>
<g transform="translate(173.563961 10.750413) rotate(233.779277) scale(21.583971 55.950671)"><ellipse fill="#d3e1cd" fill-opacity="0.501961" cx="0" cy="0" rx="1" ry="1" /></g>
<polygon fill="#747f6d" fill-opacity="0.501961" points="65,62 58,52 74,26" />
<g transform="translate(64 73) rotate(199) scale(41 1)"><rect fill="#1b2217" fill-opacity="0.501961" x="-0.5" y="-0.5" width="1" height="1" /></g>
<polygon fill="#c1cfbd" fill-opacity="0.501961" points="132.715443,47.795967,129.566781,37.609628,127.977290,14.056379,112.695308,24.509449" />
<ellipse fill="#060f05" fill-opacity="0.501961" cx="79" cy="67" rx="3" ry="4" />
<rect fill="#151f12" fill-opacity="0.501961" x="78" y="167" width="19" height="9" />
<polygon fill="#c0cbba" fill-opacity="0.501961" points="55.829506,72.473942,21.321319,85.749228,42.232245,56.992005,33.364685,64.134635" />
<polygon fill="#adbaa8" fill-opacity="0.501961" points="27.013622,140.597395,20.538783,120.944378,50.134604,164.282971,21.284671,168.981276" />
<rect fill="#7d8b79" fill-opacity="0.501961" x="47" y="159" width="19" height="24" />
<g transform="translate(5.244686 68.818656) rotate(67.255303) scale(31.612093 18.533418)"><ellipse fill="#dbe8d5" fill-opacity="0.501961" cx="0" cy="0" rx="1" ry="1" /></g>
<polygon fill="#65705f" fill-opacity="0.501961" points="49,130 56,131 54,113" />
<rect fill="#acbba8" fill-opacity="0.501961" x="46" y="118" width="2" height="23" />
<path stroke="#4e554b" stroke-opacity="0.501961" fill="none" d="M 102.638042 141.213851 Q 87.949523 115.934473, 101.470093 101.646496" stroke-width="0.500000" />
<polygon fill="#586452" fill-opacity="0.501961" points="79.848320,46.443432,61.911322,69.608063,73.935880,34.467586,76.647186,23.806325" />
<rect fill="#8e9a8a" fill-opacity="0.501961" x="69" y="89" width="2" height="10" />
<polygon fill="#9da998" fill-opacity="0.501961" points="122.118904,100.433196,104.697021,89.633464,102.238025,85.327701,144.007284,103.105076" />
<g transform="translate(6.990199 151.766049) rotate(105.130471) scale(49.846800 4.448977)"><ellipse fill="#cddac7" fill-opacity="0.501961" cx="0" cy="0" rx="1" ry="1" /></g>
<polygon fill="#0e180d" fill-opacity="0.501961" points="126.722806,192.553965,148.169727,223.120440,147.084086,223.557101,145.974566,230.335842" />
<ellipse fill="#bbc1bb" fill-opacity="0.501961" cx="68" cy="68" rx="1" ry="1" />
<rect fill="#424938" fill-opacity="0.501961" x="102" y="184" width="5" height="16" />
<polygon fill="#404c3c" fill-opacity="0.501961" points="129.540818,169.428063,151.943146,233.917352,153.740199,197.096457,152.318246,226.161718" />
<polygon fill="#0d170d" fill-opacity="0.501961" points="77,65 94,75 103,96" />
<polygon fill="#2b3229" fill-opacity="0.501961" points="71,101 84,109 77,67" />
<polygon fill="#2b3025" fill-opacity="0.501961" points="69.759451,137.630546,54.164095,133.481767,59.610941,148.267792,66.792462,120.141918" />
<g transform="translate(25.478167 6.766233) rotate(69.456924) scale(20.473202 56.241883)"><ellipse fill="#e4f0de" fill-opacity="0.501961" cx="0" cy="0" rx="1" ry="1" /></g>
<g transform="translate(89 40) rotate(76) scale(47 1)"><rect fill="#919f8c" fill-opacity="0.501961" x="-0.5" y="-0.5" width="1" height="1" /></g>
<g transform="translate(95 105) rotate(319) scale(1 16)"><rect fill="#4d5645" fill-opacity="0.501961" x="-0.5" y="-0.5" width="1" height="1" /></g>
<ellipse fill="#6c7f68" fill-opacity="0.501961" cx="108" cy="97" rx="5" ry="5" />
<ellipse fill="#d5e4d2" fill-opacity="0.501961" cx="72" cy="0" rx="3" ry="27" />
<polygon fill="#93a08e" fill-opacity="0.501961" points="141.520495,95.027835,148.544553,102.030460,148.259830,122.648099,136.250582,111.531622" />
<polygon fill="#535b4a" fill-opacity="0.501961" points="105,249 101,224 97,235" />
<polygon fill="#424841" fill-opacity="0.501961" points="101,127 95,122 101,142" />
<polygon fill="#a8b6a3" fill-opacity="0.501961" points="120.780345,102.648242,109.319985,89.179467,120.420308,110.597635,123.501433,117.040849" />
<g transform="translate(88 218) rotate(120) scale(5 2)"><rect fill="#656c5a" fill-opacity="0.501961" x="-0.5" y="-0.5" width="1" height="1" /></g>
<polygon fill="#192115" fill-opacity="0.501961" points="73,208 80,219 90,206" />
<polygon fill="#c5d4bf" fill-opacity="0.501961" points="14.752356,101.211984,11.226261,133.814965,33.728251,125.277186,48.352510,106.700719" />
<polygon fill="#515f4d" fill-opacity="0.501961" points="87.183721,186.125466,94.489866,175.275489,78.235774,182.186867,65.491489,162.704523" />
<polygon fill="#020901" fill-opacity="0.501961" points="101.392055,121.264142,110.284485,176.953906,95.140629,174.477566,136.577566,209.898765" />
<polygon fill="#657360" fill-opacity="0.501961" points="92.179327,54.423081,84.386742,28.764943,74.373001,60.381182,89.298203,60.756907" />
<g transform="translate(141 208) rotate(238) scale(15 1)"><rect fill="#7a8775" fill-opacity="0.501961" x="-0.5" y="-0.5" width="1" height="1" /></g>
<g transform="translate(141 191) rotate(65) scale(10 1)"><rect fill="#424840" fill-opacity="0.501961" x="-0.5" y="-0.5" width="1" height="1" /></g>
<polygon fill="#070f06" fill-opacity="0.501961" points="80,172 86,99 64,138" />
<g transform="translate(45 140) rotate(97) scale(1 15)"><rect fill="#7f8b7a" fill-opacity="0.501961" x="-0.5" y="-0.5" width="1" height="1" /></g>
<g transform="translate(99 98) rotate(-13) scale(13 3)"><rect fill="#adb6a2" fill-opacity="0.501961" x="-0.5" y="-0.5" width="1" height="1" /></g>
<ellipse fill="#8e9984" fill-opacity="0.501961" cx="94" cy="255" rx="3" ry="30" />
<g transform="translate(94 113) rotate(332) scale(1 13)"><rect fill="#585e54" fill-opacity="0.501961" x="-0.5" y="-0.5" width="1" height="1" /></g>
<polygon fill="#9ca896" fill-opacity="0.501961" points="36,202 37,149 50,200" />
<g transform="translate(75 225) rotate(-11) scale(1 13)"><rect fill="#2c3a26" fill-opacity="0.501961" x="-0.5" y="-0.5" width="1" height="1" /></g>
<polygon fill="#020a01" fill-opacity="0.501961" points="73.456862,122.456273,96.656309,135.941529,85.008228,106.080585,88.386823,162.685603" />
<g transform="translate(137 155) rotate(166) scale(3 8)"><rect fill="#8f9f8c" fill-opacity="0.501961" x="-0.5" y="-0.5" width="1" height="1" /></g>
<polygon fill="#919e8c" fill-opacity="0.501961" points="65.081022,207.085237,63.267665,185.166352,59.740286,156.748437,54.341766,202.634179" />
<polygon fill="#859480" fill-opacity="0.501961" points="131.776396,113.810298,138.761216,113.092789,119.743489,104.255453,115.410244,91.016021" />
<polygon fill="#272d24" fill-opacity="0.501961" points="129.527456,233.182245,124.995757,213.078276,142.025838,243.272242,138.999929,238.736117" />
<polygon fill="#b1b9a6" fill-opacity="0.501961" points="52.800091,229.653619,58.412936,252.293929,15.125038,242.042803,68.096668,207.915779" />
<polygon fill="#242a22" fill-opacity="0.501961" points="112,114 118,127 99,121" />
<rect fill="#727b66" fill-opacity="0.501961" x="87" y="99" width="6" height="6" />
<polygon fill="#a0af9d" fill-opacity="0.501961" points="66.619709,32.164846,67.161701,21.534117,81.821409,22.122801,77.007327,12.307212" />
<polygon fill="#929f8d" fill-opacity="0.501961" points="52.291708,171.737665,53.951266,132.536660,37.014080,143.502728,38.659411,122.554096" />
<polygon fill="#a7b4a2" fill-opacity="0.501961" points="125.775746,41.568913,153.836489,99.316320,159.423827,136.767027,124.037619,43.053735" />
<rect fill="#88907d" fill-opacity="0.501961" x="104" y="252" width="7" height="4" />
<g transform="translate(51 62) rotate(349) scale(5 3)"><rect fill="#e1ead7" fill-opacity="0.501961" x="-0.5" y="-0.5" width="1" height="1" /></g>
<rect fill="#6d7d69" fill-opacity="0.501961" x="146" y="224" width="1" height="12" />
<polygon fill="#859280" fill-opacity="0.501961" points="135,56 118,57 117,68" />
<polygon fill="#cbd8c6" fill-opacity="0.501961" points="36.529534,120.324628,53.504208,69.275659,54.533289,100.149308,40.449242,82.969759" />
<polygon fill="#273021" fill-opacity="0.501961" points="110.733031,233.337624,106.719956,179.178716,115.235579,251.925558,117.487107,234.679166" />
<rect fill="#99a694" fill-opacity="0.501961" x="156" y="106" width="5" height="52" />
<polygon fill="#b6c3b2" fill-opacity="0.501961" points="22.782557,101.163389,40.848385,83.597993,38.070165,96.527914,19.002094,109.908797" />
<path stroke="#3d4636" stroke-opacity="0.501961" fill="none" d="M 63.298590 216.215033 Q 72.948843 205.669009, 88.877886 201.590438" stroke-width="0.500000" />
<rect fill="#4f564f" fill-opacity="0.501961" x="65" y="67" width="4" height="6" />
<g transform="translate(83.394347 176.156770) rotate(39.826934) scale(7.132358 3.777048)"><ellipse fill="#2d3a29" fill-opacity="0.501961" cx="0" cy="0" rx="1" ry="1" /></g>
<path stroke="#151d13" stroke-opacity="0.501961" fill="none" d="M 84.295916 68.408662 Q 92.780989 93.615265, 104.686540 97.022812" stroke-width="0.500000" />
<g transform="translate(59 89) rotate(198) scale(1 11)"><rect fill="#d6dcc8" fill-opacity="0.501961" x="-0.5" y="-0.5" width="1" height="1" /></g>
<rect fill="#151e14" fill-opacity="0.501961" x="117" y="147" width="13" height="7" />
<polygon fill="#070f06" fill-opacity="0.501961" points="126,135 106,133 96,119" />
<path stroke="#bcc8b6" stroke-opacity="0.501961" fill="none" d="M 0.924159 49.506975 Q 56.653275 65.354993, 66.163107 68.070727" stroke-width="0.500000" />
<polygon fill="#182115" fill-opacity="0.501961" points="89.194537,225.980250,96.749998,211.348810,86.155129,199.042561,97.822858,188.437399" />
<polygon fill="#31402e" fill-opacity="0.501961" points="147.385645,211.804018,154.141709,225.707182,144.801923,194.138465,145.086143,205.703966" />
<ellipse fill="#afbeab" fill-opacity="0.501961" cx="76" cy="63" rx="2" ry="2" />
<g transform="translate(125.526645 123.265760) rotate(150.721528) scale(1.683555 14.699890)"><ellipse fill="#0a1208" fill-opacity="0.501961" cx="0" cy="0" rx="1" ry="1" /></g>
<polygon fill="#111a11" fill-opacity="0.501961" points="66.674832,59.995274,90.522678,87.990049,71.277211,71.909099,100.591116,77.425106" />
<g transform="translate(100 105) rotate(295) scale(11 1)"><rect fill="#434e3b" fill-opacity="0.501961" x="-0.5" y="-0.5" width="1" height="1" /></g>
<g transform="translate(136 147) rotate(249) scale(25 1)"><rect fill="#3a4a38" fill-opacity="0.501961" x="-0.5" y="-0.5" width="1" height="1" /></g>
<polygon fill="#0a1208" fill-opacity="0.501961" points="145.659986,192.330832,145.503792,175.718724,131.886170,175.990150,118.588390,177.281187" />
<polygon fill="#d9e8d3" fill-opacity="0.501961" points="0.719508,83.187307,59.151024,22.666543,43.513173,58.690411,12.457720,27.573536" />
<g transform="translate(112.853141 0.873788) rotate(53.933705) scale(15.386415 21.395917)"><ellipse fill="#d1e2ce" fill-opacity="0.501961" cx="0" cy="0" rx="1" ry="1" /></g>
<path stroke="#252d21" stroke-opacity="0.501961" fill="none" d="M 61.591829 135.878569 Q 54.434288 103.382560, 55.976203 96.494039" stroke-width="0.500000" />
<g transform="translate(95 199) rotate(66) scale(11 4)"><rect fill="#050c06" fill-opacity="0.501961" x="-0.5" y="-0.5" width="1" height="1" /></g>
<polygon fill="#909c8a" fill-opacity="0.501961" points="73.484643,240.019250,58.920088,261.976355,87.034961,232.305108,87.657456,221.072073" />
<path stroke="#b5c1b0" stroke-opacity="0.501961" fill="none" d="M 80.009479 202.168526 Q 38.195056 228.605709, -6.044642 207.338810" stroke-width="0.500000" />
<polygon fill="#020900" fill-opacity="0.501961" points="101,132 114,172 137,180" />
<ellipse fill="#a6b4a1" fill-opacity="0.501961" cx="50" cy="119" rx="3" ry="3" />
<polygon fill="#6c7967" fill-opacity="0.501961" points="147.057119,162.207372,148.790720,153.520034,159.775898,161.516830,161.003367,166.106087" />
<g transform="translate(101 139) rotate(299) scale(1 4)"><rect fill="#777e76" fill-opacity="0.501961" x="-0.5" y="-0.5" width="1" height="1" /></g>
<path stroke="#55614f" stroke-opacity="0.501961" fill="none" d="M 40.492154 69.921778 Q 81.280605 60.181392, 86.156004 35.504758" stroke-width="0.500000" />
<path stroke="#8b9784" stroke-opacity="0.501961" fill="none" d="M 144.120177 205.108998 Q 161.635370 249.217335, 170.968120 267.594860" stroke-width="0.500000" />
<polygon fill="#1d241a" fill-opacity="0.501961" points="123.090693,236.193267,118.462626,206.620138,129.646837,229.504947,115.516390,221.241956" />
<polygon fill="#7b8774" fill-opacity="0.501961" points="66.716612,214.669571,71.465334,211.707465,69.123471,201.238633,72.858787,258.007766" />
<polygon fill="#a0ae9c" fill-opacity="0.501961" points="95,13 86,13 107,32" />
<path stroke="#7a8473" stroke-opacity="0.501961" fill="none" d="M 130.349191 180.878532 Q 135.042186 202.570954, 169.807785 255.118623" stroke-width="0.500000" />
<path stroke="#1b2219" stroke-opacity="0.501961" fill="none" d="M 57.522856 58.295129 Q 92.269889 149.005154, 115.277840 183.259676" stroke-width="0.500000" />
<g transform="translate(95 113) rotate(229) scale(1 4)"><rect fill="#7a7d78" fill-opacity="0.501961" x="-0.5" y="-0.5" width="1" height="1" /></g>
<polygon fill="#1b2312" fill-opacity="0.501961" points="73,199 67,199 75,204" />
<polygon fill="#a8b39f" fill-opacity="0.501961" points="153,228 186,246 168,271" />
<g transform="translate(49 58) rotate(136) scale(2 6)"><rect fill="#858c76" fill-opacity="0.501961" x="-0.5" y="-0.5" width="1" height="1" /></g>
<rect fill="#808f7a" fill-opacity="0.501961" x="90" y="179" width="4" height="8" />
<polygon fill="#3d443a" fill-opacity="0.501961" points="69,87 83,88 82,92" />
<g transform="translate(49.756423 187.332972) rotate(174.852239) scale(1.000000 15.954790)"><ellipse fill="#717d6a" fill-opacity="0.501961" cx="0" cy="0" rx="1" ry="1" /></g>
<path stroke="#0a1208" stroke-opacity="0.501961" fill="none" d="M 143.594451 208.081504 Q 125.562884 163.518398, 97.146888 144.306300" stroke-width="0.500000" />
<g transform="translate(92 73) rotate(46) scale(11 4)"><rect fill="#030d03" fill-opacity="0.501961" x="-0.5" y="-0.5" width="1" height="1" /></g>
<g transform="translate(64.392578 210.530753) rotate(152.581846) scale(19.838273 1.000000)"><ellipse fill="#a4af9e" fill-opacity="0.501961" cx="0" cy="0" rx="1" ry="1" /></g>
<polygon fill="#a0ab98" fill-opacity="0.501961" points="89.867252,249.904701,75.171197,243.972665,86.232942,228.379727,104.048908,271.000000" />
<path stroke="#46513f" stroke-opacity="0.501961" fill="none" d="M 71.330835 239.768786 Q 80.548980 236.687541, 73.277908 185.389871" stroke-width="0.500000" />
<path stroke="#5a6258" stroke-opacity="0.501961" fill="none" d="M 44.100267 66.701672 Q 54.592734 60.236197, 77.033859 71.936321" stroke-width="0.500000" />
<polygon fill="#a1ae9c" fill-opacity="0.501961" points="157.181730,171.949299,149.344295,168.171831,176.459573,188.681837,156.192666,194.863946" />
<path stroke="#c6d4c0" stroke-opacity="0.501961" fill="none" d="M 57.237512 61.756946 Q 33.832648 55.437812, 55.701505 18.905400" stroke-width="0.500000" />
<g transform="translate(52 227) rotate(14) scale(2 41)"><rect fill="#a2ab98" fill-opacity="0.501961" x="-0.5" y="-0.5" width="1" height="1" /></g>
<polygon fill="#b5c2b0" fill-opacity="0.501961" points="175,151 155,92 173,95" />
<g transform="translate(131 118) rotate(101) scale(4 14)"><rect fill="#4d5948" fill-opacity="0.501961" x="-0.5" y="-0.5" width="1" height="1" /></g>
<g transform="translate(94 94) rotate(8) scale(3 1)"><rect fill="#ccd3c9" fill-opacity="0.501961" x="-0.5" y="-0.5" width="1" height="1" /></g>
<g transform="translate(141 136) rotate(340) scale(1 30)"><rect fill="#434e3b" fill-opacity="0.501961" x="-0.5" y="-0.5" width="1" height="1" /></g>
<g transform="translate(10.218968 246.666838) rotate(52.777380) scale(26.529350 14.278476)"><ellipse fill="#bfc7b0" fill-opacity="0.501961" cx="0" cy="0" rx="1" ry="1" /></g>
<polygon fill="#cedcc9" fill-opacity="0.501961" points="18,154 21,165 23,143" />
<g transform="translate(140 150) rotate(322) scale(4 4)"><rect fill="#9fad9a" fill-opacity="0.501961" x="-0.5" y="-0.5" width="1" height="1" /></g>
<g transform="translate(125 110) rotate(112) scale(8 3)"><rect fill="#6f7d68" fill-opacity="0.501961" x="-0.5" y="-0.5" width="1" height="1" /></g>
<polygon fill="#5a6250" fill-opacity="0.501961" points="62.683313,90.695684,67.010719,103.704062,61.426032,99.652492,67.392560,87.853100" />
<polygon fill="#151a12" fill-opacity="0.501961" points="89.667773,91.902563,62.868435,113.344446,69.177877,141.924595,53.642728,127.588539" />
<ellipse fill="#9ba996" fill-opacity="0.501961" cx="24" cy="173" rx="2" ry="15" />
<g transform="translate(96.377672 231.153008) rotate(191.172683) scale(3.157044 5.429543)"><ellipse fill="#677261" fill-opacity="0.501961" cx="0" cy="0" rx="1" ry="1" /></g>
<rect fill="#566050" fill-opacity="0.501961" x="53" y="111" width="3" height="27" />
<polygon fill="#bdc6b5" fill-opacity="0.501961" points="42.094127,212.276017,41.059938,223.029717,37.155133,241.406431,26.289717,222.794699" />
<polygon fill="#010900" fill-opacity="0.501961" points="120.870156,210.235463,124.398376,179.495453,145.608641,222.136317,96.159447,164.500794" />
<rect fill="#555d4f" fill-opacity="0.501961" x="60" y="138" width="2" height="16" />
<rect fill="#5a6351" fill-opacity="0.501961" x="139" y="158" width="5" height="11" />
<path stroke="#7f8b78" stroke-opacity="0.501961" fill="none" d="M 139.957079 138.246615 Q 154.386261 199.486254, 160.165884 233.567675" stroke-width="0.500000" />
<g transform="translate(55 238) rotate(199) scale(1 31)"><rect fill="#b4beab" fill-opacity="0.501961" x="-0.5" y="-0.5" width="1" height="1" /></g>
<path stroke="#333a2f" stroke-opacity="0.501961" fill="none" d="M 85.502908 81.723700 Q 107.735303 108.734934, 102.839005 114.536732" stroke-width="0.500000" />
<polygon fill="#717e6c" fill-opacity="0.501961" points="51.961184,150.013312,64.437326,147.173301,50.858097,181.296767,58.406109,168.114317" />
<polygon fill="#7d8774" fill-opacity="0.501961" points="138.384060,261.457401,146.195729,244.068649,127.819378,268.267408,128.567175,241.996596" />
<path stroke="#10180c" stroke-opacity="0.501961" fill="none" d="M 58.685616 98.474210 Q 69.772601 71.641319, 87.146478 68.890238" stroke-width="0.500000" />
<polygon fill="#909b88" fill-opacity="0.501961" points="69.291919,220.308203,55.552219,255.470636,55.206426,271.000000,61.823082,216.710873" />
<ellipse fill="#c4d1bf" fill-opacity="0.501961" cx="165" cy="72" rx="10" ry="23" />
<rect fill="#212a1a" fill-opacity="0.501961" x="120" y="243" width="3" height="3" />
<rect fill="#cad8c5" fill-opacity="0.501961" x="0" y="144" width="13" height="51" />
<g transform="translate(66 102) rotate(21) scale(1 9)"><rect fill="#626c5d" fill-opacity="0.501961" x="-0.5" y="-0.5" width="1" height="1" /></g>
<ellipse fill="#b3c5af" fill-opacity="0.501961" cx="80" cy="62" rx="1" ry="1" />
<rect fill="#bac8b5" fill-opacity="0.501961" x="41" y="125" width="3" height="14" />
<path stroke="#7d8b79" stroke-opacity="0.501961" fill="none" d="M 68.684157 148.735681 Q 70.681907 176.656468, 27.135741 173.455366" stroke-width="0.500000" />
<g transform="translate(115.319126 114.527418) rotate(310.344399) scale(1.000000 17.213372)"><ellipse fill="#0d120b" fill-opacity="0.501961" cx="0" cy="0" rx="1" ry="1" /></g>
<path stroke="#55604f" stroke-opacity="0.501961" fill="none" d="M 58.915560 223.369199 Q 66.034617 211.040335, 79.910981 207.921008" stroke-width="0.500000" />
<rect fill="#424a3a" fill-opacity="0.501961" x="113" y="214" width="2" height="39" />
<g transform="translate(49.638895 134.399485) rotate(285.434033) scale(15.691143 1.000000)"><ellipse fill="#7c8876" fill-opacity="0.501961" cx="0" cy="0" rx="1" ry="1" /></g>
<path stroke="#5a6152" stroke-opacity="0.501961" fill="none" d="M 74.296711 271.000000 Q 147.970752 267.568092, 136.987434 231.013561" stroke-width="0.500000" />
<polygon fill="#687061" fill-opacity="0.501961" points="102,197 97,194 100,192" />
<path stroke="#111910" stroke-opacity="0.501961" fill="none" d="M 134.405710 249.528912 Q 129.976785 195.595950, 96.917552 135.212549" stroke-width="0.500000" />
<g transform="translate(109.901319 113.810799) rotate(125.320542) scale(1.000000 14.527312)"><ellipse fill="#2c3028" fill-opacity="0.501961" cx="0" cy="0" rx="1" ry="1" /></g>
<path stroke="#383f2f" stroke-opacity="0.501961" fill="none" d="M 89.312969 200.959833 Q 76.674267 194.941315, 65.305435 202.189195" stroke-width="0.500000" />
<rect fill="#a6b5a3" fill-opacity="0.501961" x="76" y="6" width="4" height="5" />
<g transform="translate(106 86) rotate(173) scale(5 13)"><rect fill="#9ba393" fill-opacity="0.501961" x="-0.5" y="-0.5" width="1" height="1" /></g>
<g transform="translate(110 87) rotate(245) scale(15 1)"><rect fill="#b8c2b1" fill-opacity="0.501961" x="-0.5" y="-0.5" width="1" height="1" /></g>
<polygon fill="#74806f" fill-opacity="0.501961" points="83.033128,17.577190,84.388178,51.367025,80.722008,40.686207,80.716664,4.151433" />
<polygon fill="#b5c1af" fill-opacity="0.501961" points="58.380891,52.816471,56.001915,46.688856,45.925720,39.783896,59.019578,56.591690" />
<polygon fill="#899885" fill-opacity="0.501961" points="89,30 90,13 103,34" />
<polygon fill="#a4b09f" fill-opacity="0.501961" points="140.987231,65.986967,148.457985,52.368871,124.452584,63.109393,129.089155,67.321947" />
<polygon fill="#202a1b" fill-opacity="0.501961" points="98.524805,193.715578,75.122286,207.571362,100.697462,212.771436,69.266026,210.385267" />
<g transform="translate(88 92) rotate(316) scale(1 12)"><rect fill="#151e12" fill-opacity="0.501961" x="-0.5" y="-0.5" width="1" height="1" /></g>
<polygon fill="#273422" fill-opacity="0.501961" points="86,203 118,208 110,216" />
<polygon fill="#828f7d" fill-opacity="0.501961" points="135.325112,117.049439,161.565208,138.796458,147.239749,144.062531,137.345747,111.148806" />
<path stroke="#4a5343" stroke-opacity="0.501961" fill="none" d="M 96.871404 188.708176 Q 75.397008 193.225029, 71.978515 262.610267" stroke-width="0.500000" />
<polygon fill="#73806e" fill-opacity="0.501961" points="137.398582,90.386506,127.283558,72.159341,133.498062,109.647752,128.088520,118.329674" />
<path stroke="#0e160c" stroke-opacity="0.501961" fill="none" d="M 110.865092 215.945856 Q 103.167648 148.869178, 103.147649 112.939840" stroke-width="0.500000" />
<polygon fill="#becbb9" fill-opacity="0.501961" points="12,216 21,166 25,207" />
<polygon fill="#a6b2a2" fill-opacity="0.501961" points="31,211 40,214 40,192" />
<polygon fill="#aebba9" fill-opacity="0.501961" points="30,118 37,126 22,121" />
<polygon fill="#040c03" fill-opacity="0.501961" points="130.603524,144.566225,124.627590,121.069091,136.431101,135.683380,112.118674,138.029804" />
<rect fill="#5f6c5a" fill-opacity="0.501961" x="67" y="165" width="2" height="28" />
<ellipse fill="#636b59" fill-opacity="0.501961" cx="100" cy="247" rx="1" ry="29" />
<path stroke="#b3bfae" stroke-opacity="0.501961" fill="none" d="M -10.817170 199.541967 Q 58.784444 230.868350, 69.398944 202.047932" stroke-width="0.500000" />
<polygon fill="#afbfad" fill-opacity="0.501961" points="55.443076,223.226395,60.741610,219.154513,64.499188,204.614874,58.736943,207.919524" />
<g transform="translate(43 89) rotate(116) scale(17 3)"><rect fill="#d8e5d3" fill-opacity="0.501961" x="-0.5" y="-0.5" width="1" height="1" /></g>
<g transform="translate(100 113) rotate(129) scale(1 16)"><rect fill="#070b04" fill-opacity="0.501961" x="-0.5" y="-0.5" width="1" height="1" /></g>
<polygon fill="#b2bead" fill-opacity="0.501961" points="147,112 149,90 178,96" />
<ellipse fill="#1c2612" fill-opacity="0.501961" cx="50" cy="68" rx="2" ry="2" />
<g transform="translate(120 107) rotate(250) scale(7 1)"><rect fill="#becebc" fill-opacity="0.501961" x="-0.5" y="-0.5" width="1" height="1" /></g>
<rect fill="#cdd9c6" fill-opacity="0.501961" x="43" y="70" width="7" height="11" />
<polygon fill="#ccdac7" fill-opacity="0.501961" points="38,105 19,107 38,124" />
<g transform="translate(63 198) rotate(43) scale(7 9)"><rect fill="#9ca996" fill-opacity="0.501961" x="-0.5" y="-0.5" width="1" height="1" /></g>
<polygon fill="#aebeab" fill-opacity="0.501961" points="63,32 58,32 60,20" />
<rect fill="#83857f" fill-opacity="0.501961" x="62" y="77" width="1" height="8" />
<path stroke="#a1ae9b" stroke-opacity="0.501961" fill="none" d="M 151.635485 216.336562 Q 158.572065 229.448597, 171.819370 271.000000" stroke-width="0.500000" />
<path stroke="#374233" stroke-opacity="0.501961" fill="none" d="M 57.412667 123.195563 Q 56.724405 104.129059, 55.574812 93.666831" stroke-width="0.500000" />
<rect fill="#737d67" fill-opacity="0.501961" x="61" y="100" width="6" height="2" />
<polygon fill="#cddac7" fill-opacity="0.501961" points="169.540989,76.848356,185.506235,7.549514,198.000000,80.787330,157.873527,82.684440" />
<rect fill="#c4d4c0" fill-opacity="0.501961" x="88" y="0" width="7" height="13" />
<polygon fill="#3b4535" fill-opacity="0.501961" points="125.747852,106.190054,128.841762,119.125843,116.335742,115.693851,132.891265,121.141884" />
<g transform="translate(125.418163 243.412695) rotate(261.620198) scale(17.007141 1.000000)"><ellipse fill="#4f5a4a" fill-opacity="0.501961" cx="0" cy="0" rx="1" ry="1" /></g>
<ellipse fill="#6e7b69" fill-opacity="0.501961" cx="48" cy="159" rx="1" ry="10" />
<polygon fill="#ccdac7" fill-opacity="0.501961" points="168,30 198,45 134,50" />
<g transform="translate(140.162491 97.526805) rotate(167.265043) scale(2.936715 25.592864)"><ellipse fill="#8f9d8b" fill-opacity="0.501961" cx="0" cy="0" rx="1" ry="1" /></g>
<rect fill="#5c6854" fill-opacity="0.501961" x="72" y="167" width="2" height="12" />
<polygon fill="#353e2d" fill-opacity="0.501961" points="85.172302,215.373491,117.194949,220.606069,98.618301,236.959339,115.697880,235.834891" />
<polygon fill="#0f170d" fill-opacity="0.501961" points="85,62 85,96 96,73" />
<ellipse fill="#88937f" fill-opacity="0.501961" cx="47" cy="199" rx="2" ry="12" />
<polygon fill="#58614e" fill-opacity="0.501961" points="85.417975,106.598867,91.657757,108.799987,92.355317,96.308943,87.423351,105.132865" />
<path stroke="#919e8c" stroke-opacity="0.501961" fill="none" d="M 164.531844 271.000000 Q 173.012968 266.284226, 149.376942 194.755973" stroke-width="0.500000" />
<g transform="translate(46 99) rotate(297) scale(26 3)"><rect fill="#bccab7" fill-opacity="0.501961" x="-0.5" y="-0.5" width="1" height="1" /></g>
<path stroke="#606e5b" stroke-opacity="0.501961" fill="none" d="M 87.296573 71.036920 Q 84.317417 60.642740, 57.399966 40.232013" stroke-width="0.500000" />
<ellipse fill="#040901" fill-opacity="0.501961" cx="63" cy="74" rx="2" ry="2" />
<polygon fill="#9da997" fill-opacity="0.501961" points="166.964727,184.756168,153.257455,166.467377,157.499057,208.118379,164.531190,154.008329" />
<polygon fill="#1a2319" fill-opacity="0.501961" points="133.992832,147.050145,104.497526,92.562762,131.740601,146.267567,96.697113,147.577405" />
<g transform="translate(101.866400 59.094707) rotate(177.948318) scale(6.732445 4.354947)"><ellipse fill="#717c6b" fill-opacity="0.501961" cx="0" cy="0" rx="1" ry="1" /></g>
<polygon fill="#aebba8" fill-opacity="0.501961" points="185.733527,211.156488,169.052325,192.071444,160.980269,200.858235,170.593348,175.853480" />
<g transform="translate(110 206) rotate(224) scale(20 1)"><rect fill="#131e0f" fill-opacity="0.501961" x="-0.5" y="-0.5" width="1" height="1" /></g>
<g transform="translate(84 55) rotate(238) scale(27 1)"><rect fill="#5e6857" fill-opacity="0.501961" x="-0.5" y="-0.5" width="1" height="1" /></g>
<polygon fill="#0e140c" fill-opacity="0.501961" points="125.291553,236.847268,125.644534,230.452221,121.514951,208.838913,128.607620,218.121312" />
<g transform="translate(139 202) rotate(154) scale(1 32)"><rect fill="#646d5e" fill-opacity="0.501961" x="-0.5" y="-0.5" width="1" height="1" /></g>
<g transform="translate(44.483848 113.637938) rotate(37.340354) scale(1.000000 17.792178)"><ellipse fill="#abb8a5" fill-opacity="0.501961" cx="0" cy="0" rx="1" ry="1" /></g>
<path stroke="#000900" stroke-opacity="0.501961" fill="none" d="M 135.180683 181.019998 Q 144.760380 187.212380, 150.941068 211.988698" stroke-width="0.500000" />
<polygon fill="#94a18d" fill-opacity="0.501961" points="158.327111,241.286543,143.212713,236.309667,145.157885,270.577162,154.865449,271.000000" />
<polygon fill="#8e9987" fill-opacity="0.501961" points="111.756365,74.158836,128.445425,73.685833,95.399631,72.977181,105.710515,65.475922" />
<g transform="translate(65 205) rotate(36) scale(4 1)"><rect fill="#516149" fill-opacity="0.501961" x="-0.5" y="-0.5" width="1" height="1" /></g>
<polygon fill="#192216" fill-opacity="0.501961" points="86.836448,110.734078,94.169433,129.617907,88.103328,104.748683,97.724925,109.740018" />
<polygon fill="#a3b09e" fill-opacity="0.501961" points="44.640115,165.893003,51.153343,137.549026,43.953937,154.902263,20.577961,184.038262" />
<g transform="translate(39.009217 158.244543) rotate(220.634593) scale(10.786784 4.546188)"><ellipse fill="#b0bdab" fill-opacity="0.501961" cx="0" cy="0" rx="1" ry="1" /></g>
<polygon fill="#cbd8c7" fill-opacity="0.501961" points="29.012374,75.210010,19.870259,103.640718,19.036660,84.759418,67.262168,11.633402" />
<g transform="translate(56 102) rotate(159) scale(6 1)"><rect fill="#626e5b" fill-opacity="0.501961" x="-0.5" y="-0.5" width="1" height="1" /></g>
<rect fill="#2a3a27" fill-opacity="0.501961" x="73" y="177" width="2" height="8" />
<ellipse fill="#ced6c3" fill-opacity="0.501961" cx="95" cy="99" rx="1" ry="2" />
<polygon fill="#192417" fill-opacity="0.501961" points="82,202 95,202 77,219" />
<g transform="translate(61 152) rotate(89) scale(23 1)"><rect fill="#5d6857" fill-opacity="0.501961" x="-0.5" y="-0.5" width="1" height="1" /></g>
<path stroke="#0f170d" stroke-opacity="0.501961" fill="none" d="M 142.600053 205.550457 Q 120.172100 146.789728, 65.787252 151.645026" stroke-width="0.500000" />
<path stroke="#0f180d" stroke-opacity="0.501961" fill="none" d="M 58.063848 101.430852 Q 67.823693 78.805032, 82.978873 67.015049" stroke-width="0.500000" />
<polygon fill="#c2d0bd" fill-opacity="0.501961" points="14.816904,199.177779,12.963671,179.647318,-16.000000,170.593181,15.791352,246.805893" />
<polygon fill="#192218" fill-opacity="0.501961" points="111.570233,181.045997,81.966506,125.317562,114.903349,181.068141,68.424481,177.396984" />
<path stroke="#6c7a69" stroke-opacity="0.501961" fill="none" d="M 120.072940 265.852528 Q 149.570033 266.341176, 140.786991 222.329523" stroke-width="0.500000" />
<polygon fill="#74826f" fill-opacity="0.501961" points="117.824579,109.788334,113.071749,96.850393,113.869175,99.639121,103.935046,90.139402" />
<path stroke="#172215" stroke-opacity="0.501961" fill="none" d="M 155.175248 227.249784 Q 144.490304 203.933333, 127.368801 157.671714" stroke-width="0.500000" />
<polygon fill="#b4bfaa" fill-opacity="0.501961" points="25.125972,229.788780,56.850211,256.744604,18.334865,259.737893,18.530332,225.480333" />
<ellipse fill="#687064" fill-opacity="0.501961" cx="83" cy="201" rx="5" ry="1" />
<g transform="translate(104.296634 248.219559) rotate(313.112467) scale(5.213465 2.006669)"><ellipse fill="#6c7865" fill-opacity="0.501961" cx="0" cy="0" rx="1" ry="1" /></g>
<ellipse fill="#404040" fill-opacity="0.501961" cx="57" cy="73" rx="1" ry="1" />
<polygon fill="#070f06" fill-opacity="0.501961" points="97.351530,183.633023,109.941135,128.260592,92.894956,181.404864,125.794480,143.536707" />
<g transform="translate(70 108) rotate(86) scale(14 1)"><rect fill="#383c34" fill-opacity="0.501961" x="-0.5" y="-0.5" width="1" height="1" /></g>
<polygon fill="#74836f" fill-opacity="0.501961" points="142.441843,107.525346,138.397422,115.258610,126.503389,105.533923,141.805295,128.131307" />
<polygon fill="#b7c6b3" fill-opacity="0.501961" points="105.958384,40.683747,127.701981,25.523759,96.260442,21.793886,123.953520,38.527305" />
<polygon fill="#b7c4b2" fill-opacity="0.501961" points="167.656027,118.838596,165.962258,165.501112,170.819774,171.995354,178.197740,130.448095" />
<polygon fill="#545e4c" fill-opacity="0.501961" points="73,45 84,41 73,34" />
<ellipse fill="#858e76" fill-opacity="0.501961" cx="147" cy="171" rx="2" ry="6" />
<rect fill="#555f4f" fill-opacity="0.501961" x="66" y="98" width="3" height="7" />
<ellipse fill="#d8e6d4" fill-opacity="0.501961" cx="129" cy="0" rx="26" ry="8" />
<path stroke="#636c5f" stroke-opacity="0.501961" fill="none" d="M 64.326479 79.063479 Q 48.790020 57.523663, 40.238887 66.320481" stroke-width="0.500000" />
<path stroke="#040f03" stroke-opacity="0.501961" fill="none" d="M 127.622286 135.664635 Q 137.823256 181.649695, 152.270723 210.960726" stroke-width="0.500000" />
<path stroke="#1a2217" stroke-opacity="0.501961" fill="none" d="M 63.498465 205.513730 Q 67.397687 192.455961, 137.711547 212.625404" stroke-width="0.500000" />
<polygon fill="#4e5c4a" fill-opacity="0.501961" points="111.244127,107.174069,101.045886,91.348013,112.883382,100.777366,110.876998,97.744949" />
<rect fill="#0b0f07" fill-opacity="0.501961" x="66" y="104" width="2" height="19" />
<polygon fill="#94a490" fill-opacity="0.501961" points="81,17 78,23 76,9" />
<path stroke="#828e7c" stroke-opacity="0.501961" fill="none" d="M 93.315790 70.621869 Q 111.265705 77.880623, 105.549691 100.797832" stroke-width="0.500000" />
<g transform="translate(99 80) rotate(0) scale(2 6)"><rect fill="#495844" fill-opacity="0.501961" x="-0.5" y="-0.5" width="1" height="1" /></g>
<rect fill="#31372f" fill-opacity="0.501961" x="62" y="70" width="11" height="3" />
<g transform="translate(94 212) rotate(303) scale(3 11)"><rect fill="#0f1c0c" fill-opacity="0.501961" x="-0.5" y="-0.5" width="1" height="1" /></g>
<g transform="translate(76 60) rotate(353) scale(12 3)"><rect fill="#6b7b68" fill-opacity="0.501961" x="-0.5" y="-0.5" width="1" height="1" /></g>
<ellipse fill="#848f7e" fill-opacity="0.501961" cx="108" cy="64" rx="12" ry="3" />
<polygon fill="#10180d" fill-opacity="0.501961" points="136.537072,133.225062,104.722914,105.840409,100.353900,103.653822,114.908157,107.253102" />
<g transform="translate(65 155) rotate(231) scale(9 3)"><rect fill="#a3b49f" fill-opacity="0.501961" x="-0.5" y="-0.5" width="1" height="1" /></g>
<polygon fill="#2d3629" fill-opacity="0.501961" points="114.509304,195.362044,66.922031,199.516160,112.081682,195.265296,129.160788,244.180485" />
<polygon fill="#081007" fill-opacity="0.501961" points="89,81 100,92 92,92" />
<polygon fill="#273123" fill-opacity="0.501961" points="133.959742,130.438687,141.605633,140.449679,138.810435,130.443496,129.748542,120.651540" />
<path stroke="#73806d" stroke-opacity="0.501961" fill="none" d="M 148.395735 199.462044 Q 152.782484 203.407821, 158.857928 223.723842" stroke-width="0.500000" />
<g transform="translate(47 63) rotate(322) scale(6 1)"><rect fill="#cddac5" fill-opacity="0.501961" x="-0.5" y="-0.5" width="1" height="1" /></g>
<polygon fill="#becbb9" fill-opacity="0.501961" points="147.649844,77.157999,149.110467,95.515495,171.041724,41.658362,169.516297,74.646975" />
<polygon fill="#a0ae9b" fill-opacity="0.501961" points="120,53 133,45 119,47" />
<g transform="translate(128 127) rotate(234) scale(14 5)"><rect fill="#020a01" fill-opacity="0.501961" x="-0.5" y="-0.5" width="1" height="1" /></g>
<polygon fill="#363f31" fill-opacity="0.501961" points="63.877930,100.317274,60.800138,111.846217,48.896476,116.151676,65.262613,108.252945" />
<polygon fill="#8f9d8b" fill-opacity="0.501961" points="144,106 147,95 122,103" />
<rect fill="#697665" fill-opacity="0.501961" x="49" y="172" width="2" height="21" />
<polygon fill="#9fa895" fill-opacity="0.501961" points="66.056259,231.685114,55.172023,255.945869,77.349643,246.257918,71.438875,251.180900" />
<ellipse fill="#cfdeca" fill-opacity="0.501961" cx="78" cy="63" rx="1" ry="1" />
<ellipse fill="#929f8d" fill-opacity="0.501961" cx="103" cy="42" rx="5" ry="5" />
<rect fill="#afb8a9" fill-opacity="0.501961" x="87" y="38" width="2" height="2" />
<ellipse fill="#96a491" fill-opacity="0.501961" cx="25" cy="180" rx="2" ry="7" />
<polygon fill="#121a11" fill-opacity="0.501961" points="80.163244,87.499755,92.119902,77.205341,57.872448,61.749877,94.076770,70.617309" />
<rect fill="#9ca997" fill-opacity="0.501961" x="29" y="127" width="2" height="26" />
<polygon fill="#040d04" fill-opacity="0.501961" points="111.678640,192.468101,89.167594,148.306654,89.451142,181.285417,80.325406,143.624917" />
<g transform="translate(27 100) rotate(255) scale(2 8)"><rect fill="#a3af9e" fill-opacity="0.501961" x="-0.5" y="-0.5" width="1" height="1" /></g>
<g transform="translate(93.727448 221.967472) rotate(305.501103) scale(1.817432 7.277788)"><ellipse fill="#49523f" fill-opacity="0.501961" cx="0" cy="0" rx="1" ry="1" /></g>
<ellipse fill="#434640" fill-opacity="0.501961" cx="103" cy="110" rx="2" ry="2" />
<g transform="translate(63 115) rotate(329) scale(9 14)"><rect fill="#121710" fill-opacity="0.501961" x="-0.5" y="-0.5" width="1" height="1" /></g>
<g transform="translate(77.336416 162.292916) rotate(93.253364) scale(8.627763 2.661217)"><ellipse fill="#151a12" fill-opacity="0.501961" cx="0" cy="0" rx="1" ry="1" /></g>
<polygon fill="#707d6b" fill-opacity="0.501961" points="98.863126,47.446738,76.422489,44.447743,100.671127,51.545685,116.600646,47.766529" />
<g transform="translate(83 2) rotate(346) scale(1 90)"><rect fill="#849280" fill-opacity="0.501961" x="-0.5" y="-0.5" width="1" height="1" /></g>
<path stroke="#8b9684" stroke-opacity="0.501961" fill="none" d="M 86.799342 31.020775 Q 64.081002 33.722994, 41.189780 71.653986" stroke-width="0.500000" />
<g transform="translate(119.872415 128.209277) rotate(335.261309) scale(1.000000 13.681347)"><ellipse fill="#0e140c" fill-opacity="0.501961" cx="0" cy="0" rx="1" ry="1" /></g>
<polygon fill="#192118" fill-opacity="0.501961" points="115,133 106,131 117,145" />
<path stroke="#5c6958" stroke-opacity="0.501961" fill="none" d="M 162.309393 244.117330 Q 136.249942 187.852952, 133.037409 182.279407" stroke-width="0.500000" />
<polygon fill="#aab6a3" fill-opacity="0.501961" points="171.282769,260.276408,157.624976,244.648039,156.456982,224.098534,175.185033,271.000000" />
<polygon fill="#000400" fill-opacity="0.501961" points="110.027534,185.679062,123.149838,207.987786,139.546282,230.911557,139.608352,224.943094" />
<rect fill="#677662" fill-opacity="0.501961" x="97" y="35" width="8" height="2" />
<ellipse fill="#889583" fill-opacity="0.501961" cx="44" cy="152" rx="1" ry="25" />
<g transform="translate(140 150) rotate(339) scale(1 13)"><rect fill="#899683" fill-opacity="0.501961" x="-0.5" y="-0.5" width="1" height="1" /></g>
<polygon fill="#d6e6d2" fill-opacity="0.501961" points="45,44 57,9 57,28" />
<polygon fill="#4c5647" fill-opacity="0.501961" points="126.342560,246.561608,123.672908,256.884318,127.499909,234.276712,133.218689,230.493087" />
<polygon fill="#dae8d5" fill-opacity="0.501961" points="-16.000000,66.010160,-17.530399,97.691255,6.938714,117.132807,25.308660,22.034741" />
<ellipse fill="#020902" fill-opacity="0.501961" cx="100" cy="203" rx="2" ry="2" />
<g transform="translate(58 62) rotate(15) scale(3 5)"><rect fill="#2e3526" fill-opacity="0.501961" x="-0.5" y="-0.5" width="1" height="1" /></g>
<rect fill="#acb7a1" fill-opacity="0.501961" x="156" y="199" width="4" height="13" />
<g transform="translate(52 217) rotate(345) scale(1 34)"><rect fill="#919985" fill-opacity="0.501961" x="-0.5" y="-0.5" width="1" height="1" /></g>
<polygon fill="#586a55" fill-opacity="0.501961" points="143,138 138,128 145,134" />
<g transform="translate(84 193) rotate(134) scale(1 8)"><rect fill="#66715e" fill-opacity="0.501961" x="-0.5" y="-0.5" width="1" height="1" /></g>
<g transform="translate(136 181) rotate(341) scale(1 31)"><rect fill="#000700" fill-opacity="0.501961" x="-0.5" y="-0.5" width="1" height="1" /></g>
</g>
</svg>