<svg xmlns="http://www.w3.org/2000/svg" version="1.1">
<rect x="0" y="0" width="780" height="1024" fill="#4b3737" />
<g transform="scale(4.000000) translate(0.5 0.5)">
<ellipse fill="#ad756e" fill-opacity="0.501961" cx="155" cy="76" rx="58" ry="90" />
<g transform="translate(86.894270 223.350755) rotate(152.763235) scale(70.536604 117.724368)"><ellipse fill="#020003" fill-opacity="0.501961" cx="0" cy="0" rx="1" ry="1" /></g>
<g transform="translate(75.460976 0.000000) rotate(173.979474) scale(127.596116 11.773130)"><ellipse fill="#e69d82" fill-opacity="0.501961" cx="0" cy="0" rx="1" ry="1" /></g>
<g transform="translate(118.939974 63.035246) rotate(112.254731) scale(23.243497 41.422952)"><ellipse fill="#101d1b" fill-opacity="0.501961" cx="0" cy="0" rx="1" ry="1" /></g>
<g transform="translate(107.164577 238.448652) rotate(170.729826) scale(191.145176 34.279876)"><ellipse fill="#0c0305" fill-opacity="0.501961" cx="0" cy="0" rx="1" ry="1" /></g>
<g transform="translate(130 117) rotate(10) scale(55 44)"><rect fill="#f26e64" fill-opacity="0.501961" x="-0.5" y="-0.5" width="1" height="1" /></g>
<polygon fill="#5e6069" fill-opacity="0.501961" points="39,206 -16,164 5,-16" />
<polygon fill="#df8974" fill-opacity="0.501961" points="63.932221,28.990265,88.124983,27.936066,52.293014,69.694725,46.263929,51.976836" />
<g transform="translate(42.266421 92.211798) rotate(52.616453) scale(42.726223 29.564061)"><ellipse fill="#0b1822" fill-opacity="0.501961" cx="0" cy="0" rx="1" ry="1" /></g>
<g transform="translate(26 20) rotate(143) scale(104 17)"><rect fill="#ae887a" fill-opacity="0.501961" x="-0.5" y="-0.5" width="1" height="1" /></g>
<polygon fill="#46292d" fill-opacity="0.501961" points="210,182 62,231 -16,185" />
<g transform="translate(116 19) rotate(138) scale(15 30)"><rect fill="#000f0f" fill-opacity="0.501961" x="-0.5" y="-0.5" width="1" height="1" /></g>
<g transform="translate(146.495570 12.250824) rotate(56.433414) scale(42.081268 23.091478)"><ellipse fill="#b07867" fill-opacity="0.501961" cx="0" cy="0" rx="1" ry="1" /></g>
<g transform="translate(184.015186 171.905296) rotate(139.687075) scale(67.122859 30.435270)"><ellipse fill="#362e39" fill-opacity="0.501961" cx="0" cy="0" rx="1" ry="1" /></g>
<ellipse fill="#6c6669" fill-opacity="0.501961" cx="185" cy="40" rx="29" ry="127" />
<polygon fill="#d3795b" fill-opacity="0.501961" points="58,-16 111,36 88,-16" />
<g transform="translate(75.885986 166.373733) rotate(299.245269) scale(11.304304 62.283561)"><ellipse fill="#07080e" fill-opacity="0.501961" cx="0" cy="0" rx="1" ry="1" /></g>
<g transform="translate(124.256471 142.914734) rotate(314.919621) scale(10.921397 32.298223)"><ellipse fill="#9f4c4c" fill-opacity="0.501961" cx="0" cy="0" rx="1" ry="1" /></g>
<g transform="translate(0.000000 36.663068) rotate(196.836789) scale(21.621978 51.151903)"><ellipse fill="#646b67" fill-opacity="0.501961" cx="0" cy="0" rx="1" ry="1" /></g>
<g transform="translate(159.287460 104.192583) rotate(299.256965) scale(38.204860 14.524535)"><ellipse fill="#ab6a6a" fill-opacity="0.501961" cx="0" cy="0" rx="1" ry="1" /></g>
<polygon fill="#8a3637" fill-opacity="0.501961" points="93,220 105,194 78,186" />
<polygon fill="#163136" fill-opacity="0.501961" points="19.250289,73.660880,44.718002,52.491691,93.864051,-2.000973,17.146756,37.334312" />
<polygon fill="#1d1d1e" fill-opacity="0.501961" points="122.510618,82.149504,118.231439,69.974928,130.645961,19.729998,91.146358,72.097400" />
<polygon fill="#8d5e4f" fill-opacity="0.501961" points="89.424863,34.213441,72.495990,23.102418,55.146165,63.954961,92.128142,50.005857" />
<rect fill="#000000" fill-opacity="0.501961" x="0" y="235" width="157" height="15" />
<ellipse fill="#101218" fill-opacity="0.501961" cx="53" cy="128" rx="32" ry="25" />
<g transform="translate(122 113) rotate(317) scale(25 44)"><rect fill="#de6a5d" fill-opacity="0.501961" x="-0.5" y="-0.5" width="1" height="1" /></g>
<polygon fill="#8a5d59" fill-opacity="0.501961" points="55,106 27,87 52,94" />
<ellipse fill="#47353c" fill-opacity="0.501961" cx="17" cy="179" rx="25" ry="44" />
<polygon fill="#59545c" fill-opacity="0.501961" points="-16,121 33,74 11,166" />
<polygon fill="#925447" fill-opacity="0.501961" points="135.797800,85.160923,58.069138,82.656489,84.201690,80.359035,92.370197,106.508105" />
<g transform="translate(74 0) rotate(263) scale(17 62)"><rect fill="#e57c67" fill-opacity="0.501961" x="-0.5" y="-0.5" width="1" height="1" /></g>
<polygon fill="#705a4f" fill-opacity="0.501961" points="128,33 171,67 115,52" />
<polygon fill="#e08374" fill-opacity="0.501961" points="51.544055,62.969957,48.074088,61.340769,64.170291,31.133980,69.825503,37.012590" />
<polygon fill="#0a0704" fill-opacity="0.501961" points="132.186729,197.688205,113.430460,231.723021,127.954906,238.170809,91.525942,202.034484" />
<polygon fill="#3f3f41" fill-opacity="0.501961" points="136,104 168,69 145,54" />
<ellipse fill="#ba4044" fill-opacity="0.501961" cx="60" cy="226" rx="7" ry="4" />
<polygon fill="#653c3e" fill-opacity="0.501961" points="163,191 136,197 118,159" />
<g transform="translate(7 221) rotate(51) scale(36 64)"><rect fill="#221a20" fill-opacity="0.501961" x="-0.5" y="-0.5" width="1" height="1" /></g>
<rect fill="#ffae9e" fill-opacity="0.501961" x="37" y="60" width="4" height="7" />
<g transform="translate(194.000000 122.642572) rotate(194.829410) scale(19.510853 48.798101)"><ellipse fill="#4e4753" fill-opacity="0.501961" cx="0" cy="0" rx="1" ry="1" /></g>
<g transform="translate(79 47) rotate(318) scale(6 28)"><rect fill="#1b1a1e" fill-opacity="0.501961" x="-0.5" y="-0.5" width="1" height="1" /></g>
<rect fill="#913135" fill-opacity="0.501961" x="94" y="254" width="58" height="2" />
<g transform="translate(67.589683 117.690853) rotate(328.831510) scale(9.948946 22.858876)"><ellipse fill="#06090e" fill-opacity="0.501961" cx="0" cy="0" rx="1" ry="1" /></g>
<polygon fill="#c06d5b" fill-opacity="0.501961" points="92,40 69,27 86,25" />
<polygon fill="#232022" fill-opacity="0.501961" points="75.494030,32.327190,104.807306,45.422128,145.186753,87.570298,104.817635,69.583733" />
<rect fill="#252228" fill-opacity="0.501961" x="16" y="121" width="48" height="28" />
<g transform="translate(41 94) rotate(44) scale(11 35)"><rect fill="#080e18" fill-opacity="0.501961" x="-0.5" y="-0.5" width="1" height="1" /></g>
<polygon fill="#ce7763" fill-opacity="0.501961" points="134.421133,41.720403,148.092360,-16.000000,94.519718,-16.000000,132.158725,19.514701" />
<polygon fill="#84544d" fill-opacity="0.501961" points="70,85 83,119 79,77" />
<rect fill="#323c33" fill-opacity="0.501961" x="44" y="12" width="47" height="13" />
<polygon fill="#1e1b22" fill-opacity="0.501961" points="167,271 170,161 210,199" />
<polygon fill="#1b1c1d" fill-opacity="0.501961" points="99.206904,15.535878,123.041121,11.582458,111.308279,28.271370,112.195985,-4.785019" />
<polygon fill="#8a695a" fill-opacity="0.501961" points="54.979609,67.243532,53.766730,48.494379,75.612570,48.688576,80.609433,57.371626" />
<g transform="translate(112 125) rotate(320) scale(1 26)"><rect fill="#2b3231" fill-opacity="0.501961" x="-0.5" y="-0.5" width="1" height="1" /></g>
<rect fill="#1c1e1d" fill-opacity="0.501961" x="157" y="3" width="4" height="15" />
<polygon fill="#0f0b0e" fill-opacity="0.501961" points="117.185616,147.995615,117.956996,180.296716,87.056528,195.889873,98.863301,143.439211" />
<g transform="translate(95 90) rotate(26) scale(3 12)"><rect fill="#ff7e68" fill-opacity="0.501961" x="-0.5" y="-0.5" width="1" height="1" /></g>
<g transform="translate(81.159568 24.601682) rotate(9.540338) scale(1.000000 23.850043)"><ellipse fill="#423630" fill-opacity="0.501961" cx="0" cy="0" rx="1" ry="1" /></g>
<ellipse fill="#070809" fill-opacity="0.501961" cx="54" cy="216" rx="25" ry="5" />
<g transform="translate(36 91) rotate(34) scale(10 1)"><rect fill="#e08e8a" fill-opacity="0.501961" x="-0.5" y="-0.5" width="1" height="1" /></g>
<polygon fill="#af786d" fill-opacity="0.501961" points="47,74 40,61 41,69" />
<polygon fill="#98614d" fill-opacity="0.501961" points="78,11 86,-2 112,19" />
<g transform="translate(45 59) rotate(338) scale(4 25)"><rect fill="#000511" fill-opacity="0.501961" x="-0.5" y="-0.5" width="1" height="1" /></g>
<polygon fill="#a8645b" fill-opacity="0.501961" points="125.468130,79.600843,98.275296,104.049655,168.585298,90.527960,160.573653,112.715349" />
<polygon fill="#947666" fill-opacity="0.501961" points="156.749556,23.136742,210.000000,-14.484723,198.281457,13.190330,164.923374,-16.000000" />
<polygon fill="#333b3d" fill-opacity="0.501961" points="85.579059,4.027038,49.611054,15.857913,19.178446,31.989775,15.491928,48.912193" />
<rect fill="#bd756e" fill-opacity="0.501961" x="44" y="100" width="9" height="5" />
<g transform="translate(146 32) rotate(163) scale(13 21)"><rect fill="#c5796a" fill-opacity="0.501961" x="-0.5" y="-0.5" width="1" height="1" /></g>
<g transform="translate(146.061147 143.783829) rotate(309.461746) scale(26.033984 8.601678)"><ellipse fill="#8e4e54" fill-opacity="0.501961" cx="0" cy="0" rx="1" ry="1" /></g>
<g transform="translate(9 195) rotate(249) scale(63 11)"><rect fill="#48353b" fill-opacity="0.501961" x="-0.5" y="-0.5" width="1" height="1" /></g>
<g transform="translate(97 38) rotate(142) scale(7 28)"><rect fill="#171a18" fill-opacity="0.501961" x="-0.5" y="-0.5" width="1" height="1" /></g>
<polygon fill="#323939" fill-opacity="0.501961" points="165.729456,55.704753,181.367471,36.027013,184.441509,27.568667,189.515587,30.930487" />
<polygon fill="#2a2c2f" fill-opacity="0.501961" points="137.183638,86.134171,157.613536,51.155993,121.035258,96.244952,122.281655,87.312668" />
<polygon fill="#100e15" fill-opacity="0.501961" points="57,198 29,125 89,180" />
<polygon fill="#e08770" fill-opacity="0.501961" points="75,40 74,30 85,46" />
<polygon fill="#686564" fill-opacity="0.501961" points="-16,16 5,113 20,-16" />
<polygon fill="#745d4d" fill-opacity="0.501961" points="95,67 74,73 84,60" />
<polygon fill="#000000" fill-opacity="0.501961" points="119,247 111,218 47,252" />
<g transform="translate(72 33) rotate(193) scale(3 7)"><rect fill="#000009" fill-opacity="0.501961" x="-0.5" y="-0.5" width="1" height="1" /></g>
<polygon fill="#583438" fill-opacity="0.501961" points="73.443848,207.176480,65.325830,188.567009,58.793729,213.607700,-5.213210,165.276326" />
<polygon fill="#574039" fill-opacity="0.501961" points="121.734431,25.439386,125.713504,51.826895,131.301149,21.730483,119.118421,11.141852" />
<polygon fill="#9e746a" fill-opacity="0.501961" points="50.686023,14.962036,0.365839,37.600750,48.685483,-16.000000,21.492184,22.658801" />
<g transform="translate(32.795423 121.403073) rotate(315.686109) scale(3.110245 28.968482)"><ellipse fill="#3e383e" fill-opacity="0.501961" cx="0" cy="0" rx="1" ry="1" /></g>
<g transform="translate(147 15) rotate(259) scale(15 1)"><rect fill="#101d1f" fill-opacity="0.501961" x="-0.5" y="-0.5" width="1" height="1" /></g>
<rect fill="#19171c" fill-opacity="0.501961" x="142" y="164" width="32" height="5" />
<polygon fill="#131e2b" fill-opacity="0.501961" points="4.617630,84.587579,32.099179,77.141036,42.916369,47.650374,36.776320,38.994787" />
<g transform="translate(185.378599 64.982497) rotate(15.025927) scale(10.826583 40.805355)"><ellipse fill="#766b6b" fill-opacity="0.501961" cx="0" cy="0" rx="1" ry="1" /></g>
<rect fill="#e78270" fill-opacity="0.501961" x="61" y="32" width="9" height="14" />
<rect fill="#ff978a" fill-opacity="0.501961" x="47" y="49" width="3" height="11" />
<polygon fill="#0d0f15" fill-opacity="0.501961" points="26,91 35,124 87,127" />
<g transform="translate(144 79) rotate(233) scale(32 2)"><rect fill="#87665e" fill-opacity="0.501961" x="-0.5" y="-0.5" width="1" height="1" /></g>
<polygon fill="#8f4144" fill-opacity="0.501961" points="80,183 88,204 89,183" />
<rect fill="#694038" fill-opacity="0.501961" x="98" y="82" width="5" height="52" />
<rect fill="#ae745b" fill-opacity="0.501961" x="86" y="23" width="2" height="30" />
<rect fill="#7a3334" fill-opacity="0.501961" x="94" y="191" width="15" height="11" />
<polygon fill="#614d4a" fill-opacity="0.501961" points="179.549697,0.198732,142.278792,106.566215,153.207940,109.447764,132.403661,104.046381" />
<rect fill="#362f29" fill-opacity="0.501961" x="98" y="6" width="11" height="11" />
<g transform="translate(80 35) rotate(-32) scale(1 9)"><rect fill="#000003" fill-opacity="0.501961" x="-0.5" y="-0.5" width="1" height="1" /></g>
<polygon fill="#644d55" fill-opacity="0.501961" points="3.413149,136.455274,8.806282,113.603600,23.611141,167.851328,13.526108,185.045706" />
<ellipse fill="#812727" fill-opacity="0.501961" cx="73" cy="253" rx="8" ry="2" />
<polygon fill="#36282c" fill-opacity="0.501961" points="81.968446,130.732144,94.997463,121.104615,94.738983,171.486852,73.432028,140.229074" />
<polygon fill="#1f1518" fill-opacity="0.501961" points="210,271 116,222 158,195" />
<polygon fill="#d5665b" fill-opacity="0.501961" points="102,112 142,144 110,86" />
<polygon fill="#5f504c" fill-opacity="0.501961" points="38.898153,71.846914,36.156142,72.660204,54.249690,72.899732,52.305876,81.133466" />
<polygon fill="#0d0c11" fill-opacity="0.501961" points="71.019340,168.525208,42.097147,175.880515,34.693000,143.527512,88.952756,149.382860" />
<rect fill="#78474a" fill-opacity="0.501961" x="141" y="170" width="29" height="4" />
<g transform="translate(147 67) rotate(139) scale(13 10)"><rect fill="#192027" fill-opacity="0.501961" x="-0.5" y="-0.5" width="1" height="1" /></g>
<polygon fill="#242424" fill-opacity="0.501961" points="121.635349,46.965066,98.776323,45.405884,106.966870,85.412705,83.968094,77.029145" />
<g transform="translate(94 0) rotate(266) scale(1 65)"><rect fill="#ff8d73" fill-opacity="0.501961" x="-0.5" y="-0.5" width="1" height="1" /></g>
<polygon fill="#755950" fill-opacity="0.501961" points="150,46 115,36 153,64" />
<polygon fill="#a85450" fill-opacity="0.501961" points="107.012521,128.445471,115.182764,147.518549,153.188815,145.511639,108.752713,132.644475" />
<g transform="translate(83.333419 209.845437) rotate(251.292148) scale(1.372684 45.494565)"><ellipse fill="#151010" fill-opacity="0.501961" cx="0" cy="0" rx="1" ry="1" /></g>
<polygon fill="#231d21" fill-opacity="0.501961" points="169.031166,182.990322,173.901494,180.485275,82.331592,156.821727,153.162826,180.051936" />
<polygon fill="#3e434b" fill-opacity="0.501961" points="26,116 17,145 8,79" />
<polygon fill="#dd7f6f" fill-opacity="0.501961" points="69.856575,35.318887,73.501710,23.694543,61.787687,35.571644,53.047111,48.404066" />
<ellipse fill="#333939" fill-opacity="0.501961" cx="86" cy="91" rx="6" ry="19" />
<polygon fill="#9f544c" fill-opacity="0.501961" points="127.505544,114.587491,89.214303,119.176045,90.505777,126.475325,97.347653,114.282541" />
<polygon fill="#120d0d" fill-opacity="0.501961" points="73.787560,215.659802,53.098552,204.459165,59.530977,195.183740,90.702050,271.000000" />
<polygon fill="#14191d" fill-opacity="0.501961" points="112.264299,25.388720,125.335632,29.549619,114.259583,13.722943,104.022914,-16.000000" />
<rect fill="#05080b" fill-opacity="0.501961" x="24" y="125" width="5" height="26" />
<rect fill="#cd765f" fill-opacity="0.501961" x="92" y="0" width="7" height="18" />
<ellipse fill="#58383d" fill-opacity="0.501961" cx="33" cy="186" rx="8" ry="20" />
<g transform="translate(124 148) rotate(344) scale(1 33)"><rect fill="#423837" fill-opacity="0.501961" x="-0.5" y="-0.5" width="1" height="1" /></g>
<polygon fill="#524246" fill-opacity="0.501961" points="39,151 24,165 31,140" />
<polygon fill="#764b52" fill-opacity="0.501961" points="140.053454,167.321702,168.857098,118.713216,183.260447,141.374554,158.677213,161.139624" />
<polygon fill="#142323" fill-opacity="0.501961" points="59.394742,31.356964,79.119047,14.124596,82.235573,29.006344,88.175701,16.010736" />
<polygon fill="#7c6b69" fill-opacity="0.501961" points="12.528350,49.334869,10.945740,38.180820,-9.297948,76.798078,20.556522,52.229014" />
<polygon fill="#272529" fill-opacity="0.501961" points="44.638893,62.946069,76.022511,104.269402,81.068608,108.466526,65.151483,70.888225" />
<g transform="translate(93 98) rotate(190) scale(1 17)"><rect fill="#e47464" fill-opacity="0.501961" x="-0.5" y="-0.5" width="1" height="1" /></g>
<polygon fill="#8d6c63" fill-opacity="0.501961" points="184.495064,4.760043,162.194191,41.654048,157.059835,63.272453,180.018394,39.179254" />
<polygon fill="#100b0c" fill-opacity="0.501961" points="36.733855,216.494671,23.438695,191.185526,28.439016,247.120257,55.367689,220.753655" />
<rect fill="#000201" fill-opacity="0.501961" x="115" y="198" width="14" height="14" />
<polygon fill="#6c514a" fill-opacity="0.501961" points="62,95 65,85 68,99" />
<rect fill="#604747" fill-opacity="0.501961" x="44" y="128" width="12" height="4" />
<g transform="translate(0 203) rotate(254) scale(68 15)"><rect fill="#231f27" fill-opacity="0.501961" x="-0.5" y="-0.5" width="1" height="1" /></g>
<polygon fill="#bf7e6d" fill-opacity="0.501961" points="137.601279,-2.552818,157.694478,2.027939,154.548774,14.380299,141.513938,0.059560" />
<polygon fill="#39353c" fill-opacity="0.501961" points="210,145 210,212 167,183" />
<polygon fill="#865c5b" fill-opacity="0.501961" points="40.520520,94.089376,51.178773,105.448667,46.893239,105.575656,33.611905,86.767074" />
<polygon fill="#de8169" fill-opacity="0.501961" points="93,42 83,28 86,38" />
<polygon fill="#bd6864" fill-opacity="0.501961" points="118.067579,129.982113,127.257880,145.074285,163.132888,86.171091,165.450646,75.336647" />
<polygon fill="#735442" fill-opacity="0.501961" points="114.203398,49.944412,91.908162,12.586103,59.838781,17.292060,80.179066,3.988375" />
<polygon fill="#b37468" fill-opacity="0.501961" points="166.713985,28.265311,141.331639,46.355744,149.524872,32.761217,172.855399,19.293857" />
<polygon fill="#232529" fill-opacity="0.501961" points="145.695416,96.543456,146.823359,85.908905,134.069260,71.072454,133.200013,73.791335" />
<polygon fill="#354544" fill-opacity="0.501961" points="44,43 20,27 55,27" />
<polygon fill="#27191b" fill-opacity="0.501961" points="112.860317,195.441511,142.573182,179.757413,101.407855,224.959787,87.041739,225.481036" />
<polygon fill="#292327" fill-opacity="0.501961" points="30,185 77,196 86,177" />
<polygon fill="#676b67" fill-opacity="0.501961" points="190.366886,40.844304,194.670474,97.466653,196.654031,-16.000000,174.538194,-12.621335" />
<polygon fill="#11161e" fill-opacity="0.501961" points="57.836671,98.667485,32.032488,81.390987,61.661868,68.522618,41.487748,64.169987" />
<ellipse fill="#94393d" fill-opacity="0.501961" cx="93" cy="212" rx="5" ry="5" />
<polygon fill="#2e2a2c" fill-opacity="0.501961" points="128,63 115,89 114,58" />
<polygon fill="#735f53" fill-opacity="0.501961" points="66,52 65,70 50,60" />
<rect fill="#955f4b" fill-opacity="0.501961" x="103" y="26" width="14" height="10" />
<polygon fill="#725b5a" fill-opacity="0.501961" points="19,101 14,95 29,79" />
<polygon fill="#c1776b" fill-opacity="0.501961" points="158,39 137,32 153,49" />
<polygon fill="#223038" fill-opacity="0.501961" points="30.962103,26.930556,41.121964,19.456863,35.885731,41.477664,11.017261,48.609421" />
<polygon fill="#372426" fill-opacity="0.501961" points="135,231 126,224 148,195" />
<rect fill="#45413e" fill-opacity="0.501961" x="153" y="22" width="4" height="8" />
<g transform="translate(158 13) rotate(98) scale(18 1)"><rect fill="#0d161e" fill-opacity="0.501961" x="-0.5" y="-0.5" width="1" height="1" /></g>
<g transform="translate(77 86) rotate(100) scale(10 1)"><rect fill="#da7a6e" fill-opacity="0.501961" x="-0.5" y="-0.5" width="1" height="1" /></g>
<polygon fill="#eb826c" fill-opacity="0.501961" points="137.252099,-12.934604,124.694852,7.019058,113.134338,3.664196,113.328497,-16.000000" />
<polygon fill="#68383e" fill-opacity="0.501961" points="160.872337,196.252307,148.744610,196.345001,133.432878,193.553383,143.674659,180.354977" />
<polygon fill="#12171a" fill-opacity="0.501961" points="79.685068,39.947582,78.859617,31.473026,88.688612,42.881125,96.660757,49.623847" />
<polygon fill="#3f453c" fill-opacity="0.501961" points="83.538521,7.012136,66.975850,11.106417,30.488371,16.282245,60.446733,15.605720" />
<polygon fill="#cb695b" fill-opacity="0.501961" points="144.817507,113.228710,101.110802,113.098001,111.643781,77.752968,104.912555,83.734614" />
<rect fill="#2e1c1d" fill-opacity="0.501961" x="44" y="229" width="35" height="8" />
<polygon fill="#b16359" fill-opacity="0.501961" points="113.685058,98.284571,149.176167,133.267573,109.490626,93.344623,136.125446,73.992116" />
<rect fill="#6e544a" fill-opacity="0.501961" x="128" y="13" width="11" height="4" />
<polygon fill="#1d1518" fill-opacity="0.501961" points="42.928147,215.747517,24.356297,233.335674,44.285816,190.743509,43.257198,259.183147" />
<rect fill="#4a2627" fill-opacity="0.501961" x="28" y="254" width="31" height="2" />
<polygon fill="#252e2c" fill-opacity="0.501961" points="177,11 173,11 173,20" />
<ellipse fill="#d1474a" fill-opacity="0.501961" cx="90" cy="202" rx="3" ry="2" />
<ellipse fill="#e5816c" fill-opacity="0.501961" cx="76" cy="34" rx="2" ry="7" />
<rect fill="#8f494a" fill-opacity="0.501961" x="45" y="191" width="2" height="19" />
<g transform="translate(97 95) rotate(200) scale(29 1)"><rect fill="#603e3a" fill-opacity="0.501961" x="-0.5" y="-0.5" width="1" height="1" /></g>
<rect fill="#b5786b" fill-opacity="0.501961" x="147" y="13" width="5" height="15" />
<polygon fill="#a06752" fill-opacity="0.501961" points="107.858424,14.290790,94.680461,19.804947,96.549082,26.765738,102.126741,24.884602" />
<g transform="translate(121 31) rotate(123) scale(27 9)"><rect fill="#463934" fill-opacity="0.501961" x="-0.5" y="-0.5" width="1" height="1" /></g>
<polygon fill="#413937" fill-opacity="0.501961" points="135.840199,70.891740,109.188695,63.165338,139.055248,79.930033,118.274060,96.909374" />
<polygon fill="#23313a" fill-opacity="0.501961" points="13.796081,92.720304,6.492092,70.779666,42.918164,21.206436,12.282213,89.973407" />
<polygon fill="#a77264" fill-opacity="0.501961" points="155.159581,31.544845,170.844494,1.911252,61.736441,-3.117138,167.352590,-16.000000" />
<polygon fill="#1a1b1e" fill-opacity="0.501961" points="113.395029,65.968057,115.746367,43.382480,129.507318,48.430370,99.269093,47.444888" />
<polygon fill="#1a1b1e" fill-opacity="0.501961" points="107.074723,71.284031,76.925311,47.896798,75.890709,48.304275,67.172976,36.250868" />
<polygon fill="#150e0f" fill-opacity="0.501961" points="162.574403,200.152777,168.269230,189.777571,135.600561,232.454141,148.801787,201.878922" />
<polygon fill="#77544b" fill-opacity="0.501961" points="135.496530,23.574515,125.020815,21.403035,158.902249,35.715374,118.482785,24.071316" />
<polygon fill="#0a0b10" fill-opacity="0.501961" points="78.818658,126.929272,54.434122,122.090544,76.439806,160.242261,60.485524,89.326455" />
<polygon fill="#130b0e" fill-opacity="0.501961" points="-16,271 19,271 29,220" />
<polygon fill="#b76f6a" fill-opacity="0.501961" points="50,101 54,97 50,92" />
<g transform="translate(95 203) rotate(346) scale(3 7)"><rect fill="#000303" fill-opacity="0.501961" x="-0.5" y="-0.5" width="1" height="1" /></g>
<polygon fill="#554443" fill-opacity="0.501961" points="164.025212,55.633118,167.227028,50.146904,172.896808,68.917875,176.794395,65.181871" />
<polygon fill="#9b6759" fill-opacity="0.501961" points="64,37 60,60 78,49" />
<g transform="translate(159 61) rotate(298) scale(16 1)"><rect fill="#ab6e68" fill-opacity="0.501961" x="-0.5" y="-0.5" width="1" height="1" /></g>
<g transform="translate(115 140) rotate(243) scale(24 2)"><rect fill="#c95d54" fill-opacity="0.501961" x="-0.5" y="-0.5" width="1" height="1" /></g>
<polygon fill="#5c433b" fill-opacity="0.501961" points="111,83 101,75 99,92" />
<polygon fill="#121820" fill-opacity="0.501961" points="32,82 48,86 50,100" />
<polygon fill="#212929" fill-opacity="0.501961" points="70.978316,47.079893,77.349553,12.589646,58.990869,35.091620,74.053378,23.477924" />
<polygon fill="#605b62" fill-opacity="0.501961" points="210.000000,47.638490,178.725535,93.074134,175.477242,125.446475,194.102742,128.300341" />
<g transform="translate(86 48) rotate(350) scale(5 9)"><rect fill="#996753" fill-opacity="0.501961" x="-0.5" y="-0.5" width="1" height="1" /></g>
<polygon fill="#472123" fill-opacity="0.501961" points="108,231 97,240 100,234" />
<polygon fill="#021117" fill-opacity="0.501961" points="115,13 97,14 108,10" />
<polygon fill="#3e3d3b" fill-opacity="0.501961" points="56,80 75,85 77,59" />
<polygon fill="#101214" fill-opacity="0.501961" points="176.251423,165.312371,178.565829,175.756579,176.534556,177.578045,168.935419,170.867950" />
<polygon fill="#6e383b" fill-opacity="0.501961" points="63,190 67,206 76,208" />
<rect fill="#866e69" fill-opacity="0.501961" x="176" y="43" width="12" height="29" />
<polygon fill="#9e6b68" fill-opacity="0.501961" points="174.483763,66.557106,142.288542,99.599733,148.327709,88.771750,156.395803,121.020933" />
<polygon fill="#140e10" fill-opacity="0.501961" points="66.650850,170.910682,131.932395,168.208042,95.970788,195.194454,106.763675,193.037225" />
<polygon fill="#525d59" fill-opacity="0.501961" points="-10.384769,5.833099,16.255281,11.613835,-16.000000,31.929881,7.351649,41.769112" />
<ellipse fill="#cb8475" fill-opacity="0.501961" cx="42" cy="71" rx="2" ry="2" />
<polygon fill="#111923" fill-opacity="0.501961" points="15.893749,73.061233,47.747409,42.991763,48.000648,44.371252,20.662588,87.307086" />
<polygon fill="#b1715f" fill-opacity="0.501961" points="134,17 130,34 138,42" />
<polygon fill="#0d1417" fill-opacity="0.501961" points="92,25 103,30 87,33" />
<g transform="translate(77 30) rotate(23) scale(1 21)"><rect fill="#c57a68" fill-opacity="0.501961" x="-0.5" y="-0.5" width="1" height="1" /></g>
<polygon fill="#997467" fill-opacity="0.501961" points="27.835766,26.070685,48.795688,17.943017,47.951350,14.651858,14.450474,25.523546" />
<polygon fill="#371f21" fill-opacity="0.501961" points="133,252 193,271 168,252" />
<g transform="translate(90 42) rotate(74) scale(4 5)"><rect fill="#8b6451" fill-opacity="0.501961" x="-0.5" y="-0.5" width="1" height="1" /></g>
<g transform="translate(39.218413 61.075040) rotate(118.197760) scale(3.721499 1.093269)"><ellipse fill="#bd766d" fill-opacity="0.501961" cx="0" cy="0" rx="1" ry="1" /></g>
<ellipse fill="#e97764" fill-opacity="0.501961" cx="106" cy="3" rx="2" ry="2" />
<polygon fill="#181a1e" fill-opacity="0.501961" points="30,163 40,161 23,172" />
<polygon fill="#ca7d6d" fill-opacity="0.501961" points="70,0 45,13 28,-16" />
<polygon fill="#2d2125" fill-opacity="0.501961" points="107,134 81,127 86,168" />
<polygon fill="#091720" fill-opacity="0.501961" points="184,28 187,32 182,38" />
<polygon fill="#65353a" fill-opacity="0.501961" points="41.238141,213.896073,57.063413,196.236265,47.322284,212.910751,47.936787,213.420880" />
<g transform="translate(132 68) rotate(160) scale(13 1)"><rect fill="#88695a" fill-opacity="0.501961" x="-0.5" y="-0.5" width="1" height="1" /></g>
<g transform="translate(50 217) rotate(23) scale(1 46)"><rect fill="#0c0b0b" fill-opacity="0.501961" x="-0.5" y="-0.5" width="1" height="1" /></g>
<g transform="translate(72 41) rotate(236) scale(9 1)"><rect fill="#000009" fill-opacity="0.501961" x="-0.5" y="-0.5" width="1" height="1" /></g>
<g transform="translate(123 77) rotate(246) scale(7 22)"><rect fill="#232224" fill-opacity="0.501961" x="-0.5" y="-0.5" width="1" height="1" /></g>
<polygon fill="#11161e" fill-opacity="0.501961" points="41.753081,77.834022,40.547264,67.455528,29.677217,70.185698,73.944784,107.364489" />
<rect fill="#b54041" fill-opacity="0.501961" x="100" y="197" width="8" height="4" />
<polygon fill="#7e5e48" fill-opacity="0.501961" points="91,16 101,17 81,28" />
<polygon fill="#1b171b" fill-opacity="0.501961" points="23.163178,130.123827,65.076270,180.122569,68.646668,163.338251,83.804857,217.583200" />
<g transform="translate(86.052968 233.992901) rotate(304.972572) scale(3.354025 22.542683)"><ellipse fill="#040402" fill-opacity="0.501961" cx="0" cy="0" rx="1" ry="1" /></g>
<polygon fill="#2e252c" fill-opacity="0.501961" points="205,210 190,182 149,211" />
<ellipse fill="#94564f" fill-opacity="0.501961" cx="81" cy="114" rx="3" ry="3" />
<polygon fill="#211e22" fill-opacity="0.501961" points="34.774160,227.933466,13.983359,199.117808,16.533780,177.654336,26.418218,202.989201" />
<polygon fill="#3f2d30" fill-opacity="0.501961" points="132.589643,177.054853,145.449669,159.924417,129.119741,206.307284,122.588553,143.178653" />
<polygon fill="#ac6251" fill-opacity="0.501961" points="103,11 97,5 97,-2" />
<g transform="translate(126 114) rotate(55) scale(8 26)"><rect fill="#e26f67" fill-opacity="0.501961" x="-0.5" y="-0.5" width="1" height="1" /></g>
<polygon fill="#51363d" fill-opacity="0.501961" points="8.821956,164.001716,7.644549,203.629899,25.913566,219.951803,17.502071,222.967205" />
<polygon fill="#765649" fill-opacity="0.501961" points="114,58 116,50 125,48" />
<g transform="translate(141 53) rotate(170) scale(3 27)"><rect fill="#443f3d" fill-opacity="0.501961" x="-0.5" y="-0.5" width="1" height="1" /></g>
<g transform="translate(109 122) rotate(44) scale(23 1)"><rect fill="#483c38" fill-opacity="0.501961" x="-0.5" y="-0.5" width="1" height="1" /></g>
<polygon fill="#8d5255" fill-opacity="0.501961" points="139.744721,149.258750,158.436897,155.760609,163.652403,136.729523,136.514928,138.523502" />
<polygon fill="#895e50" fill-opacity="0.501961" points="117.284778,42.509403,137.217991,48.626612,146.472859,-5.735700,138.081959,41.244021" />
<polygon fill="#68292c" fill-opacity="0.501961" points="53.412443,224.584334,62.064526,219.516026,68.610675,225.869643,78.175767,232.726088" />
<ellipse fill="#4b3332" fill-opacity="0.501961" cx="97" cy="112" rx="3" ry="24" />
<polygon fill="#7c5f59" fill-opacity="0.501961" points="39.859150,71.954625,43.770610,69.564340,38.693268,65.062848,54.000450,79.908602" />
<g transform="translate(16 32) rotate(-29) scale(4 1)"><rect fill="#0a1319" fill-opacity="0.501961" x="-0.5" y="-0.5" width="1" height="1" /></g>
<polygon fill="#292f35" fill-opacity="0.501961" points="21,90 32,84 26,103" />
<polygon fill="#4b4941" fill-opacity="0.501961" points="91.514219,72.732817,79.506159,71.131036,66.701137,53.794649,71.743845,83.886712" />
<polygon fill="#b6685c" fill-opacity="0.501961" points="124,109 125,94 140,90" />
<polygon fill="#67473e" fill-opacity="0.501961" points="90.291913,81.678089,85.785136,91.146395,102.418871,80.821932,89.897540,81.983965" />
<g transform="translate(162 21) rotate(359) scale(5 3)"><rect fill="#323935" fill-opacity="0.501961" x="-0.5" y="-0.5" width="1" height="1" /></g>
<rect fill="#363536" fill-opacity="0.501961" x="116" y="63" width="38" height="4" />
<polygon fill="#212c2f" fill-opacity="0.501961" points="75.131915,23.754996,51.809640,38.959166,51.174914,22.923265,72.162862,15.040784" />
<polygon fill="#0d0502" fill-opacity="0.501961" points="29.962153,251.516926,68.299139,255.164937,33.522205,225.342745,13.396009,244.111988" />
<rect fill="#4c3f47" fill-opacity="0.501961" x="178" y="144" width="17" height="30" />
<rect fill="#977568" fill-opacity="0.501961" x="170" y="0" width="4" height="18" />
<polygon fill="#665961" fill-opacity="0.501961" points="6.718374,131.053302,2.840978,87.265767,17.271806,141.674994,2.156985,145.060349" />
<path stroke="#2c433b" stroke-opacity="0.501961" fill="none" d="M 21.612404 22.275479 Q 37.326297 13.821911, 68.282131 11.288515" stroke-width="0.500000" />
<g transform="translate(166.816066 31.763860) rotate(121.919696) scale(12.277038 1.000000)"><ellipse fill="#4c4341" fill-opacity="0.501961" cx="0" cy="0" rx="1" ry="1" /></g>
<polygon fill="#867066" fill-opacity="0.501961" points="181.596765,19.460251,178.677914,18.908183,191.187109,14.326809,155.070913,-16.000000" />
<polygon fill="#5d5350" fill-opacity="0.501961" points="141,78 141,88 159,66" />
<polygon fill="#fb886e" fill-opacity="0.501961" points="104.661945,3.844459,96.065114,0.418651,75.422507,2.620554,104.897876,-16.000000" />
<polygon fill="#c17363" fill-opacity="0.501961" points="81.438830,26.421753,73.182569,31.299834,72.565038,23.516517,63.625534,35.873496" />
<g transform="translate(119.952599 210.392197) rotate(22.461790) scale(3.289687 17.319720)"><ellipse fill="#020401" fill-opacity="0.501961" cx="0" cy="0" rx="1" ry="1" /></g>
<polygon fill="#704a44" fill-opacity="0.501961" points="79.320300,106.708079,84.051086,122.231943,100.677795,118.194010,111.480980,134.466562" />
<polygon fill="#18181b" fill-opacity="0.501961" points="105.652356,73.934299,93.117366,64.011167,111.920496,53.971943,115.245002,55.746350" />
<rect fill="#000a18" fill-opacity="0.501961" x="71" y="32" width="2" height="11" />
<rect fill="#d87063" fill-opacity="0.501961" x="124" y="92" width="6" height="8" />
<rect fill="#362b28" fill-opacity="0.501961" x="92" y="31" width="11" height="32" />
<ellipse fill="#555b4f" fill-opacity="0.501961" cx="46" cy="31" rx="4" ry="4" />
<g transform="translate(91 122) rotate(444) scale(8 1)"><rect fill="#e16e68" fill-opacity="0.501961" x="-0.5" y="-0.5" width="1" height="1" /></g>
<polygon fill="#7a6963" fill-opacity="0.501961" points="27.342989,-2.010911,1.996386,62.136464,24.610963,29.082435,-8.603103,44.030183" />
<g transform="translate(21 158) rotate(333) scale(2 24)"><rect fill="#2a2c30" fill-opacity="0.501961" x="-0.5" y="-0.5" width="1" height="1" /></g>
<rect fill="#634145" fill-opacity="0.501961" x="149" y="171" width="22" height="6" />
<polygon fill="#635558" fill-opacity="0.501961" points="21,106 24,100 12,85" />
<path stroke="#272124" stroke-opacity="0.501961" fill="none" d="M 84.110171 18.864149 Q 65.719538 72.560118, 55.274018 179.717025" stroke-width="0.500000" />
<rect fill="#0d0606" fill-opacity="0.501961" x="133" y="232" width="31" height="20" />
<g transform="translate(37 201) rotate(318) scale(10 1)"><rect fill="#8d4145" fill-opacity="0.501961" x="-0.5" y="-0.5" width="1" height="1" /></g>
<rect fill="#433e32" fill-opacity="0.501961" x="83" y="2" width="9" height="2" />
<polygon fill="#b65c5a" fill-opacity="0.501961" points="152.071164,115.058409,120.929788,133.414667,131.247250,145.745840,149.428653,132.772390" />
<polygon fill="#14141a" fill-opacity="0.501961" points="51.019679,107.098826,26.257501,93.668001,66.609905,139.957052,61.299732,85.320033" />
<rect fill="#bc7367" fill-opacity="0.501961" x="53" y="41" width="9" height="14" />
<g transform="translate(121.844463 165.461960) rotate(153.978698) scale(3.709174 4.592621)"><ellipse fill="#573939" fill-opacity="0.501961" cx="0" cy="0" rx="1" ry="1" /></g>
<polygon fill="#42413b" fill-opacity="0.501961" points="69.304839,10.219874,34.124140,29.187527,79.386461,11.854821,25.809430,18.777881" />
<polygon fill="#683c41" fill-opacity="0.501961" points="22.722282,186.161827,23.250690,174.236774,27.697478,173.296110,32.765318,195.928374" />
<polygon fill="#b17568" fill-opacity="0.501961" points="48,-11 49,10 21,18" />
<ellipse fill="#3b362e" fill-opacity="0.501961" cx="143" cy="5" rx="2" ry="2" />
<polygon fill="#a06654" fill-opacity="0.501961" points="107.137892,25.350431,116.056941,36.953409,79.556848,4.402205,84.171789,5.807890" />
<path stroke="#58443c" stroke-opacity="0.501961" fill="none" d="M 82.162320 22.504639 Q 70.715362 2.375318, 57.317728 9.139156" stroke-width="0.500000" />
<g transform="translate(119 222) rotate(-57) scale(26 1)"><rect fill="#3d1e1d" fill-opacity="0.501961" x="-0.5" y="-0.5" width="1" height="1" /></g>
<polygon fill="#0b0a0f" fill-opacity="0.501961" points="104.403960,154.230470,95.356820,137.167783,100.190481,166.673885,119.703663,155.171571" />
<rect fill="#000911" fill-opacity="0.501961" x="80" y="46" width="4" height="7" />
<ellipse fill="#902c36" fill-opacity="0.501961" cx="76" cy="253" rx="9" ry="1" />
<polygon fill="#170f12" fill-opacity="0.501961" points="99.243508,182.741744,138.495177,179.502468,108.068442,174.301108,128.111594,203.965644" />
<ellipse fill="#1e1a20" fill-opacity="0.501961" cx="132" cy="169" rx="10" ry="3" />
<polygon fill="#5b4e4a" fill-opacity="0.501961" points="130.603917,54.943907,153.195336,60.905738,181.458682,32.467690,133.094940,67.455262" />
<polygon fill="#303132" fill-opacity="0.501961" points="81.056120,95.264456,103.831179,65.872360,84.988383,77.696670,77.655087,92.572900" />
<polygon fill="#d18070" fill-opacity="0.501961" points="145,9 134,0 129,-16" />
<polygon fill="#494242" fill-opacity="0.501961" points="171.595973,67.392112,129.233036,92.281560,161.775669,79.227220,176.640639,53.445953" />
<g transform="translate(120 25) rotate(221) scale(12 1)"><rect fill="#00080f" fill-opacity="0.501961" x="-0.5" y="-0.5" width="1" height="1" /></g>
<polygon fill="#896660" fill-opacity="0.501961" points="154.608423,63.437546,173.101776,59.514736,158.734528,77.335484,176.652395,49.604152" />
<polygon fill="#131721" fill-opacity="0.501961" points="32.629758,59.129757,11.519110,59.551605,48.216600,49.950102,46.433224,47.053467" />
<polygon fill="#493136" fill-opacity="0.501961" points="148.660878,203.582077,182.724981,176.522858,183.780202,172.648961,135.979099,198.753275" />
<ellipse fill="#6e4036" fill-opacity="0.501961" cx="109" cy="101" rx="2" ry="2" />
<g transform="translate(52 202) rotate(217) scale(1 5)"><rect fill="#c24c52" fill-opacity="0.501961" x="-0.5" y="-0.5" width="1" height="1" /></g>
<polygon fill="#120d0c" fill-opacity="0.501961" points="49.337436,213.686835,73.877187,185.395284,51.076347,206.565181,28.062972,271.000000" />
<g transform="translate(121 94) rotate(-77) scale(2 3)"><rect fill="#161317" fill-opacity="0.501961" x="-0.5" y="-0.5" width="1" height="1" /></g>
<g transform="translate(88 195) rotate(58) scale(10 1)"><rect fill="#b9464a" fill-opacity="0.501961" x="-0.5" y="-0.5" width="1" height="1" /></g>
<rect fill="#76383c" fill-opacity="0.501961" x="103" y="204" width="6" height="2" />
<g transform="translate(113 213) rotate(45) scale(1 2)"><rect fill="#b64e50" fill-opacity="0.501961" x="-0.5" y="-0.5" width="1" height="1" /></g>
<g transform="translate(132.575685 93.090276) rotate(264.075572) scale(8.529964 1.000000)"><ellipse fill="#614e45" fill-opacity="0.501961" cx="0" cy="0" rx="1" ry="1" /></g>
<polygon fill="#40322c" fill-opacity="0.501961" points="105,12 112,19 111,28" />
<path stroke="#9e6455" stroke-opacity="0.501961" fill="none" d="M 124.980590 5.450733 Q 115.404461 15.841506, 126.663838 27.424352" stroke-width="0.500000" />
<rect fill="#341b1c" fill-opacity="0.501961" x="99" y="249" width="25" height="3" />
<rect fill="#1c2826" fill-opacity="0.501961" x="76" y="14" width="13" height="4" />
<rect fill="#872a2d" fill-opacity="0.501961" x="97" y="255" width="40" height="1" />
<polygon fill="#d46a5d" fill-opacity="0.501961" points="108.920795,86.790077,125.327131,122.052486,134.785636,130.420202,104.540534,91.674943" />
<polygon fill="#030200" fill-opacity="0.501961" points="32.010928,249.784121,124.578404,242.282649,130.367268,209.105489,110.754398,249.204757" />
<polygon fill="#382a2c" fill-opacity="0.501961" points="60,147 46,144 64,137" />
<polygon fill="#060a14" fill-opacity="0.501961" points="145,75 147,67 142,70" />
<g transform="translate(31 40) rotate(220) scale(7 13)"><rect fill="#171d25" fill-opacity="0.501961" x="-0.5" y="-0.5" width="1" height="1" /></g>
<g transform="translate(112 131) rotate(322) scale(1 17)"><rect fill="#e8685c" fill-opacity="0.501961" x="-0.5" y="-0.5" width="1" height="1" /></g>
<ellipse fill="#843539" fill-opacity="0.501961" cx="97" cy="211" rx="3" ry="3" />
<polygon fill="#38434c" fill-opacity="0.501961" points="15,78 6,103 20,124" />
<polygon fill="#976961" fill-opacity="0.501961" points="140.685089,45.397987,154.821657,44.028527,175.263754,36.217591,156.081082,51.095900" />
<g transform="translate(159 124) rotate(218) scale(11 31)"><rect fill="#965e60" fill-opacity="0.501961" x="-0.5" y="-0.5" width="1" height="1" /></g>
<polygon fill="#2f4046" fill-opacity="0.501961" points="24.689074,34.790218,23.304297,67.260202,18.254223,69.886004,17.832062,34.870304" />
<g transform="translate(37 91) rotate(229) scale(11 1)"><rect fill="#a7706f" fill-opacity="0.501961" x="-0.5" y="-0.5" width="1" height="1" /></g>
<rect fill="#a0695a" fill-opacity="0.501961" x="131" y="1" width="4" height="37" />
<g transform="translate(135.580894 184.590198) rotate(308.965159) scale(6.680595 1.000000)"><ellipse fill="#1a1212" fill-opacity="0.501961" cx="0" cy="0" rx="1" ry="1" /></g>
<g transform="translate(88.884313 87.752956) rotate(211.533217) scale(1.000000 6.336046)"><ellipse fill="#854d47" fill-opacity="0.501961" cx="0" cy="0" rx="1" ry="1" /></g>
<polygon fill="#2f2226" fill-opacity="0.501961" points="99.611003,204.721751,65.113919,181.290335,51.573574,172.678102,52.331486,184.816670" />
<g transform="translate(118 36) rotate(77) scale(1 19)"><rect fill="#2c2c25" fill-opacity="0.501961" x="-0.5" y="-0.5" width="1" height="1" /></g>
<polygon fill="#191516" fill-opacity="0.501961" points="26.651340,183.922898,23.561713,192.967439,15.766881,200.585232,23.779937,202.713594" />
<polygon fill="#0a0d11" fill-opacity="0.501961" points="175,176 177,169 163,180" />
<ellipse fill="#755f59" fill-opacity="0.501961" cx="50" cy="76" rx="3" ry="3" />
<ellipse fill="#c34e4f" fill-opacity="0.501961" cx="66" cy="197" rx="2" ry="2" />
<ellipse fill="#b2716a" fill-opacity="0.501961" cx="37" cy="64" rx="2" ry="2" />
<g transform="translate(138.569466 85.465749) rotate(301.139829) scale(3.748663 1.000000)"><ellipse fill="#00060f" fill-opacity="0.501961" cx="0" cy="0" rx="1" ry="1" /></g>
<polygon fill="#624e40" fill-opacity="0.501961" points="106,40 112,45 121,28" />
<polygon fill="#c46757" fill-opacity="0.501961" points="92,95 94,86 95,102" />
<polygon fill="#251b20" fill-opacity="0.501961" points="-15.637242,253.334514,-16.000000,228.285337,34.862848,221.816139,57.858200,192.133880" />
<polygon fill="#a86957" fill-opacity="0.501961" points="101,27 114,30 114,26" />
<polygon fill="#424647" fill-opacity="0.501961" points="21.891414,27.634689,14.046814,33.924210,25.960578,35.939328,12.632911,38.937584" />
<rect fill="#6e3032" fill-opacity="0.501961" x="129" y="220" width="2" height="11" />
<g transform="translate(131 175) rotate(84) scale(5 10)"><rect fill="#614145" fill-opacity="0.501961" x="-0.5" y="-0.5" width="1" height="1" /></g>
<polygon fill="#595f63" fill-opacity="0.501961" points="12.945153,84.365257,-14.253314,119.177973,0.442701,-16.000000,4.807845,82.597571" />
<rect fill="#815d58" fill-opacity="0.501961" x="51" y="54" width="2" height="10" />
<rect fill="#544341" fill-opacity="0.501961" x="137" y="95" width="5" height="10" />
<polygon fill="#cf7863" fill-opacity="0.501961" points="85.332565,34.303643,85.823105,37.991288,81.757286,29.770926,86.587202,23.733541" />
<polygon fill="#39373d" fill-opacity="0.501961" points="17.733945,100.607478,14.167423,134.388122,25.981428,103.447802,42.291640,137.967676" />
<g transform="translate(130 25) rotate(216) scale(2 4)"><rect fill="#12181c" fill-opacity="0.501961" x="-0.5" y="-0.5" width="1" height="1" /></g>
<polygon fill="#7e4649" fill-opacity="0.501961" points="161.214900,149.512427,149.224512,166.576946,122.321499,156.042938,113.567547,148.283193" />
<rect fill="#fa8679" fill-opacity="0.501961" x="59" y="37" width="3" height="10" />
<ellipse fill="#0a0f16" fill-opacity="0.501961" cx="95" cy="45" rx="6" ry="3" />
<polygon fill="#3e3638" fill-opacity="0.501961" points="80.508138,99.023827,85.082242,117.240892,94.079518,84.950323,94.558228,82.143755" />
<polygon fill="#333f41" fill-opacity="0.501961" points="39.988008,32.825947,60.764252,36.744108,34.882718,51.420492,32.463032,45.769938" />
<rect fill="#b57d70" fill-opacity="0.501961" x="154" y="6" width="2" height="20" />
<rect fill="#8d736b" fill-opacity="0.501961" x="170" y="23" width="15" height="9" />
<polygon fill="#533637" fill-opacity="0.501961" points="77,179 80,176 84,183" />
<path stroke="#2f4740" stroke-opacity="0.501961" fill="none" d="M 25.686851 21.068599 Q 50.005629 9.451902, 59.175785 15.684757" stroke-width="0.500000" />
<g transform="translate(66.430804 206.947432) rotate(194.588813) scale(8.793247 4.687201)"><ellipse fill="#392b2e" fill-opacity="0.501961" cx="0" cy="0" rx="1" ry="1" /></g>
<polygon fill="#0c090d" fill-opacity="0.501961" points="67.240166,162.003939,68.703542,188.764213,47.989984,161.846062,108.502514,191.244043" />
<g transform="translate(57 207) rotate(293) scale(3 1)"><rect fill="#b74748" fill-opacity="0.501961" x="-0.5" y="-0.5" width="1" height="1" /></g>
<polygon fill="#453e48" fill-opacity="0.501961" points="-16,156 12,191 11,161" />
<rect fill="#bf6b5b" fill-opacity="0.501961" x="77" y="81" width="3" height="6" />
<g transform="translate(144 5) rotate(313) scale(1 5)"><rect fill="#342b2a" fill-opacity="0.501961" x="-0.5" y="-0.5" width="1" height="1" /></g>
<rect fill="#ea6c5a" fill-opacity="0.501961" x="101" y="107" width="8" height="4" />
<polygon fill="#2c282d" fill-opacity="0.501961" points="72.098639,62.747721,39.230666,95.940578,35.558939,83.762019,68.043128,91.930366" />
<g transform="translate(18.571033 187.819976) rotate(96.317352) scale(17.636381 2.525171)"><ellipse fill="#2f292d" fill-opacity="0.501961" cx="0" cy="0" rx="1" ry="1" /></g>
<g transform="translate(91 30) rotate(20) scale(3 10)"><rect fill="#010c13" fill-opacity="0.501961" x="-0.5" y="-0.5" width="1" height="1" /></g>
<g transform="translate(169.045524 53.137148) rotate(150.632623) scale(5.539170 1.000000)"><ellipse fill="#433b3d" fill-opacity="0.501961" cx="0" cy="0" rx="1" ry="1" /></g>
<polygon fill="#76453d" fill-opacity="0.501961" points="100.790602,86.905823,104.681405,87.685350,105.380592,100.574396,97.276479,111.959016" />
<rect fill="#3d1616" fill-opacity="0.501961" x="76" y="254" width="22" height="2" />
<polygon fill="#0f1a24" fill-opacity="0.501961" points="9,91 35,60 29,77" />
<ellipse fill="#50292c" fill-opacity="0.501961" cx="79" cy="219" rx="4" ry="4" />
<polygon fill="#292027" fill-opacity="0.501961" points="153,226 174,220 160,189" />
<g transform="translate(34 150) rotate(162) scale(1 12)"><rect fill="#624f55" fill-opacity="0.501961" x="-0.5" y="-0.5" width="1" height="1" /></g>
<polygon fill="#43383d" fill-opacity="0.501961" points="40,165 28,174 38,197" />
<polygon fill="#b0796c" fill-opacity="0.501961" points="31.157238,21.171783,26.016463,28.466380,33.374437,24.062476,43.275416,18.162387" />
<rect fill="#f8846c" fill-opacity="0.501961" x="93" y="6" width="5" height="3" />
<g transform="translate(54 136) rotate(58) scale(12 5)"><rect fill="#0d0c11" fill-opacity="0.501961" x="-0.5" y="-0.5" width="1" height="1" /></g>
<polygon fill="#4d4647" fill-opacity="0.501961" points="172.430035,65.413480,176.799923,50.677567,168.989247,68.993086,179.620217,63.167287" />
<rect fill="#381a17" fill-opacity="0.501961" x="58" y="250" width="16" height="2" />
<g transform="translate(126.085317 53.111493) rotate(356.877588) scale(15.886456 1.000000)"><ellipse fill="#6a5249" fill-opacity="0.501961" cx="0" cy="0" rx="1" ry="1" /></g>
<rect fill="#62474f" fill-opacity="0.501961" x="29" y="138" width="2" height="28" />
<rect fill="#7d5143" fill-opacity="0.501961" x="111" y="77" width="4" height="17" />
<polygon fill="#db6b61" fill-opacity="0.501961" points="118.589491,91.293487,108.882744,109.468356,135.435956,111.332135,124.226690,129.118448" />
<polygon fill="#212229" fill-opacity="0.501961" points="47.164711,179.646075,38.187843,162.193548,33.859329,172.001308,30.363702,150.619071" />
<polygon fill="#7a5a4d" fill-opacity="0.501961" points="80,54 57,47 74,58" />
<polygon fill="#51403c" fill-opacity="0.501961" points="121,62 114,62 128,74" />
<rect fill="#22282a" fill-opacity="0.501961" x="136" y="59" width="4" height="7" />
<g transform="translate(157 34) rotate(16) scale(2 33)"><rect fill="#ab7165" fill-opacity="0.501961" x="-0.5" y="-0.5" width="1" height="1" /></g>
<polygon fill="#0c0e14" fill-opacity="0.501961" points="49.138505,115.434231,71.719807,98.267604,77.387886,123.769612,32.901970,95.895688" />
<polygon fill="#090907" fill-opacity="0.501961" points="82.180095,218.681135,97.074831,246.082833,95.156389,240.949473,88.632748,218.600993" />
<polygon fill="#927068" fill-opacity="0.501961" points="36.315755,-16.000000,6.388774,31.379343,36.821309,10.423611,32.085713,13.779077" />
<ellipse fill="#00000d" fill-opacity="0.501961" cx="78" cy="46" rx="2" ry="2" />
<g transform="translate(139 20) rotate(200) scale(2 28)"><rect fill="#c67a6a" fill-opacity="0.501961" x="-0.5" y="-0.5" width="1" height="1" /></g>
<polygon fill="#100c10" fill-opacity="0.501961" points="113.565449,204.212915,69.607935,158.119846,63.748997,173.134430,64.128936,139.009970" />
<polygon fill="#151c20" fill-opacity="0.501961" points="120,21 101,5 119,9" />
<polygon fill="#99484d" fill-opacity="0.501961" points="48,196 45,188 45,195" />
<polygon fill="#271b1d" fill-opacity="0.501961" points="24.351682,187.684317,57.126429,271.000000,24.886075,190.051880,37.726387,158.343206" />
<rect fill="#ab7162" fill-opacity="0.501961" x="126" y="23" width="2" height="5" />
<polygon fill="#040402" fill-opacity="0.501961" points="126.570120,204.638846,96.832850,231.209472,137.956283,243.187788,113.208380,229.126221" />
<rect fill="#030603" fill-opacity="0.501961" x="90" y="178" width="2" height="19" />
<polygon fill="#231a1f" fill-opacity="0.501961" points="101.417261,132.515746,103.377252,131.993169,95.598298,131.998734,113.621925,180.252358" />
<polygon fill="#14181f" fill-opacity="0.501961" points="53.932816,72.066059,62.610284,78.764088,41.219857,53.256869,43.884479,72.092877" />
<rect fill="#1a1e20" fill-opacity="0.501961" x="113" y="38" width="5" height="4" />
<rect fill="#00040a" fill-opacity="0.501961" x="117" y="76" width="2" height="9" />
<polygon fill="#18191e" fill-opacity="0.501961" points="19.857400,148.752236,23.371828,125.658343,45.897372,130.161948,43.362613,123.994308" />
<rect fill="#322123" fill-opacity="0.501961" x="94" y="108" width="2" height="53" />
<g transform="translate(98 85) rotate(318) scale(7 1)"><rect fill="#e97a63" fill-opacity="0.501961" x="-0.5" y="-0.5" width="1" height="1" /></g>
<polygon fill="#725046" fill-opacity="0.501961" points="147.823139,36.602303,148.171718,32.581808,129.577240,25.206689,113.856287,3.726153" />
<g transform="translate(63 93) rotate(283) scale(6 4)"><rect fill="#6b504c" fill-opacity="0.501961" x="-0.5" y="-0.5" width="1" height="1" /></g>
<polygon fill="#5e5047" fill-opacity="0.501961" points="82.218514,79.126872,54.801048,53.448312,83.791474,60.864067,54.005281,60.557189" />
<ellipse fill="#4d2a2d" fill-opacity="0.501961" cx="16" cy="215" rx="8" ry="8" />
<g transform="translate(148 24) rotate(48) scale(52 1)"><rect fill="#856155" fill-opacity="0.501961" x="-0.5" y="-0.5" width="1" height="1" /></g>
<polygon fill="#614b41" fill-opacity="0.501961" points="86.575710,3.030319,94.104429,4.425074,82.246338,2.787036,37.322184,29.091006" />
<path stroke="#080b14" stroke-opacity="0.501961" fill="none" d="M 78.251399 33.382599 Q 81.491706 29.421664, 84.383259 20.307402" stroke-width="0.500000" />
<ellipse fill="#5a413b" fill-opacity="0.501961" cx="98" cy="53" rx="3" ry="3" />
<ellipse fill="#000100" fill-opacity="0.501961" cx="85" cy="242" rx="11" ry="11" />
<g transform="translate(48 131) rotate(86) scale(3 18)"><rect fill="#503b3f" fill-opacity="0.501961" x="-0.5" y="-0.5" width="1" height="1" /></g>
<polygon fill="#766a67" fill-opacity="0.501961" points="-6.976622,50.414921,-16.000000,67.503451,19.711343,55.663342,-16.000000,38.709342" />
<g transform="translate(60 224) rotate(17) scale(6 7)"><rect fill="#82373b" fill-opacity="0.501961" x="-0.5" y="-0.5" width="1" height="1" /></g>
<g transform="translate(137 76) rotate(238) scale(14 1)"><rect fill="#11141a" fill-opacity="0.501961" x="-0.5" y="-0.5" width="1" height="1" /></g>
<path stroke="#392f2c" stroke-opacity="0.501961" fill="none" d="M 87.123191 -16.000000 Q 129.368948 33.020159, 34.901897 105.684384" stroke-width="0.500000" />
<polygon fill="#5f393e" fill-opacity="0.501961" points="154.691816,181.716181,131.630545,190.087110,153.037111,194.078820,166.193328,182.606551" />
<ellipse fill="#474440" fill-opacity="0.501961" cx="163" cy="21" rx="3" ry="3" />
<rect fill="#282226" fill-opacity="0.501961" x="31" y="135" width="2" height="24" />
<polygon fill="#131015" fill-opacity="0.501961" points="26.599941,119.041061,68.260036,165.982672,42.201693,179.876655,35.095009,141.255488" />
<polygon fill="#795b5e" fill-opacity="0.501961" points="183.654088,111.700296,157.208994,135.311756,186.486608,72.734133,179.896328,110.891296" />
<polygon fill="#0e1119" fill-opacity="0.501961" points="52,86 39,71 48,97" />
<g transform="translate(40 26) rotate(76) scale(1 52)"><rect fill="#242a2f" fill-opacity="0.501961" x="-0.5" y="-0.5" width="1" height="1" /></g>
<polygon fill="#785758" fill-opacity="0.501961" points="43.278675,102.450567,47.413862,101.708183,30.663098,88.835678,42.060151,94.006985" />
<g transform="translate(88 183) rotate(183) scale(3 4)"><rect fill="#743938" fill-opacity="0.501961" x="-0.5" y="-0.5" width="1" height="1" /></g>
<g transform="translate(79.850066 35.971278) rotate(274.954763) scale(4.598594 1.000000)"><ellipse fill="#12161e" fill-opacity="0.501961" cx="0" cy="0" rx="1" ry="1" /></g>
<polygon fill="#151319" fill-opacity="0.501961" points="146,88 142,90 143,84" />
<polygon fill="#d17a69" fill-opacity="0.501961" points="67.379551,51.422830,62.009069,34.249595,73.987343,27.204134,60.292992,46.925976" />
<polygon fill="#191e26" fill-opacity="0.501961" points="53.983322,79.618390,29.643697,88.754927,31.469227,81.543634,42.615622,76.889831" />
<polygon fill="#6d4e45" fill-opacity="0.501961" points="88,104 95,107 91,96" />
<g transform="translate(103 19) rotate(215) scale(2 11)"><rect fill="#b46d59" fill-opacity="0.501961" x="-0.5" y="-0.5" width="1" height="1" /></g>
<rect fill="#e17f6d" fill-opacity="0.501961" x="66" y="31" width="3" height="13" />
<ellipse fill="#954d50" fill-opacity="0.501961" cx="139" cy="160" rx="6" ry="6" />
<polygon fill="#352428" fill-opacity="0.501961" points="71.199978,134.106772,98.369226,155.864853,88.438017,169.953522,89.277858,143.748389" />
<ellipse fill="#563d36" fill-opacity="0.501961" cx="97" cy="94" rx="4" ry="4" />
<path stroke="#9a6155" stroke-opacity="0.501961" fill="none" d="M 134.572146 0.079305 Q 114.087177 14.893303, 125.711744 28.138720" stroke-width="0.500000" />
<g transform="translate(45 57) rotate(185) scale(1 25)"><rect fill="#030f18" fill-opacity="0.501961" x="-0.5" y="-0.5" width="1" height="1" /></g>
<g transform="translate(77.570679 19.989598) rotate(165.805135) scale(4.913022 4.758574)"><ellipse fill="#2a3530" fill-opacity="0.501961" cx="0" cy="0" rx="1" ry="1" /></g>
<g transform="translate(83 11) rotate(277) scale(8 3)"><rect fill="#946253" fill-opacity="0.501961" x="-0.5" y="-0.5" width="1" height="1" /></g>
<polygon fill="#72544a" fill-opacity="0.501961" points="125,36 141,53 137,41" />
<polygon fill="#c77b6e" fill-opacity="0.501961" points="144,20 154,31 151,39" />
<polygon fill="#c76964" fill-opacity="0.501961" points="148.263865,120.745898,141.825218,125.323446,125.882841,117.288138,141.257635,103.366159" />
<polygon fill="#271a1f" fill-opacity="0.501961" points="49.493034,271.000000,-13.628684,244.926598,-9.233701,263.979909,29.507155,249.387332" />
<polygon fill="#7e6863" fill-opacity="0.501961" points="10.530451,53.372884,7.978978,36.252570,26.065309,28.964060,12.824080,38.100629" />
<polygon fill="#8d5c4c" fill-opacity="0.501961" points="96.317965,15.625413,92.754122,24.333600,111.260294,35.640309,122.418437,39.409919" />
<polygon fill="#e28470" fill-opacity="0.501961" points="52,5 67,4 79,-16" />
<rect fill="#583737" fill-opacity="0.501961" x="111" y="141" width="5" height="7" />
<polygon fill="#303e3b" fill-opacity="0.501961" points="41.963694,20.046432,55.408810,12.795202,67.487562,10.057003,31.116424,28.811929" />
<g transform="translate(70 3) rotate(41) scale(1 7)"><rect fill="#8a584a" fill-opacity="0.501961" x="-0.5" y="-0.5" width="1" height="1" /></g>
<polygon fill="#ff8c77" fill-opacity="0.501961" points="73,28 68,32 69,29" />
<path stroke="#3c3c3d" stroke-opacity="0.501961" fill="none" d="M 62.707766 4.957245 Q 42.535501 21.418398, 32.723068 83.025489" stroke-width="0.500000" />
<g transform="translate(117 132) rotate(238) scale(20 1)"><rect fill="#604241" fill-opacity="0.501961" x="-0.5" y="-0.5" width="1" height="1" /></g>
<polygon fill="#636260" fill-opacity="0.501961" points="-16.000000,66.682259,23.895216,59.316585,-4.597060,74.155317,20.941195,-16.000000" />
<rect fill="#a27065" fill-opacity="0.501961" x="40" y="58" width="2" height="9" />
<ellipse fill="#0d1419" fill-opacity="0.501961" cx="119" cy="59" rx="3" ry="3" />
<rect fill="#625245" fill-opacity="0.501961" x="121" y="57" width="16" height="3" />
<ellipse fill="#06080a" fill-opacity="0.501961" cx="111" cy="159" rx="3" ry="10" />
<polygon fill="#1e151b" fill-opacity="0.501961" points="14.777513,243.059123,-16.000000,182.161461,-16.000000,247.479017,17.219604,258.815262" />
<path stroke="#393c39" stroke-opacity="0.501961" fill="none" d="M 51.641367 56.252436 Q 52.379851 18.443160, 87.061806 15.154458" stroke-width="0.500000" />
<rect fill="#312a2b" fill-opacity="0.501961" x="125" y="21" width="6" height="4" />
<polygon fill="#1f1f26" fill-opacity="0.501961" points="47.831974,77.547255,28.999411,84.947264,63.223187,90.475516,57.452029,110.426293" />
<polygon fill="#342f35" fill-opacity="0.501961" points="14,214 -11,197 1,169" />
<g transform="translate(98 194) rotate(145) scale(5 9)"><rect fill="#572e2f" fill-opacity="0.501961" x="-0.5" y="-0.5" width="1" height="1" /></g>
<polygon fill="#0f0f13" fill-opacity="0.501961" points="58,135 79,116 88,124" />
<g transform="translate(50 100) rotate(202) scale(7 1)"><rect fill="#976361" fill-opacity="0.501961" x="-0.5" y="-0.5" width="1" height="1" /></g>
<g transform="translate(80 43) rotate(198) scale(14 2)"><rect fill="#966957" fill-opacity="0.501961" x="-0.5" y="-0.5" width="1" height="1" /></g>
<polygon fill="#914f4b" fill-opacity="0.501961" points="78,110 83,118 80,104" />
<polygon fill="#1f151a" fill-opacity="0.501961" points="181.659509,206.586296,210.000000,257.000004,155.613483,269.956026,171.865880,241.321731" />
<g transform="translate(108 231) rotate(324) scale(29 1)"><rect fill="#361d1e" fill-opacity="0.501961" x="-0.5" y="-0.5" width="1" height="1" /></g>
<g transform="translate(173 66) rotate(86) scale(2 3)"><rect fill="#0e2022" fill-opacity="0.501961" x="-0.5" y="-0.5" width="1" height="1" /></g>
<polygon fill="#282125" fill-opacity="0.501961" points="171.804282,181.609925,125.813890,170.069206,141.130266,167.002647,142.516764,179.000524" />
<g transform="translate(72.123936 97.096725) rotate(69.320989) scale(20.004164 2.632555)"><ellipse fill="#2d272b" fill-opacity="0.501961" cx="0" cy="0" rx="1" ry="1" /></g>
<polygon fill="#0a090b" fill-opacity="0.501961" points="76.592706,164.696234,64.608204,153.244166,83.567377,181.786043,95.459213,183.199260" />
<rect fill="#0f1f28" fill-opacity="0.501961" x="155" y="24" width="1" height="7" />
<polygon fill="#ed8672" fill-opacity="0.501961" points="106,-16 122,-12 126,8" />
<g transform="translate(43 133) rotate(313) scale(3 27)"><rect fill="#3f3339" fill-opacity="0.501961" x="-0.5" y="-0.5" width="1" height="1" /></g>
<rect fill="#ce7b73" fill-opacity="0.501961" x="49" y="47" width="2" height="14" />
<polygon fill="#936967" fill-opacity="0.501961" points="163.704541,75.962861,168.785357,69.626190,182.239307,64.837117,160.894063,117.261015" />
<polygon fill="#5a5b54" fill-opacity="0.501961" points="183,18 189,23 181,32" />
<polygon fill="#222833" fill-opacity="0.501961" points="29,58 8,68 27,70" />
<polygon fill="#514746" fill-opacity="0.501961" points="159.001684,63.583799,148.898294,71.951259,166.579848,63.145378,153.773357,87.894975" />
<polygon fill="#413b38" fill-opacity="0.501961" points="57,79 71,60 90,60" />
<rect fill="#44343b" fill-opacity="0.501961" x="151" y="160" width="23" height="4" />
<polygon fill="#351513" fill-opacity="0.501961" points="122,246 119,243 115,245" />
<polygon fill="#e2816d" fill-opacity="0.501961" points="97.671526,-4.302851,66.549822,9.799888,83.284002,-8.390164,64.444463,-0.003952" />
<rect fill="#443b38" fill-opacity="0.501961" x="135" y="101" width="9" height="2" />
<g transform="translate(32.565688 78.375941) rotate(298.165745) scale(8.617071 1.000000)"><ellipse fill="#424143" fill-opacity="0.501961" cx="0" cy="0" rx="1" ry="1" /></g>
<g transform="translate(65 229) rotate(70) scale(11 1)"><rect fill="#6d2c2f" fill-opacity="0.501961" x="-0.5" y="-0.5" width="1" height="1" /></g>
<polygon fill="#110805" fill-opacity="0.501961" points="84.108047,251.771521,48.969824,244.694368,73.137864,255.446096,49.632813,254.253665" />
</g>
</svg>