<svg xmlns="http://www.w3.org/2000/svg" version="1.1" width="1024" height="1024">
<rect x="0" y="0" width="1024" height="1024" fill="#976c42" />
<g transform="scale(4.000000) translate(0.5 0.5)">
<polygon fill="#120000" fill-opacity="0.501961" points="58,22 -16,256 243,-16" />
<g transform="translate(200.781283 202.813091) rotate(130.011855) scale(67.130445 99.250562)"><ellipse fill="#ffe8b1" fill-opacity="0.501961" cx="0" cy="0" rx="1" ry="1" /></g>
<g transform="translate(153.867530 218.192531) rotate(126.637298) scale(58.107322 23.107155)"><ellipse fill="#b35000" fill-opacity="0.501961" cx="0" cy="0" rx="1" ry="1" /></g>
<g transform="translate(198.604350 35.903981) rotate(164.882827) scale(85.513239 22.225504)"><ellipse fill="#f76f06" fill-opacity="0.501961" cx="0" cy="0" rx="1" ry="1" /></g>
<ellipse fill="#0d0404" fill-opacity="0.501961" cx="108" cy="102" rx="97" ry="22" />
<g transform="translate(34.045526 19.709836) rotate(46.894512) scale(36.188892 124.918305)"><ellipse fill="#eebf7a" fill-opacity="0.501961" cx="0" cy="0" rx="1" ry="1" /></g>
<rect fill="#e7d6aa" fill-opacity="0.501961" x="231" y="49" width="25" height="207" />
<g transform="translate(15.486476 255.000000) rotate(189.071709) scale(245.814489 32.445265)"><ellipse fill="#ffb444" fill-opacity="0.501961" cx="0" cy="0" rx="1" ry="1" /></g>
<g transform="translate(148.640692 0.000000) rotate(230.566309) scale(14.980515 148.555713)"><ellipse fill="#030000" fill-opacity="0.501961" cx="0" cy="0" rx="1" ry="1" /></g>
<g transform="translate(133.506953 165.643076) rotate(309.906910) scale(63.028001 30.556758)"><ellipse fill="#ceb8a0" fill-opacity="0.501961" cx="0" cy="0" rx="1" ry="1" /></g>
<ellipse fill="#451c1c" fill-opacity="0.501961" cx="126" cy="137" rx="14" ry="25" />
<g transform="translate(68.860163 131.608293) rotate(151.959819) scale(23.988951 41.187883)"><ellipse fill="#05080a" fill-opacity="0.501961" cx="0" cy="0" rx="1" ry="1" /></g>
<g transform="translate(203.639387 50.170630) rotate(233.713577) scale(38.979847 40.872346)"><ellipse fill="#c9650e" fill-opacity="0.501961" cx="0" cy="0" rx="1" ry="1" /></g>
<ellipse fill="#5e2b19" fill-opacity="0.501961" cx="205" cy="115" rx="36" ry="17" />
<g transform="translate(56.674357 210.859488) rotate(297.061083) scale(20.845111 51.994523)"><ellipse fill="#84430f" fill-opacity="0.501961" cx="0" cy="0" rx="1" ry="1" /></g>
<polygon fill="#edf4f5" fill-opacity="0.501961" points="116,159 109,136 85,150" />
<g transform="translate(223.579270 250.550249) rotate(88.949648) scale(90.621995 34.036625)"><ellipse fill="#e7d5a8" fill-opacity="0.501961" cx="0" cy="0" rx="1" ry="1" /></g>
<g transform="translate(159.140580 156.546971) rotate(123.593555) scale(32.423071 14.291998)"><ellipse fill="#e9ece0" fill-opacity="0.501961" cx="0" cy="0" rx="1" ry="1" /></g>
<g transform="translate(151.364868 206.540077) rotate(59.180989) scale(8.728847 45.796830)"><ellipse fill="#732f0e" fill-opacity="0.501961" cx="0" cy="0" rx="1" ry="1" /></g>
<ellipse fill="#fc9036" fill-opacity="0.501961" cx="57" cy="172" rx="12" ry="13" />
<polygon fill="#d8a465" fill-opacity="0.501961" points="77.063710,170.015140,70.440774,221.319818,81.404874,220.137164,135.570554,215.549456" />
<polygon fill="#edbf85" fill-opacity="0.501961" points="-0.782128,221.323516,17.794975,197.254545,-16.000000,197.642278,9.561144,129.835665" />
<g transform="translate(238.237053 35.435732) rotate(291.574799) scale(72.151641 19.283906)"><ellipse fill="#d19b49" fill-opacity="0.501961" cx="0" cy="0" rx="1" ry="1" /></g>
<g transform="translate(31.242709 158.166160) rotate(113.714677) scale(34.136771 13.387783)"><ellipse fill="#090800" fill-opacity="0.501961" cx="0" cy="0" rx="1" ry="1" /></g>
<polygon fill="#872803" fill-opacity="0.501961" points="212,92 83,71 143,31" />
<polygon fill="#111816" fill-opacity="0.501961" points="99,99 187,114 147,66" />
<polygon fill="#885034" fill-opacity="0.501961" points="112.163530,200.815773,62.259216,200.860640,83.825638,193.896589,136.652172,162.525281" />
<g transform="translate(37.832912 99.413599) rotate(35.151655) scale(20.025341 39.529253)"><ellipse fill="#571d07" fill-opacity="0.501961" cx="0" cy="0" rx="1" ry="1" /></g>
<rect fill="#ffffff" fill-opacity="0.501961" x="81" y="181" width="17" height="7" />
<polygon fill="#d1d5d4" fill-opacity="0.501961" points="122,129 123,141 152,136" />
<polygon fill="#1f0e0c" fill-opacity="0.501961" points="81,221 97,248 98,218" />
<g transform="translate(161.520589 245.941767) rotate(231.585641) scale(14.807505 45.804866)"><ellipse fill="#eeb853" fill-opacity="0.501961" cx="0" cy="0" rx="1" ry="1" /></g>
<g transform="translate(251.190726 73.546506) rotate(61.822863) scale(6.102822 66.023379)"><ellipse fill="#d4be9b" fill-opacity="0.501961" cx="0" cy="0" rx="1" ry="1" /></g>
<polygon fill="#d09056" fill-opacity="0.501961" points="138,130 131,107 179,117" />
<polygon fill="#b45b1f" fill-opacity="0.501961" points="23,77 25,151 -16,125" />
<rect fill="#201b17" fill-opacity="0.501961" x="68" y="95" width="32" height="75" />
<polygon fill="#d79753" fill-opacity="0.501961" points="-0.414091,271.000000,15.836639,187.585261,24.031919,200.310689,-5.102065,205.352570" />
<polygon fill="#debf87" fill-opacity="0.501961" points="-11,115 17,149 -9,197" />
<polygon fill="#ebe8cf" fill-opacity="0.501961" points="96.258196,208.375296,176.976598,156.660321,175.141457,130.837659,145.966027,193.512920" />
<polygon fill="#e1d3c4" fill-opacity="0.501961" points="87,146 109,138 110,161" />
<rect fill="#44220a" fill-opacity="0.501961" x="6" y="203" width="55" height="8" />
<g transform="translate(44.632005 255.000000) rotate(94.355374) scale(14.306185 52.740853)"><ellipse fill="#edb35e" fill-opacity="0.501961" cx="0" cy="0" rx="1" ry="1" /></g>
<polygon fill="#cf8732" fill-opacity="0.501961" points="160.912140,173.273623,173.954488,220.448757,184.294455,234.428411,195.791658,150.188621" />
<polygon fill="#481505" fill-opacity="0.501961" points="138,159 137,133 125,145" />
<g transform="translate(192.302198 76.268658) rotate(88.584182) scale(29.525146 19.454495)"><ellipse fill="#aa5115" fill-opacity="0.501961" cx="0" cy="0" rx="1" ry="1" /></g>
<polygon fill="#2f1d16" fill-opacity="0.501961" points="95.218505,147.015822,111.118771,61.752314,136.094044,131.560543,106.644006,135.276015" />
<g transform="translate(128.244958 52.637360) rotate(151.504077) scale(35.756768 7.248823)"><ellipse fill="#c3500b" fill-opacity="0.501961" cx="0" cy="0" rx="1" ry="1" /></g>
<polygon fill="#2f3731" fill-opacity="0.501961" points="109.928560,217.870027,144.789715,236.650835,120.829548,233.213110,108.819399,224.591110" />
<polygon fill="#131111" fill-opacity="0.501961" points="200,105 159,103 202,125" />
<polygon fill="#d3b985" fill-opacity="0.501961" points="194,138 271,130 184,212" />
<polygon fill="#c47024" fill-opacity="0.501961" points="72,232 128,271 118,233" />
<polygon fill="#1d1011" fill-opacity="0.501961" points="174,209 146,200 154,193" />
<ellipse fill="#efd59a" fill-opacity="0.501961" cx="198" cy="247" rx="35" ry="14" />
<polygon fill="#4f241c" fill-opacity="0.501961" points="34.374036,81.151355,87.018022,11.023517,135.089935,5.682570,87.066397,36.534346" />
<polygon fill="#694313" fill-opacity="0.501961" points="5.815735,206.072493,17.771829,143.766630,-0.614417,191.255207,-16.000000,168.362182" />
<g transform="translate(115.371075 168.200798) rotate(158.005753) scale(22.034082 12.956360)"><ellipse fill="#c98e62" fill-opacity="0.501961" cx="0" cy="0" rx="1" ry="1" /></g>
<polygon fill="#c86215" fill-opacity="0.501961" points="99,217 -4,230 38,208" />
<g transform="translate(103 0) rotate(238) scale(11 125)"><rect fill="#c89d6b" fill-opacity="0.501961" x="-0.5" y="-0.5" width="1" height="1" /></g>
<rect fill="#87350c" fill-opacity="0.501961" x="167" y="176" width="18" height="11" />
<g transform="translate(184.687712 39.240056) rotate(319.846351) scale(21.439774 29.650560)"><ellipse fill="#b95512" fill-opacity="0.501961" cx="0" cy="0" rx="1" ry="1" /></g>
<g transform="translate(215.535802 62.845115) rotate(56.065481) scale(11.967224 31.766271)"><ellipse fill="#ce7618" fill-opacity="0.501961" cx="0" cy="0" rx="1" ry="1" /></g>
<polygon fill="#724a2d" fill-opacity="0.501961" points="217.550667,123.435525,161.304295,66.061642,146.319626,94.962770,152.736827,90.494139" />
<g transform="translate(0.000000 9.472280) rotate(33.651881) scale(12.321757 19.272748)"><ellipse fill="#cbc1a3" fill-opacity="0.501961" cx="0" cy="0" rx="1" ry="1" /></g>
<ellipse fill="#b37f4e" fill-opacity="0.501961" cx="234" cy="117" rx="8" ry="26" />
<g transform="translate(78 156) rotate(421) scale(6 6)"><rect fill="#b395ac" fill-opacity="0.501961" x="-0.5" y="-0.5" width="1" height="1" /></g>
<g transform="translate(43.527743 95.236775) rotate(128.416616) scale(40.052959 9.014707)"><ellipse fill="#22110c" fill-opacity="0.501961" cx="0" cy="0" rx="1" ry="1" /></g>
<polygon fill="#f1bc6e" fill-opacity="0.501961" points="226,-3 201,3 200,-16" />
<g transform="translate(26 71) rotate(317) scale(89 9)"><rect fill="#bb7f43" fill-opacity="0.501961" x="-0.5" y="-0.5" width="1" height="1" /></g>
<g transform="translate(167.904305 0.000000) rotate(242.608698) scale(12.175989 86.714550)"><ellipse fill="#1a1212" fill-opacity="0.501961" cx="0" cy="0" rx="1" ry="1" /></g>
<polygon fill="#d56e0f" fill-opacity="0.501961" points="127,221 180,205 155,239" />
<g transform="translate(146.906065 134.254869) rotate(77.127472) scale(11.190028 10.519933)"><ellipse fill="#d1ceb8" fill-opacity="0.501961" cx="0" cy="0" rx="1" ry="1" /></g>
<polygon fill="#1b181a" fill-opacity="0.501961" points="168.572189,81.567313,178.552563,60.837542,142.092251,108.275578,150.033613,107.557872" />
<polygon fill="#8b501a" fill-opacity="0.501961" points="31.917651,165.428396,11.025996,231.507512,-0.347824,194.679455,48.228529,202.356678" />
<g transform="translate(86.561350 186.051079) rotate(326.953162) scale(6.558079 3.635712)"><ellipse fill="#fffffd" fill-opacity="0.501961" cx="0" cy="0" rx="1" ry="1" /></g>
<g transform="translate(88.783677 207.664075) rotate(7.988978) scale(27.287524 5.351533)"><ellipse fill="#d6b058" fill-opacity="0.501961" cx="0" cy="0" rx="1" ry="1" /></g>
<polygon fill="#d0c8af" fill-opacity="0.501961" points="224,90 258,43 262,72" />
<polygon fill="#c07a35" fill-opacity="0.501961" points="32,127 10,161 3,137" />
<g transform="translate(111.843182 127.339964) rotate(157.791589) scale(14.637894 5.281815)"><ellipse fill="#86422b" fill-opacity="0.501961" cx="0" cy="0" rx="1" ry="1" /></g>
<ellipse fill="#2c180d" fill-opacity="0.501961" cx="89" cy="225" rx="14" ry="6" />
<g transform="translate(107.856044 76.908304) rotate(74.642606) scale(4.450545 20.064887)"><ellipse fill="#2c0500" fill-opacity="0.501961" cx="0" cy="0" rx="1" ry="1" /></g>
<polygon fill="#a75720" fill-opacity="0.501961" points="127.849248,76.572047,113.625200,90.638339,117.324956,76.142784,127.207068,71.627419" />
<g transform="translate(52 158) rotate(157) scale(21 19)"><rect fill="#842d05" fill-opacity="0.501961" x="-0.5" y="-0.5" width="1" height="1" /></g>
<rect fill="#5a1b01" fill-opacity="0.501961" x="5" y="211" width="33" height="7" />
<rect fill="#be9684" fill-opacity="0.501961" x="52" y="172" width="35" height="6" />
<g transform="translate(100.878779 85.561341) rotate(315.497535) scale(6.783915 2.400686)"><ellipse fill="#ae5e21" fill-opacity="0.501961" cx="0" cy="0" rx="1" ry="1" /></g>
<g transform="translate(255.000000 162.082698) rotate(175.808044) scale(26.022587 51.855018)"><ellipse fill="#c9ae82" fill-opacity="0.501961" cx="0" cy="0" rx="1" ry="1" /></g>
<polygon fill="#9b5938" fill-opacity="0.501961" points="107,179 72,181 95,165" />
<polygon fill="#ab6d34" fill-opacity="0.501961" points="185.357351,118.958079,132.065650,105.260954,177.344753,130.420360,203.680143,136.964949" />
<g transform="translate(57 191) rotate(210) scale(33 5)"><rect fill="#3d1c12" fill-opacity="0.501961" x="-0.5" y="-0.5" width="1" height="1" /></g>
<polygon fill="#7c3518" fill-opacity="0.501961" points="41.577998,60.397132,47.191127,47.904369,6.517216,121.373574,54.289905,66.388194" />
<polygon fill="#3b2918" fill-opacity="0.501961" points="98.451461,239.403869,92.372173,221.300387,86.289617,223.037782,100.959687,255.386745" />
<polygon fill="#7d320e" fill-opacity="0.501961" points="70,71 88,73 60,99" />
<g transform="translate(200.394449 149.274702) rotate(130.545734) scale(9.875757 15.010887)"><ellipse fill="#d8caa5" fill-opacity="0.501961" cx="0" cy="0" rx="1" ry="1" /></g>
<g transform="translate(131.969978 228.100772) rotate(133.892982) scale(2.882826 22.093897)"><ellipse fill="#6c4328" fill-opacity="0.501961" cx="0" cy="0" rx="1" ry="1" /></g>
<polygon fill="#472920" fill-opacity="0.501961" points="210.362794,84.944285,206.042135,90.024755,157.276868,113.170603,227.576984,72.408804" />
<polygon fill="#d3be8b" fill-opacity="0.501961" points="126.089931,190.761231,112.778113,226.680041,123.164404,205.317799,73.499039,210.350588" />
<polygon fill="#290000" fill-opacity="0.501961" points="68,234 70,228 59,218" />
<polygon fill="#160300" fill-opacity="0.501961" points="220,8 240,-5 198,7" />
<polygon fill="#ece3ba" fill-opacity="0.501961" points="5,205 -16,201 -1,216" />
<polygon fill="#823618" fill-opacity="0.501961" points="125,212 177,210 169,194" />
<ellipse fill="#19130a" fill-opacity="0.501961" cx="64" cy="133" rx="33" ry="18" />
<polygon fill="#eef1e3" fill-opacity="0.501961" points="96,157 104,137 112,137" />
<polygon fill="#5f372c" fill-opacity="0.501961" points="204,110 202,129 242,95" />
<g transform="translate(127 137) rotate(98) scale(8 13)"><rect fill="#e1dcd9" fill-opacity="0.501961" x="-0.5" y="-0.5" width="1" height="1" /></g>
<polygon fill="#d69146" fill-opacity="0.501961" points="-16.000000,242.131976,35.069229,217.905576,71.393235,256.941365,84.687632,234.710507" />
<polygon fill="#1e1b18" fill-opacity="0.501961" points="135,107 165,60 137,80" />
<polygon fill="#e2a13b" fill-opacity="0.501961" points="155.569289,184.766738,188.033281,145.858461,156.644963,193.063743,107.432098,214.303683" />
<polygon fill="#8e4e28" fill-opacity="0.501961" points="76,203 110,194 98,185" />
<polygon fill="#c37121" fill-opacity="0.501961" points="195.502972,184.217900,151.117814,188.725263,205.093322,222.737310,170.801395,210.163501" />
<g transform="translate(150 91) rotate(144) scale(11 1)"><rect fill="#f2b374" fill-opacity="0.501961" x="-0.5" y="-0.5" width="1" height="1" /></g>
<g transform="translate(224.978353 47.242588) rotate(140.769692) scale(24.402315 18.677882)"><ellipse fill="#c47b28" fill-opacity="0.501961" cx="0" cy="0" rx="1" ry="1" /></g>
<polygon fill="#18160b" fill-opacity="0.501961" points="133.202452,46.612186,103.742144,84.150366,56.813056,133.219626,100.246704,108.095178" />
<rect fill="#baacad" fill-opacity="0.501961" x="17" y="191" width="6" height="6" />
<polygon fill="#2b1f0f" fill-opacity="0.501961" points="42.113195,152.073045,43.928042,181.664225,26.574065,138.139856,3.853712,175.635951" />
<polygon fill="#c8a15f" fill-opacity="0.501961" points="-16.000000,105.944751,14.225379,-16.000000,16.373088,86.389389,-16.000000,122.446221" />
<polygon fill="#352210" fill-opacity="0.501961" points="21.808948,202.343717,43.676764,208.296638,69.206070,210.551457,43.132907,200.768189" />
<g transform="translate(135.139035 29.450591) rotate(52.050876) scale(7.812538 37.895459)"><ellipse fill="#472514" fill-opacity="0.501961" cx="0" cy="0" rx="1" ry="1" /></g>
<polygon fill="#cc963e" fill-opacity="0.501961" points="162,245 173,271 93,231" />
<polygon fill="#25130c" fill-opacity="0.501961" points="50.364523,67.572613,90.706098,21.597779,101.772101,59.547547,33.105073,95.626022" />
<g transform="translate(120 147) rotate(268) scale(8 15)"><rect fill="#592c19" fill-opacity="0.501961" x="-0.5" y="-0.5" width="1" height="1" /></g>
<g transform="translate(253.659212 36.255805) rotate(97.547849) scale(18.225198 4.863927)"><ellipse fill="#cea468" fill-opacity="0.501961" cx="0" cy="0" rx="1" ry="1" /></g>
<polygon fill="#4c2f22" fill-opacity="0.501961" points="134,206 158,197 138,215" />
<g transform="translate(168.963561 64.003760) rotate(126.889366) scale(20.230505 5.326753)"><ellipse fill="#af3a00" fill-opacity="0.501961" cx="0" cy="0" rx="1" ry="1" /></g>
<polygon fill="#c49a69" fill-opacity="0.501961" points="178.082296,129.812887,186.255779,146.065953,199.351012,125.348907,242.148883,156.834932" />
<g transform="translate(173.311568 82.543887) rotate(149.489659) scale(9.243956 2.549208)"><ellipse fill="#bd813a" fill-opacity="0.501961" cx="0" cy="0" rx="1" ry="1" /></g>
<polygon fill="#674749" fill-opacity="0.501961" points="121,192 114,193 107,178" />
<polygon fill="#693018" fill-opacity="0.501961" points="180.603795,22.374899,182.618476,11.503200,209.478185,-16.000000,192.883135,19.155458" />
<polygon fill="#542513" fill-opacity="0.501961" points="162.918990,71.319905,146.551576,57.852437,131.174081,91.605638,126.344575,72.589749" />
<g transform="translate(241.371377 5.140804) rotate(137.488470) scale(24.137835 10.673709)"><ellipse fill="#c48c3e" fill-opacity="0.501961" cx="0" cy="0" rx="1" ry="1" /></g>
<polygon fill="#c17c2e" fill-opacity="0.501961" points="181.763654,91.628405,257.529630,-16.000000,255.285156,21.631072,160.930524,101.741705" />
<g transform="translate(113 8) rotate(246) scale(6 39)"><rect fill="#753524" fill-opacity="0.501961" x="-0.5" y="-0.5" width="1" height="1" /></g>
<rect fill="#05090b" fill-opacity="0.501961" x="150" y="99" width="28" height="8" />
<polygon fill="#d3caab" fill-opacity="0.501961" points="-4.177502,191.317380,-13.452213,135.485102,9.161484,159.938317,3.006397,176.222658" />
<g transform="translate(24.254905 117.727229) rotate(166.169337) scale(11.658602 17.010825)"><ellipse fill="#753013" fill-opacity="0.501961" cx="0" cy="0" rx="1" ry="1" /></g>
<polygon fill="#ab6733" fill-opacity="0.501961" points="35.047711,58.339654,37.704314,71.297961,13.246323,110.807516,10.378082,91.716111" />
<polygon fill="#715550" fill-opacity="0.501961" points="96,158 98,143 91,145" />
<polygon fill="#4d4028" fill-opacity="0.501961" points="130.873855,249.542288,108.357518,218.246643,119.178882,222.566449,127.525694,233.678676" />
<polygon fill="#d09048" fill-opacity="0.501961" points="152.234256,210.264404,127.462407,197.375975,158.579932,219.781558,160.839372,271.000000" />
<polygon fill="#d4c7aa" fill-opacity="0.501961" points="132.224570,174.688459,154.985491,114.281890,150.785312,178.301789,110.781057,208.246769" />
<polygon fill="#d07d27" fill-opacity="0.501961" points="31.926142,214.378414,101.083333,220.485042,92.856811,207.533123,112.587044,214.281913" />
<rect fill="#11140d" fill-opacity="0.501961" x="66" y="92" width="56" height="22" />
<g transform="translate(60 202) rotate(213) scale(50 4)"><rect fill="#9d6e27" fill-opacity="0.501961" x="-0.5" y="-0.5" width="1" height="1" /></g>
<polygon fill="#965b30" fill-opacity="0.501961" points="79.967748,202.231002,35.278665,177.140571,87.689183,182.667676,77.267851,184.292938" />
<polygon fill="#d68832" fill-opacity="0.501961" points="69.789122,227.957334,80.850594,210.638330,115.584207,216.277386,61.513716,216.306816" />
<polygon fill="#ba6b1d" fill-opacity="0.501961" points="204.481987,90.626167,219.765534,99.206975,208.178713,77.344446,256.751398,39.923615" />
<polygon fill="#ae430a" fill-opacity="0.501961" points="129.485392,215.920120,177.346740,204.452710,163.264476,209.180968,167.470152,220.543490" />
<rect fill="#d4ab87" fill-opacity="0.501961" x="104" y="162" width="20" height="17" />
<polygon fill="#d59d50" fill-opacity="0.501961" points="197.329342,186.290425,178.046535,122.715827,191.845303,133.492132,165.202244,169.845816" />
<polygon fill="#e6be79" fill-opacity="0.501961" points="104,218 114,202 144,200" />
<polygon fill="#231813" fill-opacity="0.501961" points="123.748756,123.525920,120.594481,131.235473,138.282540,131.614167,104.060684,83.220564" />
<polygon fill="#9c4b16" fill-opacity="0.501961" points="67,233 43,214 41,234" />
<polygon fill="#a36f48" fill-opacity="0.501961" points="128.989678,212.614565,132.799256,252.915908,124.492606,229.023096,137.557140,219.786127" />
<polygon fill="#cb9e5f" fill-opacity="0.501961" points="271.000000,16.273997,237.722611,79.196256,196.999793,104.831059,238.101636,59.609302" />
<polygon fill="#dea74f" fill-opacity="0.501961" points="184.220255,204.850067,166.299505,203.304253,202.850593,184.287844,165.756776,258.697838" />
<polygon fill="#17130b" fill-opacity="0.501961" points="111.602189,133.772160,68.701320,154.290526,37.649246,93.089786,68.042950,130.395240" />
<polygon fill="#b1490d" fill-opacity="0.501961" points="182.110966,62.023429,188.145161,86.385918,205.987285,45.250188,109.481488,50.643828" />
<polygon fill="#e7e3d0" fill-opacity="0.501961" points="181.662414,129.308339,165.773765,172.053106,113.124064,205.477606,150.607386,187.114011" />
<polygon fill="#783d25" fill-opacity="0.501961" points="132,115 149,108 123,103" />
<g transform="translate(83 123) rotate(336) scale(38 4)"><rect fill="#4b2c1e" fill-opacity="0.501961" x="-0.5" y="-0.5" width="1" height="1" /></g>
<polygon fill="#1a0f14" fill-opacity="0.501961" points="86,154 63,165 98,161" />
<ellipse fill="#cc802c" fill-opacity="0.501961" cx="54" cy="173" rx="8" ry="8" />
<polygon fill="#c49860" fill-opacity="0.501961" points="3.094310,63.306067,89.288562,-11.385561,65.264914,39.778159,79.519745,28.391934" />
<g transform="translate(162 243) rotate(289) scale(1 13)"><rect fill="#e8e6f1" fill-opacity="0.501961" x="-0.5" y="-0.5" width="1" height="1" /></g>
<g transform="translate(223.675117 217.381258) rotate(13.981874) scale(19.540195 58.815767)"><ellipse fill="#dac49a" fill-opacity="0.501961" cx="0" cy="0" rx="1" ry="1" /></g>
<rect fill="#473326" fill-opacity="0.501961" x="132" y="140" width="9" height="12" />
<polygon fill="#f3f3ee" fill-opacity="0.501961" points="142.356861,146.332492,152.314562,132.633545,140.750153,132.828064,144.063403,135.868298" />
<polygon fill="#9d6b3d" fill-opacity="0.501961" points="70.538846,166.887578,55.346152,205.582478,62.272389,205.363699,72.267377,173.235344" />
<polygon fill="#b0845a" fill-opacity="0.501961" points="59.555630,30.599987,135.133804,-7.976990,121.882396,7.818908,110.074418,-16.000000" />
<polygon fill="#a56f66" fill-opacity="0.501961" points="156.620564,63.625940,167.202948,45.831330,171.993312,43.015211,159.738057,61.720043" />
<polygon fill="#6b3d33" fill-opacity="0.501961" points="98,120 122,127 118,145" />
<polygon fill="#9c3909" fill-opacity="0.501961" points="90.793196,71.142713,115.011045,71.401852,110.090364,45.504657,129.443632,37.461493" />
<polygon fill="#141410" fill-opacity="0.501961" points="122,228 110,221 111,215" />
<polygon fill="#1e150c" fill-opacity="0.501961" points="22,149 53,104 41,179" />
<polygon fill="#87604a" fill-opacity="0.501961" points="127.619950,173.020049,125.122735,177.955397,130.301226,177.389790,110.164587,195.610229" />
<ellipse fill="#ffffff" fill-opacity="0.501961" cx="94" cy="183" rx="4" ry="4" />
<polygon fill="#bfa276" fill-opacity="0.501961" points="114.383769,218.675530,125.409796,226.726692,101.203474,199.414554,106.878658,218.513120" />
<polygon fill="#211d15" fill-opacity="0.501961" points="24.619387,194.124634,9.237656,184.334266,20.535188,164.750318,27.739099,193.759103" />
<rect fill="#e1ddcc" fill-opacity="0.501961" x="107" y="136" width="5" height="22" />
<g transform="translate(76 176) rotate(215) scale(10 4)"><rect fill="#c3b4c8" fill-opacity="0.501961" x="-0.5" y="-0.5" width="1" height="1" /></g>
<polygon fill="#b28869" fill-opacity="0.501961" points="113.427207,159.381849,81.936045,151.120474,124.793240,166.876482,144.093140,153.129174" />
<polygon fill="#a16b40" fill-opacity="0.501961" points="69.290722,39.075998,11.395018,86.334899,95.024610,3.991758,76.428596,21.840391" />
<rect fill="#d08229" fill-opacity="0.501961" x="105" y="230" width="14" height="26" />
<polygon fill="#cabfa8" fill-opacity="0.501961" points="240.412979,78.391958,270.445941,90.608627,243.518495,105.290121,269.602706,35.857395" />
<g transform="translate(37.747166 0.000000) rotate(202.224547) scale(12.263551 26.492188)"><ellipse fill="#b78252" fill-opacity="0.501961" cx="0" cy="0" rx="1" ry="1" /></g>
<polygon fill="#9a6235" fill-opacity="0.501961" points="193.965149,215.300792,208.776201,221.899589,162.487487,209.247594,142.920708,199.123314" />
<polygon fill="#ac7c4d" fill-opacity="0.501961" points="239.530509,120.982940,271.000000,86.679706,212.896407,132.350653,271.000000,109.949891" />
<polygon fill="#d08439" fill-opacity="0.501961" points="99,171 99,194 108,189" />
<rect fill="#c5b085" fill-opacity="0.501961" x="145" y="120" width="35" height="12" />
<polygon fill="#4a291d" fill-opacity="0.501961" points="85.122882,16.180279,77.558597,57.980910,67.008733,54.982785,76.733424,23.556417" />
<g transform="translate(218 131) rotate(173) scale(19 2)"><rect fill="#5f2d18" fill-opacity="0.501961" x="-0.5" y="-0.5" width="1" height="1" /></g>
<polygon fill="#c68e42" fill-opacity="0.501961" points="229,22 267,-16 208,15" />
<polygon fill="#bd7544" fill-opacity="0.501961" points="83.779263,230.360718,95.196652,243.339477,72.325794,247.488169,62.074408,238.884027" />
<g transform="translate(180.564236 33.020447) rotate(193.937099) scale(27.599959 10.829001)"><ellipse fill="#be5e14" fill-opacity="0.501961" cx="0" cy="0" rx="1" ry="1" /></g>
<polygon fill="#bd702c" fill-opacity="0.501961" points="208,1 196,1 193,8" />
<polygon fill="#45251e" fill-opacity="0.501961" points="70.847388,171.624406,33.909667,118.854712,43.111707,131.108671,83.855611,172.526107" />
<polygon fill="#ae4b10" fill-opacity="0.501961" points="189.143219,15.732552,160.012931,44.056943,83.482395,78.071320,115.100313,50.369287" />
<polygon fill="#13120c" fill-opacity="0.501961" points="54.590181,146.869510,89.334439,154.047414,82.731404,130.427360,90.201099,121.092828" />
<polygon fill="#f3d9a9" fill-opacity="0.501961" points="127.679943,212.991711,114.903907,212.721090,129.346240,205.868741,131.643492,189.055475" />
<polygon fill="#352618" fill-opacity="0.501961" points="138.357429,106.420388,178.114169,89.752447,174.810333,80.772259,182.857382,80.356868" />
<g transform="translate(142.218370 164.257597) rotate(273.959841) scale(18.838161 6.306007)"><ellipse fill="#ccbea0" fill-opacity="0.501961" cx="0" cy="0" rx="1" ry="1" /></g>
<g transform="translate(238 94) rotate(286) scale(12 15)"><rect fill="#9a8065" fill-opacity="0.501961" x="-0.5" y="-0.5" width="1" height="1" /></g>
<g transform="translate(106.155271 246.569158) rotate(301.469047) scale(6.571540 8.515104)"><ellipse fill="#bd6315" fill-opacity="0.501961" cx="0" cy="0" rx="1" ry="1" /></g>
<g transform="translate(170 225) rotate(315) scale(22 19)"><rect fill="#e29830" fill-opacity="0.501961" x="-0.5" y="-0.5" width="1" height="1" /></g>
<polygon fill="#130e0c" fill-opacity="0.501961" points="98.337068,27.346393,181.736198,-16.000000,64.806046,66.847562,97.237427,24.574510" />
<g transform="translate(173 180) rotate(255) scale(1 10)"><rect fill="#370000" fill-opacity="0.501961" x="-0.5" y="-0.5" width="1" height="1" /></g>
<polygon fill="#802601" fill-opacity="0.501961" points="153.205770,196.416151,174.721035,192.619340,174.965088,196.568353,173.768900,197.092097" />
<polygon fill="#68311b" fill-opacity="0.501961" points="47.927319,57.909485,31.386664,71.773148,59.443586,57.134255,12.841728,117.440229" />
<polygon fill="#a95b30" fill-opacity="0.501961" points="134,157 113,154 130,148" />
<polygon fill="#4d3d2f" fill-opacity="0.501961" points="185.193571,62.768498,156.589706,86.968493,116.563966,104.538613,157.308116,81.781450" />
<g transform="translate(11 201) rotate(123) scale(14 10)"><rect fill="#a66240" fill-opacity="0.501961" x="-0.5" y="-0.5" width="1" height="1" /></g>
<polygon fill="#a7470e" fill-opacity="0.501961" points="63,155 48,158 52,169" />
<g transform="translate(38.211043 190.801922) rotate(215.449855) scale(8.645642 8.655780)"><ellipse fill="#8d5f1c" fill-opacity="0.501961" cx="0" cy="0" rx="1" ry="1" /></g>
<polygon fill="#dfab5a" fill-opacity="0.501961" points="-15,260 8,265 2,212" />
<polygon fill="#693424" fill-opacity="0.501961" points="214.308945,102.753897,233.965278,116.818608,191.159074,113.393838,191.896210,108.751892" />
<polygon fill="#40200f" fill-opacity="0.501961" points="19.061358,215.078373,6.986532,216.055575,19.506361,203.145553,31.398261,216.363423" />
<ellipse fill="#7a3f25" fill-opacity="0.501961" cx="98" cy="120" rx="2" ry="10" />
<rect fill="#a36d4a" fill-opacity="0.501961" x="62" y="177" width="21" height="8" />
<polygon fill="#895c2e" fill-opacity="0.501961" points="-16,201 12,171 3,198" />
<g transform="translate(99 159) rotate(282) scale(4 9)"><rect fill="#4f2d1e" fill-opacity="0.501961" x="-0.5" y="-0.5" width="1" height="1" /></g>
<rect fill="#241000" fill-opacity="0.501961" x="84" y="76" width="12" height="12" />
<g transform="translate(67 211) rotate(14) scale(21 4)"><rect fill="#683b17" fill-opacity="0.501961" x="-0.5" y="-0.5" width="1" height="1" /></g>
<polygon fill="#985625" fill-opacity="0.501961" points="193.105186,122.674191,190.425164,133.263038,151.154936,106.728995,140.768387,109.941472" />
<polygon fill="#e0b15f" fill-opacity="0.501961" points="187.237821,236.029501,143.448443,248.984143,170.581170,229.534817,190.596663,223.016115" />
<rect fill="#cc8837" fill-opacity="0.501961" x="206" y="38" width="20" height="27" />
<polygon fill="#cdbcb7" fill-opacity="0.501961" points="177,168 187,166 181,164" />
<g transform="translate(10.049704 140.541787) rotate(248.252504) scale(16.979360 6.342141)"><ellipse fill="#b97f40" fill-opacity="0.501961" cx="0" cy="0" rx="1" ry="1" /></g>
<polygon fill="#c26410" fill-opacity="0.501961" points="216.692928,15.976271,161.814063,29.753899,190.028389,50.766459,230.204889,24.443452" />
<polygon fill="#401d0d" fill-opacity="0.501961" points="66.952112,97.122947,26.391806,106.321269,22.441650,124.280400,53.206316,105.097279" />
<polygon fill="#97410d" fill-opacity="0.501961" points="1.051502,230.522616,25.562423,216.899494,6.898509,214.178320,10.357184,227.359892" />
<rect fill="#602712" fill-opacity="0.501961" x="81" y="219" width="24" height="3" />
<polygon fill="#2b1914" fill-opacity="0.501961" points="137.867824,41.157771,127.345076,20.581718,196.772952,5.353129,126.503983,-16.000000" />
<polygon fill="#632a0b" fill-opacity="0.501961" points="41.433980,170.994097,56.696042,198.085949,44.571480,189.406927,49.287632,139.663545" />
<g transform="translate(133 82) rotate(203) scale(2 26)"><rect fill="#733d1f" fill-opacity="0.501961" x="-0.5" y="-0.5" width="1" height="1" /></g>
<polygon fill="#c8975d" fill-opacity="0.501961" points="104.926031,227.972545,101.927314,209.086157,114.372482,240.784289,105.912666,234.782451" />
<rect fill="#4d2516" fill-opacity="0.501961" x="50" y="137" width="8" height="21" />
<polygon fill="#f5feff" fill-opacity="0.501961" points="145,185 144,191 138,190" />
<polygon fill="#1e1614" fill-opacity="0.501961" points="203,124 181,111 202,114" />
<g transform="translate(136 209) rotate(0) scale(11 2)"><rect fill="#1d1a07" fill-opacity="0.501961" x="-0.5" y="-0.5" width="1" height="1" /></g>
<rect fill="#5f2208" fill-opacity="0.501961" x="46" y="217" width="4" height="12" />
<ellipse fill="#c97b33" fill-opacity="0.501961" cx="120" cy="81" rx="3" ry="3" />
<polygon fill="#cebbbd" fill-opacity="0.501961" points="88,147 93,154 90,145" />
<polygon fill="#de9c3e" fill-opacity="0.501961" points="109,206 98,219 89,211" />
<polygon fill="#8d602d" fill-opacity="0.501961" points="120.045575,217.613206,145.858802,236.236221,109.179906,226.587725,162.004719,252.366601" />
<g transform="translate(233.692203 145.912011) rotate(13.972214) scale(26.857686 8.504548)"><ellipse fill="#c8a877" fill-opacity="0.501961" cx="0" cy="0" rx="1" ry="1" /></g>
<polygon fill="#9d5320" fill-opacity="0.501961" points="9.346134,102.656842,-12.590150,133.661389,32.855912,125.849087,26.825708,141.299235" />
<g transform="translate(149.698420 226.362321) rotate(139.473445) scale(8.048431 10.095767)"><ellipse fill="#e0881f" fill-opacity="0.501961" cx="0" cy="0" rx="1" ry="1" /></g>
<g transform="translate(173 186) rotate(39) scale(25 4)"><rect fill="#cf812c" fill-opacity="0.501961" x="-0.5" y="-0.5" width="1" height="1" /></g>
<rect fill="#834a33" fill-opacity="0.501961" x="112" y="119" width="9" height="16" />
<g transform="translate(76 240) rotate(159) scale(1 46)"><rect fill="#d5995c" fill-opacity="0.501961" x="-0.5" y="-0.5" width="1" height="1" /></g>
<polygon fill="#e2c17f" fill-opacity="0.501961" points="180.135962,205.948625,209.295901,191.553732,196.044885,206.823974,215.971692,229.354811" />
<polygon fill="#c0894f" fill-opacity="0.501961" points="163,89 178,76 167,81" />
<rect fill="#f9e4cc" fill-opacity="0.501961" x="81" y="189" width="5" height="3" />
<g transform="translate(20 132) rotate(40) scale(1 23)"><rect fill="#6f2603" fill-opacity="0.501961" x="-0.5" y="-0.5" width="1" height="1" /></g>
<polygon fill="#583322" fill-opacity="0.501961" points="221.334230,129.408705,219.100352,133.134351,205.015102,130.340023,186.288497,116.105164" />
<polygon fill="#191915" fill-opacity="0.501961" points="176,117 191,106 167,104" />
<polygon fill="#bda177" fill-opacity="0.501961" points="104.735291,199.112853,128.598048,192.834610,113.974931,195.219341,132.479886,177.104747" />
<polygon fill="#ddc7a3" fill-opacity="0.501961" points="111.734199,201.426395,162.197998,155.915128,116.448040,208.480679,147.725398,229.107775" />
<polygon fill="#b6966f" fill-opacity="0.501961" points="222,90 235,90 210,103" />
<rect fill="#db9c45" fill-opacity="0.501961" x="3" y="231" width="48" height="18" />
<polygon fill="#dda854" fill-opacity="0.501961" points="120.836453,268.499061,155.113260,257.742005,132.488818,239.505966,134.439240,264.278407" />
<polygon fill="#161311" fill-opacity="0.501961" points="122,111 100,129 131,70" />
<polygon fill="#1f1007" fill-opacity="0.501961" points="90,68 65,63 102,56" />
<rect fill="#69280e" fill-opacity="0.501961" x="58" y="219" width="7" height="12" />
<rect fill="#915434" fill-opacity="0.501961" x="202" y="116" width="26" height="7" />
<polygon fill="#643c1b" fill-opacity="0.501961" points="9.282097,162.293288,31.305772,128.684230,68.284837,91.781315,56.110803,95.894709" />
<polygon fill="#4a2e1a" fill-opacity="0.501961" points="154.072414,197.274715,146.365024,199.445743,162.908008,206.518554,177.437165,210.597353" />
<polygon fill="#1c1818" fill-opacity="0.501961" points="143,112 145,94 173,88" />
<g transform="translate(58 202) rotate(293) scale(4 12)"><rect fill="#b9903f" fill-opacity="0.501961" x="-0.5" y="-0.5" width="1" height="1" /></g>
<polygon fill="#eacf93" fill-opacity="0.501961" points="213.988300,212.924257,205.513590,271.000000,175.117346,251.887142,192.930207,229.037281" />
<g transform="translate(82 40) rotate(311) scale(95 1)"><rect fill="#503024" fill-opacity="0.501961" x="-0.5" y="-0.5" width="1" height="1" /></g>
<polygon fill="#bc7026" fill-opacity="0.501961" points="176.777559,176.875487,194.121397,198.417663,182.870876,169.644249,195.228292,168.175622" />
<rect fill="#7f654d" fill-opacity="0.501961" x="94" y="143" width="7" height="5" />
<ellipse fill="#915831" fill-opacity="0.501961" cx="100" cy="230" rx="5" ry="5" />
<g transform="translate(118 206) rotate(257) scale(1 60)"><rect fill="#cd9848" fill-opacity="0.501961" x="-0.5" y="-0.5" width="1" height="1" /></g>
<g transform="translate(88.674026 0.052290) rotate(91.412854) scale(7.107190 25.059803)"><ellipse fill="#c19c71" fill-opacity="0.501961" cx="0" cy="0" rx="1" ry="1" /></g>
<polygon fill="#dacfac" fill-opacity="0.501961" points="186,152 205,149 196,133" />
<g transform="translate(72 231) rotate(155) scale(16 3)"><rect fill="#702504" fill-opacity="0.501961" x="-0.5" y="-0.5" width="1" height="1" /></g>
<polygon fill="#4f362f" fill-opacity="0.501961" points="115,148 122,145 109,130" />
<polygon fill="#332b28" fill-opacity="0.501961" points="98.255059,151.417437,84.617510,154.202137,83.564361,137.434688,92.615021,158.080509" />
<ellipse fill="#d2b990" fill-opacity="0.501961" cx="215" cy="163" rx="16" ry="16" />
<g transform="translate(184 160) rotate(366) scale(11 1)"><rect fill="#8f4921" fill-opacity="0.501961" x="-0.5" y="-0.5" width="1" height="1" /></g>
<ellipse fill="#924927" fill-opacity="0.501961" cx="93" cy="173" rx="3" ry="8" />
<g transform="translate(255.000000 237.915755) rotate(176.558431) scale(14.318004 18.840011)"><ellipse fill="#ddd1b0" fill-opacity="0.501961" cx="0" cy="0" rx="1" ry="1" /></g>
<polygon fill="#e1e0d8" fill-opacity="0.501961" points="174.177739,132.930985,158.620391,149.973731,165.684456,165.592267,179.245655,140.061618" />
<ellipse fill="#ddb172" fill-opacity="0.501961" cx="9" cy="254" rx="23" ry="3" />
<g transform="translate(106 144) rotate(55) scale(11 12)"><rect fill="#e1d9c9" fill-opacity="0.501961" x="-0.5" y="-0.5" width="1" height="1" /></g>
<g transform="translate(119.166332 221.213563) rotate(131.872832) scale(1.000000 5.523825)"><ellipse fill="#8d9ca5" fill-opacity="0.501961" cx="0" cy="0" rx="1" ry="1" /></g>
<path stroke="#c2b4a3" stroke-opacity="0.501961" fill="none" d="M 179.728323 136.085727 Q 160.869282 129.822349, 116.391253 132.754073" stroke-width="0.500000" />
<polygon fill="#ba7e3f" fill-opacity="0.501961" points="71,171 42,179 58,166" />
<polygon fill="#c06018" fill-opacity="0.501961" points="54,210 67,222 30,211" />
<polygon fill="#23150b" fill-opacity="0.501961" points="63,93 25,109 79,44" />
<polygon fill="#8c4f28" fill-opacity="0.501961" points="204.073049,88.181600,179.392607,97.638445,228.659171,70.451600,180.073032,112.641517" />
<g transform="translate(68 197) rotate(3) scale(8 3)"><rect fill="#030707" fill-opacity="0.501961" x="-0.5" y="-0.5" width="1" height="1" /></g>
<polygon fill="#b96b28" fill-opacity="0.501961" points="68.932436,234.369024,74.207368,257.234400,55.653473,222.186528,40.005198,234.457591" />
<rect fill="#472318" fill-opacity="0.501961" x="134" y="133" width="3" height="16" />
<polygon fill="#3b251e" fill-opacity="0.501961" points="177.321194,104.135182,186.360877,87.207810,160.203831,106.737180,196.502015,94.968878" />
<rect fill="#9b736d" fill-opacity="0.501961" x="204" y="40" width="8" height="3" />
<polygon fill="#c0ad8b" fill-opacity="0.501961" points="258.140273,84.786123,224.997498,93.971637,218.356605,85.118846,257.784042,77.540349" />
<ellipse fill="#af7254" fill-opacity="0.501961" cx="138" cy="120" rx="6" ry="6" />
<g transform="translate(234 10) rotate(364) scale(7 29)"><rect fill="#c99457" fill-opacity="0.501961" x="-0.5" y="-0.5" width="1" height="1" /></g>
<rect fill="#e0b793" fill-opacity="0.501961" x="104" y="163" width="25" height="5" />
<polygon fill="#c4701a" fill-opacity="0.501961" points="230.280879,32.799680,247.808349,31.548129,241.895033,48.035154,224.633280,70.962185" />
<polygon fill="#2c2c22" fill-opacity="0.501961" points="172,72 161,91 162,78" />
<polygon fill="#912806" fill-opacity="0.501961" points="144.947854,61.602944,131.018591,78.457149,138.693690,51.708990,118.597169,73.615832" />
<polygon fill="#d19039" fill-opacity="0.501961" points="140.579189,204.619382,170.726555,177.350161,200.251039,163.118653,158.846149,177.730111" />
<polygon fill="#a73d07" fill-opacity="0.501961" points="172,53 149,84 186,58" />
<rect fill="#ab8e80" fill-opacity="0.501961" x="16" y="190" width="4" height="12" />
<polygon fill="#bc9669" fill-opacity="0.501961" points="226.048862,140.402318,190.707781,122.205097,207.243739,142.370765,249.100719,136.956670" />
<g transform="translate(124 220) rotate(72) scale(11 3)"><rect fill="#4e2619" fill-opacity="0.501961" x="-0.5" y="-0.5" width="1" height="1" /></g>
<ellipse fill="#8b5c46" fill-opacity="0.501961" cx="90" cy="193" rx="6" ry="6" />
<g transform="translate(20.585420 70.196368) rotate(220.945798) scale(5.445161 34.558561)"><ellipse fill="#c08e4f" fill-opacity="0.501961" cx="0" cy="0" rx="1" ry="1" /></g>
<polygon fill="#9d4b1f" fill-opacity="0.501961" points="140.315200,39.290275,163.533140,20.775437,181.856485,9.860329,183.281695,12.535545" />
<g transform="translate(98 88) rotate(49) scale(1 9)"><rect fill="#ce8849" fill-opacity="0.501961" x="-0.5" y="-0.5" width="1" height="1" /></g>
<polygon fill="#d2c5a7" fill-opacity="0.501961" points="170,130 156,124 138,156" />
<rect fill="#bcab8d" fill-opacity="0.501961" x="137" y="138" width="7" height="4" />
<rect fill="#ad621d" fill-opacity="0.501961" x="67" y="212" width="19" height="5" />
<rect fill="#b9835a" fill-opacity="0.501961" x="114" y="156" width="23" height="7" />
<polygon fill="#7e4e38" fill-opacity="0.501961" points="116.475594,124.482400,116.912677,119.345330,101.540759,128.710881,97.721695,136.159524" />
<g transform="translate(120.569450 245.163721) rotate(140.921018) scale(3.274399 18.034152)"><ellipse fill="#e18e21" fill-opacity="0.501961" cx="0" cy="0" rx="1" ry="1" /></g>
<polygon fill="#8b4925" fill-opacity="0.501961" points="89.885053,229.964217,90.013632,234.091316,91.562147,249.705094,85.493056,229.288217" />
<polygon fill="#c0946c" fill-opacity="0.501961" points="111.370459,177.496484,95.907461,165.474631,132.094107,174.351567,111.045766,183.603482" />
<g transform="translate(183 95) rotate(155) scale(14 1)"><rect fill="#b46b3c" fill-opacity="0.501961" x="-0.5" y="-0.5" width="1" height="1" /></g>
<g transform="translate(174 198) rotate(409) scale(7 14)"><rect fill="#cb610d" fill-opacity="0.501961" x="-0.5" y="-0.5" width="1" height="1" /></g>
<polygon fill="#754c4f" fill-opacity="0.501961" points="123,184 106,192 109,183" />
<polygon fill="#50280b" fill-opacity="0.501961" points="30.614064,165.747179,56.993186,191.922858,25.989972,173.723259,26.180588,171.574895" />
<ellipse fill="#562229" fill-opacity="0.501961" cx="58" cy="188" rx="3" ry="3" />
<polygon fill="#cdb48a" fill-opacity="0.501961" points="247,95 229,109 271,94" />
<g transform="translate(174 93) rotate(333) scale(25 1)"><rect fill="#b07146" fill-opacity="0.501961" x="-0.5" y="-0.5" width="1" height="1" /></g>
<polygon fill="#0c0c0b" fill-opacity="0.501961" points="177,109 161,109 152,92" />
<g transform="translate(86 185) rotate(173) scale(4 7)"><rect fill="#ffffe5" fill-opacity="0.501961" x="-0.5" y="-0.5" width="1" height="1" /></g>
<polygon fill="#cb8b38" fill-opacity="0.501961" points="247.140712,42.540383,253.095068,48.453714,227.337472,71.290492,230.664403,65.487513" />
<polygon fill="#a56c3d" fill-opacity="0.501961" points="225.142260,112.178305,239.468498,96.050646,223.150540,125.625483,250.731448,103.248259" />
<polygon fill="#1d1a13" fill-opacity="0.501961" points="96,104 134,75 101,125" />
<polygon fill="#e0d6bb" fill-opacity="0.501961" points="116,201 134,177 160,175" />
<polygon fill="#5d3110" fill-opacity="0.501961" points="89,196 93,193 92,200" />
<polygon fill="#1f1613" fill-opacity="0.501961" points="83,171 52,141 70,144" />
<polygon fill="#cc8639" fill-opacity="0.501961" points="39.857257,240.974339,44.295050,220.967276,19.676113,222.983065,30.394488,229.084730" />
<polygon fill="#cab28c" fill-opacity="0.501961" points="6.737685,74.228249,-16.000000,72.280562,7.011864,-16.000000,-2.287931,57.448109" />
<polygon fill="#bc8a51" fill-opacity="0.501961" points="15.931382,154.958281,15.596060,143.134610,-16.000000,102.938148,10.786228,163.813945" />
<polygon fill="#482717" fill-opacity="0.501961" points="76.508391,42.050535,32.255071,72.461150,45.764167,58.951212,76.425062,33.609757" />
<polygon fill="#21160c" fill-opacity="0.501961" points="105.604677,69.125045,67.232903,93.514398,47.116932,111.267806,75.272513,118.878773" />
<polygon fill="#af7a5b" fill-opacity="0.501961" points="81,170 94,170 74,191" />
<g transform="translate(196 10) rotate(-19) scale(35 1)"><rect fill="#280d07" fill-opacity="0.501961" x="-0.5" y="-0.5" width="1" height="1" /></g>
<g transform="translate(105 217) rotate(91) scale(2 4)"><rect fill="#c2cef4" fill-opacity="0.501961" x="-0.5" y="-0.5" width="1" height="1" /></g>
<polygon fill="#b5520d" fill-opacity="0.501961" points="185.776456,50.046876,197.020027,85.453421,175.098966,76.020578,217.588440,39.834822" />
<polygon fill="#d18326" fill-opacity="0.501961" points="152.325573,192.557458,196.599636,195.961331,165.940132,187.973041,173.686574,167.421063" />
<ellipse fill="#c3c4e6" fill-opacity="0.501961" cx="75" cy="174" rx="3" ry="3" />
<polygon fill="#582912" fill-opacity="0.501961" points="117,217 123,214 120,219" />
<g transform="translate(79 225) rotate(140) scale(4 8)"><rect fill="#381909" fill-opacity="0.501961" x="-0.5" y="-0.5" width="1" height="1" /></g>
<polygon fill="#8c6a3e" fill-opacity="0.501961" points="134.450780,248.906645,125.881444,222.479315,123.748237,241.102108,97.196678,210.878870" />
<g transform="translate(156 86) rotate(310) scale(7 2)"><rect fill="#a77145" fill-opacity="0.501961" x="-0.5" y="-0.5" width="1" height="1" /></g>
<polygon fill="#592e1e" fill-opacity="0.501961" points="72.406395,26.446029,89.306785,17.785901,110.081925,5.554897,102.438950,23.332837" />
<polygon fill="#5b2108" fill-opacity="0.501961" points="100.636728,59.570407,78.358646,84.073665,102.292153,73.539894,73.528907,72.567055" />
<polygon fill="#936342" fill-opacity="0.501961" points="207.746820,101.175516,235.885633,103.023623,235.273306,91.630819,232.480460,94.089901" />
<polygon fill="#bf9760" fill-opacity="0.501961" points="221.529164,133.355869,260.555575,111.852585,233.747825,119.608926,250.265161,142.229572" />
<ellipse fill="#d6c096" fill-opacity="0.501961" cx="239" cy="203" rx="17" ry="23" />
<g transform="translate(144 49) rotate(34) scale(10 31)"><rect fill="#bb4b09" fill-opacity="0.501961" x="-0.5" y="-0.5" width="1" height="1" /></g>
<rect fill="#dac287" fill-opacity="0.501961" x="77" y="205" width="30" height="3" />
<polygon fill="#2f2119" fill-opacity="0.501961" points="164.435625,66.876246,117.213852,107.490848,168.703348,51.926285,131.632445,104.316486" />
<ellipse fill="#af97a8" fill-opacity="0.501961" cx="77" cy="154" rx="3" ry="2" />
<polygon fill="#9e2e0b" fill-opacity="0.501961" points="165,40 154,69 149,53" />
<rect fill="#77584f" fill-opacity="0.501961" x="67" y="171" width="15" height="2" />
<polygon fill="#371f0e" fill-opacity="0.501961" points="228.333207,-1.939660,189.725967,9.974329,226.744957,6.203719,241.795893,-16.000000" />
<polygon fill="#e1ba82" fill-opacity="0.501961" points="171.406987,164.818758,184.596060,147.230245,196.644108,137.157551,178.848272,143.921836" />
<g transform="translate(110 221) rotate(138) scale(7 1)"><rect fill="#111309" fill-opacity="0.501961" x="-0.5" y="-0.5" width="1" height="1" /></g>
<polygon fill="#6b2e15" fill-opacity="0.501961" points="29,106 37,78 6,113" />
<polygon fill="#9c552a" fill-opacity="0.501961" points="7.937694,211.751208,22.494654,202.304387,21.055751,195.911250,-1.549993,220.063046" />
<g transform="translate(171 188) rotate(275) scale(2 6)"><rect fill="#cead7f" fill-opacity="0.501961" x="-0.5" y="-0.5" width="1" height="1" /></g>
<polygon fill="#5f4629" fill-opacity="0.501961" points="107.572741,229.737126,131.506271,222.582360,117.992815,232.050551,110.963887,223.656675" />
<polygon fill="#9d501e" fill-opacity="0.501961" points="226.780109,7.900820,204.932394,14.929465,139.290063,41.224983,204.730985,9.263350" />
<ellipse fill="#322015" fill-opacity="0.501961" cx="117" cy="141" rx="3" ry="3" />
<polygon fill="#bb8b57" fill-opacity="0.501961" points="144,114 146,123 178,118" />
<polygon fill="#c7aa7c" fill-opacity="0.501961" points="236,128 258,191 261,107" />
<polygon fill="#7a3f1d" fill-opacity="0.501961" points="42.884912,155.748308,40.619367,155.570082,44.440144,153.063529,66.148219,148.631817" />
<g transform="translate(142 207) rotate(78) scale(4 4)"><rect fill="#b28f79" fill-opacity="0.501961" x="-0.5" y="-0.5" width="1" height="1" /></g>
<polygon fill="#c79c59" fill-opacity="0.501961" points="147.070592,238.639104,177.236384,256.442340,145.679852,233.091855,142.350102,231.777858" />
<polygon fill="#b1937a" fill-opacity="0.501961" points="128.016455,143.175788,149.787582,113.966587,140.557935,130.715486,148.419641,124.410600" />
<polygon fill="#bf651b" fill-opacity="0.501961" points="151.726931,206.890687,185.959845,224.684259,138.908340,208.162424,177.476531,226.067055" />
<g transform="translate(134.791363 225.919391) rotate(38.410593) scale(7.237595 1.000000)"><ellipse fill="#a23b0f" fill-opacity="0.501961" cx="0" cy="0" rx="1" ry="1" /></g>
<polygon fill="#211911" fill-opacity="0.501961" points="154.915227,71.045981,146.323635,66.316305,141.779283,88.035833,152.603577,84.815165" />
<polygon fill="#89471e" fill-opacity="0.501961" points="185.965552,123.566467,190.270542,129.477357,193.765292,118.836215,169.175090,116.333864" />
<g transform="translate(179 69) rotate(139) scale(18 1)"><rect fill="#72483d" fill-opacity="0.501961" x="-0.5" y="-0.5" width="1" height="1" /></g>
<g transform="translate(42 218) rotate(110) scale(2 9)"><rect fill="#822c07" fill-opacity="0.501961" x="-0.5" y="-0.5" width="1" height="1" /></g>
<polygon fill="#bf7722" fill-opacity="0.501961" points="246.045835,-0.103948,267.308350,12.219892,243.937556,16.808485,241.047713,9.150259" />
<polygon fill="#a8907a" fill-opacity="0.501961" points="113.684524,176.065516,136.375333,168.569741,139.801119,149.222847,128.061504,174.173204" />
<path stroke="#462b1a" stroke-opacity="0.501961" fill="none" d="M 69.071485 78.783983 Q 100.817441 116.784574, 100.086229 150.275183" stroke-width="0.500000" />
<path stroke="#d1a975" stroke-opacity="0.501961" fill="none" d="M 157.598120 199.993953 Q 170.744484 203.667771, 227.145506 216.646302" stroke-width="0.500000" />
<polygon fill="#c26718" fill-opacity="0.501961" points="167,18 172,51 189,22" />
<polygon fill="#5d422c" fill-opacity="0.501961" points="206,0 170,0 180,-13" />
<rect fill="#af7c4f" fill-opacity="0.501961" x="97" y="233" width="12" height="6" />
<g transform="translate(75 80) rotate(264) scale(10 4)"><rect fill="#894f39" fill-opacity="0.501961" x="-0.5" y="-0.5" width="1" height="1" /></g>
<g transform="translate(79 247) rotate(78) scale(3 6)"><rect fill="#cda99b" fill-opacity="0.501961" x="-0.5" y="-0.5" width="1" height="1" /></g>
<g transform="translate(0 170) rotate(96) scale(29 4)"><rect fill="#dbd2b3" fill-opacity="0.501961" x="-0.5" y="-0.5" width="1" height="1" /></g>
<g transform="translate(100.840404 201.173088) rotate(168.698492) scale(16.169579 2.170378)"><ellipse fill="#c4ad79" fill-opacity="0.501961" cx="0" cy="0" rx="1" ry="1" /></g>
<g transform="translate(104.874390 149.810603) rotate(44.800382) scale(2.699034 10.462499)"><ellipse fill="#d5cec1" fill-opacity="0.501961" cx="0" cy="0" rx="1" ry="1" /></g>
<polygon fill="#221111" fill-opacity="0.501961" points="115,72 121,59 120,68" />
<rect fill="#351f0f" fill-opacity="0.501961" x="151" y="194" width="8" height="4" />
<g transform="translate(126 141) rotate(77) scale(3 10)"><rect fill="#ababaa" fill-opacity="0.501961" x="-0.5" y="-0.5" width="1" height="1" /></g>
<polygon fill="#743d28" fill-opacity="0.501961" points="201,114 189,110 221,100" />
<polygon fill="#ea9e2b" fill-opacity="0.501961" points="118,254 117,271 108,246" />
<g transform="translate(46 72) rotate(306) scale(38 1)"><rect fill="#785241" fill-opacity="0.501961" x="-0.5" y="-0.5" width="1" height="1" /></g>
<polygon fill="#d7b679" fill-opacity="0.501961" points="195,152 209,173 190,211" />
<polygon fill="#713720" fill-opacity="0.501961" points="178.314727,7.204744,180.149228,8.393071,166.628184,20.858962,130.148228,42.067548" />
<polygon fill="#392721" fill-opacity="0.501961" points="125,37 158,20 148,15" />
<polygon fill="#352211" fill-opacity="0.501961" points="41,200 21,205 56,206" />
<polygon fill="#844b2b" fill-opacity="0.501961" points="154,110 131,115 126,105" />
<rect fill="#f5eff6" fill-opacity="0.501961" x="115" y="216" width="2" height="4" />
<polygon fill="#24150f" fill-opacity="0.501961" points="191,123 196,119 193,113" />
<g transform="translate(136 207) rotate(242) scale(1 6)"><rect fill="#020708" fill-opacity="0.501961" x="-0.5" y="-0.5" width="1" height="1" /></g>
<polygon fill="#c15809" fill-opacity="0.501961" points="203.990905,42.199415,166.312930,54.804897,213.020792,13.936698,213.775421,15.806834" />
<polygon fill="#a3420c" fill-opacity="0.501961" points="46,166 59,155 45,176" />
<polygon fill="#b18c4b" fill-opacity="0.501961" points="72,208 82,202 58,200" />
<polygon fill="#1d160e" fill-opacity="0.501961" points="54.158974,106.584728,72.709160,89.330075,2.233616,202.726009,37.446991,125.362571" />
<polygon fill="#331911" fill-opacity="0.501961" points="35.402130,101.467659,72.289268,35.547879,82.711355,35.094806,73.951820,47.339769" />
<g transform="translate(70 174) rotate(79) scale(9 4)"><rect fill="#8a553b" fill-opacity="0.501961" x="-0.5" y="-0.5" width="1" height="1" /></g>
<g transform="translate(7 179) rotate(117) scale(7 8)"><rect fill="#836e3b" fill-opacity="0.501961" x="-0.5" y="-0.5" width="1" height="1" /></g>
<polygon fill="#4c1c08" fill-opacity="0.501961" points="148,69 153,57 132,76" />
<rect fill="#ab6a3d" fill-opacity="0.501961" x="182" y="103" width="15" height="2" />
<g transform="translate(111.391441 62.433785) rotate(149.740564) scale(28.277804 2.921905)"><ellipse fill="#a53904" fill-opacity="0.501961" cx="0" cy="0" rx="1" ry="1" /></g>
<g transform="translate(143 60) rotate(108) scale(1 4)"><rect fill="#aa8887" fill-opacity="0.501961" x="-0.5" y="-0.5" width="1" height="1" /></g>
<polygon fill="#b17741" fill-opacity="0.501961" points="27.911600,78.707158,58.219488,37.710415,34.796126,59.025627,5.900673,104.323501" />
<g transform="translate(134 213) rotate(-28) scale(7 4)"><rect fill="#9e4910" fill-opacity="0.501961" x="-0.5" y="-0.5" width="1" height="1" /></g>
<polygon fill="#3d1b0a" fill-opacity="0.501961" points="85.231987,56.596090,89.285073,44.647836,84.323716,46.540069,152.920105,26.502593" />
<polygon fill="#8f5b3a" fill-opacity="0.501961" points="232.412534,130.965276,199.836674,121.101914,241.829729,121.948334,230.624516,126.274252" />
<g transform="translate(155.225653 208.721217) rotate(128.848179) scale(2.693926 9.932341)"><ellipse fill="#a63704" fill-opacity="0.501961" cx="0" cy="0" rx="1" ry="1" /></g>
<g transform="translate(77 29) rotate(50) scale(1 19)"><rect fill="#84593d" fill-opacity="0.501961" x="-0.5" y="-0.5" width="1" height="1" /></g>
<polygon fill="#6f3c24" fill-opacity="0.501961" points="5,198 -2,185 18,187" />
<polygon fill="#d0964b" fill-opacity="0.501961" points="184.731930,142.814394,179.808952,121.427753,189.473578,135.711256,193.509692,135.511645" />
<polygon fill="#6f461d" fill-opacity="0.501961" points="35.315973,200.366220,16.169798,186.091515,28.930820,206.156598,61.013586,193.692268" />
<ellipse fill="#f2d6b1" fill-opacity="0.501961" cx="82" cy="189" rx="3" ry="3" />
<g transform="translate(205.618413 68.817141) rotate(141.461981) scale(9.855738 6.671877)"><ellipse fill="#d17b1c" fill-opacity="0.501961" cx="0" cy="0" rx="1" ry="1" /></g>
<polygon fill="#b87b3b" fill-opacity="0.501961" points="5.813549,209.946388,-16.000000,185.887734,9.090146,206.102043,-0.450873,224.418772" />
<polygon fill="#46210e" fill-opacity="0.501961" points="67,234 71,230 60,223" />
<polygon fill="#3f321e" fill-opacity="0.501961" points="100,100 113,92 119,79" />
<polygon fill="#c57630" fill-opacity="0.501961" points="76.931173,243.153934,73.492593,232.825868,71.971319,219.375188,66.592477,224.836640" />
<polygon fill="#150d0b" fill-opacity="0.501961" points="132.749923,16.739522,146.251448,1.719084,159.661080,-16.000000,167.639604,-0.662250" />
<polygon fill="#d48733" fill-opacity="0.501961" points="21.905620,230.751583,8.785012,229.858754,9.736477,219.900561,-2.167053,219.255397" />
<g transform="translate(223 61) rotate(222) scale(1 8)"><rect fill="#c0927f" fill-opacity="0.501961" x="-0.5" y="-0.5" width="1" height="1" /></g>
<g transform="translate(129 135) rotate(371) scale(1 8)"><rect fill="#f1eae3" fill-opacity="0.501961" x="-0.5" y="-0.5" width="1" height="1" /></g>
<polygon fill="#1d130f" fill-opacity="0.501961" points="83.107970,131.595107,81.190929,147.060313,90.904420,173.926327,89.964459,165.382049" />
<polygon fill="#391e0b" fill-opacity="0.501961" points="66.698782,146.322112,51.522483,159.661388,44.653933,155.377374,48.799422,157.215653" />
<polygon fill="#e4ae60" fill-opacity="0.501961" points="100,214 119,213 122,203" />
<ellipse fill="#942f02" fill-opacity="0.501961" cx="182" cy="185" rx="3" ry="3" />
<g transform="translate(22.646281 234.685643) rotate(15.967024) scale(6.006296 14.212903)"><ellipse fill="#d59a50" fill-opacity="0.501961" cx="0" cy="0" rx="1" ry="1" /></g>
<polygon fill="#72371f" fill-opacity="0.501961" points="215,125 213,116 226,124" />
<polygon fill="#b27553" fill-opacity="0.501961" points="83,194 84,200 93,190" />
<g transform="translate(75 112) rotate(127) scale(38 1)"><rect fill="#3c3121" fill-opacity="0.501961" x="-0.5" y="-0.5" width="1" height="1" /></g>
<polygon fill="#87532c" fill-opacity="0.501961" points="99.818466,234.413056,92.933254,226.071760,114.063605,245.062161,92.481633,217.532881" />
<rect fill="#a26435" fill-opacity="0.501961" x="132" y="114" width="42" height="2" />
<ellipse fill="#be935e" fill-opacity="0.501961" cx="207" cy="96" rx="6" ry="6" />
<g transform="translate(94 183) rotate(96) scale(3 9)"><rect fill="#feffff" fill-opacity="0.501961" x="-0.5" y="-0.5" width="1" height="1" /></g>
<polygon fill="#4f1d0d" fill-opacity="0.501961" points="41.560801,71.421953,46.885636,67.924518,34.153366,88.378269,30.390805,92.799418" />
<polygon fill="#211b0e" fill-opacity="0.501961" points="9,167 17,181 51,135" />
<polygon fill="#bc9873" fill-opacity="0.501961" points="219,134 199,129 193,136" />
<g transform="translate(183.009173 89.574959) rotate(229.786114) scale(1.000000 13.290756)"><ellipse fill="#6f3517" fill-opacity="0.501961" cx="0" cy="0" rx="1" ry="1" /></g>
<polygon fill="#b97737" fill-opacity="0.501961" points="27.563184,131.254757,13.666402,159.383210,3.474200,122.705617,14.895871,139.968325" />
<polygon fill="#2a1f15" fill-opacity="0.501961" points="83,222 93,220 94,236" />
<polygon fill="#c98145" fill-opacity="0.501961" points="88,252 79,230 72,237" />
<g transform="translate(132.453121 63.674786) rotate(162.407318) scale(11.530598 2.904417)"><ellipse fill="#972e08" fill-opacity="0.501961" cx="0" cy="0" rx="1" ry="1" /></g>
<polygon fill="#b04d10" fill-opacity="0.501961" points="164,46 109,57 166,20" />
<polygon fill="#cd7b2e" fill-opacity="0.501961" points="153.857993,210.060989,162.657840,213.138689,162.474730,206.433949,181.495865,217.177237" />
<g transform="translate(149.021330 246.673685) rotate(43.896133) scale(1.313264 2.532802)"><ellipse fill="#d8b484" fill-opacity="0.501961" cx="0" cy="0" rx="1" ry="1" /></g>
<g transform="translate(121 184) rotate(224) scale(1 19)"><rect fill="#7a4e34" fill-opacity="0.501961" x="-0.5" y="-0.5" width="1" height="1" /></g>
<polygon fill="#2b1f0e" fill-opacity="0.501961" points="6,216 28,206 19,205" />
<g transform="translate(0 210) rotate(246) scale(9 1)"><rect fill="#e5ddbf" fill-opacity="0.501961" x="-0.5" y="-0.5" width="1" height="1" /></g>
<g transform="translate(76 24) rotate(314) scale(41 1)"><rect fill="#976d51" fill-opacity="0.501961" x="-0.5" y="-0.5" width="1" height="1" /></g>
<g transform="translate(195.674712 94.893790) rotate(337.667990) scale(6.296459 1.672368)"><ellipse fill="#4d2e25" fill-opacity="0.501961" cx="0" cy="0" rx="1" ry="1" /></g>
<ellipse fill="#c8b89d" fill-opacity="0.501961" cx="1" cy="8" rx="6" ry="10" />
<polygon fill="#693714" fill-opacity="0.501961" points="116.004124,42.319121,129.530745,36.727932,136.119061,36.875694,100.342202,61.951249" />
<rect fill="#c49c6c" fill-opacity="0.501961" x="186" y="153" width="10" height="14" />
<polygon fill="#b58957" fill-opacity="0.501961" points="154,88 147,90 148,92" />
<rect fill="#f7fff1" fill-opacity="0.501961" x="86" y="181" width="13" height="3" />
<polygon fill="#0f100a" fill-opacity="0.501961" points="106.917410,95.291432,118.740281,69.977418,82.105505,110.783009,62.733239,112.492307" />
<polygon fill="#b9aa92" fill-opacity="0.501961" points="131.832848,178.219547,135.499891,170.077200,129.868191,167.521739,124.555917,189.312792" />
<polygon fill="#221615" fill-opacity="0.501961" points="129,120 135,129 122,131" />
<g transform="translate(130 169) rotate(68) scale(1 11)"><rect fill="#84634a" fill-opacity="0.501961" x="-0.5" y="-0.5" width="1" height="1" /></g>
<polygon fill="#c39a66" fill-opacity="0.501961" points="59.823429,37.202734,44.458319,50.551431,56.595666,2.958704,82.700098,-16.000000" />
<path stroke="#c0762c" stroke-opacity="0.501961" fill="none" d="M 271.000000 13.248148 Q 185.808467 72.603985, 161.652998 92.129321" stroke-width="0.500000" />
<polygon fill="#5f2b0e" fill-opacity="0.501961" points="9.683356,207.135312,7.514153,217.320967,17.544354,215.784439,29.677165,217.760432" />
<polygon fill="#c97d25" fill-opacity="0.501961" points="238.262823,61.505784,228.563833,20.106839,212.547563,19.237940,219.170135,48.754529" />
<polygon fill="#e69a2c" fill-opacity="0.501961" points="99,258 94,241 91,270" />
<polygon fill="#f0b850" fill-opacity="0.501961" points="165,225 180,244 176,229" />
<g transform="translate(67 198) rotate(273) scale(3 5)"><rect fill="#100d02" fill-opacity="0.501961" x="-0.5" y="-0.5" width="1" height="1" /></g>
<polygon fill="#84521b" fill-opacity="0.501961" points="44.872687,179.074617,33.441534,194.937781,66.246749,199.852169,27.513878,181.763965" />
<ellipse fill="#c6b5bc" fill-opacity="0.501961" cx="66" cy="174" rx="2" ry="2" />
<polygon fill="#c16611" fill-opacity="0.501961" points="206.950936,83.407847,228.496841,56.976572,232.783908,57.991789,223.102059,74.520534" />
<polygon fill="#a6693c" fill-opacity="0.501961" points="98.334723,177.576691,90.789818,170.962551,105.063322,155.318974,102.435221,162.776439" />
<rect fill="#baa790" fill-opacity="0.501961" x="255" y="233" width="1" height="23" />
<polygon fill="#271d12" fill-opacity="0.501961" points="58,143 29,138 80,113" />
<polygon fill="#c17936" fill-opacity="0.501961" points="166,87 178,79 171,76" />
<polygon fill="#cf9235" fill-opacity="0.501961" points="185,179 171,167 195,169" />
<g transform="translate(165 244) rotate(120) scale(3 5)"><rect fill="#ebeefc" fill-opacity="0.501961" x="-0.5" y="-0.5" width="1" height="1" /></g>
<polygon fill="#c59867" fill-opacity="0.501961" points="251,20 262,73 271,9" />
<g transform="translate(119 153) rotate(344) scale(8 9)"><rect fill="#a9714b" fill-opacity="0.501961" x="-0.5" y="-0.5" width="1" height="1" /></g>
<rect fill="#52392b" fill-opacity="0.501961" x="81" y="74" width="2" height="24" />
<g transform="translate(181 13) rotate(69) scale(1 31)"><rect fill="#97582a" fill-opacity="0.501961" x="-0.5" y="-0.5" width="1" height="1" /></g>
<g transform="translate(133 203) rotate(205) scale(1 19)"><rect fill="#daa355" fill-opacity="0.501961" x="-0.5" y="-0.5" width="1" height="1" /></g>
<polygon fill="#ad835d" fill-opacity="0.501961" points="108.315665,182.594648,97.281735,165.009778,102.892251,182.294154,109.895109,191.731817" />
<g transform="translate(100 230) rotate(334) scale(1 3)"><rect fill="#390d00" fill-opacity="0.501961" x="-0.5" y="-0.5" width="1" height="1" /></g>
<g transform="translate(78 81) rotate(49) scale(1 66)"><rect fill="#723110" fill-opacity="0.501961" x="-0.5" y="-0.5" width="1" height="1" /></g>
</g>
</svg>