<svg xmlns="http://www.w3.org/2000/svg" version="1.1" width="100%" height="100%">
<rect x="0" y="0" width="100%" height="100%" fill="#484234" />
<g transform="scale(4.000000) translate(0.5 0.5)">
<g transform="translate(174.263840 164.687370) rotate(122.103237) scale(60.216027 38.371596)"><ellipse fill="#b2b490" fill-opacity="0.501961" cx="0" cy="0" rx="1" ry="1" /></g>
<g transform="translate(69.239803 200.055135) rotate(-6.433417) scale(43.471421 24.243941)"><ellipse fill="#d4deb8" fill-opacity="0.501961" cx="0" cy="0" rx="1" ry="1" /></g>
<g transform="translate(116.211528 62.500281) rotate(196.132436) scale(42.265737 92.592928)"><ellipse fill="#0f0403" fill-opacity="0.501961" cx="0" cy="0" rx="1" ry="1" /></g>
<g transform="translate(99.826290 246.043520) rotate(175.841842) scale(153.115413 24.042352)"><ellipse fill="#000000" fill-opacity="0.501961" cx="0" cy="0" rx="1" ry="1" /></g>
<g transform="translate(4.119188 197.298250) rotate(89.268020) scale(35.800423 30.925705)"><ellipse fill="#bbbf98" fill-opacity="0.501961" cx="0" cy="0" rx="1" ry="1" /></g>
<g transform="translate(50.854917 57.843772) rotate(173.895815) scale(127.593859 47.428425)"><ellipse fill="#241a15" fill-opacity="0.501961" cx="0" cy="0" rx="1" ry="1" /></g>
<g transform="translate(50.430274 175.764785) rotate(106.718365) scale(55.245907 26.748250)"><ellipse fill="#76785c" fill-opacity="0.501961" cx="0" cy="0" rx="1" ry="1" /></g>
<polygon fill="#130600" fill-opacity="0.501961" points="149.709826,205.233473,61.022181,123.139726,114.691377,209.698221,114.616689,210.704358" />
<polygon fill="#bdc4a6" fill-opacity="0.501961" points="80,167 41,226 121,212" />
<g transform="translate(179.386641 133.966365) rotate(47.683619) scale(61.710078 23.536453)"><ellipse fill="#736f56" fill-opacity="0.501961" cx="0" cy="0" rx="1" ry="1" /></g>
<ellipse fill="#150100" fill-opacity="0.501961" cx="147" cy="252" rx="170" ry="30" />
<ellipse fill="#acad88" fill-opacity="0.501961" cx="164" cy="190" rx="17" ry="30" />
<ellipse fill="#747156" fill-opacity="0.501961" cx="215" cy="37" rx="18" ry="40" />
<ellipse fill="#b1bda2" fill-opacity="0.501961" cx="121" cy="214" rx="46" ry="3" />
<rect fill="#100600" fill-opacity="0.501961" x="109" y="192" width="38" height="16" />
<g transform="translate(48 187) rotate(-67) scale(27 23)"><rect fill="#443d2e" fill-opacity="0.501961" x="-0.5" y="-0.5" width="1" height="1" /></g>
<polygon fill="#aab092" fill-opacity="0.501961" points="31.799983,212.892680,59.682789,230.572373,62.134503,221.989197,23.330306,227.674843" />
<g transform="translate(194.668074 83.357785) rotate(60.951193) scale(40.743723 16.514383)"><ellipse fill="#2f261c" fill-opacity="0.501961" cx="0" cy="0" rx="1" ry="1" /></g>
<polygon fill="#23180d" fill-opacity="0.501961" points="142.498483,103.327857,119.409364,106.765948,106.375746,235.219527,129.240892,158.591915" />
<ellipse fill="#211912" fill-opacity="0.501961" cx="203" cy="221" rx="30" ry="20" />
<polygon fill="#8b8c6d" fill-opacity="0.501961" points="127.802853,188.040690,98.731288,137.803851,105.452288,175.171373,227.203161,144.598453" />
<g transform="translate(59.139844 108.573868) rotate(105.923480) scale(38.143174 21.501531)"><ellipse fill="#504f3f" fill-opacity="0.501961" cx="0" cy="0" rx="1" ry="1" /></g>
<g transform="translate(3 198) rotate(243) scale(20 31)"><rect fill="#b5bc9d" fill-opacity="0.501961" x="-0.5" y="-0.5" width="1" height="1" /></g>
<ellipse fill="#7a795c" fill-opacity="0.501961" cx="63" cy="172" rx="16" ry="38" />
<g transform="translate(66.229584 0.000000) rotate(-4.963457) scale(138.360841 28.546977)"><ellipse fill="#3e372b" fill-opacity="0.501961" cx="0" cy="0" rx="1" ry="1" /></g>
<polygon fill="#c3ceaf" fill-opacity="0.501961" points="108.392414,193.370059,92.259880,185.567829,70.823605,222.935230,107.092570,213.612555" />
<g transform="translate(194.198468 187.403775) rotate(323.571985) scale(29.685861 9.956588)"><ellipse fill="#918d6f" fill-opacity="0.501961" cx="0" cy="0" rx="1" ry="1" /></g>
<polygon fill="#6f6c55" fill-opacity="0.501961" points="18.227036,157.524536,-10.093827,119.325546,-1.944502,164.976967,61.843585,213.471541" />
<g transform="translate(20.871271 53.511751) rotate(190.728639) scale(32.929990 16.217447)"><ellipse fill="#201614" fill-opacity="0.501961" cx="0" cy="0" rx="1" ry="1" /></g>
<g transform="translate(18.310579 127.384155) rotate(63.057206) scale(38.099399 11.010780)"><ellipse fill="#322a20" fill-opacity="0.501961" cx="0" cy="0" rx="1" ry="1" /></g>
<ellipse fill="#241100" fill-opacity="0.501961" cx="112" cy="228" rx="35" ry="12" />
<rect fill="#2d200a" fill-opacity="0.501961" x="108" y="165" width="5" height="64" />
<rect fill="#acb498" fill-opacity="0.501961" x="134" y="177" width="25" height="14" />
<rect fill="#6c6650" fill-opacity="0.501961" x="141" y="113" width="79" height="28" />
<rect fill="#170d03" fill-opacity="0.501961" x="14" y="227" width="150" height="29" />
<g transform="translate(116.478302 52.623466) rotate(193.441152) scale(23.476823 39.845649)"><ellipse fill="#19100d" fill-opacity="0.501961" cx="0" cy="0" rx="1" ry="1" /></g>
<g transform="translate(159.684832 18.135320) rotate(201.341756) scale(27.221705 19.689389)"><ellipse fill="#362f24" fill-opacity="0.501961" cx="0" cy="0" rx="1" ry="1" /></g>
<ellipse fill="#bba45f" fill-opacity="0.501961" cx="108" cy="158" rx="6" ry="6" />
<polygon fill="#2e271c" fill-opacity="0.501961" points="231,170 235,199 172,215" />
<polygon fill="#9fa58b" fill-opacity="0.501961" points="149.288918,221.687554,171.144495,203.035092,151.430164,209.271522,125.029827,211.702887" />
<polygon fill="#2c2011" fill-opacity="0.501961" points="110,183 72,113 86,177" />
<g transform="translate(167 158) rotate(6) scale(62 32)"><rect fill="#7f816b" fill-opacity="0.501961" x="-0.5" y="-0.5" width="1" height="1" /></g>
<g transform="translate(52.681444 129.794477) rotate(137.555764) scale(23.586882 15.845513)"><ellipse fill="#585c49" fill-opacity="0.501961" cx="0" cy="0" rx="1" ry="1" /></g>
<polygon fill="#160c04" fill-opacity="0.501961" points="125,211 90,257 145,254" />
<ellipse fill="#100901" fill-opacity="0.501961" cx="143" cy="195" rx="5" ry="6" />
<rect fill="#9ca289" fill-opacity="0.501961" x="27" y="211" width="38" height="16" />
<g transform="translate(163.325978 197.335893) rotate(322.844064) scale(20.425587 12.863803)"><ellipse fill="#9b9a77" fill-opacity="0.501961" cx="0" cy="0" rx="1" ry="1" /></g>
<polygon fill="#76725b" fill-opacity="0.501961" points="193,49 226,53 235,98" />
<polygon fill="#d0c866" fill-opacity="0.501961" points="107,174 112,177 105,176" />
<ellipse fill="#474234" fill-opacity="0.501961" cx="47" cy="183" rx="10" ry="10" />
<g transform="translate(214.336330 153.558142) rotate(195.275735) scale(8.780186 24.649411)"><ellipse fill="#6a6450" fill-opacity="0.501961" cx="0" cy="0" rx="1" ry="1" /></g>
<g transform="translate(56.985957 61.790369) rotate(32.657779) scale(20.690706 68.739856)"><ellipse fill="#382f24" fill-opacity="0.501961" cx="0" cy="0" rx="1" ry="1" /></g>
<polygon fill="#2c2418" fill-opacity="0.501961" points="134,99 105,189 137,143" />
<g transform="translate(81 189) rotate(215) scale(24 28)"><rect fill="#a8a88a" fill-opacity="0.501961" x="-0.5" y="-0.5" width="1" height="1" /></g>
<polygon fill="#959374" fill-opacity="0.501961" points="235.000000,164.299106,171.303163,217.785418,142.211887,200.927669,154.278650,215.422402" />
<rect fill="#848367" fill-opacity="0.501961" x="0" y="201" width="36" height="27" />
<g transform="translate(141 174) rotate(236) scale(18 32)"><rect fill="#8f947f" fill-opacity="0.501961" x="-0.5" y="-0.5" width="1" height="1" /></g>
<polygon fill="#413b2f" fill-opacity="0.501961" points="137.478203,81.539149,121.411840,132.515968,164.075012,77.590815,219.563781,2.831082" />
<ellipse fill="#5c5740" fill-opacity="0.501961" cx="213" cy="216" rx="7" ry="7" />
<rect fill="#311c0b" fill-opacity="0.501961" x="90" y="219" width="63" height="10" />
<polygon fill="#342a19" fill-opacity="0.501961" points="106.251322,167.709610,80.337161,164.967319,103.789070,189.210164,94.395944,131.157657" />
<rect fill="#64604b" fill-opacity="0.501961" x="143" y="91" width="35" height="49" />
<polygon fill="#1b120a" fill-opacity="0.501961" points="75,107 78,129 64,99" />
<polygon fill="#807e62" fill-opacity="0.501961" points="172,138 162,198 212,115" />
<ellipse fill="#55513c" fill-opacity="0.501961" cx="203" cy="19" rx="13" ry="39" />
<g transform="translate(102.038580 200.347060) rotate(131.382694) scale(8.101053 5.765082)"><ellipse fill="#cbd6b2" fill-opacity="0.501961" cx="0" cy="0" rx="1" ry="1" /></g>
<ellipse fill="#221812" fill-opacity="0.501961" cx="103" cy="93" rx="26" ry="26" />
<polygon fill="#2d261e" fill-opacity="0.501961" points="193.072541,53.585136,180.512030,62.638236,181.455011,86.541092,220.890941,91.141631" />
<polygon fill="#332d24" fill-opacity="0.501961" points="63.441765,136.536266,107.992060,146.579220,85.657183,101.259213,70.620843,124.866783" />
<g transform="translate(13.775704 255.000000) rotate(328.188352) scale(40.310168 19.483525)"><ellipse fill="#29170d" fill-opacity="0.501961" cx="0" cy="0" rx="1" ry="1" /></g>
<polygon fill="#74765d" fill-opacity="0.501961" points="52.030513,145.515039,81.920679,152.154186,52.059754,178.157985,39.951445,156.952686" />
<g transform="translate(184 223) rotate(185) scale(19 23)"><rect fill="#1b120c" fill-opacity="0.501961" x="-0.5" y="-0.5" width="1" height="1" /></g>
<polygon fill="#40382c" fill-opacity="0.501961" points="159,-16 -16,3 15,42" />
<polygon fill="#251b10" fill-opacity="0.501961" points="96.416678,172.151104,126.038261,214.868348,186.025534,233.836334,130.533108,225.114274" />
<polygon fill="#aeb79c" fill-opacity="0.501961" points="127.644496,215.559688,136.712039,216.433845,150.444306,218.562806,127.286443,210.783018" />
<polygon fill="#281f13" fill-opacity="0.501961" points="135,190 92,177 134,211" />
<polygon fill="#504a3a" fill-opacity="0.501961" points="210.207384,100.630809,157.850638,81.719585,171.751121,109.896811,194.663245,97.121074" />
<polygon fill="#6e6951" fill-opacity="0.501961" points="77,129 66,109 55,119" />
<polygon fill="#6c6954" fill-opacity="0.501961" points="186,104 139,134 134,167" />
<polygon fill="#7f7f66" fill-opacity="0.501961" points="-11.304340,175.139089,75.862510,207.841265,77.853837,198.378555,57.541454,212.417935" />
<polygon fill="#5b5543" fill-opacity="0.501961" points="115.010032,166.161988,72.079251,105.363827,70.761637,78.099455,83.480182,122.911236" />
<ellipse fill="#645e3b" fill-opacity="0.501961" cx="64" cy="176" rx="12" ry="4" />
<g transform="translate(138.037491 186.080285) rotate(116.570988) scale(4.208886 7.103210)"><ellipse fill="#afb799" fill-opacity="0.501961" cx="0" cy="0" rx="1" ry="1" /></g>
<rect fill="#aab598" fill-opacity="0.501961" x="53" y="212" width="44" height="7" />
<rect fill="#acb59c" fill-opacity="0.501961" x="136" y="207" width="6" height="11" />
<g transform="translate(139.500718 128.344191) rotate(217.520518) scale(2.012857 9.423773)"><ellipse fill="#27261e" fill-opacity="0.501961" cx="0" cy="0" rx="1" ry="1" /></g>
<rect fill="#1f1611" fill-opacity="0.501961" x="89" y="40" width="78" height="32" />
<ellipse fill="#b8bfa3" fill-opacity="0.501961" cx="4" cy="196" rx="6" ry="6" />
<polygon fill="#797b61" fill-opacity="0.501961" points="124.418431,185.922173,197.933279,153.669963,141.162583,177.986102,131.951847,161.999556" />
<rect fill="#24190a" fill-opacity="0.501961" x="107" y="200" width="7" height="5" />
<rect fill="#f1f7ca" fill-opacity="0.501961" x="106" y="170" width="1" height="8" />
<polygon fill="#919373" fill-opacity="0.501961" points="-16,184 9,189 16,167" />
<ellipse fill="#352d24" fill-opacity="0.501961" cx="219" cy="102" rx="5" ry="23" />
<rect fill="#3e3b35" fill-opacity="0.501961" x="18" y="221" width="12" height="3" />
<g transform="translate(144.947519 115.977996) rotate(128.847358) scale(17.563722 2.119729)"><ellipse fill="#64614b" fill-opacity="0.501961" cx="0" cy="0" rx="1" ry="1" /></g>
<rect fill="#21140d" fill-opacity="0.501961" x="15" y="228" width="104" height="5" />
<polygon fill="#8b8c74" fill-opacity="0.501961" points="155.086724,152.193531,185.990148,147.817738,138.041026,189.435568,147.979996,154.743209" />
<g transform="translate(55.334403 87.195145) rotate(138.507730) scale(31.503349 14.782735)"><ellipse fill="#40382b" fill-opacity="0.501961" cx="0" cy="0" rx="1" ry="1" /></g>
<polygon fill="#251b0f" fill-opacity="0.501961" points="133.191626,191.883306,127.852199,204.305262,116.612033,211.219950,110.608086,175.613924" />
<polygon fill="#2a2115" fill-opacity="0.501961" points="131.642270,145.662745,107.224820,155.224906,121.782196,141.185475,146.258989,122.406087" />
<polygon fill="#87866c" fill-opacity="0.501961" points="13.553643,235.295442,21.102903,191.375170,51.689507,212.583352,-16.000000,224.054876" />
<polygon fill="#9a9b7e" fill-opacity="0.501961" points="73.367179,197.035014,80.854203,158.893190,78.662787,215.748672,63.596107,214.570099" />
<ellipse fill="#8d8a6b" fill-opacity="0.501961" cx="203" cy="123" rx="7" ry="7" />
<polygon fill="#9c9a79" fill-opacity="0.501961" points="146.064462,202.965322,147.785259,219.217332,186.233437,205.465224,184.179268,175.488823" />
<rect fill="#655f4b" fill-opacity="0.501961" x="172" y="109" width="35" height="4" />
<g transform="translate(218.355637 255.000000) rotate(348.478015) scale(15.062113 33.432092)"><ellipse fill="#251c18" fill-opacity="0.501961" cx="0" cy="0" rx="1" ry="1" /></g>
<rect fill="#251c17" fill-opacity="0.501961" x="8" y="44" width="23" height="40" />
<rect fill="#a8baa6" fill-opacity="0.501961" x="113" y="207" width="3" height="9" />
<g transform="translate(77.556648 243.432684) rotate(199.576063) scale(30.388763 15.149599)"><ellipse fill="#150a05" fill-opacity="0.501961" cx="0" cy="0" rx="1" ry="1" /></g>
<rect fill="#a6b39f" fill-opacity="0.501961" x="112" y="210" width="10" height="5" />
<ellipse fill="#b1b794" fill-opacity="0.501961" cx="158" cy="176" rx="5" ry="5" />
<polygon fill="#2f1c0c" fill-opacity="0.501961" points="122.932244,216.599480,144.618321,219.733983,63.722462,233.349913,85.168746,220.408501" />
<polygon fill="#6e6953" fill-opacity="0.501961" points="2.398754,155.993077,1.620366,137.456985,-14.968624,170.886456,29.256123,168.867575" />
<polygon fill="#adb393" fill-opacity="0.501961" points="67.467289,218.126673,54.979144,226.227077,81.085676,223.189557,98.527740,189.211505" />
<g transform="translate(130 198) rotate(328) scale(11 1)"><rect fill="#776e33" fill-opacity="0.501961" x="-0.5" y="-0.5" width="1" height="1" /></g>
<g transform="translate(150.022509 5.171244) rotate(234.727954) scale(44.949647 16.973880)"><ellipse fill="#372f25" fill-opacity="0.501961" cx="0" cy="0" rx="1" ry="1" /></g>
<g transform="translate(84 179) rotate(346) scale(4 21)"><rect fill="#a4a181" fill-opacity="0.501961" x="-0.5" y="-0.5" width="1" height="1" /></g>
<polygon fill="#3d3322" fill-opacity="0.501961" points="86.419475,179.189982,102.381391,164.267005,127.077647,174.745310,131.771008,156.908876" />
<rect fill="#6e6954" fill-opacity="0.501961" x="208" y="127" width="12" height="47" />
<g transform="translate(144.427365 207.494136) rotate(40.591935) scale(1.000000 2.892025)"><ellipse fill="#110b06" fill-opacity="0.501961" cx="0" cy="0" rx="1" ry="1" /></g>
<rect fill="#adb495" fill-opacity="0.501961" x="130" y="184" width="12" height="5" />
<polygon fill="#726f53" fill-opacity="0.501961" points="46,196 8,209 27,210" />
<polygon fill="#858266" fill-opacity="0.501961" points="203.094175,144.753579,175.388064,183.629229,155.505342,184.605631,227.347560,145.411888" />
<polygon fill="#525545" fill-opacity="0.501961" points="34,146 41,100 70,141" />
<g transform="translate(95.948525 153.832513) rotate(293.204455) scale(1.000000 3.303141)"><ellipse fill="#8d805e" fill-opacity="0.501961" cx="0" cy="0" rx="1" ry="1" /></g>
<polygon fill="#c1caab" fill-opacity="0.501961" points="94.924358,214.862951,101.415222,208.590967,109.239351,200.021352,91.663404,182.620680" />
<polygon fill="#393226" fill-opacity="0.501961" points="21.752362,162.352502,41.114092,157.107974,-16.000000,59.491728,31.257084,168.430923" />
<polygon fill="#44371c" fill-opacity="0.501961" points="100,185 114,166 108,193" />
<g transform="translate(114.509236 146.919517) rotate(198.740496) scale(1.811755 2.073016)"><ellipse fill="#766948" fill-opacity="0.501961" cx="0" cy="0" rx="1" ry="1" /></g>
<polygon fill="#68634e" fill-opacity="0.501961" points="191.282831,148.144211,195.273344,152.803376,235.000000,125.030870,227.847125,116.416210" />
<polygon fill="#3b3528" fill-opacity="0.501961" points="211.119664,215.684769,208.331558,224.501343,191.732289,198.013882,233.943459,180.425871" />
<polygon fill="#2b1506" fill-opacity="0.501961" points="86.482916,147.220673,77.276256,124.800399,87.554967,132.746616,98.602530,148.633817" />
<g transform="translate(195 181) rotate(49) scale(30 8)"><rect fill="#7f7f65" fill-opacity="0.501961" x="-0.5" y="-0.5" width="1" height="1" /></g>
<polygon fill="#9da48c" fill-opacity="0.501961" points="163.764548,212.298424,167.635123,200.950541,139.453994,212.745452,110.130902,216.597171" />
<g transform="translate(59 127) rotate(390) scale(8 25)"><rect fill="#616858" fill-opacity="0.501961" x="-0.5" y="-0.5" width="1" height="1" /></g>
<polygon fill="#68624c" fill-opacity="0.501961" points="134.793502,143.214149,162.283211,134.315976,185.505919,148.149686,170.212965,99.560581" />
<polygon fill="#989675" fill-opacity="0.501961" points="156.878545,183.119914,134.762032,189.801761,189.689629,195.696088,168.195991,220.551998" />
<polygon fill="#929476" fill-opacity="0.501961" points="57.637793,196.587190,36.756188,205.524312,75.945735,188.638129,68.174173,178.830047" />
<g transform="translate(151.388415 78.623970) rotate(82.699867) scale(13.910724 9.066919)"><ellipse fill="#3a3225" fill-opacity="0.501961" cx="0" cy="0" rx="1" ry="1" /></g>
<polygon fill="#534e39" fill-opacity="0.501961" points="52,139 40,155 22,114" />
<path stroke="#b0a674" stroke-opacity="0.501961" fill="none" d="M 103.039288 155.813541 Q 110.080444 170.296921, 106.712484 173.804409" stroke-width="0.500000" />
<polygon fill="#251a0d" fill-opacity="0.501961" points="127.088216,220.932520,112.268653,192.147970,114.318939,157.313988,116.752463,164.038080" />
<polygon fill="#827e5c" fill-opacity="0.501961" points="81,168 79,153 70,157" />
<g transform="translate(41.734720 222.146048) rotate(369.598282) scale(14.740013 4.627454)"><ellipse fill="#93967b" fill-opacity="0.501961" cx="0" cy="0" rx="1" ry="1" /></g>
<polygon fill="#777761" fill-opacity="0.501961" points="153.659324,154.714650,168.185829,132.203608,147.249685,141.344712,130.860160,149.332631" />
<ellipse fill="#a9ae92" fill-opacity="0.501961" cx="139" cy="207" rx="2" ry="2" />
<ellipse fill="#93794a" fill-opacity="0.501961" cx="104" cy="153" rx="4" ry="4" />
<polygon fill="#292115" fill-opacity="0.501961" points="99.222043,175.291850,80.185049,127.098346,90.887781,163.414196,89.227965,180.462929" />
<polygon fill="#838162" fill-opacity="0.501961" points="174.302426,116.104033,185.156543,114.351861,183.134997,160.881654,193.371417,136.073038" />
<g transform="translate(113.614224 155.353919) rotate(30.508461) scale(1.000000 3.840444)"><ellipse fill="#9e976e" fill-opacity="0.501961" cx="0" cy="0" rx="1" ry="1" /></g>
<polygon fill="#332a22" fill-opacity="0.501961" points="20,136 32,68 -3,55" />
<g transform="translate(116 88) rotate(278) scale(41 5)"><rect fill="#2c2421" fill-opacity="0.501961" x="-0.5" y="-0.5" width="1" height="1" /></g>
<polygon fill="#939576" fill-opacity="0.501961" points="14.997199,199.674448,27.916938,176.998535,-16.000000,205.093246,-13.047424,147.596678" />
<polygon fill="#605c47" fill-opacity="0.501961" points="145.749164,86.846916,171.837523,139.267267,168.905519,78.263183,138.266443,122.009404" />
<polygon fill="#979574" fill-opacity="0.501961" points="194,201 161,204 142,187" />
<polygon fill="#55523f" fill-opacity="0.501961" points="12.927155,145.791438,13.307971,170.135641,41.357642,157.890885,39.806532,181.513390" />
<rect fill="#737059" fill-opacity="0.501961" x="145" y="113" width="8" height="19" />
<polygon fill="#26201a" fill-opacity="0.501961" points="65,127 76,134 71,138" />
<polygon fill="#21170e" fill-opacity="0.501961" points="117,180 135,211 116,203" />
<polygon fill="#858b7a" fill-opacity="0.501961" points="125.006596,178.174830,128.912874,168.525306,165.892085,153.506803,125.965826,178.378592" />
<g transform="translate(137.843314 98.394764) rotate(204.964899) scale(1.435537 13.907888)"><ellipse fill="#514e3f" fill-opacity="0.501961" cx="0" cy="0" rx="1" ry="1" /></g>
<rect fill="#e0ddb0" fill-opacity="0.501961" x="103" y="164" width="1" height="4" />
<g transform="translate(143 208) rotate(291) scale(3 5)"><rect fill="#252318" fill-opacity="0.501961" x="-0.5" y="-0.5" width="1" height="1" /></g>
<ellipse fill="#a7a865" fill-opacity="0.501961" cx="106" cy="176" rx="2" ry="2" />
<polygon fill="#989370" fill-opacity="0.501961" points="154,216 170,209 172,219" />
<polygon fill="#30281e" fill-opacity="0.501961" points="174.926749,96.836794,177.682639,83.675724,195.464007,53.586198,200.427601,73.154196" />
<g transform="translate(15 220) rotate(134) scale(4 6)"><rect fill="#565949" fill-opacity="0.501961" x="-0.5" y="-0.5" width="1" height="1" /></g>
<g transform="translate(101.358421 150.176241) rotate(337.476212) scale(1.000000 8.607364)"><ellipse fill="#817351" fill-opacity="0.501961" cx="0" cy="0" rx="1" ry="1" /></g>
<g transform="translate(219.000000 172.678811) rotate(43.205917) scale(2.155094 32.247340)"><ellipse fill="#8a8769" fill-opacity="0.501961" cx="0" cy="0" rx="1" ry="1" /></g>
<polygon fill="#3c3428" fill-opacity="0.501961" points="79.921132,38.966016,75.745870,3.599263,97.793071,-1.855722,114.249310,9.815102" />
<polygon fill="#6e6955" fill-opacity="0.501961" points="212.807343,171.106707,195.654662,180.574560,221.284846,127.595593,229.739802,168.148938" />
<polygon fill="#302c24" fill-opacity="0.501961" points="68.242983,104.086142,85.788235,137.086178,120.474715,155.741289,102.587195,136.796666" />
<g transform="translate(197 0) rotate(310) scale(18 48)"><rect fill="#585340" fill-opacity="0.501961" x="-0.5" y="-0.5" width="1" height="1" /></g>
<g transform="translate(67 100) rotate(236) scale(15 1)"><rect fill="#1e130c" fill-opacity="0.501961" x="-0.5" y="-0.5" width="1" height="1" /></g>
<polygon fill="#b5b795" fill-opacity="0.501961" points="100,188 85,177 96,181" />
<polygon fill="#261f16" fill-opacity="0.501961" points="131.638760,161.639630,134.581202,135.280510,121.765445,122.612963,79.818633,100.236629" />
<rect fill="#b7c2a5" fill-opacity="0.501961" x="78" y="206" width="29" height="11" />
<polygon fill="#241c0d" fill-opacity="0.501961" points="109.639424,213.467925,113.291980,208.626430,111.982791,171.342648,108.381263,214.543952" />
<polygon fill="#2b2e2a" fill-opacity="0.501961" points="140.204342,110.743607,143.724404,95.252470,143.272524,91.728688,120.311128,135.739153" />
<g transform="translate(23.704221 169.075219) rotate(252.613575) scale(2.701367 4.384683)"><ellipse fill="#87886b" fill-opacity="0.501961" cx="0" cy="0" rx="1" ry="1" /></g>
<rect fill="#9ea284" fill-opacity="0.501961" x="9" y="195" width="20" height="6" />
<ellipse fill="#6e6954" fill-opacity="0.501961" cx="219" cy="61" rx="16" ry="16" />
<ellipse fill="#b2bda8" fill-opacity="0.501961" cx="117" cy="213" rx="3" ry="3" />
<polygon fill="#261911" fill-opacity="0.501961" points="79.136682,228.445328,31.862899,227.854173,3.653755,235.575368,-16.000000,243.027792" />
<g transform="translate(172 58) rotate(200) scale(9 47)"><rect fill="#42392c" fill-opacity="0.501961" x="-0.5" y="-0.5" width="1" height="1" /></g>
<polygon fill="#362e20" fill-opacity="0.501961" points="116.800740,211.010423,142.611304,204.282274,125.952487,210.056481,110.998270,200.786162" />
<rect fill="#a9b6a2" fill-opacity="0.501961" x="126" y="211" width="5" height="5" />
<polygon fill="#867421" fill-opacity="0.501961" points="110,173 108,178 114,173" />
<ellipse fill="#9e9d6c" fill-opacity="0.501961" cx="111" cy="160" rx="3" ry="5" />
<polygon fill="#625b47" fill-opacity="0.501961" points="76,99 69,97 81,112" />
<rect fill="#2a2113" fill-opacity="0.501961" x="108" y="200" width="39" height="2" />
<polygon fill="#939679" fill-opacity="0.501961" points="44,217 17,220 18,212" />
<polygon fill="#635f4a" fill-opacity="0.501961" points="43.040398,164.586595,31.262144,164.512951,35.746901,177.289775,11.735042,179.121591" />
<polygon fill="#a4a58a" fill-opacity="0.501961" points="87,174 87,208 71,195" />
<polygon fill="#261a09" fill-opacity="0.501961" points="103.987709,161.750288,99.978472,150.836949,102.341086,180.466922,91.169592,155.546371" />
<rect fill="#443c30" fill-opacity="0.501961" x="26" y="86" width="53" height="11" />
<polygon fill="#939172" fill-opacity="0.501961" points="-16.000000,229.068743,36.703792,223.453124,13.875345,228.501687,-16.000000,237.122166" />
<g transform="translate(20.979905 20.154565) rotate(165.227909) scale(32.178897 8.086310)"><ellipse fill="#433b2f" fill-opacity="0.501961" cx="0" cy="0" rx="1" ry="1" /></g>
<polygon fill="#7d7e67" fill-opacity="0.501961" points="210.652542,179.082993,190.385814,186.379715,167.143303,172.710993,147.033361,135.898634" />
<rect fill="#1d1006" fill-opacity="0.501961" x="123" y="216" width="9" height="40" />
<polygon fill="#979875" fill-opacity="0.501961" points="165.313225,164.751923,149.274554,208.904336,143.672330,201.067106,155.961443,202.727554" />
<polygon fill="#372f1e" fill-opacity="0.501961" points="97.871986,175.405354,98.783471,186.728572,106.555430,170.581893,123.926824,156.850283" />
<polygon fill="#3b2f1a" fill-opacity="0.501961" points="116.442350,163.178990,109.341831,157.183537,122.672699,164.201526,103.304019,190.200718" />
<polygon fill="#40382c" fill-opacity="0.501961" points="-5,57 15,145 -16,106" />
<polygon fill="#686241" fill-opacity="0.501961" points="54,182 77,170 64,164" />
<g transform="translate(121 144) rotate(36) scale(4 13)"><rect fill="#1b0f02" fill-opacity="0.501961" x="-0.5" y="-0.5" width="1" height="1" /></g>
<g transform="translate(111.715159 21.392727) rotate(232.164704) scale(6.049142 25.146072)"><ellipse fill="#27201b" fill-opacity="0.501961" cx="0" cy="0" rx="1" ry="1" /></g>
<polygon fill="#9ea384" fill-opacity="0.501961" points="-11.765706,222.560909,10.622762,197.243972,5.520997,187.545380,20.279557,198.473164" />
<polygon fill="#393426" fill-opacity="0.501961" points="133,156 126,152 138,151" />
<polygon fill="#3c3323" fill-opacity="0.501961" points="65.420465,121.012034,64.840124,130.737032,68.811272,127.078840,95.921794,148.920772" />
<polygon fill="#2a2218" fill-opacity="0.501961" points="181.048409,223.886187,214.192585,207.176450,173.359916,213.845320,171.617734,219.067069" />
<g transform="translate(109 163) rotate(246) scale(1 8)"><rect fill="#afb682" fill-opacity="0.501961" x="-0.5" y="-0.5" width="1" height="1" /></g>
<polygon fill="#96997e" fill-opacity="0.501961" points="156,217 141,208 133,217" />
<g transform="translate(19.156155 54.024334) rotate(287.055862) scale(5.615909 16.238097)"><ellipse fill="#1f1412" fill-opacity="0.501961" cx="0" cy="0" rx="1" ry="1" /></g>
<path stroke="#989a79" stroke-opacity="0.501961" fill="none" d="M 112.701821 215.454138 Q 55.133393 227.656609, 50.708487 208.203805" stroke-width="0.500000" />
<polygon fill="#422910" fill-opacity="0.501961" points="97.075263,226.794537,120.442198,224.030335,122.806091,222.387312,97.104984,223.005156" />
<polygon fill="#504939" fill-opacity="0.501961" points="177.190374,93.644270,199.974269,117.083568,153.510401,87.259417,168.101542,73.704887" />
<polygon fill="#231e15" fill-opacity="0.501961" points="128.820827,208.838639,147.743342,199.127448,118.395362,185.878133,145.298558,194.939459" />
<polygon fill="#4e4637" fill-opacity="0.501961" points="214,122 217,113 206,111" />
<ellipse fill="#5d5945" fill-opacity="0.501961" cx="50" cy="193" rx="5" ry="7" />
<ellipse fill="#bdc7a6" fill-opacity="0.501961" cx="138" cy="190" rx="2" ry="2" />
<polygon fill="#4f584c" fill-opacity="0.501961" points="58.896651,119.252707,30.273496,124.197198,63.583020,149.601280,52.633235,124.942847" />
<g transform="translate(76 147) rotate(129) scale(7 4)"><rect fill="#555142" fill-opacity="0.501961" x="-0.5" y="-0.5" width="1" height="1" /></g>
<path stroke="#41311e" stroke-opacity="0.501961" fill="none" d="M 114.441668 160.775369 Q 70.013095 131.936633, 67.553107 128.111148" stroke-width="0.500000" />
<polygon fill="#504a38" fill-opacity="0.501961" points="229,222 201,220 214,212" />
<polygon fill="#2f271e" fill-opacity="0.501961" points="86,62 15,40 50,28" />
<g transform="translate(219 181) rotate(46) scale(4 16)"><rect fill="#2e2516" fill-opacity="0.501961" x="-0.5" y="-0.5" width="1" height="1" /></g>
<rect fill="#221405" fill-opacity="0.501961" x="109" y="177" width="14" height="9" />
<g transform="translate(90.687488 163.355197) rotate(247.419725) scale(1.416031 12.390928)"><ellipse fill="#2a2417" fill-opacity="0.501961" cx="0" cy="0" rx="1" ry="1" /></g>
<polygon fill="#828874" fill-opacity="0.501961" points="63,210 41,208 47,199" />
<polygon fill="#64604a" fill-opacity="0.501961" points="172,87 146,96 138,122" />
<polygon fill="#adb79b" fill-opacity="0.501961" points="56,212 64,225 73,217" />
<polygon fill="#94977d" fill-opacity="0.501961" points="63,207 80,197 76,214" />
<polygon fill="#9e9e7e" fill-opacity="0.501961" points="60.503672,192.406139,71.586953,200.966216,90.876547,174.171815,86.801590,176.035014" />
<polygon fill="#2c190b" fill-opacity="0.501961" points="70.344520,138.750500,99.375888,160.234549,81.710851,155.320102,98.620494,143.778843" />
<polygon fill="#382f23" fill-opacity="0.501961" points="213.966573,111.071308,207.889347,102.179944,186.484724,103.082211,189.819729,108.930650" />
<rect fill="#180e05" fill-opacity="0.501961" x="140" y="192" width="8" height="5" />
<polygon fill="#5f5b45" fill-opacity="0.501961" points="191,47 231,37 201,57" />
<polygon fill="#372f23" fill-opacity="0.501961" points="39,79 66,41 80,81" />
<g transform="translate(70 153) rotate(102) scale(23 4)"><rect fill="#77795f" fill-opacity="0.501961" x="-0.5" y="-0.5" width="1" height="1" /></g>
<rect fill="#a19d81" fill-opacity="0.501961" x="179" y="200" width="9" height="6" />
<polygon fill="#77735b" fill-opacity="0.501961" points="165.103333,109.833447,184.370908,129.753923,213.261130,133.854884,174.666698,107.903774" />
<g transform="translate(89 150) rotate(12) scale(25 1)"><rect fill="#3a2b1b" fill-opacity="0.501961" x="-0.5" y="-0.5" width="1" height="1" /></g>
<g transform="translate(154 210) rotate(-45) scale(13 5)"><rect fill="#a3ac94" fill-opacity="0.501961" x="-0.5" y="-0.5" width="1" height="1" /></g>
<rect fill="#3d361c" fill-opacity="0.501961" x="108" y="164" width="5" height="11" />
<g transform="translate(43.705709 172.497997) rotate(320.856578) scale(2.803322 10.889201)"><ellipse fill="#4c4939" fill-opacity="0.501961" cx="0" cy="0" rx="1" ry="1" /></g>
<g transform="translate(116 214) rotate(250) scale(1 9)"><rect fill="#a8b39f" fill-opacity="0.501961" x="-0.5" y="-0.5" width="1" height="1" /></g>
<polygon fill="#252015" fill-opacity="0.501961" points="90,153 82,164 111,185" />
<polygon fill="#56513e" fill-opacity="0.501961" points="169.645716,97.078173,202.652185,115.534455,178.402394,105.551556,139.465532,113.907781" />
<polygon fill="#94997f" fill-opacity="0.501961" points="149,177 140,177 138,192" />
<rect fill="#6f6c51" fill-opacity="0.501961" x="21" y="191" width="25" height="3" />
<polygon fill="#271b0f" fill-opacity="0.501961" points="185.389443,221.552970,127.332558,222.435979,121.388587,212.286496,152.350234,229.782249" />
<polygon fill="#3b3328" fill-opacity="0.501961" points="53.313889,110.657298,22.028253,93.402318,38.082264,79.713655,56.291815,106.795353" />
<polygon fill="#b4baa3" fill-opacity="0.501961" points="91,183 103,194 81,199" />
<polygon fill="#4b4839" fill-opacity="0.501961" points="34.855743,115.954722,35.762293,101.784967,68.471585,114.739039,39.493475,113.746509" />
<rect fill="#8e8e6c" fill-opacity="0.501961" x="138" y="217" width="29" height="2" />
<polygon fill="#666751" fill-opacity="0.501961" points="144.421859,137.368508,135.775734,154.277366,147.035149,158.498356,128.337702,169.013581" />
<polygon fill="#5a533a" fill-opacity="0.501961" points="122.588673,134.057018,121.248710,134.136686,120.564833,140.559986,104.256232,161.500467" />
<polygon fill="#cad2af" fill-opacity="0.501961" points="92,196 107,200 96,211" />
<g transform="translate(10.732034 192.888912) rotate(346.980053) scale(3.909377 2.758601)"><ellipse fill="#afb698" fill-opacity="0.501961" cx="0" cy="0" rx="1" ry="1" /></g>
<rect fill="#37372f" fill-opacity="0.501961" x="101" y="110" width="2" height="23" />
<g transform="translate(155 179) rotate(47) scale(6 11)"><rect fill="#aeb394" fill-opacity="0.501961" x="-0.5" y="-0.5" width="1" height="1" /></g>
<polygon fill="#261e19" fill-opacity="0.501961" points="147.283200,32.066729,172.427506,49.107840,134.172030,50.356191,131.328445,40.100535" />
<rect fill="#5e573d" fill-opacity="0.501961" x="91" y="150" width="3" height="3" />
<g transform="translate(98 198) rotate(248) scale(1 22)"><rect fill="#bbc1a5" fill-opacity="0.501961" x="-0.5" y="-0.5" width="1" height="1" /></g>
<polygon fill="#727350" fill-opacity="0.501961" points="5,203 -16,208 -16,197" />
<ellipse fill="#140a04" fill-opacity="0.501961" cx="85" cy="255" rx="49" ry="21" />
<path stroke="#605c49" stroke-opacity="0.501961" fill="none" d="M 182.025477 208.463802 Q 168.312349 224.256697, 156.103658 218.398600" stroke-width="0.500000" />
<g transform="translate(199 157) rotate(37) scale(5 26)"><rect fill="#8e896a" fill-opacity="0.501961" x="-0.5" y="-0.5" width="1" height="1" /></g>
<polygon fill="#24160a" fill-opacity="0.501961" points="112.588435,227.688465,92.203349,241.327892,70.237989,223.773035,55.297595,229.759537" />
<g transform="translate(85 124) rotate(322) scale(3 23)"><rect fill="#313537" fill-opacity="0.501961" x="-0.5" y="-0.5" width="1" height="1" /></g>
<polygon fill="#3a3225" fill-opacity="0.501961" points="148.713490,75.718300,126.755166,99.049107,172.528215,68.835095,161.941333,70.181923" />
<polygon fill="#a29a65" fill-opacity="0.501961" points="111,157 114,164 106,158" />
<g transform="translate(91.263763 172.661636) rotate(260.757228) scale(2.423014 7.682638)"><ellipse fill="#383426" fill-opacity="0.501961" cx="0" cy="0" rx="1" ry="1" /></g>
<g transform="translate(211.518961 168.120282) rotate(287.303909) scale(3.185048 2.203456)"><ellipse fill="#575440" fill-opacity="0.501961" cx="0" cy="0" rx="1" ry="1" /></g>
<polygon fill="#4e4530" fill-opacity="0.501961" points="122,166 111,172 120,171" />
<polygon fill="#1f160f" fill-opacity="0.501961" points="178.121498,209.482752,180.965578,214.912518,138.335236,252.402289,195.770183,211.230026" />
<polygon fill="#6f7157" fill-opacity="0.501961" points="40,153 41,165 83,161" />
<g transform="translate(215.080578 102.285418) rotate(303.000505) scale(12.404804 24.383393)"><ellipse fill="#3e362a" fill-opacity="0.501961" cx="0" cy="0" rx="1" ry="1" /></g>
<polygon fill="#706b56" fill-opacity="0.501961" points="215.824505,77.599756,235.000000,89.822099,219.167732,26.775530,223.157598,-12.062992" />
<polygon fill="#9b9d7d" fill-opacity="0.501961" points="150.645251,212.506113,151.470616,182.385692,171.868353,161.585389,158.866885,186.047104" />
<polygon fill="#22170d" fill-opacity="0.501961" points="129.993469,113.031531,125.421135,41.598101,118.445834,111.805193,114.639298,137.399819" />
<g transform="translate(85.918833 193.757159) rotate(167.523921) scale(18.392861 2.216151)"><ellipse fill="#a9ac92" fill-opacity="0.501961" cx="0" cy="0" rx="1" ry="1" /></g>
<polygon fill="#5f5b44" fill-opacity="0.501961" points="62,97 57,114 72,131" />
<g transform="translate(61 140) rotate(231) scale(7 17)"><rect fill="#5c5741" fill-opacity="0.501961" x="-0.5" y="-0.5" width="1" height="1" /></g>
<rect fill="#2b1908" fill-opacity="0.501961" x="98" y="217" width="37" height="5" />
<polygon fill="#251a0e" fill-opacity="0.501961" points="124,154 114,166 115,154" />
<polygon fill="#433b2f" fill-opacity="0.501961" points="164.712979,89.026134,183.803704,-0.319986,181.716073,5.089294,197.618902,19.772683" />
<path stroke="#2d2316" stroke-opacity="0.501961" fill="none" d="M 102.815963 190.565245 Q 113.043126 196.400859, 136.626597 212.099791" stroke-width="0.500000" />
<polygon fill="#24140a" fill-opacity="0.501961" points="56,243 -16,250 -16,230" />
<polygon fill="#271a0f" fill-opacity="0.501961" points="124.816471,135.923881,142.228977,102.075089,128.876618,139.760771,119.989528,146.293502" />
<polygon fill="#8a8f83" fill-opacity="0.501961" points="135,167 161,160 150,155" />
<polygon fill="#66654e" fill-opacity="0.501961" points="50,172 57,187 61,171" />
<rect fill="#2c2725" fill-opacity="0.501961" x="127" y="219" width="30" height="3" />
<polygon fill="#2d251b" fill-opacity="0.501961" points="123.566657,162.751213,80.542076,118.085851,63.557321,95.779655,74.661818,108.536609" />
<polygon fill="#211813" fill-opacity="0.501961" points="87,36 112,32 91,116" />
<g transform="translate(107 171) rotate(143) scale(2 3)"><rect fill="#b7c29b" fill-opacity="0.501961" x="-0.5" y="-0.5" width="1" height="1" /></g>
<rect fill="#979b7f" fill-opacity="0.501961" x="30" y="219" width="20" height="8" />
<polygon fill="#a1a385" fill-opacity="0.501961" points="92.501746,210.758801,63.480616,178.708203,79.426321,181.905971,79.444864,171.363054" />
<ellipse fill="#16110a" fill-opacity="0.501961" cx="134" cy="192" rx="2" ry="2" />
<polygon fill="#4d4536" fill-opacity="0.501961" points="203.883066,29.515118,204.103663,15.160765,189.353191,1.860354,186.278964,45.605716" />
<polygon fill="#9ba28d" fill-opacity="0.501961" points="134,208 145,218 142,210" />
<g transform="translate(131.248202 179.559570) rotate(30.743235) scale(2.413500 8.060599)"><ellipse fill="#74765f" fill-opacity="0.501961" cx="0" cy="0" rx="1" ry="1" /></g>
<g transform="translate(129 120) rotate(139) scale(19 1)"><rect fill="#303939" fill-opacity="0.501961" x="-0.5" y="-0.5" width="1" height="1" /></g>
<g transform="translate(219.000000 248.128987) rotate(249.677290) scale(8.564325 4.184368)"><ellipse fill="#2c221e" fill-opacity="0.501961" cx="0" cy="0" rx="1" ry="1" /></g>
<polygon fill="#383831" fill-opacity="0.501961" points="209.292166,81.694954,200.047378,57.142011,195.762158,66.042734,226.994583,86.874478" />
<polygon fill="#64624a" fill-opacity="0.501961" points="47.362281,148.046758,14.393605,183.570764,31.242542,174.218597,54.447930,140.377798" />
<g transform="translate(36.652431 189.787359) rotate(58.741926) scale(14.394465 3.415104)"><ellipse fill="#6b6753" fill-opacity="0.501961" cx="0" cy="0" rx="1" ry="1" /></g>
<path stroke="#8b8a6e" stroke-opacity="0.501961" fill="none" d="M 228.802203 159.670458 Q 193.930093 230.199379, 119.140794 174.653729" stroke-width="0.500000" />
<rect fill="#a4ae98" fill-opacity="0.501961" x="112" y="213" width="11" height="3" />
<rect fill="#291f1e" fill-opacity="0.501961" x="80" y="41" width="7" height="69" />
<polygon fill="#3b342a" fill-opacity="0.501961" points="13.983618,104.273853,37.983738,116.131409,10.929159,141.817446,36.869916,160.269215" />
<polygon fill="#3b362b" fill-opacity="0.501961" points="185.452768,205.589258,211.720964,206.619344,235.000000,236.048943,229.229740,180.097901" />
<polygon fill="#858364" fill-opacity="0.501961" points="139.264788,184.371141,179.436500,155.140841,210.319938,118.768401,179.955751,144.669115" />
<g transform="translate(138.327068 112.379288) rotate(197.803317) scale(1.293543 13.989307)"><ellipse fill="#282014" fill-opacity="0.501961" cx="0" cy="0" rx="1" ry="1" /></g>
<polygon fill="#757157" fill-opacity="0.501961" points="168.513993,141.404637,183.867671,134.275842,192.264091,157.047565,198.950165,152.318267" />
<ellipse fill="#b9bc9d" fill-opacity="0.501961" cx="102" cy="154" rx="1" ry="1" />
<path stroke="#3e3b28" stroke-opacity="0.501961" fill="none" d="M 117.178344 122.485047 Q 108.218705 138.263256, 108.373776 164.862067" stroke-width="0.500000" />
<polygon fill="#938f70" fill-opacity="0.501961" points="180.743225,203.479351,170.332915,206.817575,169.048518,196.652442,205.195730,191.443763" />
<path stroke="#331f08" stroke-opacity="0.501961" fill="none" d="M 106.100013 166.970288 Q 106.436630 166.003801, 94.243961 146.045521" stroke-width="0.500000" />
<polygon fill="#625f4b" fill-opacity="0.501961" points="157.209179,95.151778,133.769510,134.806666,143.484588,104.750813,143.771567,91.996413" />
<polygon fill="#5e5b45" fill-opacity="0.501961" points="140.663958,133.654387,150.028586,136.621710,165.691434,128.098076,133.305184,146.261007" />
<path stroke="#2a1d0e" stroke-opacity="0.501961" fill="none" d="M 107.913253 252.395437 Q 153.510956 233.728233, 90.955090 142.161864" stroke-width="0.500000" />
<polygon fill="#464032" fill-opacity="0.501961" points="157.599976,92.652635,155.828137,94.427757,140.457748,88.727411,142.515764,76.981398" />
<polygon fill="#494236" fill-opacity="0.501961" points="69.148898,84.243887,79.463013,95.071762,76.545308,103.704625,66.211697,96.156984" />
<ellipse fill="#abbcad" fill-opacity="0.501961" cx="135" cy="208" rx="1" ry="1" />
<polygon fill="#6d6a53" fill-opacity="0.501961" points="73,102 74,106 79,106" />
<g transform="translate(145 207) rotate(231) scale(3 1)"><rect fill="#1f130e" fill-opacity="0.501961" x="-0.5" y="-0.5" width="1" height="1" /></g>
<polygon fill="#332a1c" fill-opacity="0.501961" points="125,162 107,175 110,167" />
<polygon fill="#868665" fill-opacity="0.501961" points="14,221 7,207 10,201" />
<polygon fill="#393124" fill-opacity="0.501961" points="144,-15 172,56 174,12" />
<polygon fill="#140c06" fill-opacity="0.501961" points="184,241 180,224 133,256" />
<polygon fill="#2f281d" fill-opacity="0.501961" points="78.283854,138.628906,85.750779,173.364783,101.716912,179.613692,100.829067,188.950145" />
<rect fill="#231a0d" fill-opacity="0.501961" x="110" y="185" width="3" height="27" />
<path stroke="#a8b49b" stroke-opacity="0.501961" fill="none" d="M 128.496931 186.890794 Q 135.187025 189.372701, 137.347120 189.583662" stroke-width="0.500000" />
<polygon fill="#343124" fill-opacity="0.501961" points="103.970271,152.373781,146.775881,123.021288,137.141533,137.374218,119.382482,135.518314" />
<rect fill="#706c43" fill-opacity="0.501961" x="72" y="164" width="4" height="16" />
<ellipse fill="#7f4f20" fill-opacity="0.501961" cx="97" cy="226" rx="2" ry="1" />
<polygon fill="#88886c" fill-opacity="0.501961" points="15,188 1,168 15,171" />
<polygon fill="#241508" fill-opacity="0.501961" points="127.022265,226.733292,176.249558,223.293461,132.418789,233.674735,120.460386,207.000996" />
<path stroke="#8b8758" stroke-opacity="0.501961" fill="none" d="M 90.697859 217.556867 Q 102.714184 220.465286, 103.939380 214.843583" stroke-width="0.500000" />
<polygon fill="#484434" fill-opacity="0.501961" points="55,184 37,186 48,178" />
<rect fill="#999570" fill-opacity="0.501961" x="147" y="197" width="26" height="7" />
<polygon fill="#211b16" fill-opacity="0.501961" points="136,191 127,187 106,204" />
<polygon fill="#27160a" fill-opacity="0.501961" points="84,129 91,136 81,145" />
<polygon fill="#828169" fill-opacity="0.501961" points="50.123157,205.818611,50.903223,211.175928,69.429819,206.854727,59.870601,188.996278" />
<polygon fill="#979375" fill-opacity="0.501961" points="-16,231 -10,217 14,231" />
<g transform="translate(138 186) rotate(27) scale(2 11)"><rect fill="#aab193" fill-opacity="0.501961" x="-0.5" y="-0.5" width="1" height="1" /></g>
<polygon fill="#261c18" fill-opacity="0.501961" points="144.290792,26.694644,136.264397,55.886621,147.845740,67.219892,134.608164,92.697835" />
<path stroke="#443d2c" stroke-opacity="0.501961" fill="none" d="M 144.530730 220.045725 Q 120.806594 214.220690, 110.449433 217.485465" stroke-width="0.500000" />
<polygon fill="#342e23" fill-opacity="0.501961" points="205.151767,219.420710,212.983573,196.317485,191.305331,207.451604,225.231213,197.577919" />
<polygon fill="#3e3626" fill-opacity="0.501961" points="98,136 110,149 87,136" />
<polygon fill="#86866a" fill-opacity="0.501961" points="164,141 175,158 161,190" />
<polygon fill="#696550" fill-opacity="0.501961" points="157.716518,131.293310,135.403297,137.805974,173.976143,107.320026,178.862490,115.217712" />
<g transform="translate(42.411295 147.813630) rotate(-0.393720) scale(3.853832 8.994988)"><ellipse fill="#5d5636" fill-opacity="0.501961" cx="0" cy="0" rx="1" ry="1" /></g>
<rect fill="#1d1510" fill-opacity="0.501961" x="16" y="228" width="11" height="14" />
<g transform="translate(21 221) rotate(316) scale(6 1)"><rect fill="#929377" fill-opacity="0.501961" x="-0.5" y="-0.5" width="1" height="1" /></g>
<ellipse fill="#2a201b" fill-opacity="0.501961" cx="19" cy="96" rx="5" ry="5" />
<ellipse fill="#877d63" fill-opacity="0.501961" cx="95" cy="153" rx="2" ry="2" />
<g transform="translate(110 147) rotate(68) scale(14 3)"><rect fill="#322e21" fill-opacity="0.501961" x="-0.5" y="-0.5" width="1" height="1" /></g>
<polygon fill="#2d251f" fill-opacity="0.501961" points="58,54 37,80 39,36" />
<polygon fill="#21180d" fill-opacity="0.501961" points="111.266467,129.537266,109.500719,131.293155,108.766763,90.942246,114.690056,125.230089" />
<ellipse fill="#c3c89e" fill-opacity="0.501961" cx="80" cy="210" rx="4" ry="4" />
<polygon fill="#2e2a22" fill-opacity="0.501961" points="147.168185,13.045831,152.821199,5.894882,136.927890,26.289401,109.210397,-10.874921" />
<polygon fill="#908156" fill-opacity="0.501961" points="110.470740,160.433903,99.084770,148.934274,106.207795,149.511495,106.625160,157.231068" />
<g transform="translate(113.179081 54.485696) rotate(4.633122) scale(3.034489 14.480872)"><ellipse fill="#180f09" fill-opacity="0.501961" cx="0" cy="0" rx="1" ry="1" /></g>
<polygon fill="#5d5a41" fill-opacity="0.501961" points="215,209 216,216 212,220" />
<ellipse fill="#83836d" fill-opacity="0.501961" cx="110" cy="151" rx="1" ry="1" />
<rect fill="#858a73" fill-opacity="0.501961" x="33" y="202" width="15" height="11" />
<polygon fill="#7b7d67" fill-opacity="0.501961" points="153,148 152,137 136,147" />
<polygon fill="#98966b" fill-opacity="0.501961" points="149,201 145,202 149,208" />
<ellipse fill="#9dad9c" fill-opacity="0.501961" cx="91" cy="214" rx="3" ry="3" />
<rect fill="#393227" fill-opacity="0.501961" x="199" y="220" width="21" height="2" />
<polygon fill="#7c7c64" fill-opacity="0.501961" points="188.560199,142.472426,188.418725,140.373615,203.094644,184.091382,169.504957,173.272254" />
<polygon fill="#54503b" fill-opacity="0.501961" points="205.685043,-16.000000,191.298212,52.011033,210.404019,43.071654,198.877184,37.634850" />
<polygon fill="#2d190b" fill-opacity="0.501961" points="76,142 94,142 102,152" />
<polygon fill="#1f1611" fill-opacity="0.501961" points="222.114328,260.857340,203.882618,236.075444,188.899182,240.171874,177.855349,245.234647" />
<path stroke="#838067" stroke-opacity="0.501961" fill="none" d="M 173.066743 216.402417 Q 186.470175 207.303296, 185.356702 176.899159" stroke-width="0.500000" />
<polygon fill="#6e705a" fill-opacity="0.501961" points="147,160 136,160 141,143" />
<path stroke="#8f9175" stroke-opacity="0.501961" fill="none" d="M 37.570578 227.705851 Q 39.313437 228.174158, 77.362081 221.101218" stroke-width="0.500000" />
<rect fill="#2d2520" fill-opacity="0.501961" x="70" y="45" width="13" height="22" />
<ellipse fill="#beb12f" fill-opacity="0.501961" cx="95" cy="218" rx="1" ry="1" />
<polygon fill="#8b907a" fill-opacity="0.501961" points="137.175514,156.963027,138.042014,172.547087,152.500047,186.616601,140.120510,188.662222" />
<ellipse fill="#848e80" fill-opacity="0.501961" cx="126" cy="210" rx="1" ry="1" />
<rect fill="#838364" fill-opacity="0.501961" x="78" y="168" width="5" height="1" />
<polygon fill="#725d3b" fill-opacity="0.501961" points="95.496818,139.676100,98.373356,144.566375,110.396258,156.930891,107.568855,151.917646" />
<polygon fill="#463f33" fill-opacity="0.501961" points="58,82 47,91 65,105" />
<polygon fill="#6a6852" fill-opacity="0.501961" points="57.103562,125.465720,66.566098,121.785913,68.951321,114.736411,59.681133,114.321545" />
<polygon fill="#21130b" fill-opacity="0.501961" points="129,201 122,206 124,211" />
<polygon fill="#77725b" fill-opacity="0.501961" points="218.191617,143.850449,235.000000,209.861133,217.701189,174.136247,213.724629,135.612287" />
<polygon fill="#65614c" fill-opacity="0.501961" points="207.455385,62.794055,208.086170,69.954093,194.300478,47.444473,218.156346,53.228530" />
<ellipse fill="#7b847a" fill-opacity="0.501961" cx="141" cy="170" rx="9" ry="4" />
<path stroke="#9ba284" stroke-opacity="0.501961" fill="none" d="M 141.410992 185.226684 Q 140.943639 192.707117, 139.113893 192.335677" stroke-width="0.500000" />
<g transform="translate(90 148) rotate(166) scale(19 1)"><rect fill="#2a1e13" fill-opacity="0.501961" x="-0.5" y="-0.5" width="1" height="1" /></g>
<polygon fill="#1d140e" fill-opacity="0.501961" points="38.022311,239.662244,57.118174,249.392126,47.306263,231.489452,92.162730,222.036233" />
<polygon fill="#7a785d" fill-opacity="0.501961" points="30.363528,184.228492,42.617671,204.652450,27.646327,193.372937,13.413956,186.964543" />
<polygon fill="#372e23" fill-opacity="0.501961" points="4,54 -16,58 19,128" />
<g transform="translate(134 199) rotate(52) scale(1 27)"><rect fill="#20170d" fill-opacity="0.501961" x="-0.5" y="-0.5" width="1" height="1" /></g>
<path stroke="#30271b" stroke-opacity="0.501961" fill="none" d="M 23.215064 219.468937 Q 24.755619 243.459342, 36.388448 264.539175" stroke-width="0.500000" />
<polygon fill="#282017" fill-opacity="0.501961" points="131.156448,188.976421,112.354769,181.014311,106.226036,179.520053,128.283964,195.453097" />
<polygon fill="#23180d" fill-opacity="0.501961" points="109,200 115,188 136,211" />
<g transform="translate(150.060668 122.966805) rotate(219.773449) scale(3.760985 8.158173)"><ellipse fill="#706b55" fill-opacity="0.501961" cx="0" cy="0" rx="1" ry="1" /></g>
<g transform="translate(72 156) rotate(230) scale(12 13)"><rect fill="#79785e" fill-opacity="0.501961" x="-0.5" y="-0.5" width="1" height="1" /></g>
<g transform="translate(196.911997 96.691651) rotate(294.750006) scale(3.554502 7.581711)"><ellipse fill="#463f33" fill-opacity="0.501961" cx="0" cy="0" rx="1" ry="1" /></g>
<rect fill="#ae8b4c" fill-opacity="0.501961" x="105" y="151" width="2" height="11" />
<rect fill="#423c30" fill-opacity="0.501961" x="104" y="185" width="5" height="7" />
<polygon fill="#7b795f" fill-opacity="0.501961" points="16,211 4,217 19,198" />
<polygon fill="#252016" fill-opacity="0.501961" points="109,205 108,214 114,203" />
<g transform="translate(136 102) rotate(31) scale(1 10)"><rect fill="#67634d" fill-opacity="0.501961" x="-0.5" y="-0.5" width="1" height="1" /></g>
<polygon fill="#6a6651" fill-opacity="0.501961" points="155,106 158,98 143,90" />
<polygon fill="#979374" fill-opacity="0.501961" points="183.325359,169.473811,161.665221,194.303412,156.785087,194.716775,171.758350,207.160176" />
<g transform="translate(0 148) rotate(318) scale(17 8)"><rect fill="#67634c" fill-opacity="0.501961" x="-0.5" y="-0.5" width="1" height="1" /></g>
<polygon fill="#9f9b7c" fill-opacity="0.501961" points="164.923019,213.689959,190.508502,196.555127,189.271928,202.512006,169.104528,214.223406" />
<polygon fill="#58553f" fill-opacity="0.501961" points="160,102 160,84 174,83" />
<polygon fill="#261c0e" fill-opacity="0.501961" points="103.308816,184.086473,100.886670,186.375915,105.031923,173.336303,85.275497,147.481042" />
<rect fill="#3a3124" fill-opacity="0.501961" x="178" y="50" width="9" height="41" />
<polygon fill="#2f261c" fill-opacity="0.501961" points="206.763948,218.895730,205.912083,207.144200,193.292869,205.705060,183.500318,221.185530" />
<ellipse fill="#556358" fill-opacity="0.501961" cx="55" cy="127" rx="5" ry="7" />
<polygon fill="#211711" fill-opacity="0.501961" points="97.800370,76.664788,77.514888,85.643370,85.959289,58.375355,90.181914,107.863117" />
<polygon fill="#2c261c" fill-opacity="0.501961" points="109,151 112,134 92,133" />
<polygon fill="#140a04" fill-opacity="0.501961" points="64.223456,256.164511,84.749755,220.329972,99.564144,271.000000,122.519486,225.554114" />
<polygon fill="#28211d" fill-opacity="0.501961" points="202,69 191,56 194,76" />
<path stroke="#2c2316" stroke-opacity="0.501961" fill="none" d="M 106.209395 167.201240 Q 70.323063 137.933518, 66.082143 124.998610" stroke-width="0.500000" />
<g transform="translate(200 124) rotate(91) scale(13 11)"><rect fill="#858163" fill-opacity="0.501961" x="-0.5" y="-0.5" width="1" height="1" /></g>
<g transform="translate(107 165) rotate(270) scale(4 1)"><rect fill="#a6a872" fill-opacity="0.501961" x="-0.5" y="-0.5" width="1" height="1" /></g>
<ellipse fill="#655844" fill-opacity="0.501961" cx="170" cy="131" rx="6" ry="6" />
<polygon fill="#b5baa1" fill-opacity="0.501961" points="103,191 84,199 93,181" />
<polygon fill="#291f1b" fill-opacity="0.501961" points="-16.000000,22.261000,20.519220,47.656778,6.325882,30.028720,13.511379,73.743113" />
<g transform="translate(115 150) rotate(151) scale(2 1)"><rect fill="#6e6149" fill-opacity="0.501961" x="-0.5" y="-0.5" width="1" height="1" /></g>
<polygon fill="#32291d" fill-opacity="0.501961" points="144.790670,81.755307,137.118456,78.301400,153.854543,64.275771,169.384193,67.374018" />
<path stroke="#3e3224" stroke-opacity="0.501961" fill="none" d="M 14.457733 214.832393 Q 20.381515 242.692109, -8.339331 250.680166" stroke-width="0.500000" />
<ellipse fill="#251d0f" fill-opacity="0.501961" cx="141" cy="205" rx="2" ry="2" />
<polygon fill="#615d48" fill-opacity="0.501961" points="218,155 206,166 215,165" />
<rect fill="#9aa085" fill-opacity="0.501961" x="48" y="222" width="17" height="4" />
<path stroke="#868f7b" stroke-opacity="0.501961" fill="none" d="M 114.704559 205.769314 Q 113.531827 210.921542, 114.055857 213.482434" stroke-width="0.500000" />
<polygon fill="#322e26" fill-opacity="0.501961" points="27,154 38,154 33,160" />
<polygon fill="#2f251f" fill-opacity="0.501961" points="136.817732,81.288342,125.354059,105.771870,122.977937,113.929670,128.832701,118.922230" />
<ellipse fill="#2c2318" fill-opacity="0.501961" cx="98" cy="89" rx="2" ry="22" />
<g transform="translate(66.592641 101.244152) rotate(77.573329) scale(8.224695 1.000000)"><ellipse fill="#261e14" fill-opacity="0.501961" cx="0" cy="0" rx="1" ry="1" /></g>
<polygon fill="#736e56" fill-opacity="0.501961" points="191,131 208,127 198,139" />
<ellipse fill="#9ca284" fill-opacity="0.501961" cx="154" cy="193" rx="5" ry="5" />
<rect fill="#958864" fill-opacity="0.501961" x="114" y="145" width="2" height="3" />
<g transform="translate(199.945756 113.960204) rotate(257.366277) scale(3.467828 5.290672)"><ellipse fill="#64604b" fill-opacity="0.501961" cx="0" cy="0" rx="1" ry="1" /></g>
<g transform="translate(100 198) rotate(256) scale(1 17)"><rect fill="#c1c9ab" fill-opacity="0.501961" x="-0.5" y="-0.5" width="1" height="1" /></g>
<polygon fill="#6f6f51" fill-opacity="0.501961" points="55,169 81,164 57,161" />
<ellipse fill="#bbc5a7" fill-opacity="0.501961" cx="134" cy="188" rx="2" ry="2" />
<polygon fill="#534e3c" fill-opacity="0.501961" points="17.453888,158.474958,-0.576244,157.668370,11.512729,147.941996,22.176435,147.142949" />
<polygon fill="#29140a" fill-opacity="0.501961" points="4.218625,234.503972,14.909808,233.467840,11.714605,248.064562,-16.000000,232.797396" />
<path stroke="#3d372b" stroke-opacity="0.501961" fill="none" d="M 157.556018 219.538189 Q 217.339759 223.465512, 232.539035 215.424328" stroke-width="0.500000" />
<polygon fill="#8d8a6e" fill-opacity="0.501961" points="-1,221 16,222 12,232" />
<rect fill="#8b896f" fill-opacity="0.501961" x="12" y="213" width="17" height="4" />
<path stroke="#312820" stroke-opacity="0.501961" fill="none" d="M 105.104061 155.895381 Q 97.307617 118.211648, 119.623522 65.951464" stroke-width="0.500000" />
<polygon fill="#181009" fill-opacity="0.501961" points="136.768689,49.154473,121.361129,63.703595,128.961033,77.557936,122.972134,80.494895" />
<g transform="translate(30 255) rotate(57) scale(8 13)"><rect fill="#231d16" fill-opacity="0.501961" x="-0.5" y="-0.5" width="1" height="1" /></g>
<g transform="translate(93 224) rotate(76) scale(4 31)"><rect fill="#2e1304" fill-opacity="0.501961" x="-0.5" y="-0.5" width="1" height="1" /></g>
<polygon fill="#8d8d6b" fill-opacity="0.501961" points="74,179 77,180 77,170" />
<polygon fill="#5f5b46" fill-opacity="0.501961" points="207.825653,108.026382,211.306157,123.191362,235.000000,166.966848,223.894238,158.426194" />
<polygon fill="#23170a" fill-opacity="0.501961" points="112.012021,194.598209,113.445545,173.868562,124.665954,180.399452,123.145738,184.034603" />
<polygon fill="#959271" fill-opacity="0.501961" points="171.948204,189.450906,195.034686,202.488491,154.569979,200.437026,161.966614,188.498141" />
<polygon fill="#515749" fill-opacity="0.501961" points="32.540938,133.299337,54.937113,118.337336,62.740467,112.074006,35.462557,143.476156" />
<polygon fill="#635439" fill-opacity="0.501961" points="111.517145,154.586001,95.304975,138.448591,103.022213,149.109120,101.555741,147.989879" />
<ellipse fill="#221a0f" fill-opacity="0.501961" cx="105" cy="118" rx="2" ry="24" />
<polygon fill="#322a1d" fill-opacity="0.501961" points="90,177 109,183 93,168" />
<g transform="translate(63 183) rotate(98) scale(9 6)"><rect fill="#7b7c61" fill-opacity="0.501961" x="-0.5" y="-0.5" width="1" height="1" /></g>
<g transform="translate(1 109) rotate(-2) scale(12 24)"><rect fill="#40382b" fill-opacity="0.501961" x="-0.5" y="-0.5" width="1" height="1" /></g>
<polygon fill="#231b16" fill-opacity="0.501961" points="24,47 44,41 23,68" />
<g transform="translate(111 162) rotate(195) scale(5 3)"><rect fill="#9fa175" fill-opacity="0.501961" x="-0.5" y="-0.5" width="1" height="1" /></g>
<g transform="translate(130 118) rotate(121) scale(21 3)"><rect fill="#2e3436" fill-opacity="0.501961" x="-0.5" y="-0.5" width="1" height="1" /></g>
<polygon fill="#91957c" fill-opacity="0.501961" points="51.590078,220.294251,52.747638,207.456359,32.620071,226.911661,15.852703,226.803314" />
<polygon fill="#2b2110" fill-opacity="0.501961" points="107,203 110,196 124,199" />
<polygon fill="#767259" fill-opacity="0.501961" points="157.326887,152.256568,149.803989,135.738564,184.118790,147.965013,156.383016,130.141977" />
<polygon fill="#3e3729" fill-opacity="0.501961" points="235.000000,199.940392,214.673363,223.692294,235.000000,225.216963,208.006362,207.704387" />
<ellipse fill="#5b421f" fill-opacity="0.501961" cx="108" cy="156" rx="1" ry="2" />
<rect fill="#959679" fill-opacity="0.501961" x="133" y="214" width="34" height="3" />
<polygon fill="#635d4a" fill-opacity="0.501961" points="55.980633,195.366410,45.045204,182.205166,42.738315,196.228317,56.298203,188.949759" />
<g transform="translate(67.524701 220.625620) rotate(263.864911) scale(1.949492 6.155240)"><ellipse fill="#b6bc9b" fill-opacity="0.501961" cx="0" cy="0" rx="1" ry="1" /></g>
<ellipse fill="#6a6a36" fill-opacity="0.501961" cx="116" cy="223" rx="1" ry="1" />
<ellipse fill="#6f6c55" fill-opacity="0.501961" cx="141" cy="118" rx="3" ry="3" />
<path stroke="#3c372a" stroke-opacity="0.501961" fill="none" d="M 202.151603 208.732340 Q 176.829304 199.795934, 167.374480 227.371806" stroke-width="0.500000" />
<polygon fill="#8f9073" fill-opacity="0.501961" points="9.587592,170.892060,-8.111111,190.916601,31.974507,178.500886,1.501235,192.147939" />
<g transform="translate(80 113) rotate(77) scale(3 2)"><rect fill="#6e6854" fill-opacity="0.501961" x="-0.5" y="-0.5" width="1" height="1" /></g>
<g transform="translate(76 147) rotate(37) scale(6 1)"><rect fill="#322e26" fill-opacity="0.501961" x="-0.5" y="-0.5" width="1" height="1" /></g>
<polygon fill="#21180d" fill-opacity="0.501961" points="99.077398,125.491487,102.642912,121.846880,95.848737,106.067550,96.436369,121.437400" />
<polygon fill="#78745d" fill-opacity="0.501961" points="29.823212,172.033797,-16.000000,167.436495,4.085223,157.551189,11.149677,168.430130" />
<path stroke="#2a1e13" stroke-opacity="0.501961" fill="none" d="M 120.915733 212.429025 Q 139.125748 226.142089, 156.218568 236.744188" stroke-width="0.500000" />
<polygon fill="#4e4838" fill-opacity="0.501961" points="38.728353,114.453693,35.564834,153.407022,37.683505,96.856058,46.857361,115.155175" />
<ellipse fill="#574d26" fill-opacity="0.501961" cx="134" cy="196" rx="2" ry="2" />
<rect fill="#524d3a" fill-opacity="0.501961" x="208" y="23" width="10" height="11" />
<path stroke="#a1a389" stroke-opacity="0.501961" fill="none" d="M 89.937261 198.044771 Q 84.917391 227.471153, 72.907930 223.491497" stroke-width="0.500000" />
<g transform="translate(89 176) rotate(121) scale(5 1)"><rect fill="#5e5940" fill-opacity="0.501961" x="-0.5" y="-0.5" width="1" height="1" /></g>
<path stroke="#564a28" stroke-opacity="0.501961" fill="none" d="M 111.940706 160.954772 Q 102.899084 175.368119, 118.348345 177.312877" stroke-width="0.500000" />
<polygon fill="#311e0c" fill-opacity="0.501961" points="99,164 91,156 103,158" />
<g transform="translate(128.563115 158.317588) rotate(104.701897) scale(17.480849 1.000000)"><ellipse fill="#3b3226" fill-opacity="0.501961" cx="0" cy="0" rx="1" ry="1" /></g>
<polygon fill="#95997f" fill-opacity="0.501961" points="80.130249,203.362896,71.773475,200.095483,58.468206,212.423156,91.517365,201.914786" />
<ellipse fill="#ded6ab" fill-opacity="0.501961" cx="112" cy="157" rx="1" ry="1" />
<polygon fill="#3b3325" fill-opacity="0.501961" points="202.757626,198.959280,235.000000,168.514879,196.453160,197.885349,189.446998,199.478127" />
<path stroke="#46341f" stroke-opacity="0.501961" fill="none" d="M 120.827078 225.929536 Q 105.392335 222.275494, 88.933539 217.739729" stroke-width="0.500000" />
<ellipse fill="#b2aa50" fill-opacity="0.501961" cx="108" cy="176" rx="1" ry="1" />
<polygon fill="#a7a486" fill-opacity="0.501961" points="92,179 80,180 79,195" />
<polygon fill="#717159" fill-opacity="0.501961" points="65,152 49,146 43,156" />
</g>
</svg>