<svg xmlns="http://www.w3.org/2000/svg" version="1.1" width="784" height="1024">
<rect x="0" y="0" width="784" height="1024" fill="#5f6556" />
<g transform="scale(4.000000) translate(0.5 0.5)">
<g transform="translate(164.523466 44.991526) rotate(66.376467) scale(91.693952 49.216766)"><ellipse fill="#f6e7ab" fill-opacity="0.501961" cx="0" cy="0" rx="1" ry="1" /></g>
<g transform="translate(46.444557 199.727102) rotate(118.952171) scale(134.039638 61.606313)"><ellipse fill="#0d1a1d" fill-opacity="0.501961" cx="0" cy="0" rx="1" ry="1" /></g>
<g transform="translate(127.134847 226.023626) rotate(312.403925) scale(15.488637 22.617233)"><ellipse fill="#ffffff" fill-opacity="0.501961" cx="0" cy="0" rx="1" ry="1" /></g>
<g transform="translate(163.836651 176.532662) rotate(182.909742) scale(18.360455 35.078045)"><ellipse fill="#001220" fill-opacity="0.501961" cx="0" cy="0" rx="1" ry="1" /></g>
<polygon fill="#ae8e5b" fill-opacity="0.501961" points="211,94 191,143 62,120" />
<g transform="translate(172.988649 59.200863) rotate(262.434394) scale(23.247129 44.173012)"><ellipse fill="#c6ddc7" fill-opacity="0.501961" cx="0" cy="0" rx="1" ry="1" /></g>
<g transform="translate(71.180844 38.628770) rotate(152.911432) scale(25.462482 11.297613)"><ellipse fill="#020000" fill-opacity="0.501961" cx="0" cy="0" rx="1" ry="1" /></g>
<rect fill="#000000" fill-opacity="0.501961" x="79" y="138" width="25" height="80" />
<rect fill="#a4d1be" fill-opacity="0.501961" x="145" y="239" width="51" height="17" />
<rect fill="#faffff" fill-opacity="0.501961" x="106" y="213" width="31" height="21" />
<g transform="translate(143.141860 85.867756) rotate(40.215409) scale(45.009613 13.170497)"><ellipse fill="#ebab3f" fill-opacity="0.501961" cx="0" cy="0" rx="1" ry="1" /></g>
<g transform="translate(38.383834 246.766061) rotate(278.812701) scale(21.959273 87.847249)"><ellipse fill="#071a1f" fill-opacity="0.501961" cx="0" cy="0" rx="1" ry="1" /></g>
<g transform="translate(128.390903 12.798987) rotate(122.318695) scale(64.524103 25.512562)"><ellipse fill="#7c7f5f" fill-opacity="0.501961" cx="0" cy="0" rx="1" ry="1" /></g>
<polygon fill="#617271" fill-opacity="0.501961" points="87,171 -16,109 66,198" />
<g transform="translate(16.939608 32.886167) rotate(318.194233) scale(99.384798 32.494955)"><ellipse fill="#7d877b" fill-opacity="0.501961" cx="0" cy="0" rx="1" ry="1" /></g>
<polygon fill="#beddca" fill-opacity="0.501961" points="110.194739,233.044344,72.139177,232.640199,78.394602,222.872115,114.541682,231.857036" />
<ellipse fill="#3c4245" fill-opacity="0.501961" cx="145" cy="107" rx="12" ry="12" />
<g transform="translate(13.446806 139.400643) rotate(103.962305) scale(43.270744 20.878144)"><ellipse fill="#505a5f" fill-opacity="0.501961" cx="0" cy="0" rx="1" ry="1" /></g>
<g transform="translate(51.643608 83.672327) rotate(153.250711) scale(21.518747 25.408705)"><ellipse fill="#7c7f70" fill-opacity="0.501961" cx="0" cy="0" rx="1" ry="1" /></g>
<rect fill="#bebe83" fill-opacity="0.501961" x="105" y="112" width="33" height="14" />
<polygon fill="#20221f" fill-opacity="0.501961" points="50.196548,165.561515,84.513691,155.787914,168.469104,130.057878,115.916569,167.692858" />
<ellipse fill="#3c6461" fill-opacity="0.501961" cx="167" cy="226" rx="29" ry="15" />
<polygon fill="#bfa556" fill-opacity="0.501961" points="68,55 119,49 103,37" />
<polygon fill="#f4ffff" fill-opacity="0.501961" points="113.758103,211.741481,124.339133,209.022507,142.183905,222.629975,108.158244,233.087881" />
<g transform="translate(61.482279 47.692742) rotate(338.518459) scale(38.572503 1.921744)"><ellipse fill="#0e0f03" fill-opacity="0.501961" cx="0" cy="0" rx="1" ry="1" /></g>
<ellipse fill="#888b71" fill-opacity="0.501961" cx="128" cy="0" rx="72" ry="23" />
<polygon fill="#2b3f40" fill-opacity="0.501961" points="128.059266,140.704647,121.417061,197.538373,171.939721,208.920965,211.000000,199.546906" />
<ellipse fill="#748769" fill-opacity="0.501961" cx="107" cy="213" rx="3" ry="29" />
<polygon fill="#5f8278" fill-opacity="0.501961" points="120,201 154,202 155,236" />
<g transform="translate(149.877065 86.508449) rotate(286.030250) scale(7.184187 24.218302)"><ellipse fill="#ffd159" fill-opacity="0.501961" cx="0" cy="0" rx="1" ry="1" /></g>
<g transform="translate(174.017957 58.631840) rotate(229.970951) scale(17.625208 36.559846)"><ellipse fill="#b1c6b8" fill-opacity="0.501961" cx="0" cy="0" rx="1" ry="1" /></g>
<rect fill="#081718" fill-opacity="0.501961" x="0" y="219" width="63" height="27" />
<rect fill="#748377" fill-opacity="0.501961" x="51" y="167" width="36" height="13" />
<rect fill="#65786c" fill-opacity="0.501961" x="31" y="252" width="45" height="4" />
<ellipse fill="#000202" fill-opacity="0.501961" cx="88" cy="192" rx="16" ry="16" />
<ellipse fill="#9d876d" fill-opacity="0.501961" cx="193" cy="136" rx="20" ry="27" />
<g transform="translate(40.198499 185.276334) rotate(-18.491830) scale(9.771845 30.628311)"><ellipse fill="#132124" fill-opacity="0.501961" cx="0" cy="0" rx="1" ry="1" /></g>
<g transform="translate(82.348946 95.777658) rotate(262.577003) scale(39.644142 8.821094)"><ellipse fill="#34352e" fill-opacity="0.501961" cx="0" cy="0" rx="1" ry="1" /></g>
<g transform="translate(144.348921 133.742274) rotate(164.811775) scale(18.794844 13.314994)"><ellipse fill="#676c5f" fill-opacity="0.501961" cx="0" cy="0" rx="1" ry="1" /></g>
<polygon fill="#5f6e6c" fill-opacity="0.501961" points="11,135 48,136 -16,186" />
<g transform="translate(164.903649 28.658619) rotate(156.038788) scale(42.921676 16.569505)"><ellipse fill="#95a493" fill-opacity="0.501961" cx="0" cy="0" rx="1" ry="1" /></g>
<polygon fill="#a09c62" fill-opacity="0.501961" points="65,116 87,133 66,125" />
<rect fill="#78a288" fill-opacity="0.501961" x="110" y="232" width="41" height="15" />
<polygon fill="#ffd664" fill-opacity="0.501961" points="141,86 150,63 121,59" />
<polygon fill="#7d8270" fill-opacity="0.501961" points="-1,53 81,63 11,95" />
<polygon fill="#2c2822" fill-opacity="0.501961" points="112.980817,80.727939,43.754520,117.296784,115.073919,99.139619,141.082093,108.455621" />
<polygon fill="#2d2b19" fill-opacity="0.501961" points="39.625807,61.854837,87.386059,12.740803,95.575556,34.954640,103.113233,37.628502" />
<g transform="translate(22 113) rotate(331) scale(67 27)"><rect fill="#454947" fill-opacity="0.501961" x="-0.5" y="-0.5" width="1" height="1" /></g>
<rect fill="#706c45" fill-opacity="0.501961" x="95" y="50" width="28" height="30" />
<polygon fill="#5c5a41" fill-opacity="0.501961" points="101.930973,128.960463,105.256207,99.215028,157.109058,103.441505,61.436699,128.567239" />
<g transform="translate(94.012241 146.817209) rotate(188.167362) scale(45.804865 13.697325)"><ellipse fill="#22241f" fill-opacity="0.501961" cx="0" cy="0" rx="1" ry="1" /></g>
<ellipse fill="#767974" fill-opacity="0.501961" cx="129" cy="163" rx="17" ry="4" />
<polygon fill="#192928" fill-opacity="0.501961" points="187.726882,161.921668,161.668987,210.644469,147.957501,172.506556,155.574557,166.118768" />
<g transform="translate(87 228) rotate(275) scale(9 13)"><rect fill="#b6cbb2" fill-opacity="0.501961" x="-0.5" y="-0.5" width="1" height="1" /></g>
<polygon fill="#647667" fill-opacity="0.501961" points="71.708446,183.711312,71.908526,216.057266,62.743506,206.078751,54.659240,174.760581" />
<polygon fill="#223435" fill-opacity="0.501961" points="90.548007,214.376782,79.451066,191.020847,54.699849,237.582089,61.949366,247.892867" />
<rect fill="#20312a" fill-opacity="0.501961" x="116" y="246" width="34" height="5" />
<polygon fill="#11130a" fill-opacity="0.501961" points="103.783430,178.680350,132.849637,183.887034,119.911333,185.585241,113.255210,194.405773" />
<polygon fill="#ffaa45" fill-opacity="0.501961" points="161.197033,117.243297,176.293902,127.086442,164.709433,90.725147,159.129990,92.678075" />
<polygon fill="#070b05" fill-opacity="0.501961" points="37,57 67,31 81,39" />
<polygon fill="#0d1111" fill-opacity="0.501961" points="92.596217,151.591691,76.033010,196.701608,104.521952,234.121823,104.616630,211.239995" />
<polygon fill="#848b6e" fill-opacity="0.501961" points="75.932469,73.604639,38.520217,85.189214,72.587980,46.260115,43.288468,61.884794" />
<g transform="translate(21.720349 196.362647) rotate(355.633242) scale(14.344827 23.684494)"><ellipse fill="#37504f" fill-opacity="0.501961" cx="0" cy="0" rx="1" ry="1" /></g>
<polygon fill="#535e54" fill-opacity="0.501961" points="173.465301,115.783278,135.756420,204.514785,108.352745,189.832379,104.402533,226.382747" />
<polygon fill="#c9e9d3" fill-opacity="0.501961" points="138,229 124,236 141,238" />
<polygon fill="#374946" fill-opacity="0.501961" points="135,263 103,233 44,228" />
<polygon fill="#b5b178" fill-opacity="0.501961" points="121.303993,103.864290,135.105925,138.452013,124.521368,135.727714,136.689148,120.874115" />
<g transform="translate(89.123769 166.263247) rotate(3.584143) scale(65.479883 1.000000)"><ellipse fill="#061013" fill-opacity="0.501961" cx="0" cy="0" rx="1" ry="1" /></g>
<ellipse fill="#87896d" fill-opacity="0.501961" cx="118" cy="22" rx="19" ry="25" />
<g transform="translate(168.439521 247.429848) rotate(267.918215) scale(1.168768 20.692182)"><ellipse fill="#bdd8c3" fill-opacity="0.501961" cx="0" cy="0" rx="1" ry="1" /></g>
<polygon fill="#edfffc" fill-opacity="0.501961" points="138.200501,222.411529,123.205576,209.152706,103.705299,233.831743,128.164329,227.771507" />
<polygon fill="#626b66" fill-opacity="0.501961" points="124.329704,179.891796,152.640534,176.951443,139.268165,170.588499,108.421649,169.054893" />
<rect fill="#252321" fill-opacity="0.501961" x="129" y="104" width="33" height="3" />
<polygon fill="#3f4237" fill-opacity="0.501961" points="145.283168,100.996319,127.401491,158.962756,143.265182,156.156386,139.629095,161.621435" />
<rect fill="#667c73" fill-opacity="0.501961" x="101" y="253" width="62" height="3" />
<ellipse fill="#b0c5b8" fill-opacity="0.501961" cx="138" cy="54" rx="19" ry="4" />
<g transform="translate(56.683438 135.435899) rotate(362.453438) scale(7.528468 24.339607)"><ellipse fill="#1f3034" fill-opacity="0.501961" cx="0" cy="0" rx="1" ry="1" /></g>
<g transform="translate(173 80) rotate(353) scale(53 5)"><rect fill="#a9ab7d" fill-opacity="0.501961" x="-0.5" y="-0.5" width="1" height="1" /></g>
<polygon fill="#9c856a" fill-opacity="0.501961" points="154,94 134,98 163,105" />
<g transform="translate(193.117397 166.131037) rotate(252.370083) scale(17.287155 8.963563)"><ellipse fill="#5d747c" fill-opacity="0.501961" cx="0" cy="0" rx="1" ry="1" /></g>
<rect fill="#2d2f1c" fill-opacity="0.501961" x="98" y="23" width="2" height="32" />
<g transform="translate(73 170) rotate(109) scale(5 4)"><rect fill="#baccb9" fill-opacity="0.501961" x="-0.5" y="-0.5" width="1" height="1" /></g>
<rect fill="#3f504a" fill-opacity="0.501961" x="8" y="251" width="77" height="5" />
<polygon fill="#253031" fill-opacity="0.501961" points="51,164 27,149 22,185" />
<rect fill="#6b7e7c" fill-opacity="0.501961" x="51" y="159" width="24" height="4" />
<g transform="translate(178 214) rotate(260) scale(19 51)"><rect fill="#466164" fill-opacity="0.501961" x="-0.5" y="-0.5" width="1" height="1" /></g>
<ellipse fill="#050400" fill-opacity="0.501961" cx="100" cy="144" rx="2" ry="22" />
<polygon fill="#51523e" fill-opacity="0.501961" points="119,119 129,137 106,139" />
<g transform="translate(122.899758 195.464553) rotate(164.355374) scale(1.000000 12.680408)"><ellipse fill="#939878" fill-opacity="0.501961" cx="0" cy="0" rx="1" ry="1" /></g>
<polygon fill="#ffbc45" fill-opacity="0.501961" points="168,90 134,92 127,81" />
<polygon fill="#658073" fill-opacity="0.501961" points="142.458287,197.224528,131.288886,216.315301,160.962620,225.101135,121.439776,207.606499" />
<rect fill="#42584c" fill-opacity="0.501961" x="164" y="221" width="14" height="22" />
<polygon fill="#858260" fill-opacity="0.501961" points="93.124109,32.295111,88.716545,20.857528,150.724310,1.519953,106.120221,-16.000000" />
<g transform="translate(181 127) rotate(202) scale(28 23)"><rect fill="#ab835e" fill-opacity="0.501961" x="-0.5" y="-0.5" width="1" height="1" /></g>
<polygon fill="#655e47" fill-opacity="0.501961" points="117.073776,106.560005,81.884857,107.728357,119.679756,101.791930,119.352080,133.326953" />
<polygon fill="#19292b" fill-opacity="0.501961" points="184.393324,189.714283,183.959585,169.334493,157.792126,192.239718,146.819071,164.521208" />
<g transform="translate(25 97) rotate(215) scale(30 30)"><rect fill="#66685d" fill-opacity="0.501961" x="-0.5" y="-0.5" width="1" height="1" /></g>
<g transform="translate(71.780023 50.289817) rotate(42.374238) scale(1.205111 15.443184)"><ellipse fill="#3e1804" fill-opacity="0.501961" cx="0" cy="0" rx="1" ry="1" /></g>
<g transform="translate(68 9) rotate(149) scale(34 30)"><rect fill="#7e8266" fill-opacity="0.501961" x="-0.5" y="-0.5" width="1" height="1" /></g>
<g transform="translate(79.903181 157.603041) rotate(106.237048) scale(13.857777 2.583622)"><ellipse fill="#070b0b" fill-opacity="0.501961" cx="0" cy="0" rx="1" ry="1" /></g>
<polygon fill="#817850" fill-opacity="0.501961" points="134,98 118,53 99,56" />
<polygon fill="#30302b" fill-opacity="0.501961" points="114.423138,75.404464,96.511995,105.636702,47.203528,116.532442,105.114516,115.063789" />
<ellipse fill="#535e4e" fill-opacity="0.501961" cx="77" cy="29" rx="5" ry="5" />
<rect fill="#334641" fill-opacity="0.501961" x="42" y="235" width="77" height="3" />
<g transform="translate(108 47) rotate(259) scale(10 11)"><rect fill="#c5b268" fill-opacity="0.501961" x="-0.5" y="-0.5" width="1" height="1" /></g>
<polygon fill="#bdcdbf" fill-opacity="0.501961" points="211,37 142,82 152,56" />
<polygon fill="#2d2d18" fill-opacity="0.501961" points="91.637139,44.011780,90.470525,12.149331,78.047104,23.962097,84.991978,25.499175" />
<g transform="translate(159.354467 247.640448) rotate(75.683331) scale(1.699591 16.098127)"><ellipse fill="#a8c1ad" fill-opacity="0.501961" cx="0" cy="0" rx="1" ry="1" /></g>
<ellipse fill="#ffffff" fill-opacity="0.501961" cx="195" cy="240" rx="16" ry="1" />
<polygon fill="#6e8274" fill-opacity="0.501961" points="70.386878,271.000000,55.675370,251.763187,9.133112,264.402852,32.049875,254.198788" />
<ellipse fill="#a09168" fill-opacity="0.501961" cx="118" cy="104" rx="9" ry="2" />
<polygon fill="#1f2418" fill-opacity="0.501961" points="47.298868,52.171203,75.365821,31.760017,40.721021,48.577379,72.761313,25.584280" />
<rect fill="#ffc551" fill-opacity="0.501961" x="161" y="103" width="15" height="7" />
<polygon fill="#283029" fill-opacity="0.501961" points="130.640815,212.890318,119.141863,165.423583,97.378692,141.957018,130.431771,194.379692" />
<polygon fill="#36362d" fill-opacity="0.501961" points="67.055556,76.207522,99.652699,154.402307,96.593894,171.884563,88.055511,142.135573" />
<polygon fill="#324041" fill-opacity="0.501961" points="157.282214,181.976357,183.606696,161.611117,155.278852,129.448427,177.600736,142.870679" />
<ellipse fill="#a5aa80" fill-opacity="0.501961" cx="176" cy="99" rx="13" ry="5" />
<polygon fill="#70716a" fill-opacity="0.501961" points="142,131 149,165 153,105" />
<g transform="translate(75.936006 124.486030) rotate(61.064506) scale(10.683081 2.396169)"><ellipse fill="#7d7d54" fill-opacity="0.501961" cx="0" cy="0" rx="1" ry="1" /></g>
<g transform="translate(127 61) rotate(205) scale(13 4)"><rect fill="#dfd88c" fill-opacity="0.501961" x="-0.5" y="-0.5" width="1" height="1" /></g>
<ellipse fill="#5c6967" fill-opacity="0.501961" cx="18" cy="152" rx="10" ry="16" />
<rect fill="#030000" fill-opacity="0.501961" x="88" y="172" width="15" height="26" />
<ellipse fill="#464232" fill-opacity="0.501961" cx="94" cy="132" rx="29" ry="4" />
<g transform="translate(8.014048 43.968132) rotate(175.301131) scale(23.428936 48.419802)"><ellipse fill="#6c756e" fill-opacity="0.501961" cx="0" cy="0" rx="1" ry="1" /></g>
<g transform="translate(130 119) rotate(189) scale(11 16)"><rect fill="#bfb57b" fill-opacity="0.501961" x="-0.5" y="-0.5" width="1" height="1" /></g>
<polygon fill="#3d4c4c" fill-opacity="0.501961" points="55.566071,142.343834,56.126946,155.741888,45.241055,185.568907,21.222715,113.085668" />
<rect fill="#31463b" fill-opacity="0.501961" x="103" y="222" width="6" height="7" />
<polygon fill="#849b8a" fill-opacity="0.501961" points="123,237 107,237 131,244" />
<rect fill="#737d69" fill-opacity="0.501961" x="53" y="51" width="13" height="4" />
<g transform="translate(112 201) rotate(236) scale(19 6)"><rect fill="#656e56" fill-opacity="0.501961" x="-0.5" y="-0.5" width="1" height="1" /></g>
<polygon fill="#4c4e43" fill-opacity="0.501961" points="105.415040,82.617998,77.081700,52.216431,64.862208,105.387731,85.144550,82.417935" />
<g transform="translate(77.623426 197.168106) rotate(272.172374) scale(17.115872 6.253523)"><ellipse fill="#1c2d28" fill-opacity="0.501961" cx="0" cy="0" rx="1" ry="1" /></g>
<g transform="translate(156.744535 17.490917) rotate(339.163953) scale(29.535733 13.186474)"><ellipse fill="#949880" fill-opacity="0.501961" cx="0" cy="0" rx="1" ry="1" /></g>
<polygon fill="#1c201d" fill-opacity="0.501961" points="141.224926,153.035726,100.212104,164.141662,126.827715,148.001786,153.715665,169.893253" />
<g transform="translate(95.526259 252.972654) rotate(172.747719) scale(41.081194 2.350929)"><ellipse fill="#24312e" fill-opacity="0.501961" cx="0" cy="0" rx="1" ry="1" /></g>
<ellipse fill="#968a73" fill-opacity="0.501961" cx="139" cy="99" rx="5" ry="5" />
<polygon fill="#b48053" fill-opacity="0.501961" points="170,123 150,111 157,106" />
<rect fill="#858669" fill-opacity="0.501961" x="99" y="0" width="17" height="44" />
<rect fill="#061017" fill-opacity="0.501961" x="135" y="168" width="24" height="3" />
<g transform="translate(48.483426 92.703327) rotate(3.594477) scale(20.141758 8.554702)"><ellipse fill="#5c615a" fill-opacity="0.501961" cx="0" cy="0" rx="1" ry="1" /></g>
<polygon fill="#2f2e25" fill-opacity="0.501961" points="122,87 137,104 103,93" />
<g transform="translate(132.865897 105.648399) rotate(174.626729) scale(22.101734 1.000000)"><ellipse fill="#2a2c28" fill-opacity="0.501961" cx="0" cy="0" rx="1" ry="1" /></g>
<polygon fill="#668074" fill-opacity="0.501961" points="66.008519,232.528398,73.764236,224.116923,78.794044,233.855435,128.782003,233.450474" />
<polygon fill="#ffd140" fill-opacity="0.501961" points="165,87 161,107 158,91" />
<ellipse fill="#2c433b" fill-opacity="0.501961" cx="195" cy="242" rx="20" ry="1" />
<polygon fill="#202e2d" fill-opacity="0.501961" points="77.449650,238.442221,33.342557,213.415092,84.535626,264.969393,108.199324,235.619933" />
<polygon fill="#424a4a" fill-opacity="0.501961" points="29.291934,115.855049,21.386819,131.693007,-16.000000,137.061902,-16.000000,90.908513" />
<rect fill="#a2c1ae" fill-opacity="0.501961" x="169" y="253" width="25" height="3" />
<g transform="translate(109.799050 178.935662) rotate(247.655852) scale(27.283115 2.990708)"><ellipse fill="#1e2219" fill-opacity="0.501961" cx="0" cy="0" rx="1" ry="1" /></g>
<rect fill="#738074" fill-opacity="0.501961" x="66" y="169" width="6" height="27" />
<polygon fill="#1d1e17" fill-opacity="0.501961" points="93.634844,136.780365,74.219678,137.237137,73.421643,151.212945,129.069379,127.507745" />
<polygon fill="#6b6948" fill-opacity="0.501961" points="107.375946,84.686163,117.853715,48.999737,130.141325,47.543681,97.845919,71.890760" />
<polygon fill="#64695e" fill-opacity="0.501961" points="51,111 31,117 39,120" />
<ellipse fill="#2b3a38" fill-opacity="0.501961" cx="12" cy="252" rx="41" ry="3" />
<rect fill="#0d1517" fill-opacity="0.501961" x="0" y="236" width="37" height="13" />
<polygon fill="#3a4742" fill-opacity="0.501961" points="75.492542,153.880266,72.275939,128.396419,64.786129,119.496231,68.547836,163.249839" />
<rect fill="#7b8367" fill-opacity="0.501961" x="105" y="178" width="2" height="31" />
<polygon fill="#5c5a43" fill-opacity="0.501961" points="73.975486,63.329760,94.689170,79.596614,93.661954,62.857173,101.779459,47.659767" />
<polygon fill="#597166" fill-opacity="0.501961" points="128.524674,174.079845,143.125530,231.635370,142.267002,238.116179,168.995175,234.987942" />
<g transform="translate(133 136) rotate(306) scale(13 1)"><rect fill="#a4a770" fill-opacity="0.501961" x="-0.5" y="-0.5" width="1" height="1" /></g>
<polygon fill="#282d2b" fill-opacity="0.501961" points="46.260449,98.673145,47.340462,109.453923,34.268531,116.170718,32.134016,114.789024" />
<polygon fill="#2d4545" fill-opacity="0.501961" points="5.568172,170.267095,17.632808,221.982552,-16.000000,215.250095,-16.000000,145.707630" />
<polygon fill="#3f2613" fill-opacity="0.501961" points="78.477489,39.965917,64.593339,56.712598,95.669390,38.507391,55.669230,41.643205" />
<polygon fill="#878a66" fill-opacity="0.501961" points="103,128 135,125 99,114" />
<g transform="translate(148 115) rotate(77) scale(1 9)"><rect fill="#11150d" fill-opacity="0.501961" x="-0.5" y="-0.5" width="1" height="1" /></g>
<rect fill="#9ab39a" fill-opacity="0.501961" x="122" y="203" width="5" height="9" />
<polygon fill="#131d1d" fill-opacity="0.501961" points="47.516199,188.866894,50.588783,203.032340,34.937170,203.251967,33.011165,195.254509" />
<polygon fill="#7c9481" fill-opacity="0.501961" points="137.153555,254.479439,150.616366,246.687941,155.667421,266.208960,164.011881,271.000000" />
<g transform="translate(72 122) rotate(48) scale(13 5)"><rect fill="#919167" fill-opacity="0.501961" x="-0.5" y="-0.5" width="1" height="1" /></g>
<polygon fill="#161914" fill-opacity="0.501961" points="120.364150,160.359946,124.939616,139.403948,101.141481,161.932556,96.271359,166.294008" />
<polygon fill="#364a49" fill-opacity="0.501961" points="169.844426,179.116360,167.103700,169.643574,168.760864,213.851862,198.819218,193.363491" />
<polygon fill="#ffda69" fill-opacity="0.501961" points="139.658003,60.424532,133.419778,60.251303,140.080866,70.605300,147.353182,69.841622" />
<polygon fill="#b09c5d" fill-opacity="0.501961" points="76.120358,52.807998,89.900644,55.134141,87.876817,50.090758,114.035933,38.497534" />
<polygon fill="#8d9177" fill-opacity="0.501961" points="109,195 118,197 107,189" />
<polygon fill="#3d534f" fill-opacity="0.501961" points="68,197 63,220 53,201" />
<g transform="translate(119.998899 243.425504) rotate(171.608998) scale(9.102452 4.862263)"><ellipse fill="#6c8074" fill-opacity="0.501961" cx="0" cy="0" rx="1" ry="1" /></g>
<polygon fill="#f5ffff" fill-opacity="0.501961" points="118,213 139,220 128,229" />
<rect fill="#20292a" fill-opacity="0.501961" x="156" y="134" width="9" height="3" />
<g transform="translate(181 234) rotate(-7) scale(69 1)"><rect fill="#334739" fill-opacity="0.501961" x="-0.5" y="-0.5" width="1" height="1" /></g>
<polygon fill="#879177" fill-opacity="0.501961" points="53,76 70,62 32,65" />
<polygon fill="#e7fff6" fill-opacity="0.501961" points="110,214 125,230 139,228" />
<rect fill="#2d3b3e" fill-opacity="0.501961" x="154" y="143" width="20" height="26" />
<polygon fill="#b08a51" fill-opacity="0.501961" points="120.191593,80.850879,117.223328,83.835605,115.005871,70.415047,139.595440,72.279314" />
<rect fill="#657c71" fill-opacity="0.501961" x="11" y="251" width="12" height="2" />
<g transform="translate(7 40) rotate(53) scale(60 23)"><rect fill="#727e70" fill-opacity="0.501961" x="-0.5" y="-0.5" width="1" height="1" /></g>
<rect fill="#b3d2c1" fill-opacity="0.501961" x="177" y="246" width="11" height="4" />
<polygon fill="#a1c3b3" fill-opacity="0.501961" points="108,232 102,231 111,236" />
<polygon fill="#a9b79d" fill-opacity="0.501961" points="129.880292,38.483636,119.831100,45.473585,211.000000,24.189001,127.506772,64.569565" />
<rect fill="#87a08d" fill-opacity="0.501961" x="117" y="240" width="35" height="4" />
<g transform="translate(150.865202 201.587705) rotate(344.011783) scale(2.401132 25.441266)"><ellipse fill="#435a56" fill-opacity="0.501961" cx="0" cy="0" rx="1" ry="1" /></g>
<ellipse fill="#6a8679" fill-opacity="0.501961" cx="138" cy="209" rx="7" ry="7" />
<g transform="translate(25.880612 0.000000) rotate(170.700148) scale(44.699846 19.827644)"><ellipse fill="#686e68" fill-opacity="0.501961" cx="0" cy="0" rx="1" ry="1" /></g>
<polygon fill="#525137" fill-opacity="0.501961" points="110.963755,108.016712,108.716097,69.568453,139.604257,106.934179,109.368416,82.592618" />
<rect fill="#2c2e24" fill-opacity="0.501961" x="106" y="204" width="8" height="5" />
<polygon fill="#181a11" fill-opacity="0.501961" points="113,193 120,178 104,183" />
<polygon fill="#79937d" fill-opacity="0.501961" points="158,227 146,238 139,229" />
<polygon fill="#817f6c" fill-opacity="0.501961" points="211,144 180,156 174,134" />
<polygon fill="#726d48" fill-opacity="0.501961" points="116.841403,42.038304,115.974333,52.672762,130.581729,101.695897,126.064356,80.060804" />
<polygon fill="#f5b75b" fill-opacity="0.501961" points="141.689283,92.404965,135.448642,88.421118,120.922547,61.153786,121.272827,52.001793" />
<polygon fill="#f2fffa" fill-opacity="0.501961" points="112,221 121,207 134,230" />
<ellipse fill="#182124" fill-opacity="0.501961" cx="162" cy="132" rx="2" ry="3" />
<rect fill="#9cae9f" fill-opacity="0.501961" x="70" y="169" width="5" height="7" />
<polygon fill="#444435" fill-opacity="0.501961" points="141.492221,153.213233,114.274708,128.682064,99.792275,127.257220,50.756662,108.628854" />
<polygon fill="#5d6a67" fill-opacity="0.501961" points="147,170 122,170 146,187" />
<rect fill="#b6c9af" fill-opacity="0.501961" x="80" y="225" width="11" height="6" />
<g transform="translate(57 124) rotate(339) scale(7 22)"><rect fill="#1d2422" fill-opacity="0.501961" x="-0.5" y="-0.5" width="1" height="1" /></g>
<g transform="translate(195.000000 107.678150) rotate(32.166862) scale(29.788371 10.559470)"><ellipse fill="#a6a478" fill-opacity="0.501961" cx="0" cy="0" rx="1" ry="1" /></g>
<rect fill="#1f271e" fill-opacity="0.501961" x="125" y="183" width="4" height="12" />
<polygon fill="#1b2a29" fill-opacity="0.501961" points="145.322590,193.181082,152.773097,153.287913,162.204051,209.739587,167.571995,172.175084" />
<polygon fill="#1b2528" fill-opacity="0.501961" points="97.084458,222.271279,101.547208,214.628364,71.866935,201.956150,71.733930,217.066360" />
<polygon fill="#555d48" fill-opacity="0.501961" points="102,114 87,123 88,113" />
<polygon fill="#b2cfbc" fill-opacity="0.501961" points="121,226 135,244 135,236" />
<g transform="translate(68 127) rotate(152) scale(1 12)"><rect fill="#8e8d5e" fill-opacity="0.501961" x="-0.5" y="-0.5" width="1" height="1" /></g>
<polygon fill="#141714" fill-opacity="0.501961" points="79.196528,157.588074,102.849509,141.220341,81.078499,141.720957,70.977142,142.359857" />
<polygon fill="#243437" fill-opacity="0.501961" points="45,139 76,155 45,110" />
<polygon fill="#63725c" fill-opacity="0.501961" points="113.298226,194.914856,121.732454,194.273212,113.195193,214.579182,128.480415,196.568828" />
<rect fill="#748b81" fill-opacity="0.501961" x="90" y="226" width="10" height="2" />
<g transform="translate(92 106) rotate(97) scale(3 6)"><rect fill="#717264" fill-opacity="0.501961" x="-0.5" y="-0.5" width="1" height="1" /></g>
<ellipse fill="#82a39a" fill-opacity="0.501961" cx="184" cy="238" rx="6" ry="2" />
<polygon fill="#3d4d4a" fill-opacity="0.501961" points="5.233812,218.393138,16.944537,181.647285,47.780121,181.258101,62.393072,160.454466" />
<polygon fill="#ffcc46" fill-opacity="0.501961" points="164,97 140,86 170,91" />
<g transform="translate(96 15) rotate(178) scale(5 23)"><rect fill="#606042" fill-opacity="0.501961" x="-0.5" y="-0.5" width="1" height="1" /></g>
<rect fill="#607968" fill-opacity="0.501961" x="151" y="252" width="23" height="2" />
<rect fill="#616966" fill-opacity="0.501961" x="131" y="158" width="17" height="10" />
<polygon fill="#6f7264" fill-opacity="0.501961" points="9,50 10,92 49,86" />
<polygon fill="#46534c" fill-opacity="0.501961" points="91.154924,172.887648,62.239874,182.278912,64.565793,184.344592,76.127754,183.835056" />
<polygon fill="#1d2828" fill-opacity="0.501961" points="21,179 30,147 35,168" />
<polygon fill="#b49851" fill-opacity="0.501961" points="91,24 95,25 93,11" />
<g transform="translate(119 242) rotate(195) scale(6 1)"><rect fill="#c0d3c4" fill-opacity="0.501961" x="-0.5" y="-0.5" width="1" height="1" /></g>
<polygon fill="#404135" fill-opacity="0.501961" points="56.226589,112.730885,50.202302,109.129460,61.780753,113.154273,73.824581,131.370050" />
<polygon fill="#506060" fill-opacity="0.501961" points="58,147 43,161 32,147" />
<polygon fill="#4d635f" fill-opacity="0.501961" points="186,199 139,227 211,227" />
<g transform="translate(118 127) rotate(97) scale(43 1)"><rect fill="#444734" fill-opacity="0.501961" x="-0.5" y="-0.5" width="1" height="1" /></g>
<g transform="translate(69 164) rotate(3) scale(48 1)"><rect fill="#010b0e" fill-opacity="0.501961" x="-0.5" y="-0.5" width="1" height="1" /></g>
<polygon fill="#9ba389" fill-opacity="0.501961" points="118,47 155,26 151,46" />
<polygon fill="#7d8269" fill-opacity="0.501961" points="99,-1 66,-2 57,35" />
<rect fill="#344241" fill-opacity="0.501961" x="60" y="253" width="51" height="3" />
<polygon fill="#181b11" fill-opacity="0.501961" points="65.158570,35.597690,36.781935,58.534221,78.449426,44.376382,54.115897,40.317825" />
<rect fill="#586953" fill-opacity="0.501961" x="147" y="245" width="5" height="4" />
<polygon fill="#e8a15c" fill-opacity="0.501961" points="139.007462,62.905925,125.509091,74.158616,143.675996,98.473343,130.263617,90.099456" />
<polygon fill="#595e5a" fill-opacity="0.501961" points="69,86 6,94 64,107" />
<g transform="translate(131.656787 135.504324) rotate(224.410935) scale(4.208722 6.282281)"><ellipse fill="#8f9268" fill-opacity="0.501961" cx="0" cy="0" rx="1" ry="1" /></g>
<polygon fill="#57442e" fill-opacity="0.501961" points="89,150 94,156 98,145" />
<polygon fill="#3b4139" fill-opacity="0.501961" points="136.846508,152.517795,149.037739,166.665857,135.841930,137.600211,147.731329,99.795044" />
<polygon fill="#7e7960" fill-opacity="0.501961" points="169.770909,123.349490,130.759412,123.781776,144.842319,117.571786,153.287116,138.242409" />
<polygon fill="#c3945f" fill-opacity="0.501961" points="185,111 194,134 211,140" />
<polygon fill="#7e764d" fill-opacity="0.501961" points="-13.434852,94.321105,22.952500,106.276906,-16.000000,84.733721,-16.000000,78.472130" />
<rect fill="#5e6b69" fill-opacity="0.501961" x="51" y="165" width="12" height="7" />
<polygon fill="#c88c5c" fill-opacity="0.501961" points="167.412308,117.750305,178.822622,104.511745,178.673859,135.744460,149.627005,97.514515" />
<polygon fill="#96bca4" fill-opacity="0.501961" points="131.555185,227.251465,144.272319,229.151637,133.390838,233.202921,142.928053,221.812371" />
<g transform="translate(117.009853 198.979145) rotate(253.294435) scale(1.000000 5.153569)"><ellipse fill="#23281d" fill-opacity="0.501961" cx="0" cy="0" rx="1" ry="1" /></g>
<polygon fill="#928163" fill-opacity="0.501961" points="156.467698,138.132650,211.000000,121.499919,173.774858,118.679670,192.981405,136.806874" />
<rect fill="#e4fdf5" fill-opacity="0.501961" x="190" y="245" width="6" height="1" />
<polygon fill="#39544f" fill-opacity="0.501961" points="191.620606,243.637019,211.000000,244.030223,186.097537,233.045539,211.000000,224.822701" />
<polygon fill="#52655c" fill-opacity="0.501961" points="105,238 107,245 125,244" />
<polygon fill="#2d2f2b" fill-opacity="0.501961" points="94.833465,94.602028,102.705470,102.664685,73.519684,116.431358,110.256503,112.486345" />
<rect fill="#131a19" fill-opacity="0.501961" x="30" y="237" width="46" height="9" />
<rect fill="#b8ad72" fill-opacity="0.501961" x="123" y="110" width="5" height="14" />
<g transform="translate(107 217) rotate(81) scale(22 1)"><rect fill="#7e9078" fill-opacity="0.501961" x="-0.5" y="-0.5" width="1" height="1" /></g>
<polygon fill="#77816a" fill-opacity="0.501961" points="38.613087,54.390419,45.412006,47.354538,32.128898,68.666356,52.104589,70.197690" />
<g transform="translate(145.182350 147.738121) rotate(167.610419) scale(2.734763 13.493022)"><ellipse fill="#656a69" fill-opacity="0.501961" cx="0" cy="0" rx="1" ry="1" /></g>
<rect fill="#5b685b" fill-opacity="0.501961" x="39" y="247" width="9" height="2" />
<polygon fill="#afaf82" fill-opacity="0.501961" points="161.163003,73.521787,150.999518,86.026618,199.085595,74.509107,211.000000,121.972716" />
<polygon fill="#42574f" fill-opacity="0.501961" points="33,202 32,215 6,205" />
<rect fill="#bcccb5" fill-opacity="0.501961" x="147" y="56" width="9" height="26" />
<g transform="translate(128 207) rotate(280) scale(1 33)"><rect fill="#768a7b" fill-opacity="0.501961" x="-0.5" y="-0.5" width="1" height="1" /></g>
<rect fill="#798a81" fill-opacity="0.501961" x="117" y="254" width="17" height="2" />
<rect fill="#0b0a04" fill-opacity="0.501961" x="98" y="141" width="5" height="52" />
<polygon fill="#495757" fill-opacity="0.501961" points="45.448138,129.758828,17.209480,176.866944,-16.000000,168.861516,4.313372,170.293375" />
<polygon fill="#494d43" fill-opacity="0.501961" points="95,151 95,170 98,160" />
<polygon fill="#7c8061" fill-opacity="0.501961" points="92.980252,66.947451,95.445987,64.435946,107.257992,50.542883,115.443553,63.482877" />
<rect fill="#70817c" fill-opacity="0.501961" x="68" y="161" width="9" height="2" />
<ellipse fill="#516656" fill-opacity="0.501961" cx="69" cy="201" rx="4" ry="4" />
<polygon fill="#272c2c" fill-opacity="0.501961" points="30.580080,111.605068,67.586372,106.689520,82.511391,84.491803,88.798242,106.725538" />
<ellipse fill="#3e3420" fill-opacity="0.501961" cx="98" cy="51" rx="3" ry="3" />
<ellipse fill="#e2f9de" fill-opacity="0.501961" cx="114" cy="217" rx="6" ry="6" />
<polygon fill="#768a7d" fill-opacity="0.501961" points="61,252 11,258 31,271" />
<polygon fill="#70877a" fill-opacity="0.501961" points="102.010924,232.781862,113.057338,222.560631,98.152912,234.217625,127.644230,243.176153" />
<ellipse fill="#a39968" fill-opacity="0.501961" cx="113" cy="119" rx="6" ry="7" />
<polygon fill="#2d3d3f" fill-opacity="0.501961" points="63.159309,234.045345,87.703145,220.533253,87.437241,210.461472,58.836565,229.739790" />
<polygon fill="#757e68" fill-opacity="0.501961" points="61.001511,70.467543,-10.112067,52.167672,51.715676,46.177417,26.820596,62.593092" />
<path stroke="#151a11" stroke-opacity="0.501961" fill="none" d="M 60.115818 51.073229 Q 49.091961 50.912440, 31.231282 60.343880" stroke-width="0.500000" />
<rect fill="#486165" fill-opacity="0.501961" x="185" y="178" width="11" height="11" />
<polygon fill="#636449" fill-opacity="0.501961" points="82,129 75,113 70,118" />
<polygon fill="#122323" fill-opacity="0.501961" points="-16,226 40,240 63,221" />
<polygon fill="#23281d" fill-opacity="0.501961" points="98.026304,35.322230,83.217509,27.696437,81.491020,48.467529,66.815993,36.051409" />
<polygon fill="#030807" fill-opacity="0.501961" points="92.974266,159.864790,79.025592,206.539892,91.597108,198.658919,95.271071,178.253047" />
<polygon fill="#1a2826" fill-opacity="0.501961" points="73,183 78,197 87,194" />
<g transform="translate(120.057717 147.586699) rotate(18.771121) scale(3.743268 10.164108)"><ellipse fill="#1b1a11" fill-opacity="0.501961" cx="0" cy="0" rx="1" ry="1" /></g>
<g transform="translate(76 231) rotate(192) scale(8 2)"><rect fill="#95a897" fill-opacity="0.501961" x="-0.5" y="-0.5" width="1" height="1" /></g>
<g transform="translate(165 247) rotate(287) scale(1 8)"><rect fill="#e7fbf2" fill-opacity="0.501961" x="-0.5" y="-0.5" width="1" height="1" /></g>
<g transform="translate(104 251) rotate(90) scale(1 52)"><rect fill="#1e2b26" fill-opacity="0.501961" x="-0.5" y="-0.5" width="1" height="1" /></g>
<rect fill="#7f9682" fill-opacity="0.501961" x="138" y="242" width="30" height="4" />
<ellipse fill="#aaba9b" fill-opacity="0.501961" cx="189" cy="63" rx="22" ry="3" />
<polygon fill="#4a4834" fill-opacity="0.501961" points="80,56 61,57 74,61" />
<ellipse fill="#bc9a5b" fill-opacity="0.501961" cx="81" cy="51" rx="8" ry="2" />
<g transform="translate(155.459057 138.300366) rotate(73.157486) scale(1.000000 5.550354)"><ellipse fill="#2d3335" fill-opacity="0.501961" cx="0" cy="0" rx="1" ry="1" /></g>
<rect fill="#708e7e" fill-opacity="0.501961" x="165" y="249" width="28" height="4" />
<rect fill="#adc3ae" fill-opacity="0.501961" x="154" y="245" width="6" height="7" />
<polygon fill="#817a63" fill-opacity="0.501961" points="153.606917,121.377590,170.923569,137.875733,168.619242,124.543578,151.672473,109.170529" />
<polygon fill="#0b0d0a" fill-opacity="0.501961" points="68.031847,165.437932,91.968859,166.250667,91.057781,163.490702,99.675549,156.184242" />
<g transform="translate(88.700569 234.504036) rotate(84.160471) scale(1.738524 13.020073)"><ellipse fill="#495b57" fill-opacity="0.501961" cx="0" cy="0" rx="1" ry="1" /></g>
<polygon fill="#1f3335" fill-opacity="0.501961" points="67.795657,153.458081,70.725335,169.371972,66.492428,133.183023,50.428231,160.699104" />
<rect fill="#393f32" fill-opacity="0.501961" x="123" y="128" width="17" height="2" />
<g transform="translate(112 49) rotate(256) scale(1 9)"><rect fill="#efc969" fill-opacity="0.501961" x="-0.5" y="-0.5" width="1" height="1" /></g>
<g transform="translate(129 65) rotate(24) scale(15 4)"><rect fill="#ffd667" fill-opacity="0.501961" x="-0.5" y="-0.5" width="1" height="1" /></g>
<polygon fill="#2b3a3a" fill-opacity="0.501961" points="177.783686,168.795064,174.235530,138.432723,163.524477,194.308068,191.397000,160.880785" />
<polygon fill="#6b786d" fill-opacity="0.501961" points="64,171 73,195 57,180" />
<ellipse fill="#768068" fill-opacity="0.501961" cx="64" cy="52" rx="3" ry="3" />
<rect fill="#727061" fill-opacity="0.501961" x="72" y="52" width="10" height="6" />
<g transform="translate(95.540806 151.213066) rotate(327.511268) scale(13.949798 1.537028)"><ellipse fill="#291d11" fill-opacity="0.501961" cx="0" cy="0" rx="1" ry="1" /></g>
<rect fill="#0e1616" fill-opacity="0.501961" x="20" y="253" width="8" height="3" />
<polygon fill="#3b5149" fill-opacity="0.501961" points="172,222 184,236 159,225" />
<g transform="translate(153.222486 97.433527) rotate(204.091778) scale(6.607940 1.854549)"><ellipse fill="#a07d5c" fill-opacity="0.501961" cx="0" cy="0" rx="1" ry="1" /></g>
<polygon fill="#f3a051" fill-opacity="0.501961" points="165.668360,104.355204,154.139247,109.420469,169.777896,116.623815,161.752766,99.521471" />
<polygon fill="#050c0c" fill-opacity="0.501961" points="73,154 76,161 82,163" />
<rect fill="#f5ffff" fill-opacity="0.501961" x="110" y="219" width="29" height="3" />
<path stroke="#23251d" stroke-opacity="0.501961" fill="none" d="M 111.246158 130.335234 Q 82.951415 182.700059, 115.970810 201.668504" stroke-width="0.500000" />
<polygon fill="#35403e" fill-opacity="0.501961" points="30.279388,154.644488,41.397722,182.770771,39.360917,178.997833,63.930523,192.729697" />
<polygon fill="#79917d" fill-opacity="0.501961" points="156,242 142,245 135,238" />
<polygon fill="#4f5951" fill-opacity="0.501961" points="125,48 120,49 130,51" />
<g transform="translate(121 192) rotate(231) scale(1 8)"><rect fill="#a7b097" fill-opacity="0.501961" x="-0.5" y="-0.5" width="1" height="1" /></g>
<rect fill="#a1bbac" fill-opacity="0.501961" x="143" y="251" width="2" height="5" />
<rect fill="#d7cc88" fill-opacity="0.501961" x="132" y="115" width="4" height="9" />
<g transform="translate(130 102) rotate(119) scale(1 9)"><rect fill="#191611" fill-opacity="0.501961" x="-0.5" y="-0.5" width="1" height="1" /></g>
<polygon fill="#727061" fill-opacity="0.501961" points="72.380897,71.538514,67.874417,59.690903,61.130762,80.886597,65.195133,107.693996" />
<g transform="translate(144.486622 56.807563) rotate(188.710918) scale(23.475329 3.212576)"><ellipse fill="#b6c6b7" fill-opacity="0.501961" cx="0" cy="0" rx="1" ry="1" /></g>
<polygon fill="#4f5e53" fill-opacity="0.501961" points="70.591659,206.371626,74.018273,198.382396,55.883065,192.208752,53.780123,177.419163" />
<g transform="translate(72 157) rotate(153) scale(1 11)"><rect fill="#748480" fill-opacity="0.501961" x="-0.5" y="-0.5" width="1" height="1" /></g>
<polygon fill="#151d1f" fill-opacity="0.501961" points="95.889786,221.303707,106.179617,227.566039,84.213024,190.300838,92.908597,227.585495" />
<g transform="translate(115 188) rotate(8) scale(7 6)"><rect fill="#121209" fill-opacity="0.501961" x="-0.5" y="-0.5" width="1" height="1" /></g>
<polygon fill="#62706e" fill-opacity="0.501961" points="203.178627,142.770057,206.161915,208.236479,175.564749,145.560782,210.717502,173.982254" />
<g transform="translate(141 85) rotate(130) scale(5 14)"><rect fill="#ffdc46" fill-opacity="0.501961" x="-0.5" y="-0.5" width="1" height="1" /></g>
<polygon fill="#04090d" fill-opacity="0.501961" points="110,182 121,180 116,179" />
<g transform="translate(60 236) rotate(-6) scale(24 1)"><rect fill="#3f5049" fill-opacity="0.501961" x="-0.5" y="-0.5" width="1" height="1" /></g>
<polygon fill="#2c3939" fill-opacity="0.501961" points="39,151 37,163 24,152" />
<rect fill="#575e4f" fill-opacity="0.501961" x="75" y="30" width="6" height="5" />
<polygon fill="#60604c" fill-opacity="0.501961" points="130.487033,138.227073,133.916864,151.004845,114.370462,123.488132,119.530821,126.866322" />
<ellipse fill="#ffeb6e" fill-opacity="0.501961" cx="145" cy="67" rx="3" ry="3" />
<polygon fill="#94af93" fill-opacity="0.501961" points="110.799548,227.305548,128.705870,251.611907,108.295457,223.589246,111.909350,208.516386" />
<g transform="translate(195.000000 125.012351) rotate(44.862909) scale(32.099067 1.977876)"><ellipse fill="#c49964" fill-opacity="0.501961" cx="0" cy="0" rx="1" ry="1" /></g>
<polygon fill="#757657" fill-opacity="0.501961" points="113.254107,110.243059,85.805469,122.002409,110.670781,113.681405,156.835286,110.828725" />
<polygon fill="#53625d" fill-opacity="0.501961" points="149.631446,172.839803,128.411091,197.212086,147.335699,203.779375,116.333071,168.858665" />
<g transform="translate(62 37) rotate(66) scale(1 26)"><rect fill="#161c14" fill-opacity="0.501961" x="-0.5" y="-0.5" width="1" height="1" /></g>
<ellipse fill="#1e3433" fill-opacity="0.501961" cx="9" cy="219" rx="80" ry="2" />
<g transform="translate(74 79) rotate(372) scale(5 32)"><rect fill="#464c47" fill-opacity="0.501961" x="-0.5" y="-0.5" width="1" height="1" /></g>
<polygon fill="#687265" fill-opacity="0.501961" points="56,35 41,48 8,-2" />
<rect fill="#917d5c" fill-opacity="0.501961" x="108" y="102" width="9" height="3" />
<polygon fill="#918266" fill-opacity="0.501961" points="177.387083,147.448971,202.351769,146.912459,173.686551,116.325916,188.116621,117.729996" />
<rect fill="#09100e" fill-opacity="0.501961" x="76" y="161" width="2" height="11" />
<polygon fill="#65706f" fill-opacity="0.501961" points="32.115177,133.531325,28.307801,146.072281,14.341706,156.222419,15.188215,148.887601" />
<path stroke="#667f71" stroke-opacity="0.501961" fill="none" d="M 100.835687 237.775249 Q 146.368162 234.096452, 165.178558 218.461555" stroke-width="0.500000" />
<rect fill="#363831" fill-opacity="0.501961" x="123" y="105" width="36" height="2" />
<ellipse fill="#373a36" fill-opacity="0.501961" cx="96" cy="87" rx="22" ry="7" />
<polygon fill="#6c847d" fill-opacity="0.501961" points="150.246013,208.561337,145.151979,211.224718,130.718497,218.037301,145.632800,204.187282" />
<rect fill="#a9aa7a" fill-opacity="0.501961" x="129" y="130" width="7" height="6" />
<polygon fill="#aebda5" fill-opacity="0.501961" points="168.995399,32.386929,160.883367,47.671878,174.493172,44.051030,211.000000,34.600919" />
<rect fill="#1d2425" fill-opacity="0.501961" x="72" y="110" width="16" height="5" />
<rect fill="#41534e" fill-opacity="0.501961" x="57" y="203" width="14" height="15" />
<ellipse fill="#707f75" fill-opacity="0.501961" cx="83" cy="169" rx="3" ry="3" />
<rect fill="#1f292a" fill-opacity="0.501961" x="137" y="149" width="6" height="7" />
<polygon fill="#77806a" fill-opacity="0.501961" points="69.097768,50.891201,61.564850,58.437336,43.893516,73.316293,26.147195,66.128783" />
<g transform="translate(70 169) rotate(-41) scale(9 1)"><rect fill="#8a968f" fill-opacity="0.501961" x="-0.5" y="-0.5" width="1" height="1" /></g>
<rect fill="#4a6055" fill-opacity="0.501961" x="125" y="252" width="16" height="3" />
<path stroke="#ddf3e4" stroke-opacity="0.501961" fill="none" d="M 146.635781 239.829400 Q 134.296223 236.521138, 114.078232 213.533717" stroke-width="0.500000" />
<polygon fill="#323b3a" fill-opacity="0.501961" points="48.974699,152.418493,36.373463,123.703295,31.882532,121.825584,56.163788,115.231186" />
<g transform="translate(115 102) rotate(189) scale(26 1)"><rect fill="#46473e" fill-opacity="0.501961" x="-0.5" y="-0.5" width="1" height="1" /></g>
<g transform="translate(114.703818 168.127570) rotate(184.234493) scale(21.495259 1.000000)"><ellipse fill="#121b19" fill-opacity="0.501961" cx="0" cy="0" rx="1" ry="1" /></g>
<polygon fill="#3a494a" fill-opacity="0.501961" points="97.204016,225.536177,67.622984,221.895052,88.874529,223.041872,74.074921,214.161125" />
<polygon fill="#4d6453" fill-opacity="0.501961" points="160,232 146,236 175,242" />
<rect fill="#4b6258" fill-opacity="0.501961" x="108" y="236" width="14" height="2" />
<rect fill="#555a41" fill-opacity="0.501961" x="104" y="178" width="3" height="11" />
<g transform="translate(98 43) rotate(272) scale(21 1)"><rect fill="#2e2d12" fill-opacity="0.501961" x="-0.5" y="-0.5" width="1" height="1" /></g>
<ellipse fill="#8da691" fill-opacity="0.501961" cx="133" cy="243" rx="11" ry="2" />
<g transform="translate(100 248) rotate(166) scale(5 1)"><rect fill="#6a7c7b" fill-opacity="0.501961" x="-0.5" y="-0.5" width="1" height="1" /></g>
<ellipse fill="#1a2220" fill-opacity="0.501961" cx="66" cy="109" rx="29" ry="1" />
<polygon fill="#f5af4f" fill-opacity="0.501961" points="144.805708,89.664385,131.623202,77.087025,127.284309,85.532322,147.635750,97.857459" />
<g transform="translate(108 149) rotate(369) scale(12 11)"><rect fill="#2b322e" fill-opacity="0.501961" x="-0.5" y="-0.5" width="1" height="1" /></g>
<g transform="translate(154 166) rotate(75) scale(1 19)"><rect fill="#424e4e" fill-opacity="0.501961" x="-0.5" y="-0.5" width="1" height="1" /></g>
<rect fill="#5e716d" fill-opacity="0.501961" x="171" y="195" width="9" height="2" />
<g transform="translate(189 246) rotate(27) scale(28 1)"><rect fill="#698379" fill-opacity="0.501961" x="-0.5" y="-0.5" width="1" height="1" /></g>
<polygon fill="#8f9377" fill-opacity="0.501961" points="141.063744,38.363573,115.500902,46.754427,130.337853,9.721239,141.405736,19.558533" />
<polygon fill="#576e61" fill-opacity="0.501961" points="211.000000,231.218530,132.556566,224.167868,148.999853,228.539851,161.385280,227.532564" />
<rect fill="#5f6761" fill-opacity="0.501961" x="122" y="170" width="20" height="11" />
<g transform="translate(126 155) rotate(40) scale(9 4)"><rect fill="#18150e" fill-opacity="0.501961" x="-0.5" y="-0.5" width="1" height="1" /></g>
<polygon fill="#445252" fill-opacity="0.501961" points="72,163 72,152 63,157" />
<rect fill="#1f2621" fill-opacity="0.501961" x="106" y="171" width="5" height="11" />
<g transform="translate(123.448856 249.394271) rotate(266.236611) scale(1.509486 26.184993)"><ellipse fill="#2d3a31" fill-opacity="0.501961" cx="0" cy="0" rx="1" ry="1" /></g>
<rect fill="#1b2925" fill-opacity="0.501961" x="55" y="255" width="19" height="1" />
<polygon fill="#d0965d" fill-opacity="0.501961" points="142,77 126,75 134,72" />
<polygon fill="#212e2b" fill-opacity="0.501961" points="83.760823,187.805006,80.186560,169.736032,78.607000,197.546053,84.440060,194.851619" />
<ellipse fill="#000000" fill-opacity="0.501961" cx="69" cy="166" rx="1" ry="1" />
<g transform="translate(100 131) rotate(186) scale(1 14)"><rect fill="#181a16" fill-opacity="0.501961" x="-0.5" y="-0.5" width="1" height="1" /></g>
<polygon fill="#686a62" fill-opacity="0.501961" points="168.963914,135.826339,174.684352,137.967562,141.256923,141.254809,178.331751,140.622336" />
<ellipse fill="#597368" fill-opacity="0.501961" cx="193" cy="243" rx="17" ry="1" />
<ellipse fill="#e9f5f1" fill-opacity="0.501961" cx="129" cy="236" rx="2" ry="2" />
<rect fill="#4a4e47" fill-opacity="0.501961" x="42" y="110" width="17" height="4" />
<polygon fill="#26150a" fill-opacity="0.501961" points="99,182 97,177 90,191" />
<g transform="translate(88 45) rotate(64) scale(1 17)"><rect fill="#919260" fill-opacity="0.501961" x="-0.5" y="-0.5" width="1" height="1" /></g>
<polygon fill="#090c01" fill-opacity="0.501961" points="55,42 42,55 49,54" />
<rect fill="#6e7c78" fill-opacity="0.501961" x="0" y="19" width="11" height="35" />
<rect fill="#ffd054" fill-opacity="0.501961" x="160" y="88" width="10" height="4" />
<rect fill="#989a73" fill-opacity="0.501961" x="183" y="101" width="13" height="11" />
<polygon fill="#5b625c" fill-opacity="0.501961" points="135.291740,158.580093,142.189584,164.662405,120.562487,165.538171,105.686617,164.705624" />
<polygon fill="#c88b57" fill-opacity="0.501961" points="158.535109,101.739981,173.615100,128.489659,211.000000,138.454657,158.216969,117.517214" />
<rect fill="#fdcf65" fill-opacity="0.501961" x="138" y="66" width="5" height="16" />
<polygon fill="#3a2412" fill-opacity="0.501961" points="67,54 68,59 63,57" />
<ellipse fill="#1e231c" fill-opacity="0.501961" cx="123" cy="185" rx="2" ry="2" />
<ellipse fill="#bcb061" fill-opacity="0.501961" cx="104" cy="43" rx="3" ry="3" />
<g transform="translate(84 91) rotate(347) scale(1 17)"><rect fill="#1d2218" fill-opacity="0.501961" x="-0.5" y="-0.5" width="1" height="1" /></g>
<ellipse fill="#7d8b81" fill-opacity="0.501961" cx="72" cy="168" rx="5" ry="1" />
<polygon fill="#3d5450" fill-opacity="0.501961" points="142,178 161,209 133,189" />
<polygon fill="#7b7d63" fill-opacity="0.501961" points="64,-2 99,17 84,-16" />
<g transform="translate(15 135) rotate(346) scale(29 9)"><rect fill="#505957" fill-opacity="0.501961" x="-0.5" y="-0.5" width="1" height="1" /></g>
<g transform="translate(118 149) rotate(274) scale(40 1)"><rect fill="#22231b" fill-opacity="0.501961" x="-0.5" y="-0.5" width="1" height="1" /></g>
<polygon fill="#e8f9f2" fill-opacity="0.501961" points="100.781435,234.903735,137.451473,220.289819,110.001861,218.983074,124.424884,218.615658" />
<g transform="translate(188 237) rotate(171) scale(11 1)"><rect fill="#5b837a" fill-opacity="0.501961" x="-0.5" y="-0.5" width="1" height="1" /></g>
<g transform="translate(138 202) rotate(331) scale(3 36)"><rect fill="#526a63" fill-opacity="0.501961" x="-0.5" y="-0.5" width="1" height="1" /></g>
<g transform="translate(11 157) rotate(194) scale(24 11)"><rect fill="#576565" fill-opacity="0.501961" x="-0.5" y="-0.5" width="1" height="1" /></g>
<g transform="translate(73.605128 125.258936) rotate(133.082231) scale(1.000000 8.550678)"><ellipse fill="#9b9965" fill-opacity="0.501961" cx="0" cy="0" rx="1" ry="1" /></g>
<g transform="translate(118 51) rotate(255) scale(4 8)"><rect fill="#55583f" fill-opacity="0.501961" x="-0.5" y="-0.5" width="1" height="1" /></g>
<polygon fill="#2a3b3a" fill-opacity="0.501961" points="19.738505,179.815601,55.690569,220.610836,58.847265,198.683571,38.634125,221.379445" />
<g transform="translate(78 25) rotate(56) scale(4 7)"><rect fill="#444b3b" fill-opacity="0.501961" x="-0.5" y="-0.5" width="1" height="1" /></g>
<polygon fill="#b8c7b5" fill-opacity="0.501961" points="140.295814,65.426299,140.546418,55.254830,211.000000,37.944238,155.300541,57.172639" />
<polygon fill="#263433" fill-opacity="0.501961" points="160.241192,167.132186,185.503694,194.439619,177.971401,167.852696,185.882877,163.997466" />
<path stroke="#667e70" stroke-opacity="0.501961" fill="none" d="M 153.340217 235.691793 Q 108.663326 238.158696, 102.206695 252.983315" stroke-width="0.500000" />
<polygon fill="#7e7e63" fill-opacity="0.501961" points="158,113 146,112 149,108" />
<rect fill="#797c62" fill-opacity="0.501961" x="95" y="8" width="2" height="32" />
<path stroke="#555d47" stroke-opacity="0.501961" fill="none" d="M 106.823399 208.161856 Q 104.386569 175.700434, 103.438704 158.988156" stroke-width="0.500000" />
<polygon fill="#676b52" fill-opacity="0.501961" points="104.978748,118.316957,103.199125,128.683840,122.306658,129.673932,110.281102,127.721996" />
<path stroke="#23251b" stroke-opacity="0.501961" fill="none" d="M 27.133841 62.934353 Q 89.869149 30.022661, 98.196411 38.333153" stroke-width="0.500000" />
<g transform="translate(160.568583 201.041324) rotate(244.609416) scale(8.643245 5.841755)"><ellipse fill="#20312d" fill-opacity="0.501961" cx="0" cy="0" rx="1" ry="1" /></g>
<g transform="translate(164 234) rotate(249) scale(1 3)"><rect fill="#87998b" fill-opacity="0.501961" x="-0.5" y="-0.5" width="1" height="1" /></g>
<polygon fill="#182624" fill-opacity="0.501961" points="62.315640,129.655730,51.044947,111.942024,65.138693,145.806713,68.759087,156.625208" />
<g transform="translate(166 112) rotate(114) scale(1 15)"><rect fill="#ffa653" fill-opacity="0.501961" x="-0.5" y="-0.5" width="1" height="1" /></g>
<g transform="translate(92 38) rotate(222) scale(1 11)"><rect fill="#3b2111" fill-opacity="0.501961" x="-0.5" y="-0.5" width="1" height="1" /></g>
<rect fill="#43463e" fill-opacity="0.501961" x="87" y="113" width="14" height="4" />
<polygon fill="#213634" fill-opacity="0.501961" points="6,197 -16,144 -7,220" />
<polygon fill="#525753" fill-opacity="0.501961" points="48.200925,99.701056,1.001949,92.279629,14.058258,99.333466,41.392315,106.594470" />
<ellipse fill="#1e2923" fill-opacity="0.501961" cx="127" cy="48" rx="1" ry="1" />
<polygon fill="#a9b7a4" fill-opacity="0.501961" points="131.982593,62.715305,136.083524,52.391045,162.473234,54.780841,125.751293,48.830903" />
<polygon fill="#2b2c29" fill-opacity="0.501961" points="81.234937,94.240394,53.479990,118.859525,85.615935,100.430592,133.709370,95.998129" />
<g transform="translate(108 105) rotate(66) scale(1 9)"><rect fill="#7c6f55" fill-opacity="0.501961" x="-0.5" y="-0.5" width="1" height="1" /></g>
<polygon fill="#becbaa" fill-opacity="0.501961" points="141,80 161,74 150,68" />
<ellipse fill="#e0fbe8" fill-opacity="0.501961" cx="136" cy="234" rx="2" ry="2" />
<polygon fill="#677f6e" fill-opacity="0.501961" points="133.085738,247.847076,175.483648,271.000000,159.704982,248.883855,149.150378,271.000000" />
<path stroke="#787b64" stroke-opacity="0.501961" fill="none" d="M 74.138342 44.944865 Q 67.320946 50.237375, 38.717439 82.236166" stroke-width="0.500000" />
<ellipse fill="#bc8c57" fill-opacity="0.501961" cx="156" cy="102" rx="3" ry="3" />
<polygon fill="#6b6d59" fill-opacity="0.501961" points="99.562338,133.297618,91.330027,137.126499,100.238847,134.782009,155.246001,116.236362" />
<g transform="translate(180.320733 17.930782) rotate(46.953832) scale(8.852047 23.240802)"><ellipse fill="#9ca18b" fill-opacity="0.501961" cx="0" cy="0" rx="1" ry="1" /></g>
<rect fill="#8ca391" fill-opacity="0.501961" x="129" y="255" width="56" height="1" />
<polygon fill="#a5a478" fill-opacity="0.501961" points="123.385424,112.415126,130.317631,126.933700,141.406110,120.927475,125.583896,122.974607" />
<polygon fill="#393a2d" fill-opacity="0.501961" points="88.771026,136.146659,68.570174,140.749411,72.199099,126.734628,80.392394,135.446762" />
<ellipse fill="#d6f4ea" fill-opacity="0.501961" cx="190" cy="240" rx="8" ry="1" />
<polygon fill="#9fbaab" fill-opacity="0.501961" points="141.092147,271.000000,148.512674,271.000000,170.168284,266.305519,198.720938,249.931317" />
<polygon fill="#80836a" fill-opacity="0.501961" points="77,22 100,-5 67,15" />
<polygon fill="#676a54" fill-opacity="0.501961" points="139,123 142,105 135,106" />
<g transform="translate(103 47) rotate(187) scale(8 6)"><rect fill="#9a915b" fill-opacity="0.501961" x="-0.5" y="-0.5" width="1" height="1" /></g>
<path stroke="#2b3937" stroke-opacity="0.501961" fill="none" d="M 124.189780 240.574605 Q 74.949875 243.608357, 23.557672 234.833617" stroke-width="0.500000" />
<path stroke="#2a2f28" stroke-opacity="0.501961" fill="none" d="M 79.136938 109.888342 Q 101.065515 177.185691, 70.552931 186.577886" stroke-width="0.500000" />
<rect fill="#c68c75" fill-opacity="0.501961" x="131" y="90" width="4" height="4" />
<polygon fill="#f0fefa" fill-opacity="0.501961" points="139.289048,223.646963,134.715004,220.313768,125.909223,210.628649,110.349748,222.309387" />
<path stroke="#525f58" stroke-opacity="0.501961" fill="none" d="M 88.328054 176.971691 Q 61.995462 179.707877, 45.947345 177.560524" stroke-width="0.500000" />
<polygon fill="#797966" fill-opacity="0.501961" points="137,103 152,101 133,95" />
<rect fill="#cbb469" fill-opacity="0.501961" x="148" y="84" width="24" height="2" />
<polygon fill="#222c2c" fill-opacity="0.501961" points="37.131143,250.524361,35.044957,264.151221,45.524770,251.623375,72.952715,241.125835" />
<g transform="translate(158 19) rotate(274) scale(23 20)"><rect fill="#949980" fill-opacity="0.501961" x="-0.5" y="-0.5" width="1" height="1" /></g>
<rect fill="#505747" fill-opacity="0.501961" x="66" y="57" width="14" height="5" />
<polygon fill="#6d6f59" fill-opacity="0.501961" points="104.196373,52.084660,88.383372,58.182462,84.401074,68.985635,116.584553,51.839355" />
<path stroke="#849980" stroke-opacity="0.501961" fill="none" d="M 130.748989 208.270677 Q 118.227661 209.628296, 101.675678 217.372766" stroke-width="0.500000" />
<polygon fill="#61645b" fill-opacity="0.501961" points="37,115 46,117 30,118" />
<rect fill="#5c685f" fill-opacity="0.501961" x="55" y="177" width="24" height="6" />
<rect fill="#383f35" fill-opacity="0.501961" x="119" y="195" width="2" height="11" />
<rect fill="#7c8168" fill-opacity="0.501961" x="120" y="112" width="2" height="17" />
<path stroke="#6f7664" stroke-opacity="0.501961" fill="none" d="M 67.434308 50.449355 Q 55.177487 47.136103, 4.295443 96.917463" stroke-width="0.500000" />
<polygon fill="#121c1e" fill-opacity="0.501961" points="156,170 149,167 157,188" />
<rect fill="#17201e" fill-opacity="0.501961" x="42" y="184" width="6" height="16" />
<g transform="translate(87 191) rotate(357) scale(5 23)"><rect fill="#000103" fill-opacity="0.501961" x="-0.5" y="-0.5" width="1" height="1" /></g>
<ellipse fill="#5f5c4b" fill-opacity="0.501961" cx="96" cy="153" rx="2" ry="2" />
<path stroke="#1e2216" stroke-opacity="0.501961" fill="none" d="M 86.136173 16.496831 Q 52.329345 41.913120, 47.052771 57.778289" stroke-width="0.500000" />
<polygon fill="#39352b" fill-opacity="0.501961" points="86.798544,169.678716,94.146457,146.985393,94.486055,153.932777,84.196679,166.491374" />
<ellipse fill="#a4bc96" fill-opacity="0.501961" cx="113" cy="212" rx="2" ry="2" />
<rect fill="#b0d1b5" fill-opacity="0.501961" x="121" y="236" width="3" height="3" />
<rect fill="#6d7d7a" fill-opacity="0.501961" x="29" y="255" width="12" height="1" />
<polygon fill="#626f68" fill-opacity="0.501961" points="53,165 65,167 58,190" />
<g transform="translate(193 233) rotate(190) scale(52 1)"><rect fill="#374c44" fill-opacity="0.501961" x="-0.5" y="-0.5" width="1" height="1" /></g>
<polygon fill="#f1fff5" fill-opacity="0.501961" points="110.531728,221.952806,110.435522,217.605655,131.690834,219.761017,119.683213,210.536521" />
<ellipse fill="#9cc2a2" fill-opacity="0.501961" cx="114" cy="233" rx="9" ry="2" />
<path stroke="#93ad9e" stroke-opacity="0.501961" fill="none" d="M 148.361897 241.802634 Q 168.971871 252.121629, 192.101094 241.098146" stroke-width="0.500000" />
<polygon fill="#746e40" fill-opacity="0.501961" points="115,66 120,86 110,69" />
<polygon fill="#3c433d" fill-opacity="0.501961" points="67.464944,110.273369,96.951147,102.505215,67.377869,114.938206,75.040603,126.231566" />
<rect fill="#2b3836" fill-opacity="0.501961" x="80" y="236" width="20" height="12" />
<g transform="translate(133.281012 146.102646) rotate(233.148413) scale(4.010375 9.255762)"><ellipse fill="#434337" fill-opacity="0.501961" cx="0" cy="0" rx="1" ry="1" /></g>
<polygon fill="#9c8664" fill-opacity="0.501961" points="193.113629,125.347561,177.852096,144.499567,211.000000,129.477350,201.280563,172.493714" />
<polygon fill="#4c564c" fill-opacity="0.501961" points="111.865643,171.156821,145.239963,187.454418,121.140019,173.735749,109.339939,181.986457" />
<g transform="translate(66 126) rotate(236) scale(9 1)"><rect fill="#7c7b53" fill-opacity="0.501961" x="-0.5" y="-0.5" width="1" height="1" /></g>
<g transform="translate(155 250) rotate(276) scale(1 7)"><rect fill="#c6d7c7" fill-opacity="0.501961" x="-0.5" y="-0.5" width="1" height="1" /></g>
<rect fill="#687e77" fill-opacity="0.501961" x="176" y="226" width="8" height="3" />
<polygon fill="#b8c8b9" fill-opacity="0.501961" points="147.513634,62.169112,148.984793,68.525360,176.625985,78.900326,188.871332,71.527951" />
<polygon fill="#516865" fill-opacity="0.501961" points="187,202 208,222 171,221" />
</g>
</svg>