<svg xmlns="http://www.w3.org/2000/svg" version="1.1" width="1024" height="1024">
<rect x="0" y="0" width="1024" height="1024" fill="#3d3317" />
<g transform="scale(4.000000) translate(0.5 0.5)">
<g transform="translate(77.496151 95.161295) rotate(266.480673) scale(60.397147 36.898448)"><ellipse fill="#ff8112" fill-opacity="0.501961" cx="0" cy="0" rx="1" ry="1" /></g>
<g transform="translate(80 90) rotate(255) scale(51 35)"><rect fill="#ffb71d" fill-opacity="0.501961" x="-0.5" y="-0.5" width="1" height="1" /></g>
<g transform="translate(139.753642 168.865576) rotate(362.771773) scale(38.013232 58.372702)"><ellipse fill="#000806" fill-opacity="0.501961" cx="0" cy="0" rx="1" ry="1" /></g>
<ellipse fill="#0e2616" fill-opacity="0.501961" cx="255" cy="88" rx="122" ry="122" />
<g transform="translate(54.564617 120.018850) rotate(147.683210) scale(29.459064 56.509388)"><ellipse fill="#9a3b0f" fill-opacity="0.501961" cx="0" cy="0" rx="1" ry="1" /></g>
<g transform="translate(205.790905 255.000000) rotate(-36.037905) scale(40.519165 48.325088)"><ellipse fill="#476c3d" fill-opacity="0.501961" cx="0" cy="0" rx="1" ry="1" /></g>
<g transform="translate(14 201) rotate(224) scale(153 88)"><rect fill="#181e14" fill-opacity="0.501961" x="-0.5" y="-0.5" width="1" height="1" /></g>
<g transform="translate(184.671912 75.726343) rotate(360.971163) scale(8.339153 57.614925)"><ellipse fill="#436940" fill-opacity="0.501961" cx="0" cy="0" rx="1" ry="1" /></g>
<g transform="translate(84.898723 38.017371) rotate(221.611132) scale(29.848178 16.662441)"><ellipse fill="#745728" fill-opacity="0.501961" cx="0" cy="0" rx="1" ry="1" /></g>
<g transform="translate(103.282649 108.463376) rotate(250.582905) scale(11.138808 28.594234)"><ellipse fill="#cd520c" fill-opacity="0.501961" cx="0" cy="0" rx="1" ry="1" /></g>
<polygon fill="#fff428" fill-opacity="0.501961" points="78.395641,97.477490,100.158338,99.716529,80.301160,66.623004,74.197659,81.376916" />
<g transform="translate(109 130) rotate(237) scale(24 25)"><rect fill="#3a0a00" fill-opacity="0.501961" x="-0.5" y="-0.5" width="1" height="1" /></g>
<ellipse fill="#121212" fill-opacity="0.501961" cx="241" cy="16" rx="58" ry="46" />
<g transform="translate(131.262457 19.519243) rotate(240.476780) scale(51.066534 22.440378)"><ellipse fill="#182318" fill-opacity="0.501961" cx="0" cy="0" rx="1" ry="1" /></g>
<g transform="translate(36.723888 66.900014) rotate(388.246210) scale(15.864617 44.185033)"><ellipse fill="#673919" fill-opacity="0.501961" cx="0" cy="0" rx="1" ry="1" /></g>
<g transform="translate(20.370705 15.993991) rotate(140.960512) scale(148.654602 22.640689)"><ellipse fill="#1d1715" fill-opacity="0.501961" cx="0" cy="0" rx="1" ry="1" /></g>
<g transform="translate(68 102) rotate(345) scale(24 33)"><rect fill="#f26e14" fill-opacity="0.501961" x="-0.5" y="-0.5" width="1" height="1" /></g>
<g transform="translate(122.796879 218.316215) rotate(84.774626) scale(32.794759 58.514583)"><ellipse fill="#222b1e" fill-opacity="0.501961" cx="0" cy="0" rx="1" ry="1" /></g>
<polygon fill="#613b12" fill-opacity="0.501961" points="135,119 151,87 85,31" />
<g transform="translate(177 139) rotate(76) scale(65 13)"><rect fill="#3a5830" fill-opacity="0.501961" x="-0.5" y="-0.5" width="1" height="1" /></g>
<rect fill="#653a12" fill-opacity="0.501961" x="33" y="144" width="72" height="27" />
<rect fill="#ee7513" fill-opacity="0.501961" x="92" y="73" width="13" height="35" />
<g transform="translate(239.979254 220.410955) rotate(213.373508) scale(89.441676 18.923721)"><ellipse fill="#263d1d" fill-opacity="0.501961" cx="0" cy="0" rx="1" ry="1" /></g>
<g transform="translate(157.212711 77.356385) rotate(193.812872) scale(19.352036 41.530112)"><ellipse fill="#311c03" fill-opacity="0.501961" cx="0" cy="0" rx="1" ry="1" /></g>
<g transform="translate(69 59) rotate(17) scale(17 35)"><rect fill="#d17220" fill-opacity="0.501961" x="-0.5" y="-0.5" width="1" height="1" /></g>
<polygon fill="#813d12" fill-opacity="0.501961" points="67,158 44,68 21,92" />
<g transform="translate(143.852562 163.868551) rotate(325.658862) scale(12.587071 50.554909)"><ellipse fill="#0e0c02" fill-opacity="0.501961" cx="0" cy="0" rx="1" ry="1" /></g>
<polygon fill="#8e330f" fill-opacity="0.501961" points="109,132 82,113 100,160" />
<polygon fill="#2b200e" fill-opacity="0.501961" points="-16.000000,173.214669,-11.249602,221.617535,41.305356,133.793786,-1.032756,90.418436" />
<ellipse fill="#373f27" fill-opacity="0.501961" cx="93" cy="254" rx="77" ry="18" />
<ellipse fill="#715026" fill-opacity="0.501961" cx="92" cy="42" rx="9" ry="27" />
<g transform="translate(199.872089 239.094264) rotate(153.624194) scale(14.869390 38.019315)"><ellipse fill="#4d6032" fill-opacity="0.501961" cx="0" cy="0" rx="1" ry="1" /></g>
<rect fill="#53825c" fill-opacity="0.501961" x="179" y="60" width="9" height="22" />
<g transform="translate(122.677433 110.852850) rotate(147.989437) scale(23.844179 9.891263)"><ellipse fill="#6f390c" fill-opacity="0.501961" cx="0" cy="0" rx="1" ry="1" /></g>
<g transform="translate(231.309163 79.732224) rotate(103.033310) scale(40.685113 29.690207)"><ellipse fill="#1d2016" fill-opacity="0.501961" cx="0" cy="0" rx="1" ry="1" /></g>
<polygon fill="#51764d" fill-opacity="0.501961" points="186.830850,157.175276,188.027670,135.415178,175.172745,103.920455,177.354138,107.679603" />
<g transform="translate(69.367828 176.842172) rotate(330.852602) scale(28.708393 13.940165)"><ellipse fill="#492e10" fill-opacity="0.501961" cx="0" cy="0" rx="1" ry="1" /></g>
<rect fill="#b93707" fill-opacity="0.501961" x="49" y="90" width="19" height="16" />
<g transform="translate(88.618019 8.396364) rotate(177.181854) scale(39.323431 15.140265)"><ellipse fill="#2f3723" fill-opacity="0.501961" cx="0" cy="0" rx="1" ry="1" /></g>
<g transform="translate(243 241) rotate(165) scale(44 41)"><rect fill="#3c4b27" fill-opacity="0.501961" x="-0.5" y="-0.5" width="1" height="1" /></g>
<polygon fill="#924e1a" fill-opacity="0.501961" points="22,86 38,127 49,92" />
<g transform="translate(99.015445 73.355232) rotate(318.251595) scale(5.792953 41.508638)"><ellipse fill="#af5416" fill-opacity="0.501961" cx="0" cy="0" rx="1" ry="1" /></g>
<ellipse fill="#fee928" fill-opacity="0.501961" cx="83" cy="84" rx="9" ry="9" />
<polygon fill="#ec901d" fill-opacity="0.501961" points="83,94 51,111 102,106" />
<rect fill="#2d3e2a" fill-opacity="0.501961" x="186" y="39" width="19" height="58" />
<g transform="translate(240.666348 151.382440) rotate(52.029969) scale(33.822553 23.268700)"><ellipse fill="#2b3a18" fill-opacity="0.501961" cx="0" cy="0" rx="1" ry="1" /></g>
<ellipse fill="#4b2e16" fill-opacity="0.501961" cx="41" cy="36" rx="22" ry="17" />
<polygon fill="#251f12" fill-opacity="0.501961" points="-16,12 2,136 18,6" />
<polygon fill="#702507" fill-opacity="0.501961" points="88.266704,131.652202,-16.000000,76.879157,78.281811,125.754267,91.518985,114.745839" />
<g transform="translate(156.815880 199.215519) rotate(60.789075) scale(13.891400 25.698231)"><ellipse fill="#171b10" fill-opacity="0.501961" cx="0" cy="0" rx="1" ry="1" /></g>
<rect fill="#7d5b23" fill-opacity="0.501961" x="64" y="28" width="34" height="10" />
<polygon fill="#3c3c1f" fill-opacity="0.501961" points="135.093661,83.372237,148.032987,58.613283,82.776751,-0.393762,128.910853,93.192852" />
<g transform="translate(178.303145 107.347443) rotate(33.576218) scale(22.226828 6.006982)"><ellipse fill="#1e2917" fill-opacity="0.501961" cx="0" cy="0" rx="1" ry="1" /></g>
<g transform="translate(124.322191 145.260311) rotate(301.205941) scale(39.247967 13.461850)"><ellipse fill="#221503" fill-opacity="0.501961" cx="0" cy="0" rx="1" ry="1" /></g>
<g transform="translate(100.666233 208.020639) rotate(119.818408) scale(17.860555 43.186087)"><ellipse fill="#2c2814" fill-opacity="0.501961" cx="0" cy="0" rx="1" ry="1" /></g>
<rect fill="#6e9270" fill-opacity="0.501961" x="177" y="123" width="6" height="7" />
<g transform="translate(217.743886 174.409742) rotate(239.320789) scale(42.708663 15.402482)"><ellipse fill="#1d2c0c" fill-opacity="0.501961" cx="0" cy="0" rx="1" ry="1" /></g>
<polygon fill="#ea8e1a" fill-opacity="0.501961" points="63,78 72,99 82,53" />
<polygon fill="#3a6340" fill-opacity="0.501961" points="192.232132,69.069794,195.922496,96.717054,197.887767,97.345125,184.856352,104.408758" />
<polygon fill="#573d19" fill-opacity="0.501961" points="107,34 129,73 89,59" />
<g transform="translate(50.320410 146.098035) rotate(141.173782) scale(13.078831 16.614025)"><ellipse fill="#6d4316" fill-opacity="0.501961" cx="0" cy="0" rx="1" ry="1" /></g>
<g transform="translate(155.397937 246.168431) rotate(128.196194) scale(66.592531 8.126653)"><ellipse fill="#374427" fill-opacity="0.501961" cx="0" cy="0" rx="1" ry="1" /></g>
<g transform="translate(76.553656 130.409758) rotate(220.680606) scale(25.873652 6.230531)"><ellipse fill="#b14410" fill-opacity="0.501961" cx="0" cy="0" rx="1" ry="1" /></g>
<rect fill="#683713" fill-opacity="0.501961" x="31" y="43" width="23" height="44" />
<rect fill="#497338" fill-opacity="0.501961" x="183" y="30" width="6" height="27" />
<g transform="translate(154.918862 14.259737) rotate(315.711670) scale(42.298073 28.325987)"><ellipse fill="#222915" fill-opacity="0.501961" cx="0" cy="0" rx="1" ry="1" /></g>
<polygon fill="#692e08" fill-opacity="0.501961" points="30.525376,131.602962,51.565512,136.673137,49.907494,130.717673,52.909465,103.468944" />
<ellipse fill="#4f381a" fill-opacity="0.501961" cx="18" cy="102" rx="6" ry="44" />
<polygon fill="#272d10" fill-opacity="0.501961" points="180.361787,27.844127,183.662480,66.358145,141.579688,17.258588,206.591052,24.746134" />
<g transform="translate(132.589818 184.741190) rotate(59.828339) scale(12.330525 9.147528)"><ellipse fill="#293226" fill-opacity="0.501961" cx="0" cy="0" rx="1" ry="1" /></g>
<g transform="translate(106.663154 107.413264) rotate(61.329119) scale(12.799056 10.319935)"><ellipse fill="#bc5a13" fill-opacity="0.501961" cx="0" cy="0" rx="1" ry="1" /></g>
<polygon fill="#a43d0e" fill-opacity="0.501961" points="64.089214,84.616285,41.724558,73.095949,67.951706,70.329547,45.783236,61.954204" />
<polygon fill="#090a03" fill-opacity="0.501961" points="136.880777,164.692233,105.151727,185.040532,148.820861,130.839895,150.515429,209.606803" />
<polygon fill="#dc7f19" fill-opacity="0.501961" points="65,112 80,121 88,114" />
<polygon fill="#351f06" fill-opacity="0.501961" points="167,53 169,87 120,90" />
<polygon fill="#212111" fill-opacity="0.501961" points="137.676819,100.468900,165.585334,105.199976,179.106848,166.576166,151.744008,163.492030" />
<polygon fill="#4a6c47" fill-opacity="0.501961" points="175.555731,144.089222,166.397462,104.564980,171.552035,116.573385,168.574929,102.161248" />
<polygon fill="#546d3a" fill-opacity="0.501961" points="184,171 179,189 185,186" />
<ellipse fill="#161e11" fill-opacity="0.501961" cx="209" cy="124" rx="5" ry="47" />
<g transform="translate(87.613682 171.635168) rotate(254.926615) scale(24.712917 4.319758)"><ellipse fill="#482907" fill-opacity="0.501961" cx="0" cy="0" rx="1" ry="1" /></g>
<rect fill="#dd6e14" fill-opacity="0.501961" x="96" y="71" width="6" height="48" />
<g transform="translate(11.814813 186.936381) rotate(349.664206) scale(13.824447 44.683730)"><ellipse fill="#211f12" fill-opacity="0.501961" cx="0" cy="0" rx="1" ry="1" /></g>
<g transform="translate(66 82) rotate(230) scale(21 1)"><rect fill="#eec13c" fill-opacity="0.501961" x="-0.5" y="-0.5" width="1" height="1" /></g>
<ellipse fill="#2c3019" fill-opacity="0.501961" cx="17" cy="239" rx="79" ry="14" />
<g transform="translate(97 150) rotate(110) scale(34 11)"><rect fill="#7c4014" fill-opacity="0.501961" x="-0.5" y="-0.5" width="1" height="1" /></g>
<polygon fill="#3d2f20" fill-opacity="0.501961" points="70,183 29,152 52,205" />
<polygon fill="#431a04" fill-opacity="0.501961" points="116,126 121,115 85,128" />
<polygon fill="#c5460a" fill-opacity="0.501961" points="50,100 67,89 58,78" />
<g transform="translate(90 70) rotate(46) scale(53 5)"><rect fill="#d26912" fill-opacity="0.501961" x="-0.5" y="-0.5" width="1" height="1" /></g>
<polygon fill="#9c5717" fill-opacity="0.501961" points="72,54 62,25 114,77" />
<g transform="translate(215 42) rotate(401) scale(41 46)"><rect fill="#22241c" fill-opacity="0.501961" x="-0.5" y="-0.5" width="1" height="1" /></g>
<polygon fill="#db9618" fill-opacity="0.501961" points="65.353553,47.932792,95.319989,84.518826,76.558609,71.568106,77.989136,48.812170" />
<ellipse fill="#161a0b" fill-opacity="0.501961" cx="246" cy="19" rx="13" ry="48" />
<polygon fill="#56653a" fill-opacity="0.501961" points="195,226 208,271 181,231" />
<polygon fill="#402c1a" fill-opacity="0.501961" points="6.004551,70.399381,8.961635,105.314996,34.564448,44.705938,18.456281,26.799756" />
<polygon fill="#bc5416" fill-opacity="0.501961" points="88.023662,143.726338,84.255425,133.850769,65.101853,124.733646,97.594656,130.886525" />
<g transform="translate(124.473851 224.090478) rotate(317.532577) scale(13.312006 27.644933)"><ellipse fill="#272c1e" fill-opacity="0.501961" cx="0" cy="0" rx="1" ry="1" /></g>
<polygon fill="#5e905f" fill-opacity="0.501961" points="177.259207,64.105561,175.018933,63.864167,185.266245,65.874884,183.357762,75.205586" />
<rect fill="#35250c" fill-opacity="0.501961" x="122" y="104" width="9" height="42" />
<g transform="translate(195.140574 0.000000) rotate(80.459724) scale(33.914649 24.849714)"><ellipse fill="#1a1e12" fill-opacity="0.501961" cx="0" cy="0" rx="1" ry="1" /></g>
<polygon fill="#272f16" fill-opacity="0.501961" points="168,191 185,199 165,140" />
<rect fill="#6c582b" fill-opacity="0.501961" x="78" y="26" width="23" height="20" />
<polygon fill="#c35815" fill-opacity="0.501961" points="75.820364,133.439359,71.087313,147.081692,56.407665,82.780674,64.412526,125.362109" />
<g transform="translate(156 10) rotate(213) scale(20 19)"><rect fill="#313b20" fill-opacity="0.501961" x="-0.5" y="-0.5" width="1" height="1" /></g>
<rect fill="#75310a" fill-opacity="0.501961" x="76" y="136" width="6" height="37" />
<g transform="translate(117 86) rotate(184) scale(10 15)"><rect fill="#6b4618" fill-opacity="0.501961" x="-0.5" y="-0.5" width="1" height="1" /></g>
<g transform="translate(24.219461 104.002608) rotate(71.830526) scale(15.818385 7.177682)"><ellipse fill="#6a451c" fill-opacity="0.501961" cx="0" cy="0" rx="1" ry="1" /></g>
<g transform="translate(149.734333 59.570159) rotate(288.104332) scale(26.481998 4.699310)"><ellipse fill="#171c0f" fill-opacity="0.501961" cx="0" cy="0" rx="1" ry="1" /></g>
<polygon fill="#432a0b" fill-opacity="0.501961" points="145,104 129,92 172,62" />
<polygon fill="#0e1002" fill-opacity="0.501961" points="124,198 103,162 106,184" />
<polygon fill="#513a0c" fill-opacity="0.501961" points="87.230799,198.133259,92.871549,155.330033,102.311168,176.903105,71.966153,166.040576" />
<g transform="translate(46 146) rotate(337) scale(7 12)"><rect fill="#875922" fill-opacity="0.501961" x="-0.5" y="-0.5" width="1" height="1" /></g>
<g transform="translate(57.105313 62.082949) rotate(136.426867) scale(13.404831 4.027376)"><ellipse fill="#a34716" fill-opacity="0.501961" cx="0" cy="0" rx="1" ry="1" /></g>
<rect fill="#f7c025" fill-opacity="0.501961" x="83" y="93" width="4" height="15" />
<polygon fill="#202d0d" fill-opacity="0.501961" points="175,147 178,137 195,132" />
<polygon fill="#29321e" fill-opacity="0.501961" points="219,86 220,137 256,150" />
<polygon fill="#9e370c" fill-opacity="0.501961" points="50.727849,134.707376,67.749262,134.677847,44.029588,105.065998,56.466494,108.014400" />
<polygon fill="#36290f" fill-opacity="0.501961" points="127.176995,139.919096,112.997845,170.260390,138.167885,101.470541,107.775368,167.719414" />
<g transform="translate(87 123) rotate(90) scale(11 8)"><rect fill="#701e01" fill-opacity="0.501961" x="-0.5" y="-0.5" width="1" height="1" /></g>
<polygon fill="#282014" fill-opacity="0.501961" points="19.714907,-16.000000,65.127619,11.004156,44.125345,35.519002,35.025515,-16.000000" />
<polygon fill="#2d3125" fill-opacity="0.501961" points="165.337449,221.270090,152.564360,243.002530,136.859970,241.613641,152.342343,204.443557" />
<polygon fill="#cd6a1c" fill-opacity="0.501961" points="60.587431,58.984014,63.128054,78.801629,76.907505,70.710837,74.672856,63.661420" />
<rect fill="#5a340f" fill-opacity="0.501961" x="164" y="43" width="6" height="11" />
<polygon fill="#f4e32a" fill-opacity="0.501961" points="84.032996,91.814549,82.462790,84.626847,82.743036,77.202886,98.983628,95.940852" />
<polygon fill="#48573b" fill-opacity="0.501961" points="168.761486,118.441101,165.860828,122.756403,161.253405,107.052982,162.635347,115.984748" />
<rect fill="#671500" fill-opacity="0.501961" x="69" y="120" width="6" height="5" />
<polygon fill="#8f4f12" fill-opacity="0.501961" points="112,100 137,97 131,105" />
<ellipse fill="#32361f" fill-opacity="0.501961" cx="255" cy="126" rx="7" ry="36" />
<polygon fill="#bf4b09" fill-opacity="0.501961" points="73,127 81,105 82,115" />
<polygon fill="#593e1c" fill-opacity="0.501961" points="7.680621,63.853455,34.744622,88.537170,38.737522,81.059487,43.454096,70.188966" />
<polygon fill="#29230e" fill-opacity="0.501961" points="119,94 134,77 160,80" />
<polygon fill="#1b0f01" fill-opacity="0.501961" points="130,119 119,135 106,125" />
<polygon fill="#2e3c1e" fill-opacity="0.501961" points="195.699173,220.705558,267.441252,222.267178,188.456030,191.911329,197.057159,219.215840" />
<polygon fill="#1c1b07" fill-opacity="0.501961" points="180,80 163,79 141,119" />
<polygon fill="#553b12" fill-opacity="0.501961" points="128,121 148,92 137,88" />
<rect fill="#4a6b46" fill-opacity="0.501961" x="179" y="117" width="2" height="22" />
<polygon fill="#5f2c0d" fill-opacity="0.501961" points="100.621118,117.570423,98.635713,142.118734,131.692410,102.638019,119.194812,122.869274" />
<polygon fill="#2d280d" fill-opacity="0.501961" points="84.442431,168.530124,117.629557,195.978837,106.749832,215.781832,87.694087,180.098313" />
<polygon fill="#7f481a" fill-opacity="0.501961" points="80.831143,54.517429,96.584145,69.157820,79.400703,39.389311,123.299138,81.824732" />
<g transform="translate(28 92) rotate(253) scale(17 7)"><rect fill="#8a5325" fill-opacity="0.501961" x="-0.5" y="-0.5" width="1" height="1" /></g>
<polygon fill="#ac7228" fill-opacity="0.501961" points="90.307311,51.026341,62.552080,49.957650,65.969509,69.070220,58.052850,43.051656" />
<polygon fill="#9a3e13" fill-opacity="0.501961" points="92.565823,142.399222,56.026231,147.420963,104.650717,149.424217,91.363738,110.904617" />
<polygon fill="#2e3b1e" fill-opacity="0.501961" points="191.124420,171.267928,167.652192,85.312620,186.245398,94.536150,176.756724,115.808302" />
<g transform="translate(170 112) rotate(77) scale(8 1)"><rect fill="#638e61" fill-opacity="0.501961" x="-0.5" y="-0.5" width="1" height="1" /></g>
<ellipse fill="#403c23" fill-opacity="0.501961" cx="104" cy="251" rx="10" ry="21" />
<polygon fill="#4f5d31" fill-opacity="0.501961" points="175,219 168,271 180,256" />
<polygon fill="#e3640e" fill-opacity="0.501961" points="81,109 80,93 68,93" />
<ellipse fill="#4c503e" fill-opacity="0.501961" cx="204" cy="53" rx="3" ry="3" />
<polygon fill="#28361b" fill-opacity="0.501961" points="203.519757,175.722436,166.970550,171.502238,190.841155,170.301030,200.548278,139.054398" />
<polygon fill="#486f49" fill-opacity="0.501961" points="184.368814,67.136051,184.226780,85.763380,181.692986,88.917477,179.232431,83.064150" />
<polygon fill="#354a1e" fill-opacity="0.501961" points="187.227847,49.321216,180.689066,20.679007,173.577374,27.002535,170.854847,23.481962" />
<polygon fill="#1a210d" fill-opacity="0.501961" points="191,65 188,56 187,77" />
<g transform="translate(91 7) rotate(349) scale(13 40)"><rect fill="#464525" fill-opacity="0.501961" x="-0.5" y="-0.5" width="1" height="1" /></g>
<g transform="translate(59 37) rotate(269) scale(14 10)"><rect fill="#593b12" fill-opacity="0.501961" x="-0.5" y="-0.5" width="1" height="1" /></g>
<g transform="translate(30.402651 179.524955) rotate(335.863586) scale(11.380003 38.001306)"><ellipse fill="#2c2814" fill-opacity="0.501961" cx="0" cy="0" rx="1" ry="1" /></g>
<g transform="translate(225.187398 155.159522) rotate(405.540842) scale(16.245251 10.352385)"><ellipse fill="#293a0f" fill-opacity="0.501961" cx="0" cy="0" rx="1" ry="1" /></g>
<polygon fill="#3a2305" fill-opacity="0.501961" points="66.734331,174.324372,70.130209,161.481831,70.641189,160.639813,82.871125,191.172909" />
<rect fill="#385d39" fill-opacity="0.501961" x="192" y="45" width="2" height="59" />
<g transform="translate(71 217) rotate(300) scale(24 36)"><rect fill="#232211" fill-opacity="0.501961" x="-0.5" y="-0.5" width="1" height="1" /></g>
<ellipse fill="#c5450d" fill-opacity="0.501961" cx="93" cy="118" rx="4" ry="7" />
<polygon fill="#1e2918" fill-opacity="0.501961" points="208.630646,65.851816,189.479379,119.358326,189.813912,87.463409,205.271688,171.805306" />
<polygon fill="#2c2f1e" fill-opacity="0.501961" points="109,197 116,242 139,187" />
<polygon fill="#202b12" fill-opacity="0.501961" points="271,210 219,212 213,175" />
<polygon fill="#da8523" fill-opacity="0.501961" points="74,103 55,107 76,118" />
<ellipse fill="#26311e" fill-opacity="0.501961" cx="143" cy="36" rx="4" ry="35" />
<polygon fill="#3b4c25" fill-opacity="0.501961" points="236.063613,230.649275,183.570147,205.632774,179.330308,163.788310,178.635997,209.852524" />
<polygon fill="#523811" fill-opacity="0.501961" points="47.264240,156.788810,72.514198,192.131318,69.686894,178.509691,53.039781,147.175420" />
<polygon fill="#13150d" fill-opacity="0.501961" points="130.813318,224.109391,128.037394,222.258504,150.454095,165.296288,157.905099,194.433141" />
<g transform="translate(187 125) rotate(-56) scale(6 7)"><rect fill="#40632d" fill-opacity="0.501961" x="-0.5" y="-0.5" width="1" height="1" /></g>
<rect fill="#965723" fill-opacity="0.501961" x="103" y="65" width="9" height="15" />
<g transform="translate(180.853771 66.346904) rotate(149.738606) scale(1.371789 5.081446)"><ellipse fill="#639768" fill-opacity="0.501961" cx="0" cy="0" rx="1" ry="1" /></g>
<polygon fill="#252f15" fill-opacity="0.501961" points="192.066323,162.229933,224.237628,186.127095,159.501790,206.217876,172.143116,229.243356" />
<polygon fill="#4d3d1b" fill-opacity="0.501961" points="102.662833,64.555353,100.194411,36.132055,141.146515,71.383300,123.882646,82.593169" />
<ellipse fill="#1c2011" fill-opacity="0.501961" cx="238" cy="80" rx="6" ry="51" />
<polygon fill="#170f02" fill-opacity="0.501961" points="102,171 123,129 111,124" />
<ellipse fill="#883c0b" fill-opacity="0.501961" cx="50" cy="78" rx="7" ry="7" />
<polygon fill="#58350f" fill-opacity="0.501961" points="131.916197,105.109061,142.849735,114.085904,122.999608,118.049735,112.747447,108.247856" />
<ellipse fill="#1f2814" fill-opacity="0.501961" cx="239" cy="164" rx="3" ry="57" />
<polygon fill="#da7614" fill-opacity="0.501961" points="82.220523,118.873597,111.678687,96.826553,88.628209,105.801565,106.915452,76.736153" />
<polygon fill="#2b332a" fill-opacity="0.501961" points="166,136 161,158 160,147" />
<polygon fill="#eda51c" fill-opacity="0.501961" points="70.904870,86.493558,69.604954,69.495386,76.657524,81.774522,82.175376,97.164530" />
<polygon fill="#8a350a" fill-opacity="0.501961" points="61,121 47,94 39,102" />
<rect fill="#4e5b33" fill-opacity="0.501961" x="151" y="253" width="82" height="3" />
<polygon fill="#a23f0f" fill-opacity="0.501961" points="96.756255,114.570106,72.741318,150.014746,58.695762,114.651591,65.609690,148.664441" />
<polygon fill="#262a1a" fill-opacity="0.501961" points="203.525009,24.680564,195.685767,24.675763,193.394529,71.078983,199.986447,110.364589" />
<polygon fill="#d06613" fill-opacity="0.501961" points="88.479278,64.824106,98.067160,96.713218,110.914743,77.698911,97.311963,75.529616" />
<rect fill="#994714" fill-opacity="0.501961" x="37" y="96" width="7" height="23" />
<polygon fill="#573a1f" fill-opacity="0.501961" points="34,28 50,54 29,56" />
<rect fill="#754314" fill-opacity="0.501961" x="55" y="141" width="11" height="20" />
<rect fill="#3d4529" fill-opacity="0.501961" x="168" y="177" width="4" height="10" />
<polygon fill="#3a2a11" fill-opacity="0.501961" points="9.421348,144.672305,29.803227,154.292716,39.812934,141.464061,12.938719,115.755339" />
<g transform="translate(142 143) rotate(289) scale(17 37)"><rect fill="#17130b" fill-opacity="0.501961" x="-0.5" y="-0.5" width="1" height="1" /></g>
<ellipse fill="#191d0a" fill-opacity="0.501961" cx="174" cy="188" rx="6" ry="7" />
<polygon fill="#4b3723" fill-opacity="0.501961" points="43,158 61,194 60,174" />
<polygon fill="#35401c" fill-opacity="0.501961" points="237,141 219,135 228,151" />
<polygon fill="#4c2a0e" fill-opacity="0.501961" points="41.355547,27.231844,54.537348,35.946733,49.163774,59.867660,41.545392,46.680438" />
<ellipse fill="#4c2505" fill-opacity="0.501961" cx="162" cy="64" rx="5" ry="5" />
<polygon fill="#792705" fill-opacity="0.501961" points="88.702691,130.094052,106.000796,115.911295,109.612866,124.083879,69.067958,122.892533" />
<polygon fill="#151204" fill-opacity="0.501961" points="138.850280,136.043096,117.853956,191.117168,116.399308,169.198625,163.880736,120.246263" />
<rect fill="#8d5a25" fill-opacity="0.501961" x="80" y="41" width="10" height="16" />
<polygon fill="#e48712" fill-opacity="0.501961" points="83.585743,71.773009,72.163640,55.390054,98.856959,78.557786,91.716995,83.588250" />
<polygon fill="#1d2215" fill-opacity="0.501961" points="162.772385,221.141778,149.224501,195.857039,152.983925,193.896629,177.202210,206.029794" />
<rect fill="#492c0e" fill-opacity="0.501961" x="35" y="60" width="6" height="17" />
<g transform="translate(93 100) rotate(133) scale(3 15)"><rect fill="#eda51b" fill-opacity="0.501961" x="-0.5" y="-0.5" width="1" height="1" /></g>
<g transform="translate(114 24) rotate(170) scale(19 13)"><rect fill="#2d301e" fill-opacity="0.501961" x="-0.5" y="-0.5" width="1" height="1" /></g>
<ellipse fill="#739574" fill-opacity="0.501961" cx="182" cy="127" rx="2" ry="6" />
<ellipse fill="#1a1d15" fill-opacity="0.501961" cx="210" cy="77" rx="5" ry="48" />
<ellipse fill="#58604c" fill-opacity="0.501961" cx="240" cy="248" rx="3" ry="3" />
<g transform="translate(92 209) rotate(175) scale(6 41)"><rect fill="#383118" fill-opacity="0.501961" x="-0.5" y="-0.5" width="1" height="1" /></g>
<polygon fill="#20230d" fill-opacity="0.501961" points="151.276158,28.399845,180.418750,53.422035,181.174343,44.769764,166.128651,29.157429" />
<polygon fill="#854112" fill-opacity="0.501961" points="56.124137,56.958643,41.814321,59.195959,42.758922,74.945119,48.340601,105.268641" />
<rect fill="#151203" fill-opacity="0.501961" x="159" y="164" width="9" height="13" />
<path stroke="#2c2f15" stroke-opacity="0.501961" fill="none" d="M 164.961363 68.290357 Q 180.943112 132.271129, 184.812354 141.753551" stroke-width="0.500000" />
<g transform="translate(87 60) rotate(216) scale(25 2)"><rect fill="#96410d" fill-opacity="0.501961" x="-0.5" y="-0.5" width="1" height="1" /></g>
<polygon fill="#23220f" fill-opacity="0.501961" points="144,120 175,120 128,136" />
<g transform="translate(110.571391 145.579191) rotate(197.080149) scale(4.632647 29.067468)"><ellipse fill="#221504" fill-opacity="0.501961" cx="0" cy="0" rx="1" ry="1" /></g>
<polygon fill="#6f4819" fill-opacity="0.501961" points="65.275938,24.269325,69.762709,37.736060,94.508610,40.133405,61.205263,29.206748" />
<polygon fill="#5e2805" fill-opacity="0.501961" points="38,128 47,126 49,111" />
<polygon fill="#a5571e" fill-opacity="0.501961" points="57,58 73,58 58,48" />
<polygon fill="#8f4611" fill-opacity="0.501961" points="108.020392,120.930525,116.913450,117.232683,119.726818,106.225521,114.254608,87.136230" />
<polygon fill="#503314" fill-opacity="0.501961" points="12.316602,111.084661,42.467372,138.320394,19.926599,108.966039,6.740934,58.398769" />
<g transform="translate(67 43) rotate(71) scale(16 1)"><rect fill="#c49621" fill-opacity="0.501961" x="-0.5" y="-0.5" width="1" height="1" /></g>
<g transform="translate(88 138) rotate(252) scale(10 5)"><rect fill="#c46926" fill-opacity="0.501961" x="-0.5" y="-0.5" width="1" height="1" /></g>
<rect fill="#382818" fill-opacity="0.501961" x="14" y="33" width="15" height="29" />
<polygon fill="#334120" fill-opacity="0.501961" points="234,203 250,248 225,218" />
<g transform="translate(108 84) rotate(186) scale(9 15)"><rect fill="#ab5e1e" fill-opacity="0.501961" x="-0.5" y="-0.5" width="1" height="1" /></g>
<rect fill="#6da067" fill-opacity="0.501961" x="167" y="108" width="2" height="4" />
<polygon fill="#2f2d1c" fill-opacity="0.501961" points="91,4 59,15 39,-16" />
<polygon fill="#35502a" fill-opacity="0.501961" points="190,172 194,166 176,149" />
<g transform="translate(77 124) rotate(311) scale(19 1)"><rect fill="#c95910" fill-opacity="0.501961" x="-0.5" y="-0.5" width="1" height="1" /></g>
<ellipse fill="#2a2413" fill-opacity="0.501961" cx="1" cy="114" rx="10" ry="36" />
<polygon fill="#2c3b18" fill-opacity="0.501961" points="222,146 222,100 213,128" />
<polygon fill="#1d150c" fill-opacity="0.501961" points="1.358182,37.307400,9.067990,27.338617,-16.000000,-7.619349,-6.665472,-3.303005" />
<ellipse fill="#578a58" fill-opacity="0.501961" cx="186" cy="51" rx="3" ry="3" />
<polygon fill="#1b1202" fill-opacity="0.501961" points="119.954448,129.244492,129.393359,111.155742,129.582710,119.058146,107.114385,167.455837" />
<polygon fill="#212514" fill-opacity="0.501961" points="95,209 115,238 105,195" />
<ellipse fill="#355526" fill-opacity="0.501961" cx="185" cy="125" rx="3" ry="12" />
<polygon fill="#373d26" fill-opacity="0.501961" points="176.961395,231.614616,157.518279,215.402616,158.432594,252.621817,152.011289,271.000000" />
<polygon fill="#544d22" fill-opacity="0.501961" points="104.930294,26.900829,69.634047,29.895256,61.552485,24.132110,90.864258,20.382374" />
<g transform="translate(60.973331 147.591946) rotate(335.263084) scale(2.949087 14.111738)"><ellipse fill="#6d3c10" fill-opacity="0.501961" cx="0" cy="0" rx="1" ry="1" /></g>
<rect fill="#282e19" fill-opacity="0.501961" x="123" y="35" width="25" height="23" />
<g transform="translate(82 113) rotate(68) scale(5 4)"><rect fill="#b03404" fill-opacity="0.501961" x="-0.5" y="-0.5" width="1" height="1" /></g>
<ellipse fill="#1a280c" fill-opacity="0.501961" cx="193" cy="152" rx="3" ry="23" />
<g transform="translate(13.678026 227.595991) rotate(227.749658) scale(11.381241 10.616620)"><ellipse fill="#212717" fill-opacity="0.501961" cx="0" cy="0" rx="1" ry="1" /></g>
<rect fill="#9d521f" fill-opacity="0.501961" x="100" y="141" width="5" height="5" />
<polygon fill="#b75a13" fill-opacity="0.501961" points="74.185305,67.696660,69.770425,55.079925,113.757807,83.893035,74.126881,51.669261" />
<polygon fill="#1c1605" fill-opacity="0.501961" points="145,71 151,47 166,57" />
<rect fill="#cd721e" fill-opacity="0.501961" x="70" y="131" width="4" height="7" />
<polygon fill="#c25911" fill-opacity="0.501961" points="100.970533,97.879004,117.627507,103.840740,89.488934,126.171247,109.185173,87.196224" />
<g transform="translate(5 255) rotate(221) scale(37 16)"><rect fill="#2e3520" fill-opacity="0.501961" x="-0.5" y="-0.5" width="1" height="1" /></g>
<polygon fill="#d76914" fill-opacity="0.501961" points="88.549504,109.654108,90.319441,97.669219,95.849924,113.463943,49.596023,109.064109" />
<g transform="translate(99 159) rotate(276) scale(27 5)"><rect fill="#694317" fill-opacity="0.501961" x="-0.5" y="-0.5" width="1" height="1" /></g>
<polygon fill="#be410a" fill-opacity="0.501961" points="54,109 67,97 59,78" />
<g transform="translate(153 91) rotate(143) scale(1 9)"><rect fill="#653e20" fill-opacity="0.501961" x="-0.5" y="-0.5" width="1" height="1" /></g>
<rect fill="#30411e" fill-opacity="0.501961" x="177" y="193" width="24" height="13" />
<rect fill="#211e07" fill-opacity="0.501961" x="151" y="92" width="9" height="33" />
<polygon fill="#85340b" fill-opacity="0.501961" points="46.260113,122.823351,40.841056,97.312018,57.916558,114.444263,63.217248,114.121729" />
<g transform="translate(104 98) rotate(322) scale(3 27)"><rect fill="#c5590c" fill-opacity="0.501961" x="-0.5" y="-0.5" width="1" height="1" /></g>
<g transform="translate(190 60) rotate(188) scale(1 20)"><rect fill="#192a11" fill-opacity="0.501961" x="-0.5" y="-0.5" width="1" height="1" /></g>
<polygon fill="#2e2004" fill-opacity="0.501961" points="154.942043,70.183071,182.673231,72.976709,145.544467,82.540742,168.494657,84.616309" />
<rect fill="#551801" fill-opacity="0.501961" x="82" y="120" width="5" height="7" />
<g transform="translate(36.890326 127.786614) rotate(157.694805) scale(2.953237 17.070841)"><ellipse fill="#6c4314" fill-opacity="0.501961" cx="0" cy="0" rx="1" ry="1" /></g>
<polygon fill="#602004" fill-opacity="0.501961" points="106.048191,129.108873,90.057823,127.172616,94.732749,127.161524,102.799313,117.280524" />
<polygon fill="#3e4924" fill-opacity="0.501961" points="210.244546,208.909324,238.339314,271.000000,236.524593,223.782320,194.066177,224.711895" />
<polygon fill="#6e4015" fill-opacity="0.501961" points="46,64 47,88 25,82" />
<polygon fill="#181a16" fill-opacity="0.501961" points="241,41 244,-16 198,-16" />
<ellipse fill="#384021" fill-opacity="0.501961" cx="176" cy="217" rx="10" ry="3" />
<g transform="translate(124.049693 100.034480) rotate(122.325753) scale(1.000000 5.343138)"><ellipse fill="#aa5f12" fill-opacity="0.501961" cx="0" cy="0" rx="1" ry="1" /></g>
<polygon fill="#24261f" fill-opacity="0.501961" points="212.632084,52.072759,212.139198,-7.626632,221.978324,76.936646,215.767299,80.961606" />
<g transform="translate(255 229) rotate(95) scale(21 7)"><rect fill="#404c28" fill-opacity="0.501961" x="-0.5" y="-0.5" width="1" height="1" /></g>
<polygon fill="#050a04" fill-opacity="0.501961" points="149.735635,167.421281,156.608352,163.881348,139.432975,162.474223,145.248513,192.388417" />
<polygon fill="#2b2f15" fill-opacity="0.501961" points="177.928591,65.937405,175.855172,43.268323,164.393213,60.312723,172.921912,70.277004" />
<polygon fill="#dd7517" fill-opacity="0.501961" points="79,96 77,120 64,103" />
<polygon fill="#362b18" fill-opacity="0.501961" points="55.657217,30.826558,65.487248,18.347456,18.184367,38.251635,29.467538,7.435369" />
<polygon fill="#df9029" fill-opacity="0.501961" points="70,105 62,104 55,111" />
<polygon fill="#d57723" fill-opacity="0.501961" points="60,69 59,77 54,69" />
<g transform="translate(185 32) rotate(327) scale(1 17)"><rect fill="#4b7135" fill-opacity="0.501961" x="-0.5" y="-0.5" width="1" height="1" /></g>
<rect fill="#506a50" fill-opacity="0.501961" x="187" y="96" width="2" height="13" />
<rect fill="#303c21" fill-opacity="0.501961" x="198" y="148" width="5" height="18" />
<g transform="translate(194 182) rotate(202) scale(1 8)"><rect fill="#4b5d42" fill-opacity="0.501961" x="-0.5" y="-0.5" width="1" height="1" /></g>
<polygon fill="#f3db24" fill-opacity="0.501961" points="84.612736,79.826523,92.254485,77.582113,73.681600,78.452786,87.925102,93.113339" />
<polygon fill="#1e2310" fill-opacity="0.501961" points="167,-16 206,30 171,23" />
<path stroke="#1c2e11" stroke-opacity="0.501961" fill="none" d="M 188.186260 155.086409 Q 171.986058 137.285176, 172.397134 112.072488" stroke-width="0.500000" />
<polygon fill="#a6410e" fill-opacity="0.501961" points="54.321746,115.137408,52.268686,133.014479,72.581944,130.261546,72.150929,132.460171" />
<ellipse fill="#4e8a54" fill-opacity="0.501961" cx="171" cy="126" rx="1" ry="3" />
<path stroke="#4e3a1f" stroke-opacity="0.501961" fill="none" d="M 112.662939 171.955427 Q 108.266038 158.289287, 119.840440 149.773153" stroke-width="0.500000" />
<ellipse fill="#2f1c04" fill-opacity="0.501961" cx="133" cy="93" rx="9" ry="2" />
<rect fill="#3a3e26" fill-opacity="0.501961" x="42" y="252" width="110" height="4" />
<rect fill="#2e3121" fill-opacity="0.501961" x="117" y="212" width="9" height="40" />
<polygon fill="#191e0f" fill-opacity="0.501961" points="144.163222,144.975725,172.612613,132.872433,172.724778,181.025032,167.030375,122.332576" />
<g transform="translate(82.915270 73.891549) rotate(128.979732) scale(1.880207 8.651796)"><ellipse fill="#efb91d" fill-opacity="0.501961" cx="0" cy="0" rx="1" ry="1" /></g>
<polygon fill="#d36a15" fill-opacity="0.501961" points="106.004658,94.630021,79.633748,55.065180,82.575661,69.792804,100.032786,75.825160" />
<rect fill="#3b6b4b" fill-opacity="0.501961" x="190" y="73" width="2" height="17" />
<polygon fill="#1e200f" fill-opacity="0.501961" points="149,90 172,109 170,91" />
<rect fill="#7b461a" fill-opacity="0.501961" x="20" y="94" width="14" height="7" />
<ellipse fill="#4c391b" fill-opacity="0.501961" cx="20" cy="80" rx="6" ry="6" />
<rect fill="#ae4d10" fill-opacity="0.501961" x="50" y="86" width="6" height="16" />
<rect fill="#a74f0a" fill-opacity="0.501961" x="66" y="32" width="3" height="9" />
<g transform="translate(167 147) rotate(255) scale(14 1)"><rect fill="#35492f" fill-opacity="0.501961" x="-0.5" y="-0.5" width="1" height="1" /></g>
<rect fill="#593c14" fill-opacity="0.501961" x="87" y="157" width="11" height="11" />
<polygon fill="#48592f" fill-opacity="0.501961" points="201.930155,241.403946,176.930318,202.991642,216.944790,240.315883,210.019487,214.218520" />
<polygon fill="#50280a" fill-opacity="0.501961" points="114.508995,125.306698,110.575170,127.324096,112.379641,111.151322,113.719724,119.038297" />
<g transform="translate(183 179) rotate(267) scale(13 1)"><rect fill="#5b7347" fill-opacity="0.501961" x="-0.5" y="-0.5" width="1" height="1" /></g>
<polygon fill="#292918" fill-opacity="0.501961" points="25.492847,160.402559,49.251829,180.418793,48.365804,192.001083,36.947662,196.696638" />
<rect fill="#e48711" fill-opacity="0.501961" x="70" y="79" width="5" height="13" />
<rect fill="#343d24" fill-opacity="0.501961" x="131" y="64" width="12" height="8" />
<polygon fill="#553b0d" fill-opacity="0.501961" points="87.196696,189.588543,92.062799,199.585353,64.835456,153.675809,83.022138,169.778424" />
<polygon fill="#7b4a1b" fill-opacity="0.501961" points="66,156 56,147 65,168" />
<g transform="translate(186 253) rotate(170) scale(1 51)"><rect fill="#54663a" fill-opacity="0.501961" x="-0.5" y="-0.5" width="1" height="1" /></g>
<polygon fill="#6f481a" fill-opacity="0.501961" points="95.742920,43.708257,87.336385,57.169893,117.673267,65.111227,107.202876,69.624688" />
<polygon fill="#2a3419" fill-opacity="0.501961" points="181.433855,106.798548,136.778433,102.069272,188.640755,112.499798,183.011599,125.344451" />
<polygon fill="#242a1a" fill-opacity="0.501961" points="227,106 223,137 256,113" />
<rect fill="#dc6d1b" fill-opacity="0.501961" x="58" y="85" width="4" height="3" />
<polygon fill="#34321e" fill-opacity="0.501961" points="112.462740,42.732937,108.584626,62.248796,123.042850,29.087124,124.824410,-16.000000" />
<rect fill="#395232" fill-opacity="0.501961" x="177" y="106" width="3" height="27" />
<path stroke="#e8af1a" stroke-opacity="0.501961" fill="none" d="M 102.587333 103.924076 Q 86.487555 73.150290, 76.729116 74.981924" stroke-width="0.500000" />
<rect fill="#394821" fill-opacity="0.501961" x="178" y="234" width="5" height="22" />
<polygon fill="#a84a13" fill-opacity="0.501961" points="59.518862,53.346722,49.492101,71.373074,59.908709,70.872235,62.233390,66.963862" />
<rect fill="#d16906" fill-opacity="0.501961" x="73" y="64" width="4" height="11" />
<g transform="translate(138 90) rotate(198) scale(16 1)"><rect fill="#613c19" fill-opacity="0.501961" x="-0.5" y="-0.5" width="1" height="1" /></g>
<g transform="translate(174.976118 181.864926) rotate(132.037725) scale(7.306903 1.896842)"><ellipse fill="#1c1b07" fill-opacity="0.501961" cx="0" cy="0" rx="1" ry="1" /></g>
<polygon fill="#57663b" fill-opacity="0.501961" points="201,246 173,263 208,269" />
<ellipse fill="#5f6754" fill-opacity="0.501961" cx="237" cy="245" rx="2" ry="2" />
<polygon fill="#984712" fill-opacity="0.501961" points="44,78 58,78 46,82" />
<polygon fill="#23251a" fill-opacity="0.501961" points="135,242 117,192 131,165" />
<polygon fill="#1d2c0b" fill-opacity="0.501961" points="207.769934,155.465900,224.485678,169.941414,230.289086,168.251740,222.688102,210.181459" />
<rect fill="#3f472a" fill-opacity="0.501961" x="247" y="142" width="5" height="6" />
<polygon fill="#b75113" fill-opacity="0.501961" points="94.168703,121.965185,110.462956,107.145330,75.569574,133.626660,89.190373,125.269408" />
<polygon fill="#944616" fill-opacity="0.501961" points="73.498712,147.157365,67.545163,153.653373,63.332585,144.839353,66.292771,134.016904" />
<g transform="translate(176.285496 73.500646) rotate(124.644698) scale(2.343818 3.729797)"><ellipse fill="#1d2615" fill-opacity="0.501961" cx="0" cy="0" rx="1" ry="1" /></g>
<polygon fill="#35331c" fill-opacity="0.501961" points="106,241 56,234 61,257" />
<ellipse fill="#e28c28" fill-opacity="0.501961" cx="98" cy="118" rx="2" ry="2" />
<g transform="translate(134.625264 19.718091) rotate(295.015943) scale(18.802322 11.596271)"><ellipse fill="#232719" fill-opacity="0.501961" cx="0" cy="0" rx="1" ry="1" /></g>
<g transform="translate(132 183) rotate(118) scale(11 20)"><rect fill="#262e22" fill-opacity="0.501961" x="-0.5" y="-0.5" width="1" height="1" /></g>
<polygon fill="#4c3618" fill-opacity="0.501961" points="121.921132,144.408524,116.390216,153.091797,115.035265,155.329371,114.093576,152.571835" />
<ellipse fill="#38462a" fill-opacity="0.501961" cx="163" cy="120" rx="2" ry="8" />
<g transform="translate(181 69) rotate(64) scale(3 6)"><rect fill="#64906a" fill-opacity="0.501961" x="-0.5" y="-0.5" width="1" height="1" /></g>
<polygon fill="#1b2012" fill-opacity="0.501961" points="158,109 155,155 170,131" />
<rect fill="#2d2f20" fill-opacity="0.501961" x="193" y="64" width="13" height="19" />
<polygon fill="#673b15" fill-opacity="0.501961" points="41.742180,49.495250,63.072388,43.303600,42.491312,62.711045,34.967307,51.408316" />
<polygon fill="#523d18" fill-opacity="0.501961" points="63.079558,30.192335,59.436455,39.633198,54.215730,25.661258,72.880770,23.494174" />
<g transform="translate(63 69) rotate(152) scale(1 27)"><rect fill="#c15a17" fill-opacity="0.501961" x="-0.5" y="-0.5" width="1" height="1" /></g>
<polygon fill="#95441b" fill-opacity="0.501961" points="93,154 81,138 92,145" />
<rect fill="#1d180f" fill-opacity="0.501961" x="44" y="0" width="7" height="15" />
<g transform="translate(179.343192 171.826073) rotate(240.598559) scale(13.813373 1.000000)"><ellipse fill="#344322" fill-opacity="0.501961" cx="0" cy="0" rx="1" ry="1" /></g>
<polygon fill="#3a2f19" fill-opacity="0.501961" points="16,68 6,87 8,44" />
<g transform="translate(114.231811 90.350424) rotate(360.978731) scale(3.996794 3.813563)"><ellipse fill="#6e3e14" fill-opacity="0.501961" cx="0" cy="0" rx="1" ry="1" /></g>
<rect fill="#47743d" fill-opacity="0.501961" x="185" y="138" width="2" height="16" />
<g transform="translate(181 124) rotate(83) scale(9 2)"><rect fill="#82a88f" fill-opacity="0.501961" x="-0.5" y="-0.5" width="1" height="1" /></g>
<rect fill="#1f280d" fill-opacity="0.501961" x="175" y="128" width="2" height="11" />
<ellipse fill="#3a5731" fill-opacity="0.501961" cx="178" cy="128" rx="3" ry="5" />
<polygon fill="#604116" fill-opacity="0.501961" points="40,129 23,119 24,104" />
<polygon fill="#442a0a" fill-opacity="0.501961" points="96,179 82,151 89,192" />
<path stroke="#28361b" stroke-opacity="0.501961" fill="none" d="M 172.005931 102.926417 Q 193.415341 157.868082, 178.194995 180.339848" stroke-width="0.500000" />
<rect fill="#88320a" fill-opacity="0.501961" x="75" y="137" width="8" height="11" />
<polygon fill="#1d1e17" fill-opacity="0.501961" points="158.477887,196.280345,154.467826,192.413064,123.325068,230.939953,150.990979,217.425762" />
<polygon fill="#1d2912" fill-opacity="0.501961" points="231.459397,116.542972,215.355457,160.785286,208.753890,169.801317,225.748486,128.305361" />
<polygon fill="#a9581f" fill-opacity="0.501961" points="111.730833,74.084830,97.230828,63.121669,96.253350,78.483529,96.492293,74.850813" />
<rect fill="#424e2b" fill-opacity="0.501961" x="185" y="217" width="4" height="36" />
<g transform="translate(191 86) rotate(339) scale(1 18)"><rect fill="#3c674b" fill-opacity="0.501961" x="-0.5" y="-0.5" width="1" height="1" /></g>
<polygon fill="#485c36" fill-opacity="0.501961" points="188,196 186,198 191,203" />
<polygon fill="#302812" fill-opacity="0.501961" points="79.663542,184.450899,73.078923,252.218161,71.859111,184.676872,69.037303,171.676903" />
<polygon fill="#b85b13" fill-opacity="0.501961" points="96.206678,93.634726,114.711984,92.283416,107.770026,99.551410,119.275794,96.203608" />
<g transform="translate(125 133) rotate(25) scale(1 21)"><rect fill="#3d2e15" fill-opacity="0.501961" x="-0.5" y="-0.5" width="1" height="1" /></g>
<polygon fill="#2e3120" fill-opacity="0.501961" points="120,244 112,234 132,200" />
<polygon fill="#6e380d" fill-opacity="0.501961" points="113,98 120,96 116,99" />
<ellipse fill="#52381e" fill-opacity="0.501961" cx="35" cy="154" rx="6" ry="6" />
<polygon fill="#563e18" fill-opacity="0.501961" points="104.918669,182.016334,98.175711,164.294934,99.310851,160.243872,87.074899,159.336417" />
<rect fill="#6a2b0c" fill-opacity="0.501961" x="57" y="133" width="3" height="9" />
<polygon fill="#2a3a1b" fill-opacity="0.501961" points="185,125 199,123 188,135" />
<rect fill="#9f4103" fill-opacity="0.501961" x="103" y="102" width="4" height="4" />
<polygon fill="#543c22" fill-opacity="0.501961" points="21.776988,77.454027,27.961103,72.018871,20.975794,60.572854,15.633925,64.796731" />
<polygon fill="#6a4b21" fill-opacity="0.501961" points="40.797826,146.134837,42.557547,160.930019,50.447351,153.509680,52.785009,151.609136" />
<g transform="translate(65 83) rotate(330) scale(1 24)"><rect fill="#e5a733" fill-opacity="0.501961" x="-0.5" y="-0.5" width="1" height="1" /></g>
<g transform="translate(93 111) rotate(328) scale(25 1)"><rect fill="#e27d19" fill-opacity="0.501961" x="-0.5" y="-0.5" width="1" height="1" /></g>
<polygon fill="#404929" fill-opacity="0.501961" points="154.617636,235.460051,157.665840,260.530095,198.299846,203.893432,140.131740,271.000000" />
<polygon fill="#2d301a" fill-opacity="0.501961" points="49,239 22,217 20,255" />
<polygon fill="#224024" fill-opacity="0.501961" points="192,98 199,97 190,108" />
<polygon fill="#d46910" fill-opacity="0.501961" points="104.907210,114.998747,85.546119,112.541677,103.295015,104.152076,91.157930,90.612555" />
<polygon fill="#c8500e" fill-opacity="0.501961" points="88,106 96,118 101,111" />
<g transform="translate(204 54) rotate(-14) scale(1 5)"><rect fill="#555946" fill-opacity="0.501961" x="-0.5" y="-0.5" width="1" height="1" /></g>
<polygon fill="#212b12" fill-opacity="0.501961" points="184,178 194,195 207,186" />
<ellipse fill="#46582e" fill-opacity="0.501961" cx="182" cy="183" rx="4" ry="4" />
<g transform="translate(39 100) rotate(260) scale(14 1)"><rect fill="#aa551a" fill-opacity="0.501961" x="-0.5" y="-0.5" width="1" height="1" /></g>
<ellipse fill="#202511" fill-opacity="0.501961" cx="254" cy="0" rx="2" ry="77" />
<g transform="translate(166.475335 65.631000) rotate(288.494632) scale(1.302204 8.940793)"><ellipse fill="#4b2b0d" fill-opacity="0.501961" cx="0" cy="0" rx="1" ry="1" /></g>
<g transform="translate(138 110) rotate(97) scale(16 6)"><rect fill="#43340f" fill-opacity="0.501961" x="-0.5" y="-0.5" width="1" height="1" /></g>
<polygon fill="#f2c821" fill-opacity="0.501961" points="80.436452,85.916274,86.886108,102.313287,77.525950,91.086286,74.632726,91.549356" />
<polygon fill="#323b1b" fill-opacity="0.501961" points="167,46 190,58 174,57" />
<rect fill="#516034" fill-opacity="0.501961" x="175" y="226" width="2" height="30" />
<polygon fill="#273411" fill-opacity="0.501961" points="224.011843,164.126438,241.936072,131.549206,232.055901,216.759275,228.823932,213.039972" />
<polygon fill="#231c05" fill-opacity="0.501961" points="152.574615,91.582560,146.358779,129.659962,160.650964,104.692720,143.612127,87.368717" />
<g transform="translate(53.523861 77.753489) rotate(175.875526) scale(4.204684 2.646472)"><ellipse fill="#853207" fill-opacity="0.501961" cx="0" cy="0" rx="1" ry="1" /></g>
<rect fill="#b88339" fill-opacity="0.501961" x="62" y="48" width="3" height="5" />
<polygon fill="#653d1c" fill-opacity="0.501961" points="35.426237,59.869279,35.194827,72.015212,14.467302,98.443644,30.598998,65.815942" />
<rect fill="#1d220f" fill-opacity="0.501961" x="171" y="68" width="6" height="25" />
<g transform="translate(61 83) rotate(325) scale(1 10)"><rect fill="#ae3804" fill-opacity="0.501961" x="-0.5" y="-0.5" width="1" height="1" /></g>
<ellipse fill="#2f3f17" fill-opacity="0.501961" cx="211" cy="189" rx="2" ry="14" />
<polygon fill="#79441d" fill-opacity="0.501961" points="93,153 89,161 85,149" />
<polygon fill="#232715" fill-opacity="0.501961" points="243.854703,148.309361,260.534925,154.120787,253.193474,156.872596,271.000000,194.949006" />
<polygon fill="#233013" fill-opacity="0.501961" points="184.296922,137.605645,166.124158,151.026654,186.688806,141.926678,195.533742,151.728943" />
<g transform="translate(132 108) rotate(13) scale(1 15)"><rect fill="#6c4a1b" fill-opacity="0.501961" x="-0.5" y="-0.5" width="1" height="1" /></g>
<g transform="translate(0 93) rotate(280) scale(35 7)"><rect fill="#332b1c" fill-opacity="0.501961" x="-0.5" y="-0.5" width="1" height="1" /></g>
<polygon fill="#213415" fill-opacity="0.501961" points="177.138846,128.900596,176.310722,129.101250,170.615163,111.521736,178.365853,148.014697" />
<polygon fill="#473c1d" fill-opacity="0.501961" points="138,73 113,38 119,61" />
<g transform="translate(89.424113 117.210086) rotate(81.699258) scale(1.012481 4.604823)"><ellipse fill="#962d05" fill-opacity="0.501961" cx="0" cy="0" rx="1" ry="1" /></g>
<rect fill="#f5f631" fill-opacity="0.501961" x="86" y="83" width="4" height="8" />
<polygon fill="#221a0e" fill-opacity="0.501961" points="-3.066885,159.303157,10.879699,138.687975,13.856978,154.104798,4.265231,170.613024" />
<g transform="translate(76.366735 47.646921) rotate(305.921780) scale(2.945538 9.141511)"><ellipse fill="#ab651c" fill-opacity="0.501961" cx="0" cy="0" rx="1" ry="1" /></g>
<g transform="translate(183 132) rotate(294) scale(6 1)"><rect fill="#728d72" fill-opacity="0.501961" x="-0.5" y="-0.5" width="1" height="1" /></g>
<polygon fill="#1a1d0c" fill-opacity="0.501961" points="163.433596,40.876710,154.778810,43.634694,155.266873,33.215926,165.927050,25.271256" />
<polygon fill="#1c2c10" fill-opacity="0.501961" points="260.376258,163.859714,271.000000,209.227782,248.649620,180.201642,250.987507,215.761452" />
<ellipse fill="#1e2a0e" fill-opacity="0.501961" cx="180" cy="106" rx="2" ry="7" />
<polygon fill="#e3791c" fill-opacity="0.501961" points="64.629443,85.992357,72.832490,108.795349,71.340018,91.426186,60.651111,78.904987" />
<g transform="translate(63 123) rotate(146) scale(8 9)"><rect fill="#be5312" fill-opacity="0.501961" x="-0.5" y="-0.5" width="1" height="1" /></g>
<g transform="translate(95 121) rotate(-22) scale(5 1)"><rect fill="#d76d25" fill-opacity="0.501961" x="-0.5" y="-0.5" width="1" height="1" /></g>
<g transform="translate(91 82) rotate(249) scale(20 1)"><rect fill="#eaab18" fill-opacity="0.501961" x="-0.5" y="-0.5" width="1" height="1" /></g>
<g transform="translate(178 128) rotate(342) scale(1 13)"><rect fill="#507649" fill-opacity="0.501961" x="-0.5" y="-0.5" width="1" height="1" /></g>
<g transform="translate(85 30) rotate(153) scale(22 5)"><rect fill="#645428" fill-opacity="0.501961" x="-0.5" y="-0.5" width="1" height="1" /></g>
<g transform="translate(182 159) rotate(165) scale(1 20)"><rect fill="#3c572f" fill-opacity="0.501961" x="-0.5" y="-0.5" width="1" height="1" /></g>
<polygon fill="#487451" fill-opacity="0.501961" points="177,78 184,78 185,70" />
<polygon fill="#5f300a" fill-opacity="0.501961" points="153,85 149,89 147,85" />
<g transform="translate(63 113) rotate(157) scale(3 1)"><rect fill="#a83407" fill-opacity="0.501961" x="-0.5" y="-0.5" width="1" height="1" /></g>
<polygon fill="#e58e1e" fill-opacity="0.501961" points="88.582359,113.377520,85.505237,118.300675,86.333008,102.440443,75.821591,100.825549" />
<g transform="translate(102 135) rotate(103) scale(12 10)"><rect fill="#773511" fill-opacity="0.501961" x="-0.5" y="-0.5" width="1" height="1" /></g>
<polygon fill="#a8440c" fill-opacity="0.501961" points="90.718068,61.311587,84.772613,66.912266,89.592167,66.181166,97.911949,72.649347" />
<g transform="translate(186 51) rotate(75) scale(8 2)"><rect fill="#548351" fill-opacity="0.501961" x="-0.5" y="-0.5" width="1" height="1" /></g>
<g transform="translate(243 243) rotate(359) scale(1 13)"><rect fill="#545c40" fill-opacity="0.501961" x="-0.5" y="-0.5" width="1" height="1" /></g>
<path stroke="#282b13" stroke-opacity="0.501961" fill="none" d="M 188.313239 182.090046 Q 177.920492 98.781437, 155.748101 30.116985" stroke-width="0.500000" />
<rect fill="#2e3923" fill-opacity="0.501961" x="242" y="172" width="3" height="24" />
<polygon fill="#4c5b31" fill-opacity="0.501961" points="217.070336,236.002926,181.919446,236.764511,172.565744,221.744859,218.678234,233.038676" />
<ellipse fill="#151812" fill-opacity="0.501961" cx="206" cy="5" rx="4" ry="35" />
<path stroke="#1b200b" stroke-opacity="0.501961" fill="none" d="M 181.490955 162.095572 Q 170.293885 137.612111, 139.442638 102.677785" stroke-width="0.500000" />
<rect fill="#272817" fill-opacity="0.501961" x="0" y="184" width="8" height="47" />
<polygon fill="#130f00" fill-opacity="0.501961" points="173,175 177,175 170,171" />
<polygon fill="#2c391f" fill-opacity="0.501961" points="255.022992,185.871588,251.399484,231.582572,268.878451,175.295332,244.838087,157.820728" />
<polygon fill="#4f320f" fill-opacity="0.501961" points="41.198084,131.144492,30.107710,122.447588,33.238905,127.430287,21.588656,141.408244" />
<g transform="translate(167 42) rotate(74) scale(7 12)"><rect fill="#35270e" fill-opacity="0.501961" x="-0.5" y="-0.5" width="1" height="1" /></g>
<polygon fill="#994f1e" fill-opacity="0.501961" points="59,60 59,45 55,49" />
<polygon fill="#4a2b0a" fill-opacity="0.501961" points="76.262153,171.989334,62.278883,181.643271,66.663653,158.769074,73.737685,168.023490" />
<polygon fill="#6b4518" fill-opacity="0.501961" points="107.515797,52.961129,118.540697,95.971026,123.421036,92.695544,111.776798,79.467827" />
<polygon fill="#242513" fill-opacity="0.501961" points="51.315073,230.189563,17.945259,214.021957,75.848644,207.881309,67.857321,185.804478" />
<ellipse fill="#467c53" fill-opacity="0.501961" cx="173" cy="131" rx="1" ry="2" />
<polygon fill="#160d05" fill-opacity="0.501961" points="138,135 132,128 139,120" />
<polygon fill="#3f2a12" fill-opacity="0.501961" points="46.543035,48.719948,52.804241,9.317053,38.589529,44.409959,40.778604,38.753752" />
<polygon fill="#312b16" fill-opacity="0.501961" points="30.477243,149.418295,34.694944,173.246832,12.238241,145.824659,27.338782,139.223171" />
<rect fill="#191a17" fill-opacity="0.501961" x="153" y="134" width="7" height="30" />
<g transform="translate(159 66) rotate(164) scale(5 18)"><rect fill="#301900" fill-opacity="0.501961" x="-0.5" y="-0.5" width="1" height="1" /></g>
<polygon fill="#324021" fill-opacity="0.501961" points="194.001577,204.370444,193.333041,185.052904,183.819783,213.482129,169.026070,220.483837" />
<polygon fill="#452c15" fill-opacity="0.501961" points="38.396877,78.430189,36.818194,61.735972,12.286261,54.982501,40.988894,66.810215" />
<ellipse fill="#393d2f" fill-opacity="0.501961" cx="229" cy="68" rx="2" ry="2" />
<polygon fill="#3b3728" fill-opacity="0.501961" points="68,-15 11,-16 60,3" />
<polygon fill="#a03907" fill-opacity="0.501961" points="69.280131,128.080690,63.579548,113.650784,75.098565,129.287758,69.004568,128.082491" />
<polygon fill="#c78317" fill-opacity="0.501961" points="68.582296,43.353156,78.306632,63.704394,75.868849,69.011345,73.680047,60.166443" />
<polygon fill="#201e0b" fill-opacity="0.501961" points="166.781587,113.495384,143.965659,93.244237,163.790301,139.181637,141.161714,102.862164" />
<rect fill="#1b1f14" fill-opacity="0.501961" x="222" y="76" width="17" height="21" />
<rect fill="#2f3c1f" fill-opacity="0.501961" x="160" y="99" width="2" height="14" />
<polygon fill="#2d4129" fill-opacity="0.501961" points="186.544022,70.128492,196.932372,124.682993,187.778762,71.069459,167.488418,66.729408" />
<polygon fill="#4f5f38" fill-opacity="0.501961" points="192.734076,208.178593,184.231831,238.106366,195.488790,230.422174,195.814349,271.000000" />
<polygon fill="#201b07" fill-opacity="0.501961" points="148.047234,66.296556,156.891601,52.490520,178.187605,63.118410,168.402821,54.047751" />
<polygon fill="#213314" fill-opacity="0.501961" points="190.378437,147.813778,196.022555,163.558647,182.442804,146.526200,183.690663,158.600994" />
<polygon fill="#28301a" fill-opacity="0.501961" points="204.295831,34.964924,196.042344,50.728998,204.880412,50.855290,183.542569,27.839136" />
<g transform="translate(87 90) rotate(141) scale(1 19)"><rect fill="#f8e12b" fill-opacity="0.501961" x="-0.5" y="-0.5" width="1" height="1" /></g>
<polygon fill="#1d1003" fill-opacity="0.501961" points="105.261832,144.654768,119.712229,144.163871,123.553290,135.726367,112.309263,128.740705" />
<polygon fill="#7c4817" fill-opacity="0.501961" points="65,24 68,31 60,45" />
<ellipse fill="#415d32" fill-opacity="0.501961" cx="178" cy="161" rx="2" ry="2" />
<ellipse fill="#593b16" fill-opacity="0.501961" cx="116" cy="84" rx="2" ry="10" />
<polygon fill="#1b210f" fill-opacity="0.501961" points="135,168 127,165 133,182" />
<polygon fill="#6d4216" fill-opacity="0.501961" points="125,115 121,108 122,117" />
<ellipse fill="#3d2307" fill-opacity="0.501961" cx="154" cy="78" rx="5" ry="12" />
<g transform="translate(97 87) rotate(219) scale(2 8)"><rect fill="#cf5302" fill-opacity="0.501961" x="-0.5" y="-0.5" width="1" height="1" /></g>
<g transform="translate(52 106) rotate(250) scale(1 15)"><rect fill="#9a3f0c" fill-opacity="0.501961" x="-0.5" y="-0.5" width="1" height="1" /></g>
<g transform="translate(123 157) rotate(203) scale(2 57)"><rect fill="#1e190b" fill-opacity="0.501961" x="-0.5" y="-0.5" width="1" height="1" /></g>
<g transform="translate(199.658603 178.692282) rotate(28.534689) scale(25.187817 3.390097)"><ellipse fill="#263318" fill-opacity="0.501961" cx="0" cy="0" rx="1" ry="1" /></g>
<rect fill="#da9927" fill-opacity="0.501961" x="68" y="113" width="3" height="5" />
<g transform="translate(50.233517 49.649368) rotate(282.356642) scale(9.884131 4.115642)"><ellipse fill="#5b3110" fill-opacity="0.501961" cx="0" cy="0" rx="1" ry="1" /></g>
<polygon fill="#90451a" fill-opacity="0.501961" points="93,143 104,151 103,139" />
<polygon fill="#5f310a" fill-opacity="0.501961" points="94.481030,150.050698,102.628743,157.544614,106.610340,144.564142,91.885540,167.113800" />
<polygon fill="#713e0f" fill-opacity="0.501961" points="79,151 78,164 64,151" />
<polygon fill="#253016" fill-opacity="0.501961" points="168.992698,187.270703,194.320549,197.548479,175.775464,192.865800,181.518663,222.435738" />
<g transform="translate(108 253) rotate(-7) scale(21 24)"><rect fill="#3d3d24" fill-opacity="0.501961" x="-0.5" y="-0.5" width="1" height="1" /></g>
<polygon fill="#151606" fill-opacity="0.501961" points="102.459745,169.317555,103.531477,180.742153,121.749858,196.581327,106.141963,159.631909" />
<ellipse fill="#272816" fill-opacity="0.501961" cx="108" cy="6" rx="3" ry="22" />
<g transform="translate(116 124) rotate(80) scale(1 30)"><rect fill="#331b05" fill-opacity="0.501961" x="-0.5" y="-0.5" width="1" height="1" /></g>
<g transform="translate(178 60) rotate(36) scale(2 21)"><rect fill="#41441e" fill-opacity="0.501961" x="-0.5" y="-0.5" width="1" height="1" /></g>
<path stroke="#f2ca24" stroke-opacity="0.501961" fill="none" d="M 76.200016 72.073625 Q 85.207426 78.463695, 100.107417 99.756189" stroke-width="0.500000" />
<polygon fill="#c97122" fill-opacity="0.501961" points="64.097011,55.557477,63.771910,60.698935,60.437786,73.501417,70.430012,69.067187" />
<polygon fill="#6c1d00" fill-opacity="0.501961" points="73,122 66,120 71,123" />
<rect fill="#da7a1f" fill-opacity="0.501961" x="100" y="76" width="3" height="14" />
<polygon fill="#2b3418" fill-opacity="0.501961" points="184.254541,46.582394,184.645178,38.315434,177.526828,55.133456,169.580486,62.857801" />
<g transform="translate(251.608628 246.821238) rotate(161.928317) scale(6.315758 26.466606)"><ellipse fill="#364523" fill-opacity="0.501961" cx="0" cy="0" rx="1" ry="1" /></g>
<polygon fill="#4c2c0f" fill-opacity="0.501961" points="162,53 164,46 172,54" />
<polygon fill="#c13a09" fill-opacity="0.501961" points="64,86 70,103 61,98" />
<g transform="translate(0 0) rotate(-11) scale(25 9)"><rect fill="#382b21" fill-opacity="0.501961" x="-0.5" y="-0.5" width="1" height="1" /></g>
<polygon fill="#292a17" fill-opacity="0.501961" points="139,136 143,121 147,123" />
<polygon fill="#394622" fill-opacity="0.501961" points="248.228891,271.000000,231.770326,236.071857,231.564596,253.324389,271.000000,243.768497" />
<ellipse fill="#26261c" fill-opacity="0.501961" cx="142" cy="225" rx="14" ry="5" />
<path stroke="#eaab1f" stroke-opacity="0.501961" fill="none" d="M 100.704264 112.079099 Q 91.725278 104.863328, 89.110699 75.518887" stroke-width="0.500000" />
<polygon fill="#182115" fill-opacity="0.501961" points="189,115 200,107 204,118" />
<g transform="translate(176.511773 162.433501) rotate(331.238263) scale(1.000000 8.823382)"><ellipse fill="#192a0c" fill-opacity="0.501961" cx="0" cy="0" rx="1" ry="1" /></g>
</g>
</svg>