<svg xmlns="http://www.w3.org/2000/svg" version="1.1" width="732" height="1024">
<rect x="0" y="0" width="732" height="1024" fill="#606c58" />
<g transform="scale(4.000000) translate(0.5 0.5)">
<polygon fill="#e0f8f4" fill-opacity="0.501961" points="-16,-9 4,271 100,-13" />
<ellipse fill="#010000" fill-opacity="0.501961" cx="135" cy="177" rx="75" ry="127" />
<g transform="translate(84.115323 27.795066) rotate(77.304424) scale(26.433390 93.523364)"><ellipse fill="#bedac5" fill-opacity="0.501961" cx="0" cy="0" rx="1" ry="1" /></g>
<g transform="translate(25.205456 251.542613) rotate(193.156525) scale(28.498722 64.195811)"><ellipse fill="#b2c2b3" fill-opacity="0.501961" cx="0" cy="0" rx="1" ry="1" /></g>
<g transform="translate(88.413790 91.820350) rotate(321.389695) scale(53.995321 34.356565)"><ellipse fill="#63531d" fill-opacity="0.501961" cx="0" cy="0" rx="1" ry="1" /></g>
<g transform="translate(170.322635 150.289273) rotate(172.939221) scale(40.742310 65.231257)"><ellipse fill="#001900" fill-opacity="0.501961" cx="0" cy="0" rx="1" ry="1" /></g>
<ellipse fill="#925644" fill-opacity="0.501961" cx="133" cy="221" rx="18" ry="27" />
<g transform="translate(93.871265 202.098957) rotate(283.721345) scale(83.718242 27.936463)"><ellipse fill="#381f01" fill-opacity="0.501961" cx="0" cy="0" rx="1" ry="1" /></g>
<rect fill="#5d9a8b" fill-opacity="0.501961" x="155" y="0" width="28" height="71" />
<g transform="translate(39.803430 155.938290) rotate(188.857905) scale(13.299327 50.039208)"><ellipse fill="#5e8081" fill-opacity="0.501961" cx="0" cy="0" rx="1" ry="1" /></g>
<ellipse fill="#c3d0c7" fill-opacity="0.501961" cx="31" cy="7" rx="85" ry="31" />
<polygon fill="#659e56" fill-opacity="0.501961" points="126.377408,81.957996,95.196519,111.887590,103.386404,124.710234,118.411820,127.108630" />
<polygon fill="#99a896" fill-opacity="0.501961" points="21.910619,271.000000,-16.000000,207.116773,68.188728,220.697007,68.477571,193.484085" />
<polygon fill="#43260f" fill-opacity="0.501961" points="77,143 124,68 42,116" />
<polygon fill="#345e2b" fill-opacity="0.501961" points="138,143 164,28 114,55" />
<g transform="translate(166.673207 249.337251) rotate(148.193065) scale(66.559408 12.833507)"><ellipse fill="#080700" fill-opacity="0.501961" cx="0" cy="0" rx="1" ry="1" /></g>
<g transform="translate(70.974112 54.931911) rotate(216.299689) scale(7.720180 42.528694)"><ellipse fill="#96947e" fill-opacity="0.501961" cx="0" cy="0" rx="1" ry="1" /></g>
<g transform="translate(111.132224 175.187590) rotate(213.985415) scale(12.878154 15.629803)"><ellipse fill="#5a6e24" fill-opacity="0.501961" cx="0" cy="0" rx="1" ry="1" /></g>
<polygon fill="#000000" fill-opacity="0.501961" points="51,86 50,95 66,96" />
<g transform="translate(82 70) rotate(351) scale(9 16)"><rect fill="#000000" fill-opacity="0.501961" x="-0.5" y="-0.5" width="1" height="1" /></g>
<polygon fill="#202110" fill-opacity="0.501961" points="75.079516,127.538370,114.775991,219.746926,46.256225,166.415145,54.220008,200.283128" />
<g transform="translate(182.000000 70.488463) rotate(200.523017) scale(40.720594 10.124943)"><ellipse fill="#27765b" fill-opacity="0.501961" cx="0" cy="0" rx="1" ry="1" /></g>
<polygon fill="#6c767d" fill-opacity="0.501961" points="109.622384,254.448251,138.045906,188.829420,145.464552,192.081592,148.631663,188.947074" />
<g transform="translate(126 71) rotate(266) scale(31 10)"><rect fill="#78985d" fill-opacity="0.501961" x="-0.5" y="-0.5" width="1" height="1" /></g>
<g transform="translate(150.922395 162.507916) rotate(206.215514) scale(66.586149 20.325406)"><ellipse fill="#0f1f00" fill-opacity="0.501961" cx="0" cy="0" rx="1" ry="1" /></g>
<polygon fill="#a9c8c2" fill-opacity="0.501961" points="60.751548,43.350269,65.682866,75.397291,15.744519,98.986446,-16.000000,92.604563" />
<polygon fill="#21291a" fill-opacity="0.501961" points="132.557781,69.639818,162.333099,34.461406,143.882481,31.096570,128.478100,61.858263" />
<rect fill="#dad6c6" fill-opacity="0.501961" x="42" y="98" width="13" height="9" />
<g transform="translate(92.071558 77.997872) rotate(135.155717) scale(16.432037 5.220241)"><ellipse fill="#a0702e" fill-opacity="0.501961" cx="0" cy="0" rx="1" ry="1" /></g>
<polygon fill="#d09574" fill-opacity="0.501961" points="68.184409,96.346069,54.320009,78.237832,61.446473,70.245948,75.756096,77.723725" />
<polygon fill="#5c8777" fill-opacity="0.501961" points="107,247 145,245 145,232" />
<polygon fill="#5b290b" fill-opacity="0.501961" points="159.306510,217.149413,147.718457,188.592017,126.216337,230.586712,146.662684,231.846198" />
<polygon fill="#81a992" fill-opacity="0.501961" points="198,0 181,45 144,58" />
<polygon fill="#9ab9ab" fill-opacity="0.501961" points="49,163 46,145 58,122" />
<g transform="translate(92.772631 221.280404) rotate(232.888050) scale(14.982705 41.191429)"><ellipse fill="#41120d" fill-opacity="0.501961" cx="0" cy="0" rx="1" ry="1" /></g>
<polygon fill="#656559" fill-opacity="0.501961" points="63,167 72,223 52,243" />
<ellipse fill="#5d5241" fill-opacity="0.501961" cx="67" cy="119" rx="27" ry="10" />
<g transform="translate(172.622590 120.045193) rotate(354.347481) scale(12.465509 43.431730)"><ellipse fill="#002103" fill-opacity="0.501961" cx="0" cy="0" rx="1" ry="1" /></g>
<g transform="translate(1.548183 220.339348) rotate(77.213804) scale(178.537711 36.156320)"><ellipse fill="#96a69a" fill-opacity="0.501961" cx="0" cy="0" rx="1" ry="1" /></g>
<polygon fill="#784029" fill-opacity="0.501961" points="113.930925,176.271897,88.232002,187.276016,84.878132,173.846946,94.428348,165.243406" />
<g transform="translate(163.873313 0.000000) rotate(182.136522) scale(29.773848 15.761270)"><ellipse fill="#69767c" fill-opacity="0.501961" cx="0" cy="0" rx="1" ry="1" /></g>
<polygon fill="#50530b" fill-opacity="0.501961" points="162.975533,137.778536,130.547899,117.739554,82.065192,122.031546,85.304071,125.706767" />
<g transform="translate(102 98) rotate(229) scale(10 44)"><rect fill="#1c1c04" fill-opacity="0.501961" x="-0.5" y="-0.5" width="1" height="1" /></g>
<polygon fill="#839d6c" fill-opacity="0.501961" points="66.513603,61.082468,72.260885,47.224617,150.023303,29.031949,124.629181,47.992383" />
<g transform="translate(88 62) rotate(157) scale(38 7)"><rect fill="#1d3428" fill-opacity="0.501961" x="-0.5" y="-0.5" width="1" height="1" /></g>
<polygon fill="#792e27" fill-opacity="0.501961" points="131.816048,203.072062,115.649285,217.202365,93.977147,216.264353,111.687867,243.414179" />
<polygon fill="#c9d7ca" fill-opacity="0.501961" points="29.043579,55.858475,64.499578,36.004906,34.107203,-16.000000,22.697631,55.176408" />
<g transform="translate(97.413873 2.720420) rotate(356.027247) scale(37.248856 4.477439)"><ellipse fill="#88ae9e" fill-opacity="0.501961" cx="0" cy="0" rx="1" ry="1" /></g>
<g transform="translate(95 69) rotate(225) scale(15 7)"><rect fill="#92a58a" fill-opacity="0.501961" x="-0.5" y="-0.5" width="1" height="1" /></g>
<rect fill="#090a00" fill-opacity="0.501961" x="73" y="195" width="32" height="16" />
<polygon fill="#104b33" fill-opacity="0.501961" points="169.867338,82.186067,185.488338,105.920580,198.000000,68.889114,129.456434,63.406834" />
<rect fill="#152d26" fill-opacity="0.501961" x="67" y="245" width="70" height="11" />
<g transform="translate(158 162) rotate(40) scale(22 10)"><rect fill="#53430f" fill-opacity="0.501961" x="-0.5" y="-0.5" width="1" height="1" /></g>
<polygon fill="#1a2911" fill-opacity="0.501961" points="57,149 99,123 76,213" />
<polygon fill="#587c80" fill-opacity="0.501961" points="46,148 46,212 31,165" />
<polygon fill="#326e33" fill-opacity="0.501961" points="117.432443,158.504492,105.911723,179.826014,125.828679,175.511787,134.747820,166.836825" />
<g transform="translate(0.000000 125.355084) rotate(24.779342) scale(11.935156 23.263049)"><ellipse fill="#74a09c" fill-opacity="0.501961" cx="0" cy="0" rx="1" ry="1" /></g>
<g transform="translate(178 185) rotate(333) scale(53 42)"><rect fill="#031106" fill-opacity="0.501961" x="-0.5" y="-0.5" width="1" height="1" /></g>
<polygon fill="#2d523f" fill-opacity="0.501961" points="82,185 68,199 47,181" />
<g transform="translate(36.916514 129.429099) rotate(100.181330) scale(47.819054 5.253264)"><ellipse fill="#88a295" fill-opacity="0.501961" cx="0" cy="0" rx="1" ry="1" /></g>
<polygon fill="#35605c" fill-opacity="0.501961" points="153,227 178,229 167,214" />
<polygon fill="#23441c" fill-opacity="0.501961" points="114,107 156,69 146,129" />
<polygon fill="#522d01" fill-opacity="0.501961" points="65.197807,108.384444,106.516651,95.301647,85.565040,71.366853,124.179424,70.135395" />
<polygon fill="#606347" fill-opacity="0.501961" points="53.340859,122.220095,56.446791,136.959646,46.594337,151.274248,71.831626,138.967623" />
<ellipse fill="#8f8871" fill-opacity="0.501961" cx="53" cy="249" rx="5" ry="50" />
<rect fill="#a36252" fill-opacity="0.501961" x="69" y="109" width="9" height="10" />
<polygon fill="#8ba485" fill-opacity="0.501961" points="198.000000,17.853059,189.319403,29.082146,164.402425,12.185378,108.601701,46.262994" />
<polygon fill="#67834a" fill-opacity="0.501961" points="81.559033,118.463850,122.977883,121.413160,108.385639,98.245802,128.959889,90.970733" />
<g transform="translate(98.617259 29.720029) rotate(295.687807) scale(30.347231 7.889357)"><ellipse fill="#a4b493" fill-opacity="0.501961" cx="0" cy="0" rx="1" ry="1" /></g>
<g transform="translate(108 59) rotate(281) scale(12 26)"><rect fill="#3a421e" fill-opacity="0.501961" x="-0.5" y="-0.5" width="1" height="1" /></g>
<polygon fill="#71757e" fill-opacity="0.501961" points="127,224 134,185 141,202" />
<g transform="translate(6.771802 171.095548) rotate(141.495256) scale(67.236994 10.071995)"><ellipse fill="#8ba299" fill-opacity="0.501961" cx="0" cy="0" rx="1" ry="1" /></g>
<g transform="translate(18.064434 129.394624) rotate(200.892188) scale(5.340376 20.727897)"><ellipse fill="#b1cdc0" fill-opacity="0.501961" cx="0" cy="0" rx="1" ry="1" /></g>
<polygon fill="#051202" fill-opacity="0.501961" points="145.861950,48.533972,158.600963,31.565895,130.205316,60.558695,138.224880,63.357885" />
<polygon fill="#0c3517" fill-opacity="0.501961" points="116,177 137,185 168,113" />
<polygon fill="#141a06" fill-opacity="0.501961" points="172,271 146,216 153,262" />
<polygon fill="#514538" fill-opacity="0.501961" points="95.336134,253.761667,88.495866,250.220546,136.204599,218.983368,126.957660,241.040568" />
<g transform="translate(126 86) rotate(221) scale(9 28)"><rect fill="#3f794e" fill-opacity="0.501961" x="-0.5" y="-0.5" width="1" height="1" /></g>
<g transform="translate(165.659610 51.256373) rotate(47.952424) scale(7.107474 15.427462)"><ellipse fill="#579689" fill-opacity="0.501961" cx="0" cy="0" rx="1" ry="1" /></g>
<rect fill="#b4bca9" fill-opacity="0.501961" x="0" y="238" width="19" height="18" />
<polygon fill="#7a3b32" fill-opacity="0.501961" points="53.339490,237.650199,69.625691,210.646520,81.134087,222.675802,81.998500,221.595558" />
<polygon fill="#4d1f05" fill-opacity="0.501961" points="112,87 76,89 76,111" />
<polygon fill="#777f4e" fill-opacity="0.501961" points="112,66 101,48 104,63" />
<polygon fill="#525c1e" fill-opacity="0.501961" points="86.568353,118.634143,100.726663,102.344914,81.708808,147.777791,104.172531,113.399712" />
<polygon fill="#8d735d" fill-opacity="0.501961" points="69,67 70,53 91,42" />
<polygon fill="#222f1e" fill-opacity="0.501961" points="67,118 46,122 47,112" />
<polygon fill="#180c01" fill-opacity="0.501961" points="91.527382,221.104993,77.039557,261.377765,68.694351,246.544971,103.780039,229.695488" />
<polygon fill="#4b241e" fill-opacity="0.501961" points="100.664394,146.731340,119.738062,145.612789,84.228389,198.404682,85.584582,170.632078" />
<polygon fill="#51806b" fill-opacity="0.501961" points="147.729355,230.468290,147.008217,248.622544,130.820579,250.509731,136.157969,246.108082" />
<polygon fill="#7d8c4f" fill-opacity="0.501961" points="135.539830,66.444751,136.447371,74.699061,119.570815,73.738072,122.759165,69.860694" />
<polygon fill="#110f00" fill-opacity="0.501961" points="121.604725,142.223225,101.695583,144.286965,66.676306,129.478931,123.184554,136.245954" />
<g transform="translate(182.000000 241.316071) rotate(20.198347) scale(10.292649 26.081715)"><ellipse fill="#130b00" fill-opacity="0.501961" cx="0" cy="0" rx="1" ry="1" /></g>
<g transform="translate(164 233) rotate(106) scale(30 14)"><rect fill="#30493a" fill-opacity="0.501961" x="-0.5" y="-0.5" width="1" height="1" /></g>
<g transform="translate(145.330520 224.731615) rotate(235.751225) scale(3.456963 23.973862)"><ellipse fill="#591808" fill-opacity="0.501961" cx="0" cy="0" rx="1" ry="1" /></g>
<polygon fill="#4a3904" fill-opacity="0.501961" points="121.579508,116.260798,135.184821,125.128197,135.315791,140.561952,125.839523,153.528604" />
<rect fill="#a7b7b4" fill-opacity="0.501961" x="0" y="14" width="22" height="70" />
<polygon fill="#313312" fill-opacity="0.501961" points="65.175102,126.314975,52.841077,141.513067,92.373327,122.015641,79.118089,155.572670" />
<polygon fill="#afb5aa" fill-opacity="0.501961" points="22,219 36,208 -16,167" />
<g transform="translate(138 193) rotate(299) scale(10 21)"><rect fill="#365258" fill-opacity="0.501961" x="-0.5" y="-0.5" width="1" height="1" /></g>
<polygon fill="#3b5748" fill-opacity="0.501961" points="53,196 67,188 62,159" />
<g transform="translate(65.190970 46.695952) rotate(206.004854) scale(8.911910 16.263757)"><ellipse fill="#94b8a7" fill-opacity="0.501961" cx="0" cy="0" rx="1" ry="1" /></g>
<g transform="translate(95.298802 67.674888) rotate(107.472873) scale(4.253018 7.402546)"><ellipse fill="#83957b" fill-opacity="0.501961" cx="0" cy="0" rx="1" ry="1" /></g>
<polygon fill="#484b3f" fill-opacity="0.501961" points="48.819058,85.998510,54.208265,82.023313,60.135175,98.303763,46.474380,98.476910" />
<polygon fill="#202713" fill-opacity="0.501961" points="75.217710,61.724594,89.655314,90.132502,77.699436,74.813977,93.256803,70.887067" />
<polygon fill="#545c37" fill-opacity="0.501961" points="153.261975,34.602052,109.645088,73.160076,132.671134,40.603494,197.157360,19.364757" />
<rect fill="#dd5430" fill-opacity="0.501961" x="176" y="216" width="7" height="2" />
<polygon fill="#c5ddcb" fill-opacity="0.501961" points="25.277360,52.489291,83.497454,22.939659,90.384594,11.306142,64.137956,10.669007" />
<polygon fill="#8eaa9e" fill-opacity="0.501961" points="21.611311,164.386025,28.753551,133.841837,47.721792,160.700182,59.703884,146.592298" />
<g transform="translate(32 255) rotate(297) scale(60 12)"><rect fill="#a4b7a1" fill-opacity="0.501961" x="-0.5" y="-0.5" width="1" height="1" /></g>
<g transform="translate(68.103310 182.348415) rotate(16.186222) scale(2.932314 8.103472)"><ellipse fill="#071805" fill-opacity="0.501961" cx="0" cy="0" rx="1" ry="1" /></g>
<g transform="translate(104.164600 97.549596) rotate(40.182135) scale(5.691611 10.010638)"><ellipse fill="#211d07" fill-opacity="0.501961" cx="0" cy="0" rx="1" ry="1" /></g>
<rect fill="#3c8a73" fill-opacity="0.501961" x="113" y="109" width="10" height="8" />
<g transform="translate(90 184) rotate(196) scale(8 16)"><rect fill="#77391e" fill-opacity="0.501961" x="-0.5" y="-0.5" width="1" height="1" /></g>
<polygon fill="#949e8d" fill-opacity="0.501961" points="18,213 69,260 -6,228" />
<polygon fill="#538676" fill-opacity="0.501961" points="52,225 67,211 64,193" />
<ellipse fill="#3b6d2e" fill-opacity="0.501961" cx="157" cy="84" rx="6" ry="6" />
<polygon fill="#a5ccc4" fill-opacity="0.501961" points="29,102 28,66 63,44" />
<polygon fill="#001603" fill-opacity="0.501961" points="187.549736,101.703579,152.596572,96.394879,162.966238,84.299969,145.563791,129.850320" />
<ellipse fill="#c9d4d1" fill-opacity="0.501961" cx="23" cy="0" rx="38" ry="6" />
<g transform="translate(38.884379 167.453432) rotate(104.891150) scale(28.234742 6.163533)"><ellipse fill="#668788" fill-opacity="0.501961" cx="0" cy="0" rx="1" ry="1" /></g>
<polygon fill="#171a03" fill-opacity="0.501961" points="107.287220,146.878043,133.940454,106.971845,136.092010,114.319725,112.481684,139.073185" />
<rect fill="#4a672c" fill-opacity="0.501961" x="139" y="105" width="10" height="13" />
<polygon fill="#25290a" fill-opacity="0.501961" points="118.192233,51.163844,108.436648,57.490601,120.549705,79.484973,110.370311,99.124816" />
<polygon fill="#98bd9f" fill-opacity="0.501961" points="154.301624,-16.000000,132.925884,-1.030537,94.330584,50.872456,118.203592,-16.000000" />
<ellipse fill="#81a178" fill-opacity="0.501961" cx="117" cy="35" rx="8" ry="17" />
<polygon fill="#1a3420" fill-opacity="0.501961" points="156.673429,217.283125,179.662532,189.512459,154.546254,198.356044,137.009321,179.279721" />
<polygon fill="#4d4417" fill-opacity="0.501961" points="109.799256,198.827726,127.338660,193.406618,103.675507,176.158376,98.220131,187.676935" />
<polygon fill="#000000" fill-opacity="0.501961" points="198.000000,169.278698,166.251186,160.374633,177.810546,185.419381,193.552768,217.004908" />
<polygon fill="#0f0c02" fill-opacity="0.501961" points="93.403186,138.112470,108.802125,129.962075,101.126950,144.898170,78.904686,177.045319" />
<polygon fill="#313207" fill-opacity="0.501961" points="162.264346,183.063173,157.024348,164.183617,198.000000,139.488592,178.390479,133.754073" />
<polygon fill="#966623" fill-opacity="0.501961" points="66.713713,102.894587,80.165493,90.348027,101.693415,76.733854,69.406505,86.652214" />
<g transform="translate(92.705897 126.798871) rotate(295.338966) scale(19.250304 1.692580)"><ellipse fill="#5b6424" fill-opacity="0.501961" cx="0" cy="0" rx="1" ry="1" /></g>
<polygon fill="#ba9471" fill-opacity="0.501961" points="73.036607,94.332533,61.800382,67.808060,73.707202,53.346704,55.135092,88.562421" />
<polygon fill="#141100" fill-opacity="0.501961" points="155.816867,163.736056,165.074047,176.041261,161.764471,199.225916,131.943631,176.103036" />
<g transform="translate(72 71) rotate(24) scale(12 8)"><rect fill="#695647" fill-opacity="0.501961" x="-0.5" y="-0.5" width="1" height="1" /></g>
<polygon fill="#0c1905" fill-opacity="0.501961" points="138,50 128,57 144,73" />
<polygon fill="#73705c" fill-opacity="0.501961" points="55,113 72,109 59,119" />
<polygon fill="#8f8a69" fill-opacity="0.501961" points="39.587632,109.449452,69.605605,101.982816,24.227116,123.697605,70.412461,81.150782" />
<g transform="translate(147 215) rotate(75) scale(10 13)"><rect fill="#84320d" fill-opacity="0.501961" x="-0.5" y="-0.5" width="1" height="1" /></g>
<g transform="translate(165.598607 220.326028) rotate(352.940039) scale(9.827617 1.974418)"><ellipse fill="#675e4d" fill-opacity="0.501961" cx="0" cy="0" rx="1" ry="1" /></g>
<polygon fill="#7b9556" fill-opacity="0.501961" points="106,122 102,106 115,99" />
<polygon fill="#456f3f" fill-opacity="0.501961" points="133,103 136,79 142,91" />
<polygon fill="#9cb1a0" fill-opacity="0.501961" points="29.597652,63.958680,21.554499,85.632876,1.047760,58.306740,16.375914,52.650740" />
<polygon fill="#6c7226" fill-opacity="0.501961" points="116,165 113,179 98,179" />
<g transform="translate(96 62) rotate(-6) scale(15 1)"><rect fill="#00130c" fill-opacity="0.501961" x="-0.5" y="-0.5" width="1" height="1" /></g>
<polygon fill="#81a68f" fill-opacity="0.501961" points="166.645256,32.689923,158.487215,46.349246,176.787870,41.460506,167.036696,20.295324" />
<g transform="translate(52.833130 146.101270) rotate(15.363901) scale(1.204258 3.465224)"><ellipse fill="#1f3f37" fill-opacity="0.501961" cx="0" cy="0" rx="1" ry="1" /></g>
<polygon fill="#5a5846" fill-opacity="0.501961" points="125,250 119,222 111,238" />
<g transform="translate(59 95) rotate(109) scale(5 14)"><rect fill="#312e13" fill-opacity="0.501961" x="-0.5" y="-0.5" width="1" height="1" /></g>
<g transform="translate(175 211) rotate(174) scale(39 9)"><rect fill="#22130b" fill-opacity="0.501961" x="-0.5" y="-0.5" width="1" height="1" /></g>
<polygon fill="#7ea595" fill-opacity="0.501961" points="117.826767,40.270236,144.528057,7.948826,52.102891,-16.000000,123.212942,15.590502" />
<polygon fill="#1f0e03" fill-opacity="0.501961" points="85.815246,190.868838,77.022777,199.080666,97.445745,237.388730,70.900936,214.927558" />
<polygon fill="#51775d" fill-opacity="0.501961" points="96,50 80,59 96,55" />
<ellipse fill="#7c999a" fill-opacity="0.501961" cx="0" cy="157" rx="9" ry="14" />
<polygon fill="#071103" fill-opacity="0.501961" points="139.517859,271.000000,138.083408,262.619328,154.724085,231.273832,154.513031,271.000000" />
<polygon fill="#0e5246" fill-opacity="0.501961" points="187,118 170,66 190,77" />
<polygon fill="#516f70" fill-opacity="0.501961" points="53,198 41,198 42,159" />
<g transform="translate(139.602382 239.213585) rotate(256.492024) scale(2.712583 10.506051)"><ellipse fill="#85806a" fill-opacity="0.501961" cx="0" cy="0" rx="1" ry="1" /></g>
<rect fill="#481709" fill-opacity="0.501961" x="79" y="208" width="51" height="7" />
<rect fill="#4c6757" fill-opacity="0.501961" x="59" y="246" width="7" height="10" />
<polygon fill="#b1bdb2" fill-opacity="0.501961" points="80.650921,-5.985738,55.039601,18.198835,38.722283,24.282889,19.551266,22.016566" />
<path stroke="#303413" stroke-opacity="0.501961" fill="none" d="M 152.342665 31.017853 Q 44.158302 94.968324, 140.511581 180.552962" stroke-width="0.500000" />
<polygon fill="#021100" fill-opacity="0.501961" points="144.255756,119.207834,157.866546,128.615229,170.129006,167.596011,169.094674,131.339394" />
<polygon fill="#5e3114" fill-opacity="0.501961" points="86,112 89,92 72,84" />
<polygon fill="#4f3824" fill-opacity="0.501961" points="86.772941,106.065870,48.899361,163.809626,61.072911,155.771680,83.240613,123.717084" />
<polygon fill="#32715e" fill-opacity="0.501961" points="162.465657,52.172969,185.187888,89.294999,162.311342,66.141899,173.396240,54.657379" />
<polygon fill="#702a1c" fill-opacity="0.501961" points="111.545393,229.784250,89.985150,210.315324,117.214984,219.605936,138.204813,192.879888" />
<polygon fill="#241301" fill-opacity="0.501961" points="90.220637,205.625457,95.141572,171.219897,100.381081,194.951164,126.237452,214.350299" />
<polygon fill="#0f3a23" fill-opacity="0.501961" points="135,242 139,270 97,260" />
<g transform="translate(49 136) rotate(285) scale(9 14)"><rect fill="#98b4a7" fill-opacity="0.501961" x="-0.5" y="-0.5" width="1" height="1" /></g>
<polygon fill="#4b643a" fill-opacity="0.501961" points="151,57 166,71 139,60" />
<polygon fill="#7f9990" fill-opacity="0.501961" points="40.199968,94.781523,40.688256,102.736352,60.973696,65.978696,54.047064,70.269456" />
<ellipse fill="#7c9e83" fill-opacity="0.501961" cx="46" cy="210" rx="11" ry="11" />
<polygon fill="#411b14" fill-opacity="0.501961" points="100.704438,250.230126,102.440224,249.754857,114.656389,228.855281,95.655464,227.716054" />
<rect fill="#262e29" fill-opacity="0.501961" x="49" y="168" width="5" height="19" />
<polygon fill="#b9c3a8" fill-opacity="0.501961" points="71.123646,39.297191,94.644358,-0.061710,121.412713,26.142542,110.337389,6.152485" />
<g transform="translate(77 137) rotate(147) scale(27 2)"><rect fill="#0b1300" fill-opacity="0.501961" x="-0.5" y="-0.5" width="1" height="1" /></g>
<polygon fill="#7f625b" fill-opacity="0.501961" points="66.837270,218.475153,57.213929,213.825992,51.656994,253.244160,56.145128,249.133330" />
<polygon fill="#92b7af" fill-opacity="0.501961" points="55.854244,73.367961,24.756685,114.436579,-1.170614,101.947026,32.359264,89.428537" />
<g transform="translate(64 139) rotate(139) scale(8 2)"><rect fill="#9d825a" fill-opacity="0.501961" x="-0.5" y="-0.5" width="1" height="1" /></g>
<polygon fill="#54480f" fill-opacity="0.501961" points="95.998049,93.506270,80.489279,75.753706,87.486469,92.967193,135.104829,42.999581" />
<polygon fill="#586e4c" fill-opacity="0.501961" points="147.480218,41.683137,155.805729,28.551480,146.239157,33.659541,144.064311,39.449302" />
<polygon fill="#2a3a0e" fill-opacity="0.501961" points="147,158 105,188 131,184" />
<g transform="translate(76.517954 187.870346) rotate(328.144113) scale(3.732905 2.367338)"><ellipse fill="#496255" fill-opacity="0.501961" cx="0" cy="0" rx="1" ry="1" /></g>
<polygon fill="#364136" fill-opacity="0.501961" points="152,48 143,43 166,28" />
<polygon fill="#161202" fill-opacity="0.501961" points="101.340197,157.449171,89.473494,146.553349,63.016662,145.992243,117.845737,156.818328" />
<polygon fill="#9b8777" fill-opacity="0.501961" points="59.071559,235.321212,50.591297,230.238338,37.280707,268.805826,47.046821,265.795219" />
<polygon fill="#002918" fill-opacity="0.501961" points="165.084066,145.551788,127.750290,168.947150,122.629950,159.599144,160.710222,140.275370" />
<polygon fill="#424547" fill-opacity="0.501961" points="93,163 87,166 89,179" />
<polygon fill="#002d1f" fill-opacity="0.501961" points="171.372541,204.977781,185.268457,195.265758,175.221236,185.619634,169.452220,190.535246" />
<polygon fill="#819790" fill-opacity="0.501961" points="181.065731,-7.070080,167.159517,16.136556,163.684248,30.899962,147.981448,17.163941" />
<polygon fill="#04230e" fill-opacity="0.501961" points="144.217309,102.836657,171.463515,97.206108,198.000000,82.332201,139.690247,97.324379" />
<polygon fill="#001300" fill-opacity="0.501961" points="157,117 136,119 153,127" />
<polygon fill="#7d8c70" fill-opacity="0.501961" points="191.688998,26.952167,198.000000,-16.000000,179.530296,22.321003,151.278245,44.146752" />
<g transform="translate(50 103) rotate(164) scale(17 3)"><rect fill="#c5bda1" fill-opacity="0.501961" x="-0.5" y="-0.5" width="1" height="1" /></g>
<polygon fill="#1a2213" fill-opacity="0.501961" points="85.272065,60.674439,73.117371,63.914591,73.055386,68.062099,100.297250,58.932871" />
<g transform="translate(147 24) rotate(97) scale(9 29)"><rect fill="#9db493" fill-opacity="0.501961" x="-0.5" y="-0.5" width="1" height="1" /></g>
<polygon fill="#474c1a" fill-opacity="0.501961" points="104.410576,129.937296,106.155572,119.506444,88.273290,141.925439,57.510709,146.424257" />
<polygon fill="#635c18" fill-opacity="0.501961" points="102.545656,117.120904,126.817310,124.128475,120.320535,136.189959,133.076305,130.680210" />
<polygon fill="#c5b2a4" fill-opacity="0.501961" points="63,66 55,75 59,86" />
<polygon fill="#5d6b68" fill-opacity="0.501961" points="63,158 64,167 35,172" />
<polygon fill="#563f38" fill-opacity="0.501961" points="72.416264,241.542550,58.720020,225.684665,57.374941,253.764522,56.206390,251.740617" />
<polygon fill="#784324" fill-opacity="0.501961" points="129,239 141,233 145,200" />
<ellipse fill="#254239" fill-opacity="0.501961" cx="69" cy="203" rx="3" ry="9" />
<polygon fill="#9c9981" fill-opacity="0.501961" points="100,20 95,39 65,55" />
<polygon fill="#677e74" fill-opacity="0.501961" points="41.993588,112.832228,45.664958,129.973305,56.478166,123.988683,32.661514,123.064175" />
<polygon fill="#321d08" fill-opacity="0.501961" points="192.137720,271.000000,143.511636,271.000000,156.620048,249.621468,169.719333,238.887559" />
<polygon fill="#3b632f" fill-opacity="0.501961" points="109.580904,114.941216,122.304247,117.741772,118.325567,116.001300,102.841685,131.305081" />
<ellipse fill="#aab08f" fill-opacity="0.501961" cx="98" cy="67" rx="3" ry="3" />
<polygon fill="#0c1a0d" fill-opacity="0.501961" points="84.699018,185.186659,62.768883,170.884886,88.507983,146.030146,65.440134,180.236098" />
<g transform="translate(89 80) rotate(78) scale(7 5)"><rect fill="#d9811f" fill-opacity="0.501961" x="-0.5" y="-0.5" width="1" height="1" /></g>
<g transform="translate(69.147112 79.905550) rotate(63.207733) scale(10.282681 3.102883)"><ellipse fill="#987753" fill-opacity="0.501961" cx="0" cy="0" rx="1" ry="1" /></g>
<ellipse fill="#1c0c05" fill-opacity="0.501961" cx="75" cy="104" rx="4" ry="4" />
<polygon fill="#67573a" fill-opacity="0.501961" points="52.491030,129.483833,69.297549,138.838115,63.727950,125.000812,92.110287,124.551673" />
<rect fill="#264f3e" fill-opacity="0.501961" x="105" y="248" width="40" height="3" />
<g transform="translate(83 85) rotate(305) scale(1 10)"><rect fill="#a4935e" fill-opacity="0.501961" x="-0.5" y="-0.5" width="1" height="1" /></g>
<rect fill="#001108" fill-opacity="0.501961" x="91" y="74" width="2" height="6" />
<polygon fill="#5c722c" fill-opacity="0.501961" points="98.001234,121.298741,127.161271,121.618108,99.886225,126.594628,108.484432,104.307151" />
<polygon fill="#b4c8bb" fill-opacity="0.501961" points="-16.000000,12.253679,-10.959653,74.013956,-13.221009,114.354023,9.204061,90.722205" />
<polygon fill="#201d08" fill-opacity="0.501961" points="95.500080,167.781109,170.055514,104.133388,127.863208,136.455488,121.250260,126.042602" />
<polygon fill="#85835e" fill-opacity="0.501961" points="66.650698,101.654638,38.285382,115.651077,67.835993,95.869437,50.491434,97.001011" />
<g transform="translate(161 162) rotate(143) scale(1 13)"><rect fill="#74470c" fill-opacity="0.501961" x="-0.5" y="-0.5" width="1" height="1" /></g>
<g transform="translate(127.207694 105.888542) rotate(82.845644) scale(2.170432 15.657680)"><ellipse fill="#1b3221" fill-opacity="0.501961" cx="0" cy="0" rx="1" ry="1" /></g>
<g transform="translate(72.247267 130.769575) rotate(247.601097) scale(1.000000 17.594206)"><ellipse fill="#27210d" fill-opacity="0.501961" cx="0" cy="0" rx="1" ry="1" /></g>
<polygon fill="#122318" fill-opacity="0.501961" points="91,60 106,65 98,59" />
<rect fill="#9b757d" fill-opacity="0.501961" x="130" y="203" width="7" height="9" />
<polygon fill="#6d9694" fill-opacity="0.501961" points="34,148 40,127 49,139" />
<polygon fill="#4e3807" fill-opacity="0.501961" points="110.593038,89.789358,87.920096,84.605736,109.061615,79.469570,115.286629,81.959841" />
<g transform="translate(78 167) rotate(302) scale(19 3)"><rect fill="#3a3932" fill-opacity="0.501961" x="-0.5" y="-0.5" width="1" height="1" /></g>
<polygon fill="#444023" fill-opacity="0.501961" points="147.310734,192.594942,135.171734,211.941520,158.615755,209.709889,154.994254,199.493121" />
<g transform="translate(123 212) rotate(37) scale(2 27)"><rect fill="#8a302f" fill-opacity="0.501961" x="-0.5" y="-0.5" width="1" height="1" /></g>
<g transform="translate(78 241) rotate(306) scale(5 31)"><rect fill="#251c17" fill-opacity="0.501961" x="-0.5" y="-0.5" width="1" height="1" /></g>
<rect fill="#418067" fill-opacity="0.501961" x="178" y="43" width="5" height="29" />
<ellipse fill="#a3c893" fill-opacity="0.501961" cx="102" cy="39" rx="6" ry="5" />
<polygon fill="#6a8681" fill-opacity="0.501961" points="33.530529,201.049385,56.163082,202.423754,35.088543,185.871083,23.654761,182.864763" />
<g transform="translate(60 92) rotate(214) scale(24 1)"><rect fill="#56452c" fill-opacity="0.501961" x="-0.5" y="-0.5" width="1" height="1" /></g>
<ellipse fill="#5d998c" fill-opacity="0.501961" cx="179" cy="50" rx="18" ry="5" />
<polygon fill="#304e2e" fill-opacity="0.501961" points="107.864423,51.685319,91.970964,53.721848,102.002640,49.131014,185.142574,83.164175" />
<ellipse fill="#000800" fill-opacity="0.501961" cx="83" cy="72" rx="3" ry="3" />
<polygon fill="#031a08" fill-opacity="0.501961" points="164.986977,111.348680,198.000000,150.447743,168.075668,74.536215,164.673597,69.739664" />
<polygon fill="#424317" fill-opacity="0.501961" points="120.573833,157.104136,110.210086,159.067634,105.935228,167.119565,105.025392,181.158003" />
<g transform="translate(26 47) rotate(148) scale(8 36)"><rect fill="#c5cebd" fill-opacity="0.501961" x="-0.5" y="-0.5" width="1" height="1" /></g>
<polygon fill="#92642e" fill-opacity="0.501961" points="99,121 90,115 83,117" />
<g transform="translate(141 242) rotate(286) scale(6 6)"><rect fill="#7c9d8f" fill-opacity="0.501961" x="-0.5" y="-0.5" width="1" height="1" /></g>
<polygon fill="#091808" fill-opacity="0.501961" points="93.890937,110.744249,79.439063,116.880804,107.251158,99.371995,90.190514,106.510952" />
<g transform="translate(162.131682 115.511065) rotate(51.616475) scale(22.926551 3.863304)"><ellipse fill="#113617" fill-opacity="0.501961" cx="0" cy="0" rx="1" ry="1" /></g>
<g transform="translate(77 76) rotate(33) scale(1 14)"><rect fill="#3d3f30" fill-opacity="0.501961" x="-0.5" y="-0.5" width="1" height="1" /></g>
<polygon fill="#422811" fill-opacity="0.501961" points="93.324479,199.188935,94.657729,175.426941,84.143500,207.519793,55.387494,252.848926" />
<polygon fill="#708254" fill-opacity="0.501961" points="106,105 122,84 119,100" />
<polygon fill="#8da293" fill-opacity="0.501961" points="20.864894,189.327314,12.491304,151.356335,22.283335,151.706024,36.913650,178.201154" />
<polygon fill="#6f5c1e" fill-opacity="0.501961" points="112,64 102,66 101,73" />
<g transform="translate(94 255) rotate(275) scale(25 5)"><rect fill="#354946" fill-opacity="0.501961" x="-0.5" y="-0.5" width="1" height="1" /></g>
<rect fill="#6d6049" fill-opacity="0.501961" x="88" y="71" width="9" height="5" />
<g transform="translate(12.887452 196.223666) rotate(284.999292) scale(17.396245 6.391575)"><ellipse fill="#aeb5ac" fill-opacity="0.501961" cx="0" cy="0" rx="1" ry="1" /></g>
<polygon fill="#3f2119" fill-opacity="0.501961" points="112,162 86,151 98,172" />
<polygon fill="#7d9485" fill-opacity="0.501961" points="60.764370,148.203797,51.753156,158.323959,48.808387,142.884573,40.788528,151.261279" />
<polygon fill="#181309" fill-opacity="0.501961" points="82.021631,188.690006,71.232233,212.878686,131.830086,197.198024,88.623919,199.357218" />
<g transform="translate(147.515952 113.585092) rotate(196.983452) scale(25.614612 1.164728)"><ellipse fill="#122b13" fill-opacity="0.501961" cx="0" cy="0" rx="1" ry="1" /></g>
<polygon fill="#3e411a" fill-opacity="0.501961" points="107,57 117,59 134,43" />
<polygon fill="#b4ac93" fill-opacity="0.501961" points="64.600473,68.302964,70.933671,63.480000,73.437276,60.221945,56.811522,60.035676" />
<g transform="translate(151 57) rotate(-22) scale(21 1)"><rect fill="#437867" fill-opacity="0.501961" x="-0.5" y="-0.5" width="1" height="1" /></g>
<polygon fill="#1c2b1c" fill-opacity="0.501961" points="168.407299,233.800836,131.274674,259.472298,165.148839,226.601544,166.761139,250.039187" />
<polygon fill="#3f5935" fill-opacity="0.501961" points="135,80 126,101 108,109" />
<polygon fill="#2c5428" fill-opacity="0.501961" points="122.663135,157.642368,119.296895,157.472935,113.722183,181.604915,135.430261,172.250979" />
<g transform="translate(96.345163 78.393446) rotate(303.943738) scale(4.480263 1.000000)"><ellipse fill="#ba7412" fill-opacity="0.501961" cx="0" cy="0" rx="1" ry="1" /></g>
<g transform="translate(123 64) rotate(272) scale(30 1)"><rect fill="#797937" fill-opacity="0.501961" x="-0.5" y="-0.5" width="1" height="1" /></g>
<ellipse fill="#486260" fill-opacity="0.501961" cx="50" cy="125" rx="4" ry="4" />
<g transform="translate(151 78) rotate(183) scale(33 2)"><rect fill="#10391c" fill-opacity="0.501961" x="-0.5" y="-0.5" width="1" height="1" /></g>
<g transform="translate(159 5) rotate(238) scale(7 23)"><rect fill="#657b7b" fill-opacity="0.501961" x="-0.5" y="-0.5" width="1" height="1" /></g>
<g transform="translate(35.132684 140.415212) rotate(251.124776) scale(1.000000 31.380326)"><ellipse fill="#96ae9b" fill-opacity="0.501961" cx="0" cy="0" rx="1" ry="1" /></g>
<rect fill="#6d8f8c" fill-opacity="0.501961" x="59" y="207" width="6" height="9" />
<g transform="translate(24.305789 247.336869) rotate(299.593548) scale(28.621791 2.569140)"><ellipse fill="#8aa080" fill-opacity="0.501961" cx="0" cy="0" rx="1" ry="1" /></g>
<g transform="translate(12.090072 24.293447) rotate(287.700201) scale(28.574064 17.573311)"><ellipse fill="#b1bfbe" fill-opacity="0.501961" cx="0" cy="0" rx="1" ry="1" /></g>
<g transform="translate(60 110) rotate(73) scale(1 9)"><rect fill="#271d0b" fill-opacity="0.501961" x="-0.5" y="-0.5" width="1" height="1" /></g>
<ellipse fill="#997c59" fill-opacity="0.501961" cx="101" cy="107" rx="3" ry="2" />
<ellipse fill="#212c1a" fill-opacity="0.501961" cx="59" cy="126" rx="3" ry="3" />
<polygon fill="#3a261f" fill-opacity="0.501961" points="69,226 84,244 115,246" />
<g transform="translate(131 52) rotate(39) scale(1 26)"><rect fill="#677350" fill-opacity="0.501961" x="-0.5" y="-0.5" width="1" height="1" /></g>
<polygon fill="#779573" fill-opacity="0.501961" points="121.494410,30.768901,122.709057,47.533099,139.299302,38.356127,106.665026,36.314213" />
<polygon fill="#2a4b23" fill-opacity="0.501961" points="159.981981,132.269493,143.638341,136.833145,124.576022,77.328025,142.189932,126.869304" />
<polygon fill="#96a498" fill-opacity="0.501961" points="15.479407,209.332400,-16.000000,252.296262,32.014403,201.222847,23.134271,181.333864" />
<polygon fill="#757c75" fill-opacity="0.501961" points="119.558124,231.450392,130.830513,219.319108,141.559211,193.738124,140.424252,194.444875" />
<polygon fill="#aec3b5" fill-opacity="0.501961" points="19.022857,113.683853,30.879603,119.454130,26.369190,136.370934,10.983084,150.795027" />
<rect fill="#0e1914" fill-opacity="0.501961" x="50" y="176" width="4" height="8" />
<polygon fill="#001001" fill-opacity="0.501961" points="172,241 198,215 198,263" />
<polygon fill="#5c3d21" fill-opacity="0.501961" points="115.996425,232.592322,118.154714,240.372595,149.271805,208.179777,129.219298,228.075878" />
<g transform="translate(106 62) rotate(51) scale(18 3)"><rect fill="#727141" fill-opacity="0.501961" x="-0.5" y="-0.5" width="1" height="1" /></g>
<polygon fill="#596a24" fill-opacity="0.501961" points="137,114 149,113 138,119" />
<polygon fill="#4d704e" fill-opacity="0.501961" points="53.794727,201.678650,66.125023,199.661492,71.900381,188.184142,58.885535,214.702901" />
<ellipse fill="#748a7f" fill-opacity="0.501961" cx="46" cy="95" rx="4" ry="4" />
<rect fill="#587876" fill-opacity="0.501961" x="122" y="242" width="5" height="6" />
<rect fill="#346b67" fill-opacity="0.501961" x="59" y="179" width="7" height="7" />
<polygon fill="#564a4f" fill-opacity="0.501961" points="114.899266,194.277185,138.710822,191.131392,130.531954,207.447543,128.877933,188.434387" />
<polygon fill="#4a5c55" fill-opacity="0.501961" points="42.319914,161.694751,54.051982,203.647415,49.223583,169.987045,44.081831,168.759714" />
<g transform="translate(60 123) rotate(70) scale(1 31)"><rect fill="#736d5b" fill-opacity="0.501961" x="-0.5" y="-0.5" width="1" height="1" /></g>
<ellipse fill="#194246" fill-opacity="0.501961" cx="171" cy="227" rx="6" ry="6" />
<g transform="translate(102 81) rotate(57) scale(2 26)"><rect fill="#6d5716" fill-opacity="0.501961" x="-0.5" y="-0.5" width="1" height="1" /></g>
<polygon fill="#121701" fill-opacity="0.501961" points="80.690926,153.737820,118.498001,136.847424,79.154328,135.714877,118.042447,126.309742" />
<ellipse fill="#893b24" fill-opacity="0.501961" cx="182" cy="215" rx="4" ry="4" />
<polygon fill="#3c140c" fill-opacity="0.501961" points="30.622960,271.000000,72.686833,271.000000,89.140409,243.186338,75.160516,253.227236" />
<ellipse fill="#526968" fill-opacity="0.501961" cx="179" cy="14" rx="6" ry="6" />
<polygon fill="#264621" fill-opacity="0.501961" points="143.433137,75.043132,155.491597,63.216833,136.988645,62.456376,136.460329,69.385460" />
<g transform="translate(145 75) rotate(197) scale(17 3)"><rect fill="#3f693b" fill-opacity="0.501961" x="-0.5" y="-0.5" width="1" height="1" /></g>
<g transform="translate(120 255) rotate(-30) scale(7 5)"><rect fill="#000c00" fill-opacity="0.501961" x="-0.5" y="-0.5" width="1" height="1" /></g>
<ellipse fill="#13221a" fill-opacity="0.501961" cx="53" cy="146" rx="2" ry="2" />
<g transform="translate(127.991893 17.165471) rotate(108.953901) scale(19.620594 6.201330)"><ellipse fill="#7d9c8c" fill-opacity="0.501961" cx="0" cy="0" rx="1" ry="1" /></g>
<polygon fill="#9bb59b" fill-opacity="0.501961" points="123.864317,-16.000000,115.752417,23.015999,77.469914,58.960299,97.852866,47.358205" />
<g transform="translate(36 242) rotate(121) scale(29 5)"><rect fill="#a8b9a0" fill-opacity="0.501961" x="-0.5" y="-0.5" width="1" height="1" /></g>
<polygon fill="#4c7232" fill-opacity="0.501961" points="116.145240,176.923587,112.110989,185.473947,108.792244,171.520999,125.991705,165.653565" />
<polygon fill="#7e9463" fill-opacity="0.501961" points="132.891300,37.559903,128.060219,38.606020,98.134344,48.377312,115.997713,53.699050" />
<polygon fill="#171e06" fill-opacity="0.501961" points="120,79 116,67 113,89" />
<rect fill="#452c21" fill-opacity="0.501961" x="95" y="146" width="17" height="6" />
<rect fill="#333b31" fill-opacity="0.501961" x="102" y="195" width="15" height="4" />
<polygon fill="#705833" fill-opacity="0.501961" points="38.842693,117.758282,84.083292,88.659452,72.597582,102.351832,64.096593,104.811665" />
<polygon fill="#3a5c13" fill-opacity="0.501961" points="198,141 198,165 178,142" />
<polygon fill="#46655a" fill-opacity="0.501961" points="151.206895,57.713348,164.002399,35.987370,145.140624,47.482050,151.345775,43.333094" />
<g transform="translate(157 224) rotate(137) scale(17 1)"><rect fill="#576452" fill-opacity="0.501961" x="-0.5" y="-0.5" width="1" height="1" /></g>
<ellipse fill="#81ae9b" fill-opacity="0.501961" cx="64" cy="53" rx="5" ry="5" />
<polygon fill="#4e6559" fill-opacity="0.501961" points="79.279360,177.028755,56.655412,220.073966,70.580222,205.687607,50.113100,233.397564" />
<polygon fill="#aebea8" fill-opacity="0.501961" points="17.371642,68.557747,-10.807714,73.117684,39.951240,47.099418,50.700986,48.281317" />
<polygon fill="#55625e" fill-opacity="0.501961" points="118,237 110,237 116,247" />
<polygon fill="#0d2510" fill-opacity="0.501961" points="82,175 72,172 62,190" />
<polygon fill="#151509" fill-opacity="0.501961" points="75,204 97,213 71,192" />
<polygon fill="#93a48c" fill-opacity="0.501961" points="41,106 32,105 30,135" />
<ellipse fill="#7d5b0c" fill-opacity="0.501961" cx="128" cy="129" rx="3" ry="3" />
<polygon fill="#1f3814" fill-opacity="0.501961" points="145.694771,76.713745,159.666745,98.926160,147.058223,82.598252,128.693524,93.332118" />
<polygon fill="#050700" fill-opacity="0.501961" points="75,241 80,234 73,234" />
<polygon fill="#a1a89d" fill-opacity="0.501961" points="-16.000000,270.293966,19.568445,235.981983,5.437301,232.426089,13.315761,137.872554" />
<polygon fill="#5b7677" fill-opacity="0.501961" points="52.415402,165.473580,63.802994,171.645616,41.855959,156.395949,30.479785,173.286058" />
<polygon fill="#412205" fill-opacity="0.501961" points="81,89 108,93 89,103" />
<g transform="translate(46 111) rotate(345) scale(10 1)"><rect fill="#afae86" fill-opacity="0.501961" x="-0.5" y="-0.5" width="1" height="1" /></g>
<g transform="translate(115 59) rotate(340) scale(1 22)"><rect fill="#4b4618" fill-opacity="0.501961" x="-0.5" y="-0.5" width="1" height="1" /></g>
<polygon fill="#343425" fill-opacity="0.501961" points="57.630688,128.764141,63.435258,118.624654,67.808743,111.092120,66.527583,120.564213" />
<polygon fill="#879370" fill-opacity="0.501961" points="198.000000,36.619820,173.507646,36.390530,191.069217,-4.070197,198.000000,28.897797" />
<polygon fill="#3f380b" fill-opacity="0.501961" points="100.167469,79.608276,122.372240,63.476061,104.237540,99.801097,116.642809,60.019227" />
<polygon fill="#3c402b" fill-opacity="0.501961" points="70,156 62,158 58,181" />
<rect fill="#061e08" fill-opacity="0.501961" x="124" y="152" width="15" height="12" />
<polygon fill="#307449" fill-opacity="0.501961" points="140.980889,79.979640,124.312244,89.092246,130.212381,82.475608,120.807252,77.072771" />
<ellipse fill="#bfcdc1" fill-opacity="0.501961" cx="31" cy="76" rx="6" ry="6" />
<polygon fill="#5f2917" fill-opacity="0.501961" points="78.723533,213.279365,69.114941,219.204507,68.398725,232.533210,78.424612,221.945064" />
<polygon fill="#100900" fill-opacity="0.501961" points="96,227 89,231 80,216" />
<g transform="translate(92.930920 0.000000) rotate(157.581636) scale(13.648913 2.436570)"><ellipse fill="#8da39d" fill-opacity="0.501961" cx="0" cy="0" rx="1" ry="1" /></g>
<rect fill="#9db9af" fill-opacity="0.501961" x="89" y="64" width="8" height="2" />
<polygon fill="#75431d" fill-opacity="0.501961" points="84.074346,190.012508,89.988786,178.385559,106.832196,184.917266,102.796469,169.615926" />
<polygon fill="#53503c" fill-opacity="0.501961" points="75.020798,60.324739,69.754083,68.104185,80.204963,73.667884,71.673905,56.484306" />
<polygon fill="#7d8149" fill-opacity="0.501961" points="138.391310,72.363548,119.568236,75.314253,125.218512,62.336597,131.522400,75.705616" />
<polygon fill="#95b18a" fill-opacity="0.501961" points="124.184477,21.807177,142.583406,36.169566,158.607668,21.933426,156.822797,25.519057" />
<g transform="translate(160 58) rotate(80) scale(15 9)"><rect fill="#528971" fill-opacity="0.501961" x="-0.5" y="-0.5" width="1" height="1" /></g>
<g transform="translate(53.268671 137.929047) rotate(124.152093) scale(9.308287 1.000000)"><ellipse fill="#aeb89c" fill-opacity="0.501961" cx="0" cy="0" rx="1" ry="1" /></g>
<polygon fill="#829985" fill-opacity="0.501961" points="22.746661,186.674090,49.400339,233.443899,59.552127,190.127568,54.950839,216.875224" />
<polygon fill="#99bcb0" fill-opacity="0.501961" points="39.283744,75.411342,38.447434,102.604950,10.992109,123.678286,70.440426,49.619279" />
<g transform="translate(73 132) rotate(225) scale(1 8)"><rect fill="#130700" fill-opacity="0.501961" x="-0.5" y="-0.5" width="1" height="1" /></g>
<polygon fill="#89ab6b" fill-opacity="0.501961" points="118.363895,34.567384,117.725269,37.958406,105.370336,35.983518,103.599106,52.247249" />
<polygon fill="#6e6822" fill-opacity="0.501961" points="122,62 123,70 116,61" />
<rect fill="#040f02" fill-opacity="0.501961" x="52" y="92" width="7" height="3" />
<polygon fill="#083f2b" fill-opacity="0.501961" points="152,150 144,164 144,144" />
<g transform="translate(94 125) rotate(222) scale(1 10)"><rect fill="#7b8334" fill-opacity="0.501961" x="-0.5" y="-0.5" width="1" height="1" /></g>
<polygon fill="#0e1602" fill-opacity="0.501961" points="76.533997,131.761670,85.755896,136.465778,75.664708,141.196689,78.083287,129.673934" />
<polygon fill="#742e28" fill-opacity="0.501961" points="125,214 112,216 117,228" />
<polygon fill="#777b76" fill-opacity="0.501961" points="55,170 55,157 60,173" />
<polygon fill="#34672b" fill-opacity="0.501961" points="100,120 106,109 92,119" />
<polygon fill="#270d06" fill-opacity="0.501961" points="117,213 123,194 108,217" />
<polygon fill="#21413e" fill-opacity="0.501961" points="129,182 134,190 147,188" />
<polygon fill="#89b18f" fill-opacity="0.501961" points="145.151597,22.851239,123.824247,40.134353,86.603010,45.007963,95.883524,48.039889" />
<rect fill="#2e1613" fill-opacity="0.501961" x="79" y="113" width="3" height="10" />
<g transform="translate(90 177) rotate(294) scale(14 1)"><rect fill="#7c4644" fill-opacity="0.501961" x="-0.5" y="-0.5" width="1" height="1" /></g>
<rect fill="#211f0f" fill-opacity="0.501961" x="64" y="143" width="5" height="28" />
<polygon fill="#607451" fill-opacity="0.501961" points="157.923334,27.775062,144.967028,33.885494,166.951723,35.971128,152.681865,34.636899" />
<polygon fill="#6a1c05" fill-opacity="0.501961" points="96,209 108,218 94,218" />
<g transform="translate(130.214926 207.097137) rotate(105.858798) scale(8.995404 1.000000)"><ellipse fill="#844048" fill-opacity="0.501961" cx="0" cy="0" rx="1" ry="1" /></g>
<rect fill="#142a0a" fill-opacity="0.501961" x="167" y="150" width="6" height="35" />
<g transform="translate(182 138) rotate(-17) scale(19 7)"><rect fill="#063b14" fill-opacity="0.501961" x="-0.5" y="-0.5" width="1" height="1" /></g>
<rect fill="#aaccc0" fill-opacity="0.501961" x="57" y="14" width="5" height="34" />
<ellipse fill="#100b01" fill-opacity="0.501961" cx="71" cy="122" rx="2" ry="2" />
<polygon fill="#534313" fill-opacity="0.501961" points="102.061579,177.979919,112.143402,199.228325,118.152403,183.705647,100.162359,190.967891" />
<polygon fill="#141905" fill-opacity="0.501961" points="130,177 142,167 173,193" />
<ellipse fill="#85ab8a" fill-opacity="0.501961" cx="169" cy="36" rx="6" ry="6" />
<g transform="translate(58 185) rotate(116) scale(10 1)"><rect fill="#48716c" fill-opacity="0.501961" x="-0.5" y="-0.5" width="1" height="1" /></g>
<ellipse fill="#816c15" fill-opacity="0.501961" cx="119" cy="122" rx="3" ry="4" />
<polygon fill="#0d1403" fill-opacity="0.501961" points="90,149 84,144 76,156" />
<polygon fill="#2c1508" fill-opacity="0.501961" points="148,230 152,225 150,215" />
<g transform="translate(59 142) rotate(145) scale(6 5)"><rect fill="#888653" fill-opacity="0.501961" x="-0.5" y="-0.5" width="1" height="1" /></g>
<g transform="translate(107 116) rotate(222) scale(1 10)"><rect fill="#9c9c59" fill-opacity="0.501961" x="-0.5" y="-0.5" width="1" height="1" /></g>
<g transform="translate(29 48) rotate(195) scale(12 19)"><rect fill="#cad2be" fill-opacity="0.501961" x="-0.5" y="-0.5" width="1" height="1" /></g>
<polygon fill="#8e9b8d" fill-opacity="0.501961" points="12.296890,226.171765,21.292477,233.532428,16.340666,214.766413,-3.617855,233.634393" />
<rect fill="#402a08" fill-opacity="0.501961" x="84" y="75" width="2" height="9" />
<polygon fill="#0b1300" fill-opacity="0.501961" points="92,75 92,79 94,77" />
<g transform="translate(102.607288 101.721723) rotate(253.693565) scale(2.359576 6.828480)"><ellipse fill="#101606" fill-opacity="0.501961" cx="0" cy="0" rx="1" ry="1" /></g>
<g transform="translate(63 134) rotate(140) scale(15 1)"><rect fill="#262c1a" fill-opacity="0.501961" x="-0.5" y="-0.5" width="1" height="1" /></g>
<polygon fill="#95b1a7" fill-opacity="0.501961" points="4.848950,136.489205,-12.272779,159.468943,31.206826,134.497110,35.126755,161.968840" />
<polygon fill="#13462e" fill-opacity="0.501961" points="178.543112,88.222795,147.201243,72.988528,198.000000,91.481591,177.865137,68.463137" />
<ellipse fill="#413e2c" fill-opacity="0.501961" cx="86" cy="211" rx="3" ry="3" />
<g transform="translate(72 113) rotate(108) scale(5 15)"><rect fill="#845d48" fill-opacity="0.501961" x="-0.5" y="-0.5" width="1" height="1" /></g>
<polygon fill="#192f22" fill-opacity="0.501961" points="85,188 85,171 72,180" />
<ellipse fill="#1f6252" fill-opacity="0.501961" cx="138" cy="248" rx="4" ry="4" />
<g transform="translate(135.818547 216.401447) rotate(199.979528) scale(3.450140 4.213854)"><ellipse fill="#403c2b" fill-opacity="0.501961" cx="0" cy="0" rx="1" ry="1" /></g>
<rect fill="#000b00" fill-opacity="0.501961" x="95" y="189" width="5" height="8" />
<polygon fill="#464e2b" fill-opacity="0.501961" points="61,196 73,198 64,186" />
<g transform="translate(26.551116 213.298088) rotate(452.579972) scale(3.012502 5.788430)"><ellipse fill="#b2c0a8" fill-opacity="0.501961" cx="0" cy="0" rx="1" ry="1" /></g>
<polygon fill="#1e332c" fill-opacity="0.501961" points="97.206679,249.400302,111.937392,252.224929,126.783770,236.560721,107.397293,266.705353" />
<rect fill="#423732" fill-opacity="0.501961" x="58" y="221" width="2" height="6" />
<polygon fill="#081506" fill-opacity="0.501961" points="140.571707,55.419104,140.726674,47.170387,131.306449,62.624384,133.403457,65.899004" />
<polygon fill="#93a99c" fill-opacity="0.501961" points="28.173298,62.038252,28.180790,68.461319,13.288351,80.617361,18.195879,69.339387" />
<ellipse fill="#000000" fill-opacity="0.501961" cx="132" cy="116" rx="2" ry="2" />
<ellipse fill="#537369" fill-opacity="0.501961" cx="86" cy="66" rx="2" ry="2" />
<ellipse fill="#0d1300" fill-opacity="0.501961" cx="138" cy="137" rx="4" ry="4" />
<path stroke="#36341c" stroke-opacity="0.501961" fill="none" d="M 97.204263 91.273668 Q 106.367503 121.032131, 71.743335 115.299751" stroke-width="0.500000" />
<polygon fill="#203d16" fill-opacity="0.501961" points="157.428660,104.570528,150.565423,98.123955,143.401716,113.875728,151.044417,115.210526" />
<ellipse fill="#050e00" fill-opacity="0.501961" cx="68" cy="175" rx="2" ry="12" />
<rect fill="#30382f" fill-opacity="0.501961" x="49" y="86" width="6" height="7" />
<ellipse fill="#7e7832" fill-opacity="0.501961" cx="86" cy="139" rx="2" ry="2" />
<ellipse fill="#385b5f" fill-opacity="0.501961" cx="158" cy="225" rx="4" ry="4" />
<polygon fill="#25331f" fill-opacity="0.501961" points="164.131872,32.613563,158.994904,30.619506,132.472698,57.336665,142.912130,49.322122" />
<polygon fill="#3d3003" fill-opacity="0.501961" points="93,88 74,88 85,93" />
<polygon fill="#a1ae98" fill-opacity="0.501961" points="66.011276,38.963866,69.490162,33.284531,92.812761,31.581745,83.389350,41.218784" />
<polygon fill="#789677" fill-opacity="0.501961" points="51.674001,197.330813,47.955057,232.705953,58.313792,219.430961,52.947024,196.328112" />
<polygon fill="#c6bda7" fill-opacity="0.501961" points="49,107 52,102 41,100" />
<rect fill="#363a2f" fill-opacity="0.501961" x="81" y="199" width="4" height="5" />
<polygon fill="#394d28" fill-opacity="0.501961" points="132.742594,66.406061,135.191835,70.918226,154.462481,46.210344,152.466132,47.193507" />
<ellipse fill="#8da461" fill-opacity="0.501961" cx="127" cy="71" rx="3" ry="3" />
<polygon fill="#2e2c19" fill-opacity="0.501961" points="168.239802,243.710589,198.000000,199.166038,141.859946,271.000000,132.652030,271.000000" />
<polygon fill="#b8c8a5" fill-opacity="0.501961" points="118.976089,18.253448,107.006577,15.067951,94.244239,9.562602,111.650176,9.726341" />
<polygon fill="#a6b7b6" fill-opacity="0.501961" points="21.700804,23.038958,5.782729,39.521925,4.233293,11.303249,9.854300,8.120213" />
<polygon fill="#6e9088" fill-opacity="0.501961" points="138.580739,4.228520,178.055929,27.120381,169.620886,32.117123,159.492712,21.685802" />
<polygon fill="#c2d8ca" fill-opacity="0.501961" points="70.940558,21.053376,38.109533,37.169208,13.296808,34.221827,50.718750,48.960120" />
<polygon fill="#74452f" fill-opacity="0.501961" points="130,233 139,223 128,222" />
<ellipse fill="#265b43" fill-opacity="0.501961" cx="121" cy="111" rx="4" ry="4" />
<g transform="translate(42 116) rotate(260) scale(1 12)"><rect fill="#778c79" fill-opacity="0.501961" x="-0.5" y="-0.5" width="1" height="1" /></g>
<polygon fill="#4c4e46" fill-opacity="0.501961" points="47.797214,172.204289,59.948691,182.299774,51.635269,161.839971,48.070364,185.655379" />
<polygon fill="#46503c" fill-opacity="0.501961" points="66.754319,161.357811,48.390467,158.471018,61.799786,151.983414,58.648481,181.151093" />
<polygon fill="#868362" fill-opacity="0.501961" points="64.678132,58.590604,67.779427,56.201308,92.806759,59.340242,78.769556,51.639241" />
<polygon fill="#6b2508" fill-opacity="0.501961" points="145,230 138,229 146,207" />
<g transform="translate(62 85) rotate(74) scale(8 9)"><rect fill="#b98d6b" fill-opacity="0.501961" x="-0.5" y="-0.5" width="1" height="1" /></g>
<ellipse fill="#88362d" fill-opacity="0.501961" cx="157" cy="219" rx="2" ry="2" />
<g transform="translate(6.643024 255.000000) rotate(223.706168) scale(3.839039 20.316354)"><ellipse fill="#adbaae" fill-opacity="0.501961" cx="0" cy="0" rx="1" ry="1" /></g>
<rect fill="#1c1c11" fill-opacity="0.501961" x="151" y="211" width="31" height="3" />
<polygon fill="#6c9569" fill-opacity="0.501961" points="107.827138,113.187189,120.816247,115.821058,122.037019,118.942507,114.083070,110.931330" />
<polygon fill="#081300" fill-opacity="0.501961" points="171.100052,125.896705,159.059221,133.300561,174.906636,148.212856,158.810374,158.413577" />
<polygon fill="#9d9b7e" fill-opacity="0.501961" points="51.506699,100.583291,55.524751,105.593677,61.411072,98.246058,42.291590,98.658357" />
<rect fill="#202b1d" fill-opacity="0.501961" x="100" y="60" width="4" height="7" />
<g transform="translate(108.853990 140.832627) rotate(325.730609) scale(11.583680 2.212959)"><ellipse fill="#110900" fill-opacity="0.501961" cx="0" cy="0" rx="1" ry="1" /></g>
<g transform="translate(50 114) rotate(378) scale(9 1)"><rect fill="#121c09" fill-opacity="0.501961" x="-0.5" y="-0.5" width="1" height="1" /></g>
<g transform="translate(130 131) rotate(17) scale(20 1)"><rect fill="#6f4709" fill-opacity="0.501961" x="-0.5" y="-0.5" width="1" height="1" /></g>
<polygon fill="#1b1900" fill-opacity="0.501961" points="102,73 105,74 100,79" />
<g transform="translate(67.965666 153.397003) rotate(236.709229) scale(2.569762 10.151992)"><ellipse fill="#252515" fill-opacity="0.501961" cx="0" cy="0" rx="1" ry="1" /></g>
<path stroke="#99aca0" stroke-opacity="0.501961" fill="none" d="M 6.914570 44.184614 Q 33.437693 100.274477, 64.378959 108.876770" stroke-width="0.500000" />
<rect fill="#8b6d37" fill-opacity="0.501961" x="64" y="92" width="11" height="3" />
<polygon fill="#3f785c" fill-opacity="0.501961" points="198.000000,85.195044,163.382464,57.324650,164.998305,73.515438,198.000000,33.552327" />
<ellipse fill="#3c3618" fill-opacity="0.501961" cx="93" cy="72" rx="2" ry="2" />
<polygon fill="#333a12" fill-opacity="0.501961" points="142,151 128,134 137,140" />
<polygon fill="#c2ccc1" fill-opacity="0.501961" points="5,204 16,205 12,207" />
<polygon fill="#8ea487" fill-opacity="0.501961" points="30,234 33,214 58,215" />
<polygon fill="#552f1b" fill-opacity="0.501961" points="87.016420,98.043443,52.572761,112.492287,70.185221,106.147202,73.615789,95.155367" />
<polygon fill="#634e32" fill-opacity="0.501961" points="68,142 75,133 66,137" />
<g transform="translate(125 105) rotate(317) scale(12 1)"><rect fill="#0f1905" fill-opacity="0.501961" x="-0.5" y="-0.5" width="1" height="1" /></g>
<polygon fill="#0d1904" fill-opacity="0.501961" points="82,68 89,68 87,72" />
<g transform="translate(110 118) rotate(395) scale(1 7)"><rect fill="#16512e" fill-opacity="0.501961" x="-0.5" y="-0.5" width="1" height="1" /></g>
<polygon fill="#244018" fill-opacity="0.501961" points="152.040411,129.267309,137.983555,134.202936,145.431502,139.813420,163.684871,134.244654" />
<polygon fill="#95aca9" fill-opacity="0.501961" points="1,52 18,52 4,64" />
<rect fill="#122724" fill-opacity="0.501961" x="53" y="178" width="2" height="15" />
<g transform="translate(108.144526 105.775125) rotate(81.575762) scale(1.000000 3.507293)"><ellipse fill="#9ea568" fill-opacity="0.501961" cx="0" cy="0" rx="1" ry="1" /></g>
<ellipse fill="#102b13" fill-opacity="0.501961" cx="142" cy="69" rx="4" ry="4" />
<polygon fill="#001504" fill-opacity="0.501961" points="151.307983,93.139294,184.686498,108.359739,173.084730,99.925223,166.157798,117.194142" />
<ellipse fill="#0b0700" fill-opacity="0.501961" cx="79" cy="247" rx="4" ry="4" />
<rect fill="#56656c" fill-opacity="0.501961" x="131" y="194" width="12" height="6" />
<polygon fill="#adb298" fill-opacity="0.501961" points="95.973130,16.353812,82.782228,30.156933,110.643487,16.525508,103.816077,33.100592" />
<polygon fill="#a2b5a1" fill-opacity="0.501961" points="18.178911,109.545105,31.902854,127.560230,32.661080,133.063671,32.940268,98.841205" />
<polygon fill="#c7d1cb" fill-opacity="0.501961" points="-8.135628,-1.016221,56.473165,4.270461,14.827368,-16.000000,-11.966787,46.531593" />
<polygon fill="#92b8a7" fill-opacity="0.501961" points="71.024124,-16.000000,117.419886,14.999874,136.796362,-16.000000,113.065165,6.192016" />
<polygon fill="#2f300a" fill-opacity="0.501961" points="110.744348,135.494950,101.881527,138.286148,142.583169,109.845277,120.165533,130.048809" />
<polygon fill="#102c10" fill-opacity="0.501961" points="167,201 171,189 147,191" />
<rect fill="#485c44" fill-opacity="0.501961" x="71" y="186" width="3" height="6" />
<g transform="translate(131.835752 45.033064) rotate(32.637929) scale(1.000000 4.020558)"><ellipse fill="#284227" fill-opacity="0.501961" cx="0" cy="0" rx="1" ry="1" /></g>
<g transform="translate(181 80) rotate(281) scale(6 19)"><rect fill="#14594c" fill-opacity="0.501961" x="-0.5" y="-0.5" width="1" height="1" /></g>
<polygon fill="#a2af89" fill-opacity="0.501961" points="76.243440,58.180848,102.638622,46.540452,87.618998,49.882948,96.617990,42.256382" />
<g transform="translate(122 100) rotate(-12) scale(11 1)"><rect fill="#6f7745" fill-opacity="0.501961" x="-0.5" y="-0.5" width="1" height="1" /></g>
<polygon fill="#406338" fill-opacity="0.501961" points="158,86 150,86 160,75" />
<polygon fill="#0a2d1d" fill-opacity="0.501961" points="157.648037,71.464122,170.366904,77.411586,173.848664,83.171923,198.000000,129.037092" />
<polygon fill="#33542f" fill-opacity="0.501961" points="163.546407,64.493009,158.877913,73.014738,114.456658,68.521342,140.277770,70.719266" />
<polygon fill="#695550" fill-opacity="0.501961" points="115,231 122,220 127,220" />
<polygon fill="#312c04" fill-opacity="0.501961" points="138,124 129,151 120,147" />
<polygon fill="#969c92" fill-opacity="0.501961" points="52,240 33,258 50,230" />
<g transform="translate(88 77) rotate(290) scale(9 1)"><rect fill="#b16e32" fill-opacity="0.501961" x="-0.5" y="-0.5" width="1" height="1" /></g>
<polygon fill="#407a82" fill-opacity="0.501961" points="155,49 149,53 158,58" />
<g transform="translate(172 0) rotate(80) scale(15 8)"><rect fill="#83908d" fill-opacity="0.501961" x="-0.5" y="-0.5" width="1" height="1" /></g>
<polygon fill="#799ea0" fill-opacity="0.501961" points="42.415847,145.146999,55.343378,140.903620,38.213782,153.857754,29.827074,127.208693" />
<polygon fill="#072f15" fill-opacity="0.501961" points="197.317472,174.114788,167.378600,155.324407,170.847365,155.079707,179.398265,154.944380" />
<polygon fill="#3c2b0a" fill-opacity="0.501961" points="113.689210,84.032405,103.153470,102.891432,97.834129,82.899644,86.863700,84.911222" />
<g transform="translate(97 59) rotate(-8) scale(3 6)"><rect fill="#102111" fill-opacity="0.501961" x="-0.5" y="-0.5" width="1" height="1" /></g>
<g transform="translate(125.932081 76.086004) rotate(363.093442) scale(5.741580 1.000000)"><ellipse fill="#37612f" fill-opacity="0.501961" cx="0" cy="0" rx="1" ry="1" /></g>
<polygon fill="#353621" fill-opacity="0.501961" points="63,118 54,122 45,116" />
<g transform="translate(85.813083 166.644512) rotate(38.674868) scale(2.165558 11.730113)"><ellipse fill="#0d140d" fill-opacity="0.501961" cx="0" cy="0" rx="1" ry="1" /></g>
<polygon fill="#301816" fill-opacity="0.501961" points="122.214845,193.351174,108.733350,207.839700,123.510943,201.992317,128.567541,195.386367" />
<polygon fill="#a4bfb1" fill-opacity="0.501961" points="51.898105,55.337792,29.910130,47.650882,32.362951,50.786266,79.437688,41.378421" />
<polygon fill="#bccabe" fill-opacity="0.501961" points="65.087499,39.998975,49.111684,23.366950,53.094558,2.042509,15.632409,10.576847" />
<polygon fill="#060f0d" fill-opacity="0.501961" points="163,203 164,212 192,195" />
<polygon fill="#8f5549" fill-opacity="0.501961" points="76,118 72,117 76,120" />
<path stroke="#63593e" stroke-opacity="0.501961" fill="none" d="M 41.435259 105.983240 Q 63.801037 117.762087, 89.168620 125.190432" stroke-width="0.500000" />
<polygon fill="#0c3015" fill-opacity="0.501961" points="154,73 152,80 159,72" />
<g transform="translate(115.800193 167.622320) rotate(36.016570) scale(1.000000 6.802424)"><ellipse fill="#63782b" fill-opacity="0.501961" cx="0" cy="0" rx="1" ry="1" /></g>
</g>
</svg>