<svg xmlns="http://www.w3.org/2000/svg" version="1.1" width="724" height="1024">
<rect x="0" y="0" width="724" height="1024" fill="#41484c" />
<g transform="scale(4.000000) translate(0.5 0.5)">
<g transform="translate(159.905675 181.391687) rotate(319.712428) scale(61.367437 34.150064)"><ellipse fill="#9ea8b2" fill-opacity="0.501961" cx="0" cy="0" rx="1" ry="1" /></g>
<g transform="translate(100.631459 117.627451) rotate(251.977444) scale(63.946181 34.954339)"><ellipse fill="#000000" fill-opacity="0.501961" cx="0" cy="0" rx="1" ry="1" /></g>
<g transform="translate(9.236251 239.021422) rotate(279.777451) scale(24.899212 116.475573)"><ellipse fill="#000105" fill-opacity="0.501961" cx="0" cy="0" rx="1" ry="1" /></g>
<g transform="translate(160.482402 108.717261) rotate(154.656415) scale(22.533067 78.665019)"><ellipse fill="#6f7a83" fill-opacity="0.501961" cx="0" cy="0" rx="1" ry="1" /></g>
<rect fill="#8b98a1" fill-opacity="0.501961" x="54" y="129" width="16" height="84" />
<g transform="translate(90 197) rotate(358) scale(11 48)"><rect fill="#aab7c1" fill-opacity="0.501961" x="-0.5" y="-0.5" width="1" height="1" /></g>
<g transform="translate(99.282387 140.665591) rotate(41.433617) scale(23.117563 36.153826)"><ellipse fill="#000503" fill-opacity="0.501961" cx="0" cy="0" rx="1" ry="1" /></g>
<g transform="translate(47.125266 110.251202) rotate(16.754668) scale(10.814513 38.153142)"><ellipse fill="#728089" fill-opacity="0.501961" cx="0" cy="0" rx="1" ry="1" /></g>
<polygon fill="#75818a" fill-opacity="0.501961" points="105,164 196,237 113,229" />
<g transform="translate(144.996825 173.511568) rotate(7.740674) scale(19.799393 30.693775)"><ellipse fill="#81868b" fill-opacity="0.501961" cx="0" cy="0" rx="1" ry="1" /></g>
<g transform="translate(53.814333 137.035226) rotate(108.448064) scale(28.176777 5.347832)"><ellipse fill="#000400" fill-opacity="0.501961" cx="0" cy="0" rx="1" ry="1" /></g>
<g transform="translate(56.149524 190.922748) rotate(353.576100) scale(18.955337 26.857535)"><ellipse fill="#66747e" fill-opacity="0.501961" cx="0" cy="0" rx="1" ry="1" /></g>
<polygon fill="#8f9ca1" fill-opacity="0.501961" points="52,144 75,101 69,132" />
<polygon fill="#000709" fill-opacity="0.501961" points="87,169 77,217 71,138" />
<ellipse fill="#292829" fill-opacity="0.501961" cx="155" cy="9" rx="36" ry="26" />
<ellipse fill="#170c00" fill-opacity="0.501961" cx="87" cy="89" rx="27" ry="29" />
<g transform="translate(0.000000 151.402486) rotate(184.763535) scale(44.993731 26.259247)"><ellipse fill="#51656d" fill-opacity="0.501961" cx="0" cy="0" rx="1" ry="1" /></g>
<polygon fill="#552209" fill-opacity="0.501961" points="63.688774,33.207376,99.103775,41.859905,90.541132,72.386719,90.415989,87.251287" />
<ellipse fill="#65747b" fill-opacity="0.501961" cx="79" cy="24" rx="15" ry="15" />
<g transform="translate(45.743883 46.714957) rotate(301.784655) scale(18.476847 26.932462)"><ellipse fill="#54646e" fill-opacity="0.501961" cx="0" cy="0" rx="1" ry="1" /></g>
<ellipse fill="#292a2c" fill-opacity="0.501961" cx="0" cy="84" rx="30" ry="26" />
<ellipse fill="#0b1316" fill-opacity="0.501961" cx="101" cy="182" rx="5" ry="39" />
<g transform="translate(114.202751 129.719434) rotate(121.697105) scale(28.410204 28.816000)"><ellipse fill="#090e0c" fill-opacity="0.501961" cx="0" cy="0" rx="1" ry="1" /></g>
<g transform="translate(164.385753 116.175856) rotate(174.728695) scale(25.685408 40.106480)"><ellipse fill="#666e75" fill-opacity="0.501961" cx="0" cy="0" rx="1" ry="1" /></g>
<ellipse fill="#55606a" fill-opacity="0.501961" cx="152" cy="220" rx="72" ry="9" />
<ellipse fill="#272f36" fill-opacity="0.501961" cx="129" cy="255" rx="56" ry="19" />
<g transform="translate(129.216667 57.276545) rotate(120.056588) scale(24.502235 31.576833)"><ellipse fill="#49565e" fill-opacity="0.501961" cx="0" cy="0" rx="1" ry="1" /></g>
<g transform="translate(29.014312 255.000000) rotate(-21.006382) scale(48.263533 46.586151)"><ellipse fill="#171e23" fill-opacity="0.501961" cx="0" cy="0" rx="1" ry="1" /></g>
<g transform="translate(128.490320 197.281788) rotate(313.637389) scale(9.696529 29.686363)"><ellipse fill="#899095" fill-opacity="0.501961" cx="0" cy="0" rx="1" ry="1" /></g>
<polygon fill="#000503" fill-opacity="0.501961" points="49,159 23,193 30,173" />
<polygon fill="#8e9ba4" fill-opacity="0.501961" points="77,109 74,101 66,116" />
<rect fill="#353839" fill-opacity="0.501961" x="155" y="0" width="26" height="77" />
<g transform="translate(54.529041 225.595719) rotate(18.128120) scale(85.603333 7.979837)"><ellipse fill="#31393e" fill-opacity="0.501961" cx="0" cy="0" rx="1" ry="1" /></g>
<ellipse fill="#848b8f" fill-opacity="0.501961" cx="89" cy="173" rx="5" ry="7" />
<g transform="translate(136 140) rotate(254) scale(14 19)"><rect fill="#000605" fill-opacity="0.501961" x="-0.5" y="-0.5" width="1" height="1" /></g>
<polygon fill="#0f1211" fill-opacity="0.501961" points="73,99 126,183 134,94" />
<ellipse fill="#848f99" fill-opacity="0.501961" cx="90" cy="207" rx="7" ry="20" />
<polygon fill="#7a848c" fill-opacity="0.501961" points="75,220 43,205 70,188" />
<g transform="translate(15.184731 255.000000) rotate(108.767448) scale(16.978830 36.558276)"><ellipse fill="#02060f" fill-opacity="0.501961" cx="0" cy="0" rx="1" ry="1" /></g>
<g transform="translate(141.666311 85.248669) rotate(269.572737) scale(8.204550 20.367593)"><ellipse fill="#6c767c" fill-opacity="0.501961" cx="0" cy="0" rx="1" ry="1" /></g>
<rect fill="#5b676f" fill-opacity="0.501961" x="167" y="187" width="14" height="56" />
<polygon fill="#717a80" fill-opacity="0.501961" points="42,148 62,100 51,65" />
<rect fill="#71797e" fill-opacity="0.501961" x="62" y="126" width="9" height="51" />
<rect fill="#82909a" fill-opacity="0.501961" x="22" y="198" width="10" height="8" />
<rect fill="#868e95" fill-opacity="0.501961" x="109" y="179" width="55" height="27" />
<polygon fill="#2c343a" fill-opacity="0.501961" points="113,266 132,271 149,216" />
<polygon fill="#070e0c" fill-opacity="0.501961" points="54.668098,138.673768,71.525911,102.555550,78.621467,55.499032,48.432020,139.091589" />
<polygon fill="#626b73" fill-opacity="0.501961" points="196,151 179,69 130,107" />
<rect fill="#141a1a" fill-opacity="0.501961" x="94" y="134" width="13" height="51" />
<polygon fill="#1c1b17" fill-opacity="0.501961" points="93.027287,46.043453,80.616055,33.680020,97.407456,46.481467,112.834622,18.898804" />
<rect fill="#6b7379" fill-opacity="0.501961" x="131" y="147" width="38" height="26" />
<rect fill="#94431c" fill-opacity="0.501961" x="79" y="46" width="12" height="13" />
<polygon fill="#16211e" fill-opacity="0.501961" points="58.364357,32.688471,68.566510,44.097307,64.359561,20.189506,64.430487,14.101608" />
<polygon fill="#040806" fill-opacity="0.501961" points="95,83 142,116 130,128" />
<ellipse fill="#6f737b" fill-opacity="0.501961" cx="164" cy="126" rx="29" ry="6" />
<polygon fill="#0d110f" fill-opacity="0.501961" points="58.367906,88.349556,136.653974,157.519008,127.900738,157.918436,144.660898,132.036097" />
<polygon fill="#121817" fill-opacity="0.501961" points="121.939411,116.238285,162.804673,159.454233,111.996883,119.718856,101.743679,186.662050" />
<ellipse fill="#182023" fill-opacity="0.501961" cx="78" cy="194" rx="5" ry="31" />
<g transform="translate(89 219) rotate(264) scale(19 16)"><rect fill="#546069" fill-opacity="0.501961" x="-0.5" y="-0.5" width="1" height="1" /></g>
<rect fill="#9b999a" fill-opacity="0.501961" x="106" y="172" width="8" height="9" />
<polygon fill="#6e777d" fill-opacity="0.501961" points="46,168 67,165 72,112" />
<g transform="translate(72.123898 72.990563) rotate(289.576970) scale(19.949085 7.010950)"><ellipse fill="#15120c" fill-opacity="0.501961" cx="0" cy="0" rx="1" ry="1" /></g>
<rect fill="#69747c" fill-opacity="0.501961" x="107" y="208" width="74" height="12" />
<g transform="translate(23.852707 2.286398) rotate(297.004747) scale(132.241869 10.645542)"><ellipse fill="#303c41" fill-opacity="0.501961" cx="0" cy="0" rx="1" ry="1" /></g>
<g transform="translate(52 188) rotate(159) scale(48 18)"><rect fill="#525f66" fill-opacity="0.501961" x="-0.5" y="-0.5" width="1" height="1" /></g>
<polygon fill="#0c0d07" fill-opacity="0.501961" points="90,75 118,103 140,101" />
<rect fill="#5a666f" fill-opacity="0.501961" x="147" y="210" width="21" height="30" />
<polygon fill="#a8b2ba" fill-opacity="0.501961" points="97,196 83,202 90,187" />
<polygon fill="#838b92" fill-opacity="0.501961" points="163.719709,167.600365,109.243183,202.163178,164.328482,196.557617,124.301726,156.195716" />
<polygon fill="#2a373c" fill-opacity="0.501961" points="98.537914,227.900446,107.682472,181.315034,107.096524,222.409337,139.074569,243.518133" />
<g transform="translate(0.000000 155.509633) rotate(63.820097) scale(16.452413 10.589710)"><ellipse fill="#606c75" fill-opacity="0.501961" cx="0" cy="0" rx="1" ry="1" /></g>
<polygon fill="#535f65" fill-opacity="0.501961" points="55.283814,38.918607,77.473284,47.485554,59.566789,80.232610,31.015546,116.476071" />
<g transform="translate(171 196) rotate(242) scale(4 33)"><rect fill="#455156" fill-opacity="0.501961" x="-0.5" y="-0.5" width="1" height="1" /></g>
<polygon fill="#45525a" fill-opacity="0.501961" points="196.000000,80.387256,193.139496,105.263321,149.051151,111.919334,168.939454,98.191739" />
<polygon fill="#040e0e" fill-opacity="0.501961" points="43,154 49,133 57,148" />
<g transform="translate(58 137) rotate(23) scale(6 15)"><rect fill="#626d71" fill-opacity="0.501961" x="-0.5" y="-0.5" width="1" height="1" /></g>
<g transform="translate(35.241330 27.304738) rotate(245.378139) scale(11.243221 29.235651)"><ellipse fill="#46545d" fill-opacity="0.501961" cx="0" cy="0" rx="1" ry="1" /></g>
<g transform="translate(89.837347 26.719884) rotate(150.430326) scale(11.470409 12.771828)"><ellipse fill="#5c666d" fill-opacity="0.501961" cx="0" cy="0" rx="1" ry="1" /></g>
<g transform="translate(168 181) rotate(175) scale(1 33)"><rect fill="#333a3f" fill-opacity="0.501961" x="-0.5" y="-0.5" width="1" height="1" /></g>
<polygon fill="#3b484e" fill-opacity="0.501961" points="5,127 46,58 34,149" />
<polygon fill="#090e0b" fill-opacity="0.501961" points="113.811016,73.006086,115.383978,75.810545,139.521024,132.217205,98.473289,68.122142" />
<rect fill="#4c575d" fill-opacity="0.501961" x="116" y="34" width="41" height="43" />
<rect fill="#301f16" fill-opacity="0.501961" x="86" y="52" width="12" height="52" />
<polygon fill="#141919" fill-opacity="0.501961" points="72.561901,171.714333,120.194165,145.941482,138.153288,179.085439,76.865477,100.569494" />
<polygon fill="#364147" fill-opacity="0.501961" points="51.195623,232.223586,96.958969,238.700919,156.102454,236.347460,66.782376,220.080477" />
<g transform="translate(38 169) rotate(37) scale(1 74)"><rect fill="#0e1819" fill-opacity="0.501961" x="-0.5" y="-0.5" width="1" height="1" /></g>
<g transform="translate(79.183209 160.617087) rotate(261.669718) scale(32.336258 3.567491)"><ellipse fill="#13191b" fill-opacity="0.501961" cx="0" cy="0" rx="1" ry="1" /></g>
<ellipse fill="#768188" fill-opacity="0.501961" cx="175" cy="207" rx="66" ry="6" />
<g transform="translate(133 178) rotate(329) scale(4 27)"><rect fill="#84888d" fill-opacity="0.501961" x="-0.5" y="-0.5" width="1" height="1" /></g>
<ellipse fill="#e6b675" fill-opacity="0.501961" cx="82" cy="49" rx="2" ry="2" />
<polygon fill="#71747d" fill-opacity="0.501961" points="196.000000,111.049913,152.841171,134.956547,142.014489,119.725030,152.405271,111.617509" />
<polygon fill="#4a4e52" fill-opacity="0.501961" points="134.344307,170.413736,124.501502,175.150389,129.860376,191.488137,127.769887,164.886604" />
<rect fill="#78838a" fill-opacity="0.501961" x="70" y="170" width="3" height="49" />
<rect fill="#000b0b" fill-opacity="0.501961" x="61" y="83" width="5" height="42" />
<polygon fill="#373f44" fill-opacity="0.501961" points="28.444474,73.097758,59.929063,54.166936,0.384466,123.796880,28.629020,121.583378" />
<ellipse fill="#3c1306" fill-opacity="0.501961" cx="83" cy="44" rx="5" ry="5" />
<polygon fill="#262d30" fill-opacity="0.501961" points="45.874883,237.760913,26.721300,187.110225,52.718030,224.988287,154.128139,271.000000" />
<g transform="translate(19.617520 0.000000) rotate(276.245930) scale(13.312734 32.914827)"><ellipse fill="#323a40" fill-opacity="0.501961" cx="0" cy="0" rx="1" ry="1" /></g>
<polygon fill="#0a1010" fill-opacity="0.501961" points="124.477779,146.032388,111.018911,169.471650,82.519936,112.777898,150.601090,134.931812" />
<rect fill="#70797e" fill-opacity="0.501961" x="86" y="165" width="3" height="18" />
<polygon fill="#747d81" fill-opacity="0.501961" points="167,176 129,149 162,152" />
<polygon fill="#646c72" fill-opacity="0.501961" points="152.668009,110.909207,130.030510,71.948558,118.975765,73.435180,125.695426,89.705331" />
<polygon fill="#121413" fill-opacity="0.501961" points="137.610957,144.993645,99.580907,175.622092,143.727384,115.112118,81.948524,99.272816" />
<ellipse fill="#5d666c" fill-opacity="0.501961" cx="168" cy="138" rx="24" ry="10" />
<ellipse fill="#8d9493" fill-opacity="0.501961" cx="84" cy="22" rx="4" ry="4" />
<rect fill="#687179" fill-opacity="0.501961" x="48" y="71" width="10" height="48" />
<g transform="translate(24.685332 150.204755) rotate(272.185615) scale(28.960212 15.375293)"><ellipse fill="#47555b" fill-opacity="0.501961" cx="0" cy="0" rx="1" ry="1" /></g>
<polygon fill="#95a0a8" fill-opacity="0.501961" points="95,189 97,203 87,203" />
<polygon fill="#535f67" fill-opacity="0.501961" points="41.490839,210.485789,48.910278,214.004317,70.742992,220.711329,61.422582,204.571718" />
<g transform="translate(180.000000 73.578847) rotate(4.534440) scale(32.745479 7.336340)"><ellipse fill="#3e474d" fill-opacity="0.501961" cx="0" cy="0" rx="1" ry="1" /></g>
<polygon fill="#576269" fill-opacity="0.501961" points="45,150 30,98 51,79" />
<rect fill="#536168" fill-opacity="0.501961" x="56" y="14" width="5" height="22" />
<polygon fill="#0a0e0d" fill-opacity="0.501961" points="80.089036,81.449247,52.492544,138.817076,64.029954,98.503044,58.690695,88.587935" />
<polygon fill="#737d86" fill-opacity="0.501961" points="82,216 84,205 96,202" />
<ellipse fill="#6d7176" fill-opacity="0.501961" cx="134" cy="106" rx="4" ry="4" />
<polygon fill="#2b3337" fill-opacity="0.501961" points="80.931289,214.284058,71.821032,185.193816,75.568848,227.936514,36.634809,233.255042" />
<ellipse fill="#344047" fill-opacity="0.501961" cx="180" cy="190" rx="3" ry="7" />
<polygon fill="#251b16" fill-opacity="0.501961" points="65.953418,81.972961,117.083164,122.817920,93.948427,68.768352,65.389230,76.973352" />
<g transform="translate(82.642382 0.000000) rotate(148.003957) scale(15.830613 16.536142)"><ellipse fill="#40505a" fill-opacity="0.501961" cx="0" cy="0" rx="1" ry="1" /></g>
<polygon fill="#14120c" fill-opacity="0.501961" points="90.841155,45.901071,86.309274,44.246749,101.946194,41.983165,105.562322,29.412306" />
<rect fill="#171d1e" fill-opacity="0.501961" x="95" y="160" width="11" height="29" />
<polygon fill="#2e373c" fill-opacity="0.501961" points="-9.823274,247.236695,33.288477,181.267367,25.343998,181.367020,-16.000000,233.827484" />
<polygon fill="#939fa7" fill-opacity="0.501961" points="112,192 135,202 109,202" />
<polygon fill="#161918" fill-opacity="0.501961" points="84.249837,89.822005,69.558198,127.138601,78.893243,143.541476,110.079271,197.977875" />
<ellipse fill="#37444c" fill-opacity="0.501961" cx="113" cy="0" rx="17" ry="32" />
<ellipse fill="#717a81" fill-opacity="0.501961" cx="49" cy="114" rx="8" ry="8" />
<rect fill="#778186" fill-opacity="0.501961" x="69" y="107" width="7" height="6" />
<rect fill="#59646d" fill-opacity="0.501961" x="146" y="214" width="16" height="25" />
<polygon fill="#424e53" fill-opacity="0.501961" points="10.124463,4.553454,15.902774,71.420112,69.261105,67.961153,0.220618,28.580362" />
<polygon fill="#485257" fill-opacity="0.501961" points="90.488889,32.260732,74.864258,22.975287,61.184608,10.455624,74.161366,43.929941" />
<rect fill="#000400" fill-opacity="0.501961" x="61" y="22" width="3" height="12" />
<polygon fill="#775e4f" fill-opacity="0.501961" points="104.880302,43.235640,81.548151,50.445023,95.362367,50.715891,93.014879,50.855088" />
<polygon fill="#151c1d" fill-opacity="0.501961" points="75.027748,191.369156,83.637987,181.460303,89.043594,153.838087,75.557579,170.678965" />
<rect fill="#6a757f" fill-opacity="0.501961" x="106" y="213" width="12" height="10" />
<polygon fill="#7d868c" fill-opacity="0.501961" points="51.638886,195.656551,68.551924,207.445807,75.244059,180.565810,68.910122,196.147506" />
<rect fill="#687278" fill-opacity="0.501961" x="133" y="82" width="39" height="17" />
<rect fill="#081512" fill-opacity="0.501961" x="66" y="37" width="5" height="6" />
<polygon fill="#31393f" fill-opacity="0.501961" points="171.272647,233.688618,156.600043,271.000000,196.000000,242.192914,102.780534,257.091501" />
<polygon fill="#313538" fill-opacity="0.501961" points="7.802913,39.819955,23.158525,110.698460,20.545157,113.043160,-16.000000,44.023480" />
<polygon fill="#2e3333" fill-opacity="0.501961" points="152,149 159,151 147,151" />
<ellipse fill="#96a1a5" fill-opacity="0.501961" cx="37" cy="199" rx="2" ry="2" />
<polygon fill="#0f171a" fill-opacity="0.501961" points="94,157 128,173 113,142" />
<g transform="translate(69 115) rotate(204) scale(1 25)"><rect fill="#747c82" fill-opacity="0.501961" x="-0.5" y="-0.5" width="1" height="1" /></g>
<polygon fill="#707b80" fill-opacity="0.501961" points="57,131 58,139 71,120" />
<rect fill="#737b7f" fill-opacity="0.501961" x="58" y="92" width="4" height="8" />
<ellipse fill="#414e53" fill-opacity="0.501961" cx="39" cy="101" rx="12" ry="5" />
<polygon fill="#12191b" fill-opacity="0.501961" points="96.208527,155.340212,122.793870,179.998707,129.195916,141.605748,143.226965,143.212568" />
<g transform="translate(39.595976 249.643683) rotate(342.021968) scale(12.405875 28.735007)"><ellipse fill="#161c1f" fill-opacity="0.501961" cx="0" cy="0" rx="1" ry="1" /></g>
<polygon fill="#455059" fill-opacity="0.501961" points="111,68 134,40 106,11" />
<polygon fill="#666f75" fill-opacity="0.501961" points="64.788244,70.532682,60.348736,85.627571,54.767157,99.889130,40.807144,90.347511" />
<polygon fill="#323d42" fill-opacity="0.501961" points="148.337126,226.817716,160.273554,227.446539,169.162699,221.778246,79.202418,257.841056" />
<polygon fill="#7b8287" fill-opacity="0.501961" points="116.610669,178.431136,105.160692,170.428395,111.303330,167.773324,108.245348,225.032293" />
<polygon fill="#768083" fill-opacity="0.501961" points="147,153 137,144 144,145" />
<ellipse fill="#212a2d" fill-opacity="0.501961" cx="78" cy="200" rx="6" ry="14" />
<ellipse fill="#767e82" fill-opacity="0.501961" cx="60" cy="158" rx="9" ry="9" />
<polygon fill="#0a1111" fill-opacity="0.501961" points="94.483521,129.598235,116.060696,156.603738,120.919142,153.937263,147.973346,141.349741" />
<polygon fill="#686e74" fill-opacity="0.501961" points="149,117 134,110 136,101" />
<polygon fill="#5e686f" fill-opacity="0.501961" points="157.231480,121.487965,196.000000,129.793024,140.360993,139.539589,186.597725,149.459503" />
<rect fill="#1f272c" fill-opacity="0.501961" x="103" y="184" width="5" height="26" />
<rect fill="#909ba3" fill-opacity="0.501961" x="84" y="193" width="13" height="12" />
<ellipse fill="#758186" fill-opacity="0.501961" cx="26" cy="199" rx="4" ry="4" />
<polygon fill="#5c6870" fill-opacity="0.501961" points="44,209 72,169 51,160" />
<rect fill="#6d7780" fill-opacity="0.501961" x="83" y="202" width="15" height="17" />
<polygon fill="#3f4c52" fill-opacity="0.501961" points="18,170 22,218 -12,188" />
<polygon fill="#170c02" fill-opacity="0.501961" points="72,57 74,70 76,52" />
<ellipse fill="#000000" fill-opacity="0.501961" cx="105" cy="27" rx="1" ry="6" />
<rect fill="#521a07" fill-opacity="0.501961" x="84" y="41" width="3" height="32" />
<polygon fill="#273236" fill-opacity="0.501961" points="104.502532,211.205764,108.718678,228.369966,98.392944,221.017309,96.340375,169.407031" />
<ellipse fill="#1d2224" fill-opacity="0.501961" cx="128" cy="181" rx="2" ry="2" />
<polygon fill="#293035" fill-opacity="0.501961" points="31.520187,213.922743,51.303121,191.623995,35.150735,213.683257,52.421312,251.524328" />
<polygon fill="#915d44" fill-opacity="0.501961" points="77,47 83,56 79,43" />
<polygon fill="#828a90" fill-opacity="0.501961" points="109.280415,197.307052,108.887264,182.159206,119.412472,176.448096,148.161729,206.102634" />
<polygon fill="#576167" fill-opacity="0.501961" points="154.764308,43.287845,155.331271,54.998170,146.820195,63.046827,137.387597,34.434296" />
<polygon fill="#545e65" fill-opacity="0.501961" points="76.864677,47.142306,61.154216,64.228233,52.060548,58.524187,26.046373,53.982397" />
<polygon fill="#161511" fill-opacity="0.501961" points="87.485747,75.469105,144.353093,102.790666,68.134544,101.887843,127.464564,121.807811" />
<polygon fill="#0d100e" fill-opacity="0.501961" points="83.890196,104.431775,152.861913,138.044644,138.620406,135.314866,148.309817,146.206906" />
<polygon fill="#646d74" fill-opacity="0.501961" points="58.508556,184.334643,75.083238,185.656813,71.516724,164.494289,55.550664,165.200387" />
<polygon fill="#32393f" fill-opacity="0.501961" points="167,247 129,229 88,259" />
<g transform="translate(68 122) rotate(25) scale(4 28)"><rect fill="#6b767a" fill-opacity="0.501961" x="-0.5" y="-0.5" width="1" height="1" /></g>
<polygon fill="#6f787d" fill-opacity="0.501961" points="71.373169,168.205186,66.509525,129.533479,50.623664,160.717741,65.916424,169.408941" />
<ellipse fill="#465259" fill-opacity="0.501961" cx="96" cy="230" rx="9" ry="5" />
<g transform="translate(64.888107 87.384280) rotate(326.353865) scale(7.199157 2.249837)"><ellipse fill="#0a110e" fill-opacity="0.501961" cx="0" cy="0" rx="1" ry="1" /></g>
<polygon fill="#363b3f" fill-opacity="0.501961" points="160.459914,23.939867,196.000000,74.652324,150.400377,65.815347,162.201664,53.847666" />
<polygon fill="#ffd88b" fill-opacity="0.501961" points="87,49 88,50 88,48" />
<polygon fill="#82878e" fill-opacity="0.501961" points="126,176 165,192 167,175" />
<g transform="translate(69.017842 200.178626) rotate(26.352870) scale(3.805210 2.707128)"><ellipse fill="#8d979c" fill-opacity="0.501961" cx="0" cy="0" rx="1" ry="1" /></g>
<g transform="translate(44 188) rotate(300) scale(14 22)"><rect fill="#4b5a61" fill-opacity="0.501961" x="-0.5" y="-0.5" width="1" height="1" /></g>
<polygon fill="#7d8289" fill-opacity="0.501961" points="127.025202,162.797558,154.211529,191.455106,163.081927,157.338102,157.810706,174.473927" />
<g transform="translate(180 181) rotate(315) scale(28 5)"><rect fill="#7c868c" fill-opacity="0.501961" x="-0.5" y="-0.5" width="1" height="1" /></g>
<rect fill="#6f777c" fill-opacity="0.501961" x="85" y="170" width="9" height="19" />
<g transform="translate(7 255) rotate(-78) scale(15 27)"><rect fill="#02070e" fill-opacity="0.501961" x="-0.5" y="-0.5" width="1" height="1" /></g>
<polygon fill="#352216" fill-opacity="0.501961" points="95.501973,60.936058,97.321322,66.107130,87.578252,90.975816,80.744038,78.770712" />
<g transform="translate(56 130) rotate(305) scale(31 4)"><rect fill="#070e0d" fill-opacity="0.501961" x="-0.5" y="-0.5" width="1" height="1" /></g>
<polygon fill="#777e83" fill-opacity="0.501961" points="167,190 147,149 166,157" />
<g transform="translate(77 250) rotate(192) scale(37 24)"><rect fill="#1e2327" fill-opacity="0.501961" x="-0.5" y="-0.5" width="1" height="1" /></g>
<polygon fill="#424f52" fill-opacity="0.501961" points="-6,97 30,139 -11,121" />
<polygon fill="#4a585e" fill-opacity="0.501961" points="18.364016,189.766363,-1.378928,130.924004,41.705204,146.034382,30.889770,176.029198" />
<g transform="translate(168 169) rotate(87) scale(34 1)"><rect fill="#4e555b" fill-opacity="0.501961" x="-0.5" y="-0.5" width="1" height="1" /></g>
<polygon fill="#495359" fill-opacity="0.501961" points="124.849643,84.008045,93.176809,45.645732,105.380892,46.600512,113.891992,74.921250" />
<polygon fill="#545f66" fill-opacity="0.501961" points="154.453033,90.717349,129.336721,76.248379,129.747023,37.451576,131.035999,55.468179" />
<ellipse fill="#3d1d12" fill-opacity="0.501961" cx="84" cy="43" rx="6" ry="6" />
<g transform="translate(167.862889 225.836858) rotate(54.887149) scale(6.236130 22.497385)"><ellipse fill="#5d6872" fill-opacity="0.501961" cx="0" cy="0" rx="1" ry="1" /></g>
<polygon fill="#191915" fill-opacity="0.501961" points="83.610719,92.801031,69.921333,124.416096,72.728587,136.934714,90.538569,136.663339" />
<g transform="translate(68 38) rotate(54) scale(19 2)"><rect fill="#171712" fill-opacity="0.501961" x="-0.5" y="-0.5" width="1" height="1" /></g>
<polygon fill="#67717a" fill-opacity="0.501961" points="118.976662,229.121684,161.884471,207.810041,122.097551,212.940304,109.537456,225.104833" />
<polygon fill="#040b0c" fill-opacity="0.501961" points="134,128 113,91 140,117" />
<rect fill="#0b1315" fill-opacity="0.501961" x="46" y="136" width="2" height="26" />
<g transform="translate(19.209107 82.088979) rotate(-5.235070) scale(23.030592 6.802842)"><ellipse fill="#333639" fill-opacity="0.501961" cx="0" cy="0" rx="1" ry="1" /></g>
<g transform="translate(155 121) rotate(39) scale(21 32)"><rect fill="#676e76" fill-opacity="0.501961" x="-0.5" y="-0.5" width="1" height="1" /></g>
<g transform="translate(56 204) rotate(19) scale(23 5)"><rect fill="#727c82" fill-opacity="0.501961" x="-0.5" y="-0.5" width="1" height="1" /></g>
<polygon fill="#4c575e" fill-opacity="0.501961" points="187.631745,91.359104,196.000000,96.047431,133.975435,104.070433,196.000000,106.130854" />
<polygon fill="#0d1314" fill-opacity="0.501961" points="84,156 132,155 125,139" />
<g transform="translate(180.000000 232.702127) rotate(97.525514) scale(12.164007 9.155619)"><ellipse fill="#505c66" fill-opacity="0.501961" cx="0" cy="0" rx="1" ry="1" /></g>
<path stroke="#202726" stroke-opacity="0.501961" fill="none" d="M 154.143316 143.220029 Q 141.431534 128.457378, 118.135309 89.466252" stroke-width="0.500000" />
<ellipse fill="#28292f" fill-opacity="0.501961" cx="123" cy="186" rx="1" ry="1" />
<polygon fill="#32383d" fill-opacity="0.501961" points="8.742900,225.210618,27.403141,181.011765,12.817441,194.381442,26.894570,208.511454" />
<g transform="translate(39 171) rotate(36) scale(2 40)"><rect fill="#0c1716" fill-opacity="0.501961" x="-0.5" y="-0.5" width="1" height="1" /></g>
<rect fill="#7f8a8f" fill-opacity="0.501961" x="36" y="197" width="6" height="4" />
<g transform="translate(26 204) rotate(206) scale(13 2)"><rect fill="#5a666f" fill-opacity="0.501961" x="-0.5" y="-0.5" width="1" height="1" /></g>
<polygon fill="#0f120e" fill-opacity="0.501961" points="120.853516,81.303025,109.665778,91.372729,117.080304,153.345749,97.880354,61.218775" />
<polygon fill="#525c61" fill-opacity="0.501961" points="89,23 64,25 76,41" />
<g transform="translate(60 140) rotate(148) scale(11 1)"><rect fill="#283333" fill-opacity="0.501961" x="-0.5" y="-0.5" width="1" height="1" /></g>
<ellipse fill="#192022" fill-opacity="0.501961" cx="104" cy="168" rx="3" ry="8" />
<polygon fill="#373e43" fill-opacity="0.501961" points="71,234 75,216 99,237" />
<polygon fill="#5f3a2b" fill-opacity="0.501961" points="89.656862,46.908484,95.322747,48.901578,74.598003,48.688064,67.031952,41.372941" />
<g transform="translate(60.751051 133.929764) rotate(310.550397) scale(9.693530 2.900414)"><ellipse fill="#6c777d" fill-opacity="0.501961" cx="0" cy="0" rx="1" ry="1" /></g>
<path stroke="#121819" stroke-opacity="0.501961" fill="none" d="M 139.195019 112.884762 Q 103.781523 137.231193, 128.215357 184.773408" stroke-width="0.500000" />
<polygon fill="#21282a" fill-opacity="0.501961" points="8.961324,213.971406,-16.000000,195.904794,-16.000000,239.108416,20.678163,222.534786" />
<polygon fill="#6a7279" fill-opacity="0.501961" points="54,73 63,78 56,96" />
<polygon fill="#656e75" fill-opacity="0.501961" points="175.007510,82.051442,127.551724,97.902107,162.212049,79.472209,196.000000,107.424034" />
<g transform="translate(94 184) rotate(171) scale(1 26)"><rect fill="#7d8688" fill-opacity="0.501961" x="-0.5" y="-0.5" width="1" height="1" /></g>
<polygon fill="#101718" fill-opacity="0.501961" points="91,167 105,139 72,136" />
<polygon fill="#424f54" fill-opacity="0.501961" points="42,71 41,83 54,87" />
<g transform="translate(47.248122 72.510189) rotate(419.232561) scale(5.540648 3.566953)"><ellipse fill="#55636a" fill-opacity="0.501961" cx="0" cy="0" rx="1" ry="1" /></g>
<polygon fill="#4f5a62" fill-opacity="0.501961" points="65.048578,10.893683,51.708643,11.505403,71.213597,54.402824,43.723412,47.841435" />
<g transform="translate(139 240) rotate(292) scale(48 1)"><rect fill="#2e373c" fill-opacity="0.501961" x="-0.5" y="-0.5" width="1" height="1" /></g>
<polygon fill="#0a1111" fill-opacity="0.501961" points="123.862765,115.853385,145.307327,134.972167,137.979749,148.884045,126.574108,138.378734" />
<rect fill="#465158" fill-opacity="0.501961" x="97" y="44" width="19" height="18" />
<g transform="translate(68 115) rotate(200) scale(1 12)"><rect fill="#687378" fill-opacity="0.501961" x="-0.5" y="-0.5" width="1" height="1" /></g>
<polygon fill="#6c757a" fill-opacity="0.501961" points="68,132 55,136 52,143" />
<g transform="translate(30.870001 50.598667) rotate(135.705833) scale(9.536639 17.363236)"><ellipse fill="#49545b" fill-opacity="0.501961" cx="0" cy="0" rx="1" ry="1" /></g>
<rect fill="#dee5df" fill-opacity="0.501961" x="82" y="21" width="1" height="3" />
<polygon fill="#4f575d" fill-opacity="0.501961" points="151,162 138,158 146,158" />
<polygon fill="#5e6365" fill-opacity="0.501961" points="133,97 121,85 143,95" />
<g transform="translate(126.996475 6.811998) rotate(256.464243) scale(24.517077 12.100547)"><ellipse fill="#343a3f" fill-opacity="0.501961" cx="0" cy="0" rx="1" ry="1" /></g>
<g transform="translate(180 40) rotate(106) scale(8 11)"><rect fill="#475158" fill-opacity="0.501961" x="-0.5" y="-0.5" width="1" height="1" /></g>
<polygon fill="#3d4141" fill-opacity="0.501961" points="113,177 119,175 117,169" />
<polygon fill="#1d140a" fill-opacity="0.501961" points="92,41 102,37 90,46" />
<polygon fill="#652f17" fill-opacity="0.501961" points="73.816744,49.544944,91.369847,57.990299,91.326594,53.533778,79.579018,50.736918" />
<polygon fill="#2c373b" fill-opacity="0.501961" points="25.111840,179.616819,38.534954,212.388629,30.382121,185.262754,23.044485,195.278528" />
<g transform="translate(180.711538 197.488694) rotate(277.188069) scale(3.837824 16.942577)"><ellipse fill="#556066" fill-opacity="0.501961" cx="0" cy="0" rx="1" ry="1" /></g>
<rect fill="#12181b" fill-opacity="0.501961" x="72" y="129" width="14" height="45" />
<polygon fill="#737e84" fill-opacity="0.501961" points="154.427913,199.593866,106.021472,210.970842,117.367469,215.244917,195.853064,207.151331" />
<g transform="translate(62 50) rotate(53) scale(10 19)"><rect fill="#545f67" fill-opacity="0.501961" x="-0.5" y="-0.5" width="1" height="1" /></g>
<rect fill="#8c979f" fill-opacity="0.501961" x="109" y="193" width="17" height="11" />
<polygon fill="#727a7f" fill-opacity="0.501961" points="163.469150,159.931799,169.724070,147.546375,131.304499,161.099563,140.749672,145.091192" />
<polygon fill="#13140e" fill-opacity="0.501961" points="85,90 67,109 72,87" />
<path stroke="#131919" stroke-opacity="0.501961" fill="none" d="M 143.861947 116.570634 Q 113.380357 133.505257, 136.188127 152.264556" stroke-width="0.500000" />
<rect fill="#919395" fill-opacity="0.501961" x="115" y="177" width="5" height="4" />
<polygon fill="#12181b" fill-opacity="0.501961" points="89,157 108,156 129,174" />
<g transform="translate(133.113664 223.044702) rotate(64.913682) scale(5.559935 16.656081)"><ellipse fill="#5f6a73" fill-opacity="0.501961" cx="0" cy="0" rx="1" ry="1" /></g>
<g transform="translate(129 173) rotate(243) scale(17 2)"><rect fill="#787d81" fill-opacity="0.501961" x="-0.5" y="-0.5" width="1" height="1" /></g>
<polygon fill="#3c484f" fill-opacity="0.501961" points="39.785894,31.443519,7.776380,26.156198,-16.000000,-0.430441,22.185149,17.477816" />
<rect fill="#e39258" fill-opacity="0.501961" x="84" y="53" width="2" height="1" />
<polygon fill="#1b2324" fill-opacity="0.501961" points="95,187 108,195 103,163" />
<g transform="translate(117 169) rotate(204) scale(23 3)"><rect fill="#171d1f" fill-opacity="0.501961" x="-0.5" y="-0.5" width="1" height="1" /></g>
<polygon fill="#57636b" fill-opacity="0.501961" points="38,132 43,151 47,142" />
<polygon fill="#6b767b" fill-opacity="0.501961" points="50,131 60,106 44,121" />
<polygon fill="#090f10" fill-opacity="0.501961" points="44,162 51,141 55,147" />
<polygon fill="#384046" fill-opacity="0.501961" points="161,255 99,219 126,248" />
<g transform="translate(0.000000 145.983988) rotate(160.698924) scale(3.738203 27.253507)"><ellipse fill="#5c6770" fill-opacity="0.501961" cx="0" cy="0" rx="1" ry="1" /></g>
<polygon fill="#434f58" fill-opacity="0.501961" points="75.000003,14.657475,68.496024,-13.420580,103.148528,34.666671,102.557740,10.228773" />
<polygon fill="#70787c" fill-opacity="0.501961" points="87.338374,171.156474,86.349509,159.486756,95.196515,193.140571,91.770005,168.054407" />
<polygon fill="#495459" fill-opacity="0.501961" points="63.690024,18.032134,69.481825,38.980751,105.115721,32.387118,66.164973,31.848763" />
<polygon fill="#14191f" fill-opacity="0.501961" points="-16.000000,225.504458,-7.380961,235.274265,50.991158,255.696467,49.254488,242.038988" />
<polygon fill="#70787c" fill-opacity="0.501961" points="54.050033,144.608725,62.224806,152.186312,64.498340,140.328294,73.615095,176.216177" />
<ellipse fill="#59646c" fill-opacity="0.501961" cx="92" cy="222" rx="5" ry="5" />
<rect fill="#6c7377" fill-opacity="0.501961" x="84" y="18" width="6" height="12" />
<g transform="translate(89 196) rotate(188) scale(9 11)"><rect fill="#97a1a9" fill-opacity="0.501961" x="-0.5" y="-0.5" width="1" height="1" /></g>
<polygon fill="#282f33" fill-opacity="0.501961" points="164.642683,271.000000,196.000000,243.847632,169.814918,246.417636,179.966635,260.749753" />
<polygon fill="#48585e" fill-opacity="0.501961" points="35.472284,178.157624,36.770176,199.588063,49.929168,166.862497,45.062226,168.142119" />
<polygon fill="#6e727a" fill-opacity="0.501961" points="176.591199,111.277285,140.822327,122.092170,152.684940,137.433043,180.790836,116.065501" />
<polygon fill="#0a1211" fill-opacity="0.501961" points="66.133965,112.225368,68.598225,92.606562,56.131970,118.570721,51.982261,139.570689" />
<path stroke="#161c1d" stroke-opacity="0.501961" fill="none" d="M 131.782900 171.308098 Q 112.649243 133.644412, 144.455849 116.841438" stroke-width="0.500000" />
<polygon fill="#0f110c" fill-opacity="0.501961" points="71.374771,61.123330,78.661366,67.161728,89.794196,61.774334,62.884914,81.951809" />
<path stroke="#212728" stroke-opacity="0.501961" fill="none" d="M 136.711591 139.568042 Q 128.824990 137.541472, 120.544791 184.896371" stroke-width="0.500000" />
<polygon fill="#17130f" fill-opacity="0.501961" points="94,86 117,128 103,63" />
<polygon fill="#444e57" fill-opacity="0.501961" points="154,67 136,53 140,69" />
<polygon fill="#282826" fill-opacity="0.501961" points="158.671932,152.796245,145.964481,142.511796,163.868976,158.499118,66.494275,49.873507" />
<polygon fill="#82888c" fill-opacity="0.501961" points="130.369415,173.575647,135.778245,176.296775,117.620705,182.474776,112.562173,202.297386" />
<polygon fill="#535f64" fill-opacity="0.501961" points="11,196 3,199 4,203" />
<g transform="translate(37 175) rotate(38) scale(1 40)"><rect fill="#162121" fill-opacity="0.501961" x="-0.5" y="-0.5" width="1" height="1" /></g>
<path stroke="#090f0f" stroke-opacity="0.501961" fill="none" d="M 101.115222 113.357458 Q 129.616789 157.307661, 135.457072 156.516623" stroke-width="0.500000" />
<polygon fill="#161c1e" fill-opacity="0.501961" points="99.289616,200.542054,98.249674,182.091472,109.512421,139.721069,92.385153,166.101116" />
<polygon fill="#2d3337" fill-opacity="0.501961" points="52.540527,213.757971,61.338185,229.529349,8.853970,215.908709,35.217565,210.379682" />
<rect fill="#373d41" fill-opacity="0.501961" x="0" y="102" width="25" height="11" />
<g transform="translate(134.983140 231.139615) rotate(382.462632) scale(4.173797 2.968685)"><ellipse fill="#546168" fill-opacity="0.501961" cx="0" cy="0" rx="1" ry="1" /></g>
<polygon fill="#0b0f0d" fill-opacity="0.501961" points="119,139 80,118 139,121" />
<polygon fill="#1f2428" fill-opacity="0.501961" points="61.416713,231.419678,84.251982,271.000000,37.120100,219.931614,22.573343,242.001623" />
<g transform="translate(153.791299 107.647343) rotate(94.624816) scale(4.289650 23.766041)"><ellipse fill="#5b656d" fill-opacity="0.501961" cx="0" cy="0" rx="1" ry="1" /></g>
<polygon fill="#3f484c" fill-opacity="0.501961" points="68,64 8,60 25,73" />
<polygon fill="#747b81" fill-opacity="0.501961" points="167.288826,192.019866,133.554719,146.489906,154.736413,159.024761,155.777704,181.379843" />
<ellipse fill="#6d797b" fill-opacity="0.501961" cx="82" cy="214" rx="1" ry="6" />
<ellipse fill="#2a1106" fill-opacity="0.501961" cx="92" cy="58" rx="3" ry="6" />
<polygon fill="#676d76" fill-opacity="0.501961" points="137,102 133,111 152,109" />
<polygon fill="#45525a" fill-opacity="0.501961" points="97,12 104,25 100,36" />
<g transform="translate(93 35) rotate(367) scale(6 11)"><rect fill="#545b5f" fill-opacity="0.501961" x="-0.5" y="-0.5" width="1" height="1" /></g>
<polygon fill="#181612" fill-opacity="0.501961" points="105,112 124,136 122,112" />
<ellipse fill="#646e77" fill-opacity="0.501961" cx="28" cy="203" rx="4" ry="4" />
<polygon fill="#4e1c08" fill-opacity="0.501961" points="74.902719,59.383331,83.764354,62.686021,90.945104,58.984946,85.968157,58.413070" />
<g transform="translate(79.589775 48.248865) rotate(96.219717) scale(1.000000 3.255961)"><ellipse fill="#9d6c4e" fill-opacity="0.501961" cx="0" cy="0" rx="1" ry="1" /></g>
<rect fill="#2c363b" fill-opacity="0.501961" x="98" y="198" width="8" height="25" />
<polygon fill="#3c4246" fill-opacity="0.501961" points="161.252985,34.558502,126.320919,29.288269,163.802075,40.838174,162.120985,80.131960" />
<g transform="translate(28 2) rotate(95) scale(24 30)"><rect fill="#383c40" fill-opacity="0.501961" x="-0.5" y="-0.5" width="1" height="1" /></g>
<rect fill="#566066" fill-opacity="0.501961" x="59" y="49" width="14" height="11" />
<polygon fill="#747b81" fill-opacity="0.501961" points="143.206219,171.893817,171.977507,151.498843,158.086208,141.148207,160.259312,164.340668" />
<rect fill="#030b09" fill-opacity="0.501961" x="60" y="86" width="8" height="6" />
<g transform="translate(121.874103 65.904679) rotate(226.032176) scale(9.745524 10.598871)"><ellipse fill="#4c585f" fill-opacity="0.501961" cx="0" cy="0" rx="1" ry="1" /></g>
<polygon fill="#8d98a0" fill-opacity="0.501961" points="87,185 96,191 94,202" />
<polygon fill="#201c17" fill-opacity="0.501961" points="63.563039,78.005656,62.509544,76.294251,70.859832,68.381232,102.022230,109.109765" />
<rect fill="#3d484f" fill-opacity="0.501961" x="162" y="224" width="19" height="1" />
<polygon fill="#424d52" fill-opacity="0.501961" points="196,177 196,208 175,191" />
<polygon fill="#616c72" fill-opacity="0.501961" points="196,202 174,194 151,201" />
<polygon fill="#191a13" fill-opacity="0.501961" points="60,30 75,41 67,40" />
<g transform="translate(160 92) rotate(66) scale(9 38)"><rect fill="#687179" fill-opacity="0.501961" x="-0.5" y="-0.5" width="1" height="1" /></g>
<polygon fill="#3a4850" fill-opacity="0.501961" points="67.699798,9.466110,64.611607,30.107196,62.536853,-14.475711,36.639066,15.838998" />
<rect fill="#55626a" fill-opacity="0.501961" x="46" y="166" width="9" height="34" />
<g transform="translate(60 214) rotate(112) scale(2 31)"><rect fill="#59646e" fill-opacity="0.501961" x="-0.5" y="-0.5" width="1" height="1" /></g>
<polygon fill="#101210" fill-opacity="0.501961" points="155.228242,140.198077,87.487489,104.928160,96.391076,141.620174,86.505037,113.189870" />
<rect fill="#666f79" fill-opacity="0.501961" x="134" y="213" width="7" height="18" />
<polygon fill="#525f66" fill-opacity="0.501961" points="57.302074,79.380724,43.342457,66.759670,66.804370,72.416399,66.771049,68.193162" />
<path stroke="#141b19" stroke-opacity="0.501961" fill="none" d="M 98.188942 12.177308 Q 115.001116 34.056311, 93.117847 43.249356" stroke-width="0.500000" />
<g transform="translate(176.809302 79.138655) rotate(307.113447) scale(4.242918 11.331791)"><ellipse fill="#4a565e" fill-opacity="0.501961" cx="0" cy="0" rx="1" ry="1" /></g>
<polygon fill="#666f77" fill-opacity="0.501961" points="44.084396,128.254582,42.908243,104.095559,58.966091,113.472943,54.048518,76.037080" />
<polygon fill="#131819" fill-opacity="0.501961" points="102.905502,140.557311,73.734281,127.859358,70.241905,144.652487,76.881577,175.076739" />
<path stroke="#6b7479" stroke-opacity="0.501961" fill="none" d="M 143.316841 138.570605 Q 180.367874 161.193027, 196.000000 149.947376" stroke-width="0.500000" />
<polygon fill="#111719" fill-opacity="0.501961" points="107.212510,167.298665,129.291505,165.631704,121.737522,149.411544,76.302194,161.186137" />
<polygon fill="#252e33" fill-opacity="0.501961" points="74,229 75,204 83,202" />
<polygon fill="#646e76" fill-opacity="0.501961" points="153.892022,217.993395,143.299513,226.124717,194.062403,218.322520,161.964508,207.650768" />
<polygon fill="#474d51" fill-opacity="0.501961" points="156,43 161,57 151,71" />
<path stroke="#363f44" stroke-opacity="0.501961" fill="none" d="M 156.494381 212.787791 Q 117.568401 241.075683, 168.926128 271.000000" stroke-width="0.500000" />
<polygon fill="#111717" fill-opacity="0.501961" points="134.555673,155.017241,98.928523,137.840427,113.546588,174.050163,115.794785,159.670003" />
<g transform="translate(69.972347 23.129370) rotate(85.835780) scale(3.013964 6.862578)"><ellipse fill="#4b585b" fill-opacity="0.501961" cx="0" cy="0" rx="1" ry="1" /></g>
<ellipse fill="#5f6b74" fill-opacity="0.501961" cx="177" cy="230" rx="32" ry="3" />
<polygon fill="#080e0e" fill-opacity="0.501961" points="144,132 89,121 108,136" />
<polygon fill="#4a565e" fill-opacity="0.501961" points="47,12 58,24 67,7" />
<polygon fill="#787e85" fill-opacity="0.501961" points="155.649326,194.769065,139.151352,167.451263,125.006902,154.201586,123.339548,152.450067" />
<polygon fill="#838b92" fill-opacity="0.501961" points="154.934477,194.066267,153.242858,202.092740,133.427082,204.656673,140.430276,168.124988" />
<polygon fill="#2d3438" fill-opacity="0.501961" points="37.020852,215.917287,16.591784,224.851613,44.622561,198.373666,41.338834,206.297529" />
<polygon fill="#0c1214" fill-opacity="0.501961" points="52,148 43,154 47,143" />
<polygon fill="#66707a" fill-opacity="0.501961" points="64,208 73,207 73,217" />
<g transform="translate(135.179047 117.520653) rotate(126.692640) scale(5.098565 4.605958)"><ellipse fill="#070f0e" fill-opacity="0.501961" cx="0" cy="0" rx="1" ry="1" /></g>
<g transform="translate(25 196) rotate(127) scale(26 1)"><rect fill="#505c61" fill-opacity="0.501961" x="-0.5" y="-0.5" width="1" height="1" /></g>
<g transform="translate(179.763863 102.621247) rotate(208.852436) scale(6.715951 4.703091)"><ellipse fill="#455058" fill-opacity="0.501961" cx="0" cy="0" rx="1" ry="1" /></g>
<polygon fill="#1c2325" fill-opacity="0.501961" points="89.082838,168.392781,89.348022,162.759719,134.323215,173.596403,104.000674,163.005377" />
<g transform="translate(19.977114 126.629588) rotate(239.587821) scale(8.989833 4.053998)"><ellipse fill="#3a464a" fill-opacity="0.501961" cx="0" cy="0" rx="1" ry="1" /></g>
<g transform="translate(91 174) rotate(178) scale(4 10)"><rect fill="#7c8286" fill-opacity="0.501961" x="-0.5" y="-0.5" width="1" height="1" /></g>
<polygon fill="#505f66" fill-opacity="0.501961" points="10.708870,163.333189,-3.328257,130.665903,12.157913,147.153294,17.578845,160.403869" />
<ellipse fill="#141b1c" fill-opacity="0.501961" cx="76" cy="176" rx="2" ry="15" />
<polygon fill="#80858a" fill-opacity="0.501961" points="110,174 113,190 122,186" />
<path stroke="#222727" stroke-opacity="0.501961" fill="none" d="M 115.721647 103.972431 Q 129.037161 90.842777, 143.657124 103.474236" stroke-width="0.500000" />
<polygon fill="#6d767c" fill-opacity="0.501961" points="45,116 62,98 49,124" />
<polygon fill="#868a90" fill-opacity="0.501961" points="138.884124,190.242005,125.975132,175.986907,151.192974,179.206892,110.922359,192.487331" />
<g transform="translate(142 229) rotate(299) scale(29 1)"><rect fill="#2f3a3f" fill-opacity="0.501961" x="-0.5" y="-0.5" width="1" height="1" /></g>
<polygon fill="#354045" fill-opacity="0.501961" points="1.682317,35.003254,12.598731,80.188515,11.911818,31.596904,-14.959011,-9.755841" />
<rect fill="#787e7f" fill-opacity="0.501961" x="137" y="123" width="2" height="5" />
<g transform="translate(28 184) rotate(216) scale(6 20)"><rect fill="#232d2f" fill-opacity="0.501961" x="-0.5" y="-0.5" width="1" height="1" /></g>
<ellipse fill="#454f55" fill-opacity="0.501961" cx="169" cy="194" rx="3" ry="3" />
<polygon fill="#666f75" fill-opacity="0.501961" points="123,72 125,86 151,100" />
<path stroke="#171511" stroke-opacity="0.501961" fill="none" d="M 71.097267 55.792088 Q 80.660225 90.373374, 93.542782 139.690643" stroke-width="0.500000" />
<polygon fill="#4d575f" fill-opacity="0.501961" points="61.349299,31.413495,62.067545,40.527702,43.705308,58.813247,34.039696,20.472222" />
<rect fill="#0a1110" fill-opacity="0.501961" x="122" y="141" width="26" height="4" />
<polygon fill="#2f3438" fill-opacity="0.501961" points="5.489744,79.539766,6.656472,42.726055,-16.000000,53.891974,30.182687,80.605894" />
<polygon fill="#060f0d" fill-opacity="0.501961" points="62.317057,81.286361,64.986508,74.489068,70.042524,98.798445,64.016671,98.249969" />
<path stroke="#151b18" stroke-opacity="0.501961" fill="none" d="M 68.739491 42.358010 Q 57.015774 20.305316, 68.013363 12.544977" stroke-width="0.500000" />
<g transform="translate(67.973762 181.831695) rotate(261.216402) scale(14.471442 6.116962)"><ellipse fill="#626c74" fill-opacity="0.501961" cx="0" cy="0" rx="1" ry="1" /></g>
<g transform="translate(145 234) rotate(143) scale(2 7)"><rect fill="#56646b" fill-opacity="0.501961" x="-0.5" y="-0.5" width="1" height="1" /></g>
<polygon fill="#656e76" fill-opacity="0.501961" points="135.174751,101.391322,161.640492,115.716596,196.000000,103.282823,145.123303,118.384924" />
<g transform="translate(129 144) rotate(-8) scale(1 28)"><rect fill="#101617" fill-opacity="0.501961" x="-0.5" y="-0.5" width="1" height="1" /></g>
<ellipse fill="#7b7f83" fill-opacity="0.501961" cx="145" cy="147" rx="2" ry="2" />
<g transform="translate(85 49) rotate(298) scale(4 1)"><rect fill="#501000" fill-opacity="0.501961" x="-0.5" y="-0.5" width="1" height="1" /></g>
<polygon fill="#1d1e1f" fill-opacity="0.501961" points="73,125 86,121 82,138" />
<rect fill="#848487" fill-opacity="0.501961" x="108" y="171" width="5" height="11" />
<rect fill="#505c63" fill-opacity="0.501961" x="157" y="101" width="10" height="10" />
<polygon fill="#3d4950" fill-opacity="0.501961" points="111.556402,229.827566,81.350550,223.583512,80.293241,208.858493,85.521128,235.064586" />
<rect fill="#2b383b" fill-opacity="0.501961" x="142" y="223" width="1" height="9" />
<polygon fill="#455058" fill-opacity="0.501961" points="103.487743,48.697521,123.965606,66.842968,127.137035,54.312660,108.263243,17.818027" />
<polygon fill="#0c1111" fill-opacity="0.501961" points="138.690194,111.268395,100.858990,146.168339,135.445834,156.322890,118.913347,155.781676" />
<path stroke="#191f1f" stroke-opacity="0.501961" fill="none" d="M 144.217056 160.361905 Q 135.363916 158.006280, 92.830879 136.459622" stroke-width="0.500000" />
<path stroke="#111514" stroke-opacity="0.501961" fill="none" d="M 143.579106 128.100112 Q 112.686023 94.687687, 96.863646 122.170914" stroke-width="0.500000" />
<polygon fill="#49545b" fill-opacity="0.501961" points="192,234 168,232 196,244" />
<rect fill="#606a70" fill-opacity="0.501961" x="70" y="15" width="22" height="5" />
<polygon fill="#49575e" fill-opacity="0.501961" points="39.146777,122.223283,40.886326,164.969812,20.818453,182.323507,31.185346,148.167413" />
<polygon fill="#2b3437" fill-opacity="0.501961" points="137.360384,241.562050,155.417816,244.451371,140.003558,233.336044,139.024462,244.775282" />
<polygon fill="#262c31" fill-opacity="0.501961" points="146.146393,271.000000,91.458720,237.413097,87.653407,253.623828,106.259713,271.000000" />
<g transform="translate(114 174) rotate(288) scale(1 3)"><rect fill="#8b9192" fill-opacity="0.501961" x="-0.5" y="-0.5" width="1" height="1" /></g>
<rect fill="#6d777f" fill-opacity="0.501961" x="107" y="209" width="74" height="5" />
<g transform="translate(33.509498 93.545856) rotate(150.913865) scale(7.522787 3.796396)"><ellipse fill="#445054" fill-opacity="0.501961" cx="0" cy="0" rx="1" ry="1" /></g>
<polygon fill="#4c5a5f" fill-opacity="0.501961" points="3,138 4,122 -3,117" />
<ellipse fill="#0c1008" fill-opacity="0.501961" cx="102" cy="70" rx="3" ry="7" />
<polygon fill="#4f585b" fill-opacity="0.501961" points="74.943137,18.893103,77.974325,43.405747,65.033386,31.918664,65.179651,19.316372" />
<path stroke="#0a1211" stroke-opacity="0.501961" fill="none" d="M 136.395374 148.846240 Q 147.355400 135.844340, 122.352048 109.088563" stroke-width="0.500000" />
<polygon fill="#767c82" fill-opacity="0.501961" points="56,145 69,157 56,159" />
<rect fill="#321f13" fill-opacity="0.501961" x="69" y="41" width="29" height="2" />
<g transform="translate(32 204) rotate(153) scale(1 7)"><rect fill="#5e6c74" fill-opacity="0.501961" x="-0.5" y="-0.5" width="1" height="1" /></g>
<path stroke="#14120b" stroke-opacity="0.501961" fill="none" d="M 104.545475 21.964423 Q 109.020294 43.746421, 83.073435 43.830356" stroke-width="0.500000" />
<g transform="translate(76 42) rotate(208) scale(1 4)"><rect fill="#6d4c3b" fill-opacity="0.501961" x="-0.5" y="-0.5" width="1" height="1" /></g>
<polygon fill="#0d1211" fill-opacity="0.501961" points="45.106326,151.097735,80.162778,86.266674,61.421103,106.622155,47.974606,140.818313" />
<ellipse fill="#0b0e0c" fill-opacity="0.501961" cx="111" cy="86" rx="3" ry="15" />
<rect fill="#646e77" fill-opacity="0.501961" x="111" y="216" width="31" height="12" />
<polygon fill="#331609" fill-opacity="0.501961" points="80.871724,68.316519,77.254145,52.694102,74.788710,63.445692,95.170101,59.266287" />
<polygon fill="#5e3b2c" fill-opacity="0.501961" points="92.191793,45.261357,92.404121,52.619735,85.926043,62.473456,98.298011,27.072423" />
<polygon fill="#373f43" fill-opacity="0.501961" points="38.207179,65.330401,19.282914,77.976700,37.488797,76.075552,44.449585,67.095072" />
<rect fill="#53575a" fill-opacity="0.501961" x="70" y="35" width="30" height="3" />
<ellipse fill="#101616" fill-opacity="0.501961" cx="115" cy="176" rx="1" ry="1" />
<polygon fill="#7d828a" fill-opacity="0.501961" points="163.818471,193.465957,165.702075,194.061568,127.962599,164.576377,168.069246,182.036985" />
<polygon fill="#3d4246" fill-opacity="0.501961" points="174.922057,74.680182,151.113984,72.862061,165.759572,53.085349,151.704736,33.267767" />
<rect fill="#6c777b" fill-opacity="0.501961" x="85" y="178" width="10" height="10" />
<ellipse fill="#394146" fill-opacity="0.501961" cx="78" cy="231" rx="6" ry="6" />
<polygon fill="#4b565d" fill-opacity="0.501961" points="178,184 196,172 184,204" />
<g transform="translate(67.563493 199.134843) rotate(386.767563) scale(4.033843 5.738705)"><ellipse fill="#838c93" fill-opacity="0.501961" cx="0" cy="0" rx="1" ry="1" /></g>
<ellipse fill="#455057" fill-opacity="0.501961" cx="107" cy="52" rx="9" ry="13" />
<polygon fill="#151714" fill-opacity="0.501961" points="127.898753,103.375009,110.372450,69.622966,111.470003,88.713527,134.541393,112.718223" />
<rect fill="#788389" fill-opacity="0.501961" x="109" y="204" width="72" height="6" />
<polygon fill="#4a555c" fill-opacity="0.501961" points="78.920378,17.870528,92.230217,16.389555,94.530213,12.726652,75.346600,1.099313" />
<polygon fill="#414e52" fill-opacity="0.501961" points="6,181 28,166 14,196" />
<rect fill="#6f767d" fill-opacity="0.501961" x="46" y="89" width="13" height="6" />
<polygon fill="#1a211d" fill-opacity="0.501961" points="140.200132,102.083714,119.950958,90.827162,110.821089,84.530986,126.038288,98.153287" />
<g transform="translate(167.254579 16.063207) rotate(22.709302) scale(27.299449 14.275921)"><ellipse fill="#353637" fill-opacity="0.501961" cx="0" cy="0" rx="1" ry="1" /></g>
<ellipse fill="#ffdc96" fill-opacity="0.501961" cx="82" cy="49" rx="1" ry="1" />
<rect fill="#697479" fill-opacity="0.501961" x="66" y="127" width="5" height="12" />
<polygon fill="#4c5b61" fill-opacity="0.501961" points="29.195240,188.003386,46.028321,181.694534,52.068260,159.939260,46.945213,164.938451" />
<path stroke="#1a1915" stroke-opacity="0.501961" fill="none" d="M 136.241265 104.175047 Q 116.770452 97.027427, 77.301836 111.540389" stroke-width="0.500000" />
<rect fill="#6c7376" fill-opacity="0.501961" x="70" y="105" width="5" height="9" />
<ellipse fill="#9ba3a5" fill-opacity="0.501961" cx="82" cy="23" rx="1" ry="1" />
<polygon fill="#6b757a" fill-opacity="0.501961" points="57,131 66,124 53,144" />
<g transform="translate(141 126) rotate(61) scale(4 1)"><rect fill="#33393b" fill-opacity="0.501961" x="-0.5" y="-0.5" width="1" height="1" /></g>
<rect fill="#0a0c07" fill-opacity="0.501961" x="69" y="67" width="14" height="5" />
<polygon fill="#2f2117" fill-opacity="0.501961" points="101,70 83,79 92,61" />
<g transform="translate(144 139) rotate(129) scale(1 3)"><rect fill="#697576" fill-opacity="0.501961" x="-0.5" y="-0.5" width="1" height="1" /></g>
<polygon fill="#777d81" fill-opacity="0.501961" points="169,167 196,144 169,155" />
<g transform="translate(79 24) rotate(319) scale(6 1)"><rect fill="#4f5b60" fill-opacity="0.501961" x="-0.5" y="-0.5" width="1" height="1" /></g>
<polygon fill="#70797e" fill-opacity="0.501961" points="141.445187,150.456734,134.156295,149.938051,148.163617,146.098622,152.143924,155.425028" />
<polygon fill="#3d4850" fill-opacity="0.501961" points="93.786359,11.790408,128.786267,33.134408,86.002923,-13.912748,94.481831,8.844577" />
<g transform="translate(176.881750 132.407373) rotate(174.198108) scale(21.136372 8.001480)"><ellipse fill="#5e686f" fill-opacity="0.501961" cx="0" cy="0" rx="1" ry="1" /></g>
<g transform="translate(78 200) rotate(9) scale(10 9)"><rect fill="#212a2c" fill-opacity="0.501961" x="-0.5" y="-0.5" width="1" height="1" /></g>
<polygon fill="#434f55" fill-opacity="0.501961" points="36.132307,122.743925,17.587460,143.646287,32.846193,105.595014,38.816132,137.051222" />
<ellipse fill="#767978" fill-opacity="0.501961" cx="108" cy="168" rx="1" ry="1" />
<ellipse fill="#515356" fill-opacity="0.501961" cx="122" cy="185" rx="1" ry="1" />
<polygon fill="#353c3f" fill-opacity="0.501961" points="92.054968,51.152903,106.653917,54.882544,110.558493,57.318451,95.389005,53.373288" />
<rect fill="#273434" fill-opacity="0.501961" x="31" y="189" width="2" height="11" />
<path stroke="#14191a" stroke-opacity="0.501961" fill="none" d="M 105.757352 172.391455 Q 112.965459 120.824013, 155.250445 151.711580" stroke-width="0.500000" />
<ellipse fill="#c0c7c7" fill-opacity="0.501961" cx="83" cy="23" rx="1" ry="1" />
<g transform="translate(69 95) rotate(187) scale(6 21)"><rect fill="#0b0f0b" fill-opacity="0.501961" x="-0.5" y="-0.5" width="1" height="1" /></g>
<rect fill="#2c3439" fill-opacity="0.501961" x="50" y="220" width="22" height="8" />
<rect fill="#5b666d" fill-opacity="0.501961" x="61" y="51" width="9" height="7" />
<path stroke="#161d1c" stroke-opacity="0.501961" fill="none" d="M 73.172821 51.659038 Q 63.003351 86.544623, 60.945221 110.833041" stroke-width="0.500000" />
<rect fill="#0e1515" fill-opacity="0.501961" x="53" y="124" width="10" height="2" />
<path stroke="#7a8187" stroke-opacity="0.501961" fill="none" d="M 157.562204 196.800635 Q 132.459494 175.664830, 139.175054 145.366516" stroke-width="0.500000" />
<path stroke="#542310" stroke-opacity="0.501961" fill="none" d="M 85.279895 38.539291 Q 83.130302 43.996862, 83.572208 63.114701" stroke-width="0.500000" />
<g transform="translate(84 220) rotate(49) scale(8 1)"><rect fill="#636e75" fill-opacity="0.501961" x="-0.5" y="-0.5" width="1" height="1" /></g>
<rect fill="#5f6a74" fill-opacity="0.501961" x="64" y="211" width="10" height="8" />
<g transform="translate(107.552744 64.548723) rotate(57.781214) scale(1.013938 3.546131)"><ellipse fill="#2d383a" fill-opacity="0.501961" cx="0" cy="0" rx="1" ry="1" /></g>
<g transform="translate(121 86) rotate(137) scale(1 5)"><rect fill="#353f3e" fill-opacity="0.501961" x="-0.5" y="-0.5" width="1" height="1" /></g>
<g transform="translate(169 191) rotate(270) scale(5 2)"><rect fill="#434a4e" fill-opacity="0.501961" x="-0.5" y="-0.5" width="1" height="1" /></g>
<g transform="translate(41.500714 193.223570) rotate(65.949989) scale(10.244387 1.651266)"><ellipse fill="#47545b" fill-opacity="0.501961" cx="0" cy="0" rx="1" ry="1" /></g>
<rect fill="#0f1b17" fill-opacity="0.501961" x="47" y="136" width="9" height="2" />
<rect fill="#46545b" fill-opacity="0.501961" x="97" y="197" width="1" height="18" />
<rect fill="#5f6a70" fill-opacity="0.501961" x="50" y="68" width="5" height="12" />
<polygon fill="#4f5a62" fill-opacity="0.501961" points="54,32 68,66 39,46" />
<polygon fill="#35373a" fill-opacity="0.501961" points="27.846003,77.889207,14.543259,64.647364,-15.387930,110.091853,39.461078,80.658732" />
<ellipse fill="#667079" fill-opacity="0.501961" cx="143" cy="215" rx="5" ry="5" />
<rect fill="#48565c" fill-opacity="0.501961" x="0" y="169" width="15" height="12" />
<rect fill="#1c2325" fill-opacity="0.501961" x="117" y="174" width="9" height="2" />
<polygon fill="#4c575e" fill-opacity="0.501961" points="109,66 120,76 131,45" />
<rect fill="#757c81" fill-opacity="0.501961" x="63" y="143" width="7" height="22" />
<g transform="translate(15 203) rotate(192) scale(8 23)"><rect fill="#3b4147" fill-opacity="0.501961" x="-0.5" y="-0.5" width="1" height="1" /></g>
<polygon fill="#505a61" fill-opacity="0.501961" points="148,39 132,35 118,78" />
<ellipse fill="#82898f" fill-opacity="0.501961" cx="172" cy="189" rx="3" ry="3" />
<rect fill="#53200b" fill-opacity="0.501961" x="78" y="52" width="16" height="1" />
<polygon fill="#313739" fill-opacity="0.501961" points="94,52 100,56 95,48" />
<ellipse fill="#ebba79" fill-opacity="0.501961" cx="82" cy="50" rx="1" ry="1" />
<g transform="translate(94 223) rotate(371) scale(5 9)"><rect fill="#5e6971" fill-opacity="0.501961" x="-0.5" y="-0.5" width="1" height="1" /></g>
<polygon fill="#374248" fill-opacity="0.501961" points="47.759476,79.402311,28.933745,92.696146,39.956861,67.360278,32.829288,69.593233" />
<path stroke="#697073" stroke-opacity="0.501961" fill="none" d="M 105.023547 178.158470 Q 106.448516 188.782657, 126.978420 185.088360" stroke-width="0.500000" />
<polygon fill="#31383f" fill-opacity="0.501961" points="16,202 28,188 22,186" />
<g transform="translate(77 53) rotate(334) scale(1 9)"><rect fill="#4d2616" fill-opacity="0.501961" x="-0.5" y="-0.5" width="1" height="1" /></g>
<g transform="translate(100 102) rotate(-61) scale(13 14)"><rect fill="#201815" fill-opacity="0.501961" x="-0.5" y="-0.5" width="1" height="1" /></g>
<path stroke="#1a1e1f" stroke-opacity="0.501961" fill="none" d="M 88.976180 130.188705 Q 121.912927 183.109047, 130.809251 181.028022" stroke-width="0.500000" />
<rect fill="#5b686c" fill-opacity="0.501961" x="24" y="195" width="5" height="3" />
<polygon fill="#181f20" fill-opacity="0.501961" points="82.705296,173.392787,85.365801,190.581967,74.522487,154.339935,74.041460,181.209109" />
<ellipse fill="#8d9395" fill-opacity="0.501961" cx="130" cy="177" rx="4" ry="2" />
<polygon fill="#070d0d" fill-opacity="0.501961" points="133,124 105,93 141,116" />
<g transform="translate(38 171) rotate(220) scale(4 25)"><rect fill="#111b19" fill-opacity="0.501961" x="-0.5" y="-0.5" width="1" height="1" /></g>
<g transform="translate(25.077824 204.170517) rotate(223.881320) scale(4.210959 2.359035)"><ellipse fill="#556168" fill-opacity="0.501961" cx="0" cy="0" rx="1" ry="1" /></g>
<path stroke="#191d1d" stroke-opacity="0.501961" fill="none" d="M 78.347290 117.208888 Q 125.943246 159.016175, 136.907909 176.522492" stroke-width="0.500000" />
<ellipse fill="#383e44" fill-opacity="0.501961" cx="174" cy="252" rx="49" ry="2" />
<path stroke="#303b3d" stroke-opacity="0.501961" fill="none" d="M 78.966385 3.652271 Q 57.733717 16.423375, 60.919666 33.598707" stroke-width="0.500000" />
<path stroke="#323a40" stroke-opacity="0.501961" fill="none" d="M 152.560116 230.475233 Q 103.669079 271.000000, 80.972139 221.633761" stroke-width="0.500000" />
<path stroke="#3f4b4e" stroke-opacity="0.501961" fill="none" d="M 116.660729 72.872768 Q 101.048721 71.404643, 106.115980 58.625132" stroke-width="0.500000" />
</g>
</svg>